%TF.GenerationSoftware,KiCad,Pcbnew,9.0.8-9.0.8~ubuntu22.04.1*%
%TF.CreationDate,2026-03-23T17:46:09-05:00*%
%TF.ProjectId,Jetson_PD_Board,4a657473-6f6e-45f5-9044-5f426f617264,rev?*%
%TF.SameCoordinates,Original*%
%TF.FileFunction,Copper,L3,Inr*%
%TF.FilePolarity,Positive*%
%FSLAX46Y46*%
G04 Gerber Fmt 4.6, Leading zero omitted, Abs format (unit mm)*
G04 Created by KiCad (PCBNEW 9.0.8-9.0.8~ubuntu22.04.1) date 2026-03-23 17:46:09*
%MOMM*%
%LPD*%
G01*
G04 APERTURE LIST*
%TA.AperFunction,ComponentPad*%
%ADD10O,1.000000X2.100000*%
%TD*%
%TA.AperFunction,ComponentPad*%
%ADD11O,1.000000X1.800000*%
%TD*%
%TA.AperFunction,ComponentPad*%
%ADD12C,3.600000*%
%TD*%
%TA.AperFunction,ComponentPad*%
%ADD13C,2.362200*%
%TD*%
%TA.AperFunction,ViaPad*%
%ADD14C,0.600000*%
%TD*%
%TA.AperFunction,Conductor*%
%ADD15C,0.200000*%
%TD*%
G04 APERTURE END LIST*
D10*
%TO.N,GND*%
%TO.C,J3*%
X119728000Y-109482000D03*
X128368000Y-109482000D03*
D11*
X119728000Y-113662000D03*
X128368000Y-113662000D03*
%TD*%
D12*
%TO.N,GND*%
%TO.C,H8*%
X132250000Y-111685000D03*
%TD*%
%TO.N,GND*%
%TO.C,H7*%
X115000000Y-111685000D03*
%TD*%
%TO.N,GND*%
%TO.C,H5*%
X115000000Y-72500000D03*
%TD*%
D13*
%TO.N,GND*%
%TO.C,J2*%
X123596900Y-78705350D03*
%TO.N,V_{batt}*%
X123596900Y-84217150D03*
%TD*%
D12*
%TO.N,GND*%
%TO.C,H6*%
X132250000Y-72500000D03*
%TD*%
D14*
%TO.N,GND*%
X133553200Y-104622600D03*
X128637500Y-107264200D03*
X128675000Y-105750000D03*
X123431050Y-98056450D03*
X124249999Y-96723200D03*
X115265200Y-105765600D03*
X120116600Y-105750000D03*
X115000000Y-85000000D03*
X125000000Y-93325000D03*
X112500000Y-100000000D03*
X127500000Y-75000000D03*
X117500000Y-77500000D03*
X120000000Y-80000000D03*
X112500000Y-95000000D03*
X112500000Y-107500000D03*
X115000000Y-77500000D03*
X125000000Y-75000000D03*
X122500000Y-75000000D03*
X120000000Y-75000000D03*
X112500000Y-105000000D03*
X125000000Y-94325000D03*
X125000000Y-92325000D03*
X126000000Y-93325000D03*
X126000000Y-92325000D03*
X125000000Y-112500000D03*
X112500000Y-102500000D03*
X132500000Y-97500000D03*
X132500000Y-102500000D03*
X112500000Y-87500000D03*
X126000000Y-94325000D03*
X124000000Y-93325000D03*
X115000000Y-87500000D03*
X112500000Y-90000000D03*
X130000000Y-77500000D03*
X127500000Y-72500000D03*
X115000000Y-95000000D03*
X117500000Y-80000000D03*
X112500000Y-92500000D03*
X115000000Y-92500000D03*
X130000000Y-102500000D03*
X132800000Y-82677000D03*
X132150000Y-82677000D03*
X120000000Y-72500000D03*
X124000000Y-92325000D03*
X127500000Y-77500000D03*
X120000000Y-77500000D03*
X131500000Y-82677000D03*
X132500000Y-77500000D03*
X115000000Y-100000000D03*
X124000000Y-94325000D03*
X122125000Y-103000000D03*
%TO.N,/Buck_{out}*%
X121525000Y-102250000D03*
%TO.N,Net-(U1-VFB)*%
X127250000Y-91250000D03*
X126599265Y-96125735D03*
%TO.N,/Switching_Node*%
X130318506Y-92674999D03*
X129625000Y-84675000D03*
%TO.N,V5V*%
X125250000Y-87975000D03*
X125199000Y-96050000D03*
%TO.N,CC2*%
X125000000Y-110490000D03*
%TO.N,CC1*%
X124025000Y-107641531D03*
%TO.N,V_{batt}*%
X120925000Y-98650000D03*
X119261500Y-98612500D03*
%TO.N,Net-(Q1-G)*%
X130429000Y-93980000D03*
X128750000Y-83261200D03*
%TO.N,Net-(Q2-G)*%
X130556000Y-82423000D03*
X128050000Y-92675000D03*
%TO.N,Net-(D1-K)*%
X123675000Y-89800000D03*
%TO.N,Net-(U1-GATE)*%
X114825000Y-89525000D03*
X127000000Y-95250000D03*
%TO.N,/DP*%
X116350000Y-102225000D03*
%TO.N,/DN*%
X115375000Y-108075000D03*
%TD*%
D15*
%TO.N,Net-(U1-VFB)*%
X127601000Y-95498943D02*
X127601000Y-93601000D01*
X127254000Y-93254000D02*
X127254000Y-92004000D01*
X127601000Y-93601000D02*
X127254000Y-93254000D01*
X126874000Y-95851000D02*
X127248943Y-95851000D01*
X127254000Y-92004000D02*
X127250000Y-92000000D01*
X127248943Y-95851000D02*
X127601000Y-95498943D01*
X127250000Y-92000000D02*
X127250000Y-91250000D01*
X126599265Y-96125735D02*
X126874000Y-95851000D01*
%TO.N,/Switching_Node*%
X133158900Y-81451000D02*
X130674000Y-81451000D01*
X130674000Y-81451000D02*
X129600000Y-82525000D01*
X129600000Y-84650000D02*
X129625000Y-84675000D01*
X134324000Y-82616100D02*
X133158900Y-81451000D01*
X130318506Y-92674999D02*
X130318507Y-92675000D01*
X129600000Y-82525000D02*
X129600000Y-84650000D01*
X134324000Y-90901000D02*
X134324000Y-82616100D01*
X132550000Y-92675000D02*
X134324000Y-90901000D01*
X130318507Y-92675000D02*
X132550000Y-92675000D01*
%TO.N,Net-(Q1-G)*%
X132268000Y-94107000D02*
X130556000Y-94107000D01*
X128775000Y-83236200D02*
X128775000Y-82275000D01*
X128750000Y-83261200D02*
X128775000Y-83236200D01*
X134725000Y-82450000D02*
X134725000Y-91650000D01*
X133325000Y-81050000D02*
X134725000Y-82450000D01*
X134725000Y-91650000D02*
X132268000Y-94107000D01*
X128775000Y-82275000D02*
X130000000Y-81050000D01*
X130000000Y-81050000D02*
X133325000Y-81050000D01*
X130556000Y-94107000D02*
X130429000Y-93980000D01*
%TO.N,Net-(Q2-G)*%
X130556000Y-82423000D02*
X130652000Y-82423000D01*
X130652000Y-82423000D02*
X131223000Y-81852000D01*
X132992800Y-81852000D02*
X133900000Y-82759200D01*
X133900000Y-90100000D02*
X132050000Y-91950000D01*
X131223000Y-81852000D02*
X132992800Y-81852000D01*
X133900000Y-82759200D02*
X133900000Y-90100000D01*
X132050000Y-91950000D02*
X128800000Y-91950000D01*
X128800000Y-91950000D02*
X128075000Y-92675000D01*
X128075000Y-92675000D02*
X128050000Y-92675000D01*
%TO.N,Net-(U1-GATE)*%
X122800000Y-95225000D02*
X118650000Y-91075000D01*
X118650000Y-91075000D02*
X114725000Y-91075000D01*
X127000000Y-95250000D02*
X126975000Y-95225000D01*
X126975000Y-95225000D02*
X122800000Y-95225000D01*
X114725000Y-91075000D02*
X114400000Y-90750000D01*
X114400000Y-89950000D02*
X114825000Y-89525000D01*
X114400000Y-90750000D02*
X114400000Y-89950000D01*
%TD*%
%TA.AperFunction,Conductor*%
%TO.N,GND*%
G36*
X123199595Y-69470185D02*
G01*
X123245350Y-69522989D01*
X123255294Y-69592147D01*
X123226269Y-69655703D01*
X123167491Y-69693477D01*
X123164671Y-69694268D01*
X123127246Y-69704296D01*
X123025279Y-69731618D01*
X122810378Y-69820633D01*
X122810367Y-69820638D01*
X122608933Y-69936937D01*
X122608917Y-69936948D01*
X122424382Y-70078546D01*
X122424375Y-70078552D01*
X122259902Y-70243025D01*
X122259896Y-70243032D01*
X122118298Y-70427567D01*
X122118287Y-70427583D01*
X122001988Y-70629017D01*
X122001983Y-70629028D01*
X121912968Y-70843929D01*
X121852763Y-71068621D01*
X121822400Y-71299235D01*
X121822400Y-71531864D01*
X121826622Y-71563928D01*
X121852763Y-71762480D01*
X121878813Y-71859701D01*
X121912968Y-71987170D01*
X122001983Y-72202071D01*
X122001988Y-72202082D01*
X122118287Y-72403516D01*
X122118298Y-72403532D01*
X122259896Y-72588067D01*
X122259902Y-72588074D01*
X122424375Y-72752547D01*
X122424381Y-72752552D01*
X122608926Y-72894158D01*
X122608933Y-72894162D01*
X122810367Y-73010461D01*
X122810372Y-73010463D01*
X122810375Y-73010465D01*
X122917828Y-73054973D01*
X123025279Y-73099481D01*
X123025280Y-73099481D01*
X123025282Y-73099482D01*
X123249970Y-73159687D01*
X123480593Y-73190050D01*
X123480600Y-73190050D01*
X123713200Y-73190050D01*
X123713207Y-73190050D01*
X123943830Y-73159687D01*
X124168518Y-73099482D01*
X124383425Y-73010465D01*
X124584874Y-72894158D01*
X124769419Y-72752552D01*
X124933902Y-72588069D01*
X125075508Y-72403524D01*
X125191815Y-72202075D01*
X125280832Y-71987168D01*
X125341037Y-71762480D01*
X125371400Y-71531857D01*
X125371400Y-71299243D01*
X125341037Y-71068620D01*
X125280832Y-70843932D01*
X125191815Y-70629025D01*
X125191813Y-70629022D01*
X125191811Y-70629017D01*
X125075512Y-70427583D01*
X125075508Y-70427576D01*
X124933902Y-70243031D01*
X124933897Y-70243025D01*
X124769424Y-70078552D01*
X124769417Y-70078546D01*
X124584882Y-69936948D01*
X124584880Y-69936946D01*
X124584874Y-69936942D01*
X124584869Y-69936939D01*
X124584866Y-69936937D01*
X124383432Y-69820638D01*
X124383421Y-69820633D01*
X124168520Y-69731618D01*
X124078616Y-69707529D01*
X124029150Y-69694274D01*
X123969490Y-69657910D01*
X123938961Y-69595063D01*
X123947256Y-69525688D01*
X123991741Y-69471810D01*
X124058293Y-69450535D01*
X124061244Y-69450500D01*
X132210118Y-69450500D01*
X132246755Y-69450500D01*
X132253243Y-69450669D01*
X132562288Y-69466865D01*
X132575164Y-69468219D01*
X132877608Y-69516122D01*
X132890292Y-69518817D01*
X133186077Y-69598073D01*
X133198415Y-69602082D01*
X133484279Y-69711815D01*
X133496121Y-69717087D01*
X133768976Y-69856114D01*
X133780191Y-69862590D01*
X134037008Y-70029368D01*
X134047489Y-70036983D01*
X134224091Y-70179992D01*
X134285467Y-70229693D01*
X134295112Y-70238378D01*
X134511621Y-70454887D01*
X134520306Y-70464532D01*
X134713014Y-70702507D01*
X134720633Y-70712995D01*
X134887406Y-70969802D01*
X134893888Y-70981029D01*
X134938519Y-71068620D01*
X135032907Y-71253867D01*
X135038186Y-71265725D01*
X135147917Y-71551585D01*
X135151928Y-71563928D01*
X135231180Y-71859701D01*
X135233878Y-71872397D01*
X135281778Y-72174819D01*
X135283135Y-72187728D01*
X135299330Y-72496756D01*
X135299500Y-72503245D01*
X135299500Y-81875903D01*
X135279815Y-81942942D01*
X135227011Y-81988697D01*
X135157853Y-81998641D01*
X135094297Y-81969616D01*
X135087819Y-81963584D01*
X133812590Y-80688355D01*
X133812588Y-80688352D01*
X133693717Y-80569481D01*
X133693716Y-80569480D01*
X133606904Y-80519360D01*
X133606904Y-80519359D01*
X133606900Y-80519358D01*
X133556785Y-80490423D01*
X133404057Y-80449499D01*
X133245943Y-80449499D01*
X133238347Y-80449499D01*
X133238331Y-80449500D01*
X130086670Y-80449500D01*
X130086654Y-80449499D01*
X130079058Y-80449499D01*
X129920943Y-80449499D01*
X129844579Y-80469961D01*
X129768214Y-80490423D01*
X129768209Y-80490426D01*
X129631290Y-80569475D01*
X129631282Y-80569481D01*
X128294481Y-81906282D01*
X128294480Y-81906284D01*
X128257994Y-81969480D01*
X128215423Y-82043215D01*
X128174499Y-82195943D01*
X128174499Y-82195945D01*
X128174499Y-82364046D01*
X128174500Y-82364059D01*
X128174500Y-82653259D01*
X128154815Y-82720298D01*
X128138181Y-82740940D01*
X128128213Y-82750907D01*
X128128210Y-82750911D01*
X128040609Y-82882014D01*
X128040602Y-82882027D01*
X127980264Y-83027698D01*
X127980261Y-83027710D01*
X127949500Y-83182353D01*
X127949500Y-83340046D01*
X127980261Y-83494689D01*
X127980264Y-83494701D01*
X128040602Y-83640372D01*
X128040609Y-83640385D01*
X128128210Y-83771488D01*
X128128213Y-83771492D01*
X128239707Y-83882986D01*
X128239711Y-83882989D01*
X128370814Y-83970590D01*
X128370827Y-83970597D01*
X128500499Y-84024308D01*
X128516503Y-84030937D01*
X128671153Y-84061699D01*
X128671156Y-84061700D01*
X128834934Y-84061700D01*
X128834934Y-84063024D01*
X128896898Y-84074772D01*
X128947611Y-84122834D01*
X128964290Y-84190683D01*
X128943516Y-84254049D01*
X128915611Y-84295812D01*
X128915602Y-84295828D01*
X128855264Y-84441498D01*
X128855261Y-84441510D01*
X128824500Y-84596153D01*
X128824500Y-84753846D01*
X128855261Y-84908489D01*
X128855264Y-84908501D01*
X128915602Y-85054172D01*
X128915609Y-85054185D01*
X129003210Y-85185288D01*
X129003213Y-85185292D01*
X129114707Y-85296786D01*
X129114711Y-85296789D01*
X129245814Y-85384390D01*
X129245827Y-85384397D01*
X129391498Y-85444735D01*
X129391503Y-85444737D01*
X129546153Y-85475499D01*
X129546156Y-85475500D01*
X129546158Y-85475500D01*
X129703844Y-85475500D01*
X129703845Y-85475499D01*
X129858497Y-85444737D01*
X130004179Y-85384394D01*
X130135289Y-85296789D01*
X130246789Y-85185289D01*
X130334394Y-85054179D01*
X130394737Y-84908497D01*
X130425500Y-84753842D01*
X130425500Y-84596158D01*
X130425500Y-84596155D01*
X130425499Y-84596153D01*
X130394737Y-84441503D01*
X130347464Y-84327375D01*
X130334397Y-84295827D01*
X130334390Y-84295814D01*
X130246789Y-84164711D01*
X130246786Y-84164707D01*
X130236819Y-84154740D01*
X130203334Y-84093417D01*
X130200500Y-84067059D01*
X130200500Y-83319563D01*
X130220185Y-83252524D01*
X130272989Y-83206769D01*
X130342147Y-83196825D01*
X130348679Y-83197943D01*
X130393046Y-83206769D01*
X130477155Y-83223500D01*
X130477158Y-83223500D01*
X130634844Y-83223500D01*
X130634845Y-83223499D01*
X130789497Y-83192737D01*
X130935179Y-83132394D01*
X131066289Y-83044789D01*
X131177789Y-82933289D01*
X131265394Y-82802179D01*
X131325737Y-82656497D01*
X131332800Y-82620986D01*
X131341566Y-82604228D01*
X131345586Y-82585751D01*
X131364328Y-82560713D01*
X131365184Y-82559078D01*
X131366672Y-82557561D01*
X131435418Y-82488817D01*
X131496742Y-82455333D01*
X131523098Y-82452500D01*
X132692703Y-82452500D01*
X132759742Y-82472185D01*
X132780384Y-82488819D01*
X133263181Y-82971616D01*
X133296666Y-83032939D01*
X133299500Y-83059297D01*
X133299500Y-89799903D01*
X133279815Y-89866942D01*
X133263181Y-89887584D01*
X131837584Y-91313181D01*
X131776261Y-91346666D01*
X131749903Y-91349500D01*
X128886669Y-91349500D01*
X128886653Y-91349499D01*
X128879057Y-91349499D01*
X128720943Y-91349499D01*
X128568215Y-91390423D01*
X128520078Y-91418215D01*
X128520077Y-91418215D01*
X128431290Y-91469475D01*
X128431282Y-91469481D01*
X128179444Y-91721320D01*
X128118121Y-91754805D01*
X128048429Y-91749821D01*
X127992496Y-91707949D01*
X127968079Y-91642485D01*
X127977202Y-91586187D01*
X128019735Y-91483501D01*
X128019737Y-91483497D01*
X128050500Y-91328842D01*
X128050500Y-91171158D01*
X128050500Y-91171155D01*
X128050499Y-91171153D01*
X128019737Y-91016503D01*
X128019735Y-91016498D01*
X127959397Y-90870827D01*
X127959390Y-90870814D01*
X127871789Y-90739711D01*
X127871786Y-90739707D01*
X127760292Y-90628213D01*
X127760288Y-90628210D01*
X127629185Y-90540609D01*
X127629172Y-90540602D01*
X127483501Y-90480264D01*
X127483489Y-90480261D01*
X127328845Y-90449500D01*
X127328842Y-90449500D01*
X127171158Y-90449500D01*
X127171155Y-90449500D01*
X127016510Y-90480261D01*
X127016498Y-90480264D01*
X126870827Y-90540602D01*
X126870814Y-90540609D01*
X126739711Y-90628210D01*
X126739707Y-90628213D01*
X126628213Y-90739707D01*
X126628210Y-90739711D01*
X126540609Y-90870814D01*
X126540602Y-90870827D01*
X126480264Y-91016498D01*
X126480261Y-91016510D01*
X126449500Y-91171153D01*
X126449500Y-91328846D01*
X126480261Y-91483489D01*
X126480264Y-91483501D01*
X126540602Y-91629172D01*
X126540609Y-91629185D01*
X126619595Y-91747395D01*
X126621216Y-91749821D01*
X126628602Y-91760874D01*
X126634252Y-91778920D01*
X126644477Y-91794830D01*
X126648928Y-91825789D01*
X126649480Y-91827551D01*
X126649500Y-91829765D01*
X126649500Y-91913330D01*
X126649499Y-91913348D01*
X126649499Y-92079057D01*
X126650560Y-92087116D01*
X126650447Y-92087130D01*
X126653500Y-92110313D01*
X126653500Y-93167330D01*
X126653499Y-93167348D01*
X126653499Y-93333054D01*
X126653498Y-93333054D01*
X126694423Y-93485785D01*
X126706383Y-93506500D01*
X126773477Y-93622712D01*
X126773481Y-93622717D01*
X126892349Y-93741585D01*
X126892355Y-93741590D01*
X126964181Y-93813416D01*
X126997666Y-93874739D01*
X127000500Y-93901097D01*
X127000500Y-94331953D01*
X126980815Y-94398992D01*
X126928011Y-94444747D01*
X126900692Y-94453570D01*
X126766508Y-94480261D01*
X126766498Y-94480264D01*
X126620827Y-94540602D01*
X126620815Y-94540609D01*
X126526541Y-94603602D01*
X126459864Y-94624480D01*
X126457650Y-94624500D01*
X123100097Y-94624500D01*
X123033058Y-94604815D01*
X123012416Y-94588181D01*
X119137590Y-90713355D01*
X119137588Y-90713352D01*
X119018717Y-90594481D01*
X119018709Y-90594475D01*
X118925404Y-90540606D01*
X118925402Y-90540605D01*
X118881790Y-90515425D01*
X118881789Y-90515424D01*
X118859270Y-90509390D01*
X118729057Y-90474499D01*
X118570943Y-90474499D01*
X118563347Y-90474499D01*
X118563331Y-90474500D01*
X115247902Y-90474500D01*
X115180863Y-90454815D01*
X115135108Y-90402011D01*
X115125164Y-90332853D01*
X115154189Y-90269297D01*
X115200451Y-90235938D01*
X115204179Y-90234394D01*
X115335289Y-90146789D01*
X115446789Y-90035289D01*
X115534394Y-89904179D01*
X115594737Y-89758497D01*
X115597212Y-89746050D01*
X115602165Y-89721153D01*
X122874500Y-89721153D01*
X122874500Y-89878846D01*
X122905261Y-90033489D01*
X122905264Y-90033501D01*
X122965602Y-90179172D01*
X122965609Y-90179185D01*
X123053210Y-90310288D01*
X123053213Y-90310292D01*
X123164707Y-90421786D01*
X123164711Y-90421789D01*
X123295814Y-90509390D01*
X123295827Y-90509397D01*
X123371181Y-90540609D01*
X123441503Y-90569737D01*
X123565894Y-90594480D01*
X123596153Y-90600499D01*
X123596156Y-90600500D01*
X123596158Y-90600500D01*
X123753844Y-90600500D01*
X123753845Y-90600499D01*
X123908497Y-90569737D01*
X124054179Y-90509394D01*
X124185289Y-90421789D01*
X124296789Y-90310289D01*
X124384394Y-90179179D01*
X124444737Y-90033497D01*
X124475500Y-89878842D01*
X124475500Y-89721158D01*
X124475500Y-89721155D01*
X124475499Y-89721153D01*
X124452165Y-89603846D01*
X124444737Y-89566503D01*
X124444735Y-89566498D01*
X124384397Y-89420827D01*
X124384390Y-89420814D01*
X124296789Y-89289711D01*
X124296786Y-89289707D01*
X124185292Y-89178213D01*
X124185288Y-89178210D01*
X124054185Y-89090609D01*
X124054172Y-89090602D01*
X123908501Y-89030264D01*
X123908489Y-89030261D01*
X123753845Y-88999500D01*
X123753842Y-88999500D01*
X123596158Y-88999500D01*
X123596155Y-88999500D01*
X123441510Y-89030261D01*
X123441498Y-89030264D01*
X123295827Y-89090602D01*
X123295814Y-89090609D01*
X123164711Y-89178210D01*
X123164707Y-89178213D01*
X123053213Y-89289707D01*
X123053210Y-89289711D01*
X122965609Y-89420814D01*
X122965602Y-89420827D01*
X122905264Y-89566498D01*
X122905261Y-89566510D01*
X122874500Y-89721153D01*
X115602165Y-89721153D01*
X115608189Y-89690874D01*
X115608189Y-89690873D01*
X115625499Y-89603846D01*
X115625500Y-89603844D01*
X115625500Y-89446155D01*
X115625499Y-89446153D01*
X115594738Y-89291510D01*
X115594738Y-89291508D01*
X115594737Y-89291503D01*
X115593993Y-89289707D01*
X115534397Y-89145827D01*
X115534390Y-89145814D01*
X115446789Y-89014711D01*
X115446786Y-89014707D01*
X115335292Y-88903213D01*
X115335288Y-88903210D01*
X115204185Y-88815609D01*
X115204172Y-88815602D01*
X115058501Y-88755264D01*
X115058489Y-88755261D01*
X114903845Y-88724500D01*
X114903842Y-88724500D01*
X114746158Y-88724500D01*
X114746155Y-88724500D01*
X114591510Y-88755261D01*
X114591498Y-88755264D01*
X114445827Y-88815602D01*
X114445814Y-88815609D01*
X114314711Y-88903210D01*
X114314707Y-88903213D01*
X114203213Y-89014707D01*
X114203210Y-89014711D01*
X114115609Y-89145814D01*
X114115602Y-89145827D01*
X114055264Y-89291498D01*
X114055261Y-89291508D01*
X114024362Y-89446848D01*
X114019156Y-89458336D01*
X114018401Y-89467375D01*
X114007416Y-89484244D01*
X114001117Y-89498147D01*
X113996167Y-89504596D01*
X113919480Y-89581284D01*
X113869360Y-89668095D01*
X113865295Y-89675134D01*
X113865293Y-89675138D01*
X113840425Y-89718209D01*
X113840424Y-89718210D01*
X113839635Y-89721155D01*
X113799499Y-89870943D01*
X113799499Y-89870945D01*
X113799499Y-90039046D01*
X113799500Y-90039059D01*
X113799500Y-90663330D01*
X113799499Y-90663348D01*
X113799499Y-90829054D01*
X113799498Y-90829054D01*
X113799499Y-90829057D01*
X113840423Y-90981785D01*
X113860468Y-91016503D01*
X113899809Y-91084645D01*
X113919479Y-91118715D01*
X114038349Y-91237585D01*
X114038355Y-91237590D01*
X114240139Y-91439374D01*
X114240149Y-91439385D01*
X114244479Y-91443715D01*
X114244480Y-91443716D01*
X114356284Y-91555520D01*
X114356286Y-91555521D01*
X114356290Y-91555524D01*
X114400912Y-91581286D01*
X114493216Y-91634577D01*
X114605019Y-91664534D01*
X114645942Y-91675500D01*
X114645943Y-91675500D01*
X118349903Y-91675500D01*
X118416942Y-91695185D01*
X118437584Y-91711819D01*
X122315139Y-95589374D01*
X122315149Y-95589385D01*
X122319479Y-95593715D01*
X122319480Y-95593716D01*
X122431284Y-95705520D01*
X122494250Y-95741873D01*
X122568215Y-95784577D01*
X122720942Y-95825500D01*
X122720943Y-95825500D01*
X124276379Y-95825500D01*
X124343418Y-95845185D01*
X124389173Y-95897989D01*
X124398817Y-95965067D01*
X124399097Y-95965095D01*
X124398985Y-95966230D01*
X124399117Y-95967147D01*
X124398594Y-95970197D01*
X124398500Y-95971157D01*
X124398500Y-96128846D01*
X124429261Y-96283489D01*
X124429264Y-96283501D01*
X124489602Y-96429172D01*
X124489609Y-96429185D01*
X124577210Y-96560288D01*
X124577213Y-96560292D01*
X124688707Y-96671786D01*
X124688711Y-96671789D01*
X124819814Y-96759390D01*
X124819827Y-96759397D01*
X124965498Y-96819735D01*
X124965503Y-96819737D01*
X125120153Y-96850499D01*
X125120156Y-96850500D01*
X125120158Y-96850500D01*
X125277844Y-96850500D01*
X125277845Y-96850499D01*
X125432497Y-96819737D01*
X125578179Y-96759394D01*
X125709289Y-96671789D01*
X125777542Y-96603535D01*
X125838863Y-96570052D01*
X125908555Y-96575036D01*
X125964489Y-96616907D01*
X125968325Y-96622329D01*
X125977474Y-96636022D01*
X125977478Y-96636027D01*
X126088972Y-96747521D01*
X126088976Y-96747524D01*
X126220079Y-96835125D01*
X126220092Y-96835132D01*
X126365763Y-96895470D01*
X126365768Y-96895472D01*
X126520418Y-96926234D01*
X126520421Y-96926235D01*
X126520423Y-96926235D01*
X126678109Y-96926235D01*
X126678110Y-96926234D01*
X126832762Y-96895472D01*
X126978444Y-96835129D01*
X127109554Y-96747524D01*
X127221054Y-96636024D01*
X127308659Y-96504914D01*
X127308663Y-96504902D01*
X127311529Y-96499543D01*
X127313167Y-96500418D01*
X127327933Y-96482084D01*
X127346982Y-96456097D01*
X127350099Y-96454563D01*
X127351541Y-96452773D01*
X127377786Y-96438870D01*
X127383872Y-96436529D01*
X127480728Y-96410577D01*
X127530847Y-96381639D01*
X127617659Y-96331520D01*
X127729463Y-96219716D01*
X127729464Y-96219714D01*
X128081520Y-95867659D01*
X128160577Y-95730728D01*
X128201501Y-95578000D01*
X128201501Y-95419885D01*
X128201501Y-95412290D01*
X128201500Y-95412272D01*
X128201500Y-93561554D01*
X128221185Y-93494515D01*
X128273989Y-93448760D01*
X128278049Y-93446992D01*
X128283489Y-93444738D01*
X128283497Y-93444737D01*
X128429179Y-93384394D01*
X128560289Y-93296789D01*
X128671789Y-93185289D01*
X128759394Y-93054179D01*
X128819737Y-92908497D01*
X128844430Y-92784358D01*
X128853194Y-92767601D01*
X128857215Y-92749122D01*
X128875960Y-92724080D01*
X128876815Y-92722447D01*
X128878259Y-92720975D01*
X129012418Y-92586816D01*
X129073739Y-92553334D01*
X129100097Y-92550500D01*
X129394006Y-92550500D01*
X129461045Y-92570185D01*
X129506800Y-92622989D01*
X129518006Y-92674500D01*
X129518006Y-92753845D01*
X129548767Y-92908488D01*
X129548770Y-92908500D01*
X129609108Y-93054171D01*
X129609115Y-93054184D01*
X129696716Y-93185287D01*
X129696719Y-93185291D01*
X129806493Y-93295065D01*
X129839978Y-93356388D01*
X129834994Y-93426080D01*
X129810360Y-93464422D01*
X129811072Y-93465007D01*
X129807208Y-93469714D01*
X129719609Y-93600814D01*
X129719602Y-93600827D01*
X129659264Y-93746498D01*
X129659261Y-93746510D01*
X129628500Y-93901153D01*
X129628500Y-94058846D01*
X129659261Y-94213489D01*
X129659264Y-94213501D01*
X129719602Y-94359172D01*
X129719609Y-94359185D01*
X129807210Y-94490288D01*
X129807213Y-94490292D01*
X129918707Y-94601786D01*
X129918711Y-94601789D01*
X130049814Y-94689390D01*
X130049827Y-94689397D01*
X130195498Y-94749735D01*
X130195503Y-94749737D01*
X130350153Y-94780499D01*
X130350156Y-94780500D01*
X130350158Y-94780500D01*
X130507844Y-94780500D01*
X130507845Y-94780499D01*
X130584152Y-94765320D01*
X130662488Y-94749739D01*
X130662490Y-94749738D01*
X130662497Y-94749737D01*
X130741679Y-94716938D01*
X130789131Y-94707500D01*
X132181331Y-94707500D01*
X132181347Y-94707501D01*
X132188943Y-94707501D01*
X132347054Y-94707501D01*
X132347057Y-94707501D01*
X132499785Y-94666577D01*
X132572664Y-94624500D01*
X132636716Y-94587520D01*
X132748520Y-94475716D01*
X132748520Y-94475714D01*
X132758724Y-94465511D01*
X132758727Y-94465506D01*
X135087820Y-92136414D01*
X135149142Y-92102931D01*
X135218834Y-92107915D01*
X135274767Y-92149787D01*
X135299184Y-92215251D01*
X135299500Y-92224097D01*
X135299500Y-111681754D01*
X135299330Y-111688243D01*
X135283135Y-111997271D01*
X135281778Y-112010180D01*
X135233878Y-112312602D01*
X135231180Y-112325298D01*
X135151928Y-112621071D01*
X135147917Y-112633414D01*
X135038186Y-112919274D01*
X135032907Y-112931132D01*
X134893892Y-113203964D01*
X134887402Y-113215204D01*
X134720638Y-113471998D01*
X134713009Y-113482499D01*
X134520306Y-113720467D01*
X134511621Y-113730112D01*
X134295112Y-113946621D01*
X134285467Y-113955306D01*
X134047499Y-114148009D01*
X134036998Y-114155638D01*
X133780204Y-114322402D01*
X133768964Y-114328892D01*
X133496132Y-114467907D01*
X133484274Y-114473186D01*
X133198414Y-114582917D01*
X133186071Y-114586928D01*
X132890298Y-114666180D01*
X132877602Y-114668878D01*
X132575180Y-114716778D01*
X132562271Y-114718135D01*
X132253244Y-114734330D01*
X132246755Y-114734500D01*
X129353329Y-114734500D01*
X129286290Y-114714815D01*
X129240535Y-114662011D01*
X129230591Y-114592853D01*
X129250226Y-114541611D01*
X129254183Y-114535687D01*
X129254192Y-114535671D01*
X129329569Y-114353693D01*
X129329572Y-114353681D01*
X129367999Y-114160495D01*
X129368000Y-114160492D01*
X129368000Y-113912000D01*
X128668000Y-113912000D01*
X128668000Y-113412000D01*
X129368000Y-113412000D01*
X129368000Y-113163508D01*
X129367999Y-113163504D01*
X129329572Y-112970318D01*
X129329569Y-112970306D01*
X129254192Y-112788328D01*
X129254185Y-112788315D01*
X129144751Y-112624537D01*
X129144748Y-112624533D01*
X129005466Y-112485251D01*
X129005462Y-112485248D01*
X128841684Y-112375814D01*
X128841671Y-112375807D01*
X128659691Y-112300429D01*
X128659683Y-112300427D01*
X128618000Y-112292135D01*
X128618000Y-113095011D01*
X128608060Y-113077795D01*
X128552205Y-113021940D01*
X128483796Y-112982444D01*
X128407496Y-112962000D01*
X128328504Y-112962000D01*
X128252204Y-112982444D01*
X128183795Y-113021940D01*
X128127940Y-113077795D01*
X128118000Y-113095011D01*
X128118000Y-112292136D01*
X128117999Y-112292135D01*
X128076316Y-112300427D01*
X128076308Y-112300429D01*
X127894328Y-112375807D01*
X127894315Y-112375814D01*
X127730537Y-112485248D01*
X127730533Y-112485251D01*
X127591251Y-112624533D01*
X127591248Y-112624537D01*
X127481814Y-112788315D01*
X127481807Y-112788328D01*
X127406430Y-112970306D01*
X127406427Y-112970318D01*
X127368000Y-113163504D01*
X127368000Y-113412000D01*
X128068000Y-113412000D01*
X128068000Y-113912000D01*
X127368000Y-113912000D01*
X127368000Y-114160495D01*
X127406427Y-114353681D01*
X127406430Y-114353693D01*
X127481807Y-114535671D01*
X127481816Y-114535687D01*
X127485774Y-114541611D01*
X127506651Y-114608289D01*
X127488165Y-114675669D01*
X127436185Y-114722358D01*
X127382671Y-114734500D01*
X120713329Y-114734500D01*
X120646290Y-114714815D01*
X120600535Y-114662011D01*
X120590591Y-114592853D01*
X120610226Y-114541611D01*
X120614183Y-114535687D01*
X120614192Y-114535671D01*
X120689569Y-114353693D01*
X120689572Y-114353681D01*
X120727999Y-114160495D01*
X120728000Y-114160492D01*
X120728000Y-113912000D01*
X120028000Y-113912000D01*
X120028000Y-113412000D01*
X120728000Y-113412000D01*
X120728000Y-113163508D01*
X120727999Y-113163504D01*
X120689572Y-112970318D01*
X120689569Y-112970306D01*
X120614192Y-112788328D01*
X120614185Y-112788315D01*
X120504751Y-112624537D01*
X120504748Y-112624533D01*
X120365466Y-112485251D01*
X120365462Y-112485248D01*
X120201684Y-112375814D01*
X120201671Y-112375807D01*
X120019691Y-112300429D01*
X120019683Y-112300427D01*
X119978000Y-112292135D01*
X119978000Y-113095011D01*
X119968060Y-113077795D01*
X119912205Y-113021940D01*
X119843796Y-112982444D01*
X119767496Y-112962000D01*
X119688504Y-112962000D01*
X119612204Y-112982444D01*
X119543795Y-113021940D01*
X119487940Y-113077795D01*
X119478000Y-113095011D01*
X119478000Y-112292136D01*
X119477999Y-112292135D01*
X119436316Y-112300427D01*
X119436308Y-112300429D01*
X119254328Y-112375807D01*
X119254315Y-112375814D01*
X119090537Y-112485248D01*
X119090533Y-112485251D01*
X118951251Y-112624533D01*
X118951248Y-112624537D01*
X118841814Y-112788315D01*
X118841807Y-112788328D01*
X118766430Y-112970306D01*
X118766427Y-112970318D01*
X118728000Y-113163504D01*
X118728000Y-113412000D01*
X119428000Y-113412000D01*
X119428000Y-113912000D01*
X118728000Y-113912000D01*
X118728000Y-114160495D01*
X118766427Y-114353681D01*
X118766430Y-114353693D01*
X118841807Y-114535671D01*
X118841816Y-114535687D01*
X118845774Y-114541611D01*
X118866651Y-114608289D01*
X118848165Y-114675669D01*
X118796185Y-114722358D01*
X118742671Y-114734500D01*
X115003245Y-114734500D01*
X114996756Y-114734330D01*
X114687728Y-114718135D01*
X114674819Y-114716778D01*
X114372397Y-114668878D01*
X114359701Y-114666180D01*
X114063928Y-114586928D01*
X114051585Y-114582917D01*
X113765725Y-114473186D01*
X113753867Y-114467907D01*
X113737976Y-114459810D01*
X113481029Y-114328888D01*
X113469802Y-114322406D01*
X113212995Y-114155633D01*
X113202507Y-114148014D01*
X112964532Y-113955306D01*
X112954887Y-113946621D01*
X112738378Y-113730112D01*
X112729693Y-113720467D01*
X112536983Y-113482489D01*
X112529368Y-113472008D01*
X112362587Y-113215188D01*
X112356114Y-113203976D01*
X112217087Y-112931121D01*
X112211813Y-112919274D01*
X112102082Y-112633414D01*
X112098071Y-112621071D01*
X112061678Y-112485251D01*
X112018817Y-112325292D01*
X112016121Y-112312602D01*
X112014193Y-112300427D01*
X111968219Y-112010164D01*
X111966865Y-111997288D01*
X111950670Y-111688243D01*
X111950500Y-111681754D01*
X111950500Y-107996153D01*
X114574500Y-107996153D01*
X114574500Y-108153846D01*
X114605261Y-108308489D01*
X114605264Y-108308501D01*
X114665602Y-108454172D01*
X114665609Y-108454185D01*
X114753210Y-108585288D01*
X114753213Y-108585292D01*
X114864707Y-108696786D01*
X114864711Y-108696789D01*
X114995814Y-108784390D01*
X114995827Y-108784397D01*
X115141498Y-108844735D01*
X115141503Y-108844737D01*
X115296153Y-108875499D01*
X115296156Y-108875500D01*
X115296158Y-108875500D01*
X115453844Y-108875500D01*
X115453845Y-108875499D01*
X115608497Y-108844737D01*
X115635616Y-108833504D01*
X118728000Y-108833504D01*
X118728000Y-109232000D01*
X119428000Y-109232000D01*
X119428000Y-109732000D01*
X118728000Y-109732000D01*
X118728000Y-110130495D01*
X118766427Y-110323681D01*
X118766430Y-110323693D01*
X118841807Y-110505671D01*
X118841814Y-110505684D01*
X118951248Y-110669462D01*
X118951251Y-110669466D01*
X119090533Y-110808748D01*
X119090537Y-110808751D01*
X119254315Y-110918185D01*
X119254328Y-110918192D01*
X119436308Y-110993569D01*
X119478000Y-111001862D01*
X119478000Y-110198988D01*
X119487940Y-110216205D01*
X119543795Y-110272060D01*
X119612204Y-110311556D01*
X119688504Y-110332000D01*
X119767496Y-110332000D01*
X119843796Y-110311556D01*
X119912205Y-110272060D01*
X119968060Y-110216205D01*
X119978000Y-110198988D01*
X119978000Y-111001862D01*
X120019690Y-110993569D01*
X120019692Y-110993569D01*
X120201671Y-110918192D01*
X120201684Y-110918185D01*
X120365462Y-110808751D01*
X120365466Y-110808748D01*
X120504748Y-110669466D01*
X120504751Y-110669462D01*
X120614185Y-110505684D01*
X120614186Y-110505682D01*
X120618129Y-110496163D01*
X120661968Y-110441757D01*
X120728261Y-110419689D01*
X120795961Y-110436965D01*
X120801400Y-110440647D01*
X120804634Y-110442514D01*
X120804635Y-110442515D01*
X120935865Y-110518281D01*
X121082234Y-110557500D01*
X121082236Y-110557500D01*
X121233764Y-110557500D01*
X121233766Y-110557500D01*
X121380135Y-110518281D01*
X121511365Y-110442515D01*
X121542727Y-110411153D01*
X124199500Y-110411153D01*
X124199500Y-110568846D01*
X124230261Y-110723489D01*
X124230264Y-110723501D01*
X124290602Y-110869172D01*
X124290609Y-110869185D01*
X124378210Y-111000288D01*
X124378213Y-111000292D01*
X124489707Y-111111786D01*
X124489711Y-111111789D01*
X124620814Y-111199390D01*
X124620827Y-111199397D01*
X124766498Y-111259735D01*
X124766503Y-111259737D01*
X124921153Y-111290499D01*
X124921156Y-111290500D01*
X124921158Y-111290500D01*
X125078844Y-111290500D01*
X125078845Y-111290499D01*
X125233497Y-111259737D01*
X125379179Y-111199394D01*
X125510289Y-111111789D01*
X125621789Y-111000289D01*
X125709394Y-110869179D01*
X125769737Y-110723497D01*
X125800500Y-110568842D01*
X125800500Y-110411158D01*
X125800500Y-110411155D01*
X125800499Y-110411153D01*
X125785424Y-110335365D01*
X125769737Y-110256503D01*
X125748046Y-110204135D01*
X125709397Y-110110827D01*
X125709390Y-110110814D01*
X125621790Y-109979712D01*
X125621784Y-109979705D01*
X125548313Y-109906234D01*
X126362500Y-109906234D01*
X126362500Y-110057766D01*
X126381987Y-110130492D01*
X126401719Y-110204136D01*
X126431951Y-110256498D01*
X126477485Y-110335365D01*
X126584635Y-110442515D01*
X126715865Y-110518281D01*
X126862234Y-110557500D01*
X126862236Y-110557500D01*
X127013764Y-110557500D01*
X127013766Y-110557500D01*
X127160135Y-110518281D01*
X127291365Y-110442515D01*
X127291366Y-110442513D01*
X127298403Y-110438451D01*
X127299676Y-110440656D01*
X127352956Y-110420043D01*
X127421405Y-110434063D01*
X127471407Y-110482864D01*
X127477867Y-110496157D01*
X127481809Y-110505674D01*
X127481814Y-110505684D01*
X127591248Y-110669462D01*
X127591251Y-110669466D01*
X127730533Y-110808748D01*
X127730537Y-110808751D01*
X127894315Y-110918185D01*
X127894328Y-110918192D01*
X128076308Y-110993569D01*
X128118000Y-111001862D01*
X128118000Y-110198988D01*
X128127940Y-110216205D01*
X128183795Y-110272060D01*
X128252204Y-110311556D01*
X128328504Y-110332000D01*
X128407496Y-110332000D01*
X128483796Y-110311556D01*
X128552205Y-110272060D01*
X128608060Y-110216205D01*
X128618000Y-110198988D01*
X128618000Y-111001862D01*
X128659690Y-110993569D01*
X128659692Y-110993569D01*
X128841671Y-110918192D01*
X128841684Y-110918185D01*
X129005462Y-110808751D01*
X129005466Y-110808748D01*
X129144748Y-110669466D01*
X129144751Y-110669462D01*
X129254185Y-110505684D01*
X129254192Y-110505671D01*
X129329569Y-110323693D01*
X129329572Y-110323681D01*
X129367999Y-110130495D01*
X129368000Y-110130492D01*
X129368000Y-109732000D01*
X128668000Y-109732000D01*
X128668000Y-109232000D01*
X129368000Y-109232000D01*
X129368000Y-108833508D01*
X129367999Y-108833504D01*
X129329572Y-108640318D01*
X129329569Y-108640306D01*
X129254192Y-108458328D01*
X129254185Y-108458315D01*
X129144751Y-108294537D01*
X129144748Y-108294533D01*
X129005466Y-108155251D01*
X129005462Y-108155248D01*
X128841684Y-108045814D01*
X128841671Y-108045807D01*
X128659691Y-107970429D01*
X128659683Y-107970427D01*
X128618000Y-107962135D01*
X128618000Y-108765011D01*
X128608060Y-108747795D01*
X128552205Y-108691940D01*
X128483796Y-108652444D01*
X128407496Y-108632000D01*
X128328504Y-108632000D01*
X128252204Y-108652444D01*
X128183795Y-108691940D01*
X128127940Y-108747795D01*
X128118000Y-108765011D01*
X128118000Y-107962136D01*
X128117999Y-107962135D01*
X128076316Y-107970427D01*
X128076308Y-107970429D01*
X127894328Y-108045807D01*
X127894315Y-108045814D01*
X127730537Y-108155248D01*
X127730533Y-108155251D01*
X127591251Y-108294533D01*
X127591248Y-108294537D01*
X127481814Y-108458315D01*
X127481807Y-108458328D01*
X127406430Y-108640306D01*
X127406427Y-108640318D01*
X127368000Y-108833504D01*
X127368000Y-109232000D01*
X128068000Y-109232000D01*
X128068000Y-109732000D01*
X127529784Y-109732000D01*
X127462745Y-109712315D01*
X127422397Y-109670000D01*
X127398515Y-109628635D01*
X127291365Y-109521485D01*
X127225750Y-109483602D01*
X127160136Y-109445719D01*
X127086950Y-109426109D01*
X127013766Y-109406500D01*
X126862234Y-109406500D01*
X126715863Y-109445719D01*
X126584635Y-109521485D01*
X126584632Y-109521487D01*
X126477487Y-109628632D01*
X126477485Y-109628635D01*
X126401719Y-109759863D01*
X126362500Y-109906234D01*
X125548313Y-109906234D01*
X125510292Y-109868213D01*
X125510288Y-109868210D01*
X125379185Y-109780609D01*
X125379172Y-109780602D01*
X125233501Y-109720264D01*
X125233489Y-109720261D01*
X125078845Y-109689500D01*
X125078842Y-109689500D01*
X124921158Y-109689500D01*
X124921155Y-109689500D01*
X124766510Y-109720261D01*
X124766498Y-109720264D01*
X124620827Y-109780602D01*
X124620814Y-109780609D01*
X124489711Y-109868210D01*
X124489707Y-109868213D01*
X124378213Y-109979707D01*
X124378210Y-109979711D01*
X124290609Y-110110814D01*
X124290602Y-110110827D01*
X124230264Y-110256498D01*
X124230261Y-110256510D01*
X124199500Y-110411153D01*
X121542727Y-110411153D01*
X121618515Y-110335365D01*
X121694281Y-110204135D01*
X121733500Y-110057766D01*
X121733500Y-109906234D01*
X121694281Y-109759865D01*
X121618515Y-109628635D01*
X121511365Y-109521485D01*
X121445750Y-109483602D01*
X121380136Y-109445719D01*
X121306950Y-109426109D01*
X121233766Y-109406500D01*
X121082234Y-109406500D01*
X120935863Y-109445719D01*
X120804635Y-109521485D01*
X120804632Y-109521487D01*
X120697487Y-109628632D01*
X120697483Y-109628638D01*
X120673603Y-109670000D01*
X120623036Y-109718216D01*
X120566216Y-109732000D01*
X120028000Y-109732000D01*
X120028000Y-109232000D01*
X120728000Y-109232000D01*
X120728000Y-108833508D01*
X120727999Y-108833504D01*
X120689572Y-108640318D01*
X120689569Y-108640306D01*
X120614192Y-108458328D01*
X120614185Y-108458315D01*
X120504751Y-108294537D01*
X120504748Y-108294533D01*
X120365466Y-108155251D01*
X120365462Y-108155248D01*
X120201684Y-108045814D01*
X120201671Y-108045807D01*
X120019691Y-107970429D01*
X120019683Y-107970427D01*
X119978000Y-107962135D01*
X119978000Y-108765011D01*
X119968060Y-108747795D01*
X119912205Y-108691940D01*
X119843796Y-108652444D01*
X119767496Y-108632000D01*
X119688504Y-108632000D01*
X119612204Y-108652444D01*
X119543795Y-108691940D01*
X119487940Y-108747795D01*
X119478000Y-108765011D01*
X119478000Y-107962136D01*
X119477999Y-107962135D01*
X119436316Y-107970427D01*
X119436308Y-107970429D01*
X119254328Y-108045807D01*
X119254315Y-108045814D01*
X119090537Y-108155248D01*
X119090533Y-108155251D01*
X118951251Y-108294533D01*
X118951248Y-108294537D01*
X118841814Y-108458315D01*
X118841807Y-108458328D01*
X118766430Y-108640306D01*
X118766427Y-108640318D01*
X118728000Y-108833504D01*
X115635616Y-108833504D01*
X115754179Y-108784394D01*
X115754185Y-108784390D01*
X115844094Y-108724315D01*
X115858253Y-108714853D01*
X115885289Y-108696789D01*
X115996789Y-108585289D01*
X116084394Y-108454179D01*
X116144737Y-108308497D01*
X116175500Y-108153842D01*
X116175500Y-107996158D01*
X116175500Y-107996155D01*
X116175499Y-107996153D01*
X116170382Y-107970427D01*
X116144737Y-107841503D01*
X116144735Y-107841498D01*
X116084397Y-107695827D01*
X116084395Y-107695823D01*
X116084394Y-107695821D01*
X115996789Y-107564711D01*
X115996786Y-107564707D01*
X115994763Y-107562684D01*
X123224500Y-107562684D01*
X123224500Y-107720377D01*
X123255261Y-107875020D01*
X123255264Y-107875032D01*
X123315602Y-108020703D01*
X123315609Y-108020716D01*
X123403210Y-108151819D01*
X123403213Y-108151823D01*
X123514707Y-108263317D01*
X123514711Y-108263320D01*
X123645814Y-108350921D01*
X123645827Y-108350928D01*
X123791498Y-108411266D01*
X123791503Y-108411268D01*
X123946153Y-108442030D01*
X123946156Y-108442031D01*
X123946158Y-108442031D01*
X124103844Y-108442031D01*
X124103845Y-108442030D01*
X124258497Y-108411268D01*
X124404179Y-108350925D01*
X124535289Y-108263320D01*
X124646789Y-108151820D01*
X124734394Y-108020710D01*
X124794737Y-107875028D01*
X124825500Y-107720373D01*
X124825500Y-107562689D01*
X124825500Y-107562686D01*
X124825499Y-107562684D01*
X124794737Y-107408034D01*
X124752169Y-107305264D01*
X124734397Y-107262358D01*
X124734390Y-107262345D01*
X124646789Y-107131242D01*
X124646786Y-107131238D01*
X124535292Y-107019744D01*
X124535288Y-107019741D01*
X124404185Y-106932140D01*
X124404172Y-106932133D01*
X124258501Y-106871795D01*
X124258489Y-106871792D01*
X124103845Y-106841031D01*
X124103842Y-106841031D01*
X123946158Y-106841031D01*
X123946155Y-106841031D01*
X123791510Y-106871792D01*
X123791498Y-106871795D01*
X123645827Y-106932133D01*
X123645814Y-106932140D01*
X123514711Y-107019741D01*
X123514707Y-107019744D01*
X123403213Y-107131238D01*
X123403210Y-107131242D01*
X123315609Y-107262345D01*
X123315602Y-107262358D01*
X123255264Y-107408029D01*
X123255261Y-107408041D01*
X123224500Y-107562684D01*
X115994763Y-107562684D01*
X115885292Y-107453213D01*
X115885288Y-107453210D01*
X115754185Y-107365609D01*
X115754172Y-107365602D01*
X115608501Y-107305264D01*
X115608489Y-107305261D01*
X115453845Y-107274500D01*
X115453842Y-107274500D01*
X115296158Y-107274500D01*
X115296155Y-107274500D01*
X115141510Y-107305261D01*
X115141498Y-107305264D01*
X114995827Y-107365602D01*
X114995814Y-107365609D01*
X114864711Y-107453210D01*
X114864707Y-107453213D01*
X114753213Y-107564707D01*
X114753210Y-107564711D01*
X114665609Y-107695814D01*
X114665602Y-107695827D01*
X114605264Y-107841498D01*
X114605261Y-107841510D01*
X114574500Y-107996153D01*
X111950500Y-107996153D01*
X111950500Y-102146153D01*
X115549500Y-102146153D01*
X115549500Y-102303846D01*
X115580261Y-102458489D01*
X115580264Y-102458501D01*
X115640602Y-102604172D01*
X115640609Y-102604185D01*
X115728210Y-102735288D01*
X115728213Y-102735292D01*
X115839707Y-102846786D01*
X115839711Y-102846789D01*
X115970814Y-102934390D01*
X115970827Y-102934397D01*
X116116498Y-102994735D01*
X116116503Y-102994737D01*
X116242176Y-103019735D01*
X116271153Y-103025499D01*
X116271156Y-103025500D01*
X116271158Y-103025500D01*
X116428844Y-103025500D01*
X116428845Y-103025499D01*
X116583497Y-102994737D01*
X116729179Y-102934394D01*
X116860289Y-102846789D01*
X116971789Y-102735289D01*
X117059394Y-102604179D01*
X117119737Y-102458497D01*
X117150500Y-102303842D01*
X117150500Y-102171153D01*
X120724500Y-102171153D01*
X120724500Y-102328846D01*
X120755261Y-102483489D01*
X120755264Y-102483501D01*
X120815602Y-102629172D01*
X120815609Y-102629185D01*
X120903210Y-102760288D01*
X120903213Y-102760292D01*
X121014707Y-102871786D01*
X121014711Y-102871789D01*
X121145814Y-102959390D01*
X121145827Y-102959397D01*
X121291498Y-103019735D01*
X121291503Y-103019737D01*
X121446153Y-103050499D01*
X121446156Y-103050500D01*
X121446158Y-103050500D01*
X121603844Y-103050500D01*
X121603845Y-103050499D01*
X121758497Y-103019737D01*
X121904179Y-102959394D01*
X122035289Y-102871789D01*
X122146789Y-102760289D01*
X122234394Y-102629179D01*
X122294737Y-102483497D01*
X122325500Y-102328842D01*
X122325500Y-102171158D01*
X122325500Y-102171155D01*
X122325499Y-102171153D01*
X122320527Y-102146158D01*
X122294737Y-102016503D01*
X122284380Y-101991498D01*
X122234397Y-101870827D01*
X122234390Y-101870814D01*
X122146789Y-101739711D01*
X122146786Y-101739707D01*
X122035292Y-101628213D01*
X122035288Y-101628210D01*
X121904185Y-101540609D01*
X121904172Y-101540602D01*
X121758501Y-101480264D01*
X121758489Y-101480261D01*
X121603845Y-101449500D01*
X121603842Y-101449500D01*
X121446158Y-101449500D01*
X121446155Y-101449500D01*
X121291510Y-101480261D01*
X121291498Y-101480264D01*
X121145827Y-101540602D01*
X121145814Y-101540609D01*
X121014711Y-101628210D01*
X121014707Y-101628213D01*
X120903213Y-101739707D01*
X120903210Y-101739711D01*
X120815609Y-101870814D01*
X120815602Y-101870827D01*
X120755264Y-102016498D01*
X120755261Y-102016510D01*
X120724500Y-102171153D01*
X117150500Y-102171153D01*
X117150500Y-102146158D01*
X117150500Y-102146155D01*
X117150499Y-102146153D01*
X117119738Y-101991510D01*
X117119737Y-101991503D01*
X117069752Y-101870827D01*
X117059397Y-101845827D01*
X117059390Y-101845814D01*
X116971789Y-101714711D01*
X116971786Y-101714707D01*
X116860292Y-101603213D01*
X116860288Y-101603210D01*
X116729185Y-101515609D01*
X116729172Y-101515602D01*
X116583501Y-101455264D01*
X116583489Y-101455261D01*
X116428845Y-101424500D01*
X116428842Y-101424500D01*
X116271158Y-101424500D01*
X116271155Y-101424500D01*
X116116510Y-101455261D01*
X116116498Y-101455264D01*
X115970827Y-101515602D01*
X115970814Y-101515609D01*
X115839711Y-101603210D01*
X115839707Y-101603213D01*
X115728213Y-101714707D01*
X115728210Y-101714711D01*
X115640609Y-101845814D01*
X115640602Y-101845827D01*
X115580264Y-101991498D01*
X115580261Y-101991510D01*
X115549500Y-102146153D01*
X111950500Y-102146153D01*
X111950500Y-98533653D01*
X118461000Y-98533653D01*
X118461000Y-98691346D01*
X118491761Y-98845989D01*
X118491764Y-98846001D01*
X118552102Y-98991672D01*
X118552109Y-98991685D01*
X118639710Y-99122788D01*
X118639713Y-99122792D01*
X118751207Y-99234286D01*
X118751211Y-99234289D01*
X118882314Y-99321890D01*
X118882327Y-99321897D01*
X119027998Y-99382235D01*
X119028003Y-99382237D01*
X119182653Y-99412999D01*
X119182656Y-99413000D01*
X119182658Y-99413000D01*
X119340344Y-99413000D01*
X119340345Y-99412999D01*
X119494997Y-99382237D01*
X119640679Y-99321894D01*
X119771789Y-99234289D01*
X119883289Y-99122789D01*
X119970894Y-98991679D01*
X119970917Y-98991621D01*
X119970937Y-98991597D01*
X119973764Y-98986309D01*
X119974766Y-98986844D01*
X120014751Y-98937215D01*
X120081043Y-98915143D01*
X120148744Y-98932414D01*
X120196360Y-98983546D01*
X120200044Y-98991610D01*
X120215604Y-99029175D01*
X120215609Y-99029185D01*
X120303210Y-99160288D01*
X120303213Y-99160292D01*
X120414707Y-99271786D01*
X120414711Y-99271789D01*
X120545814Y-99359390D01*
X120545827Y-99359397D01*
X120675236Y-99412999D01*
X120691503Y-99419737D01*
X120846153Y-99450499D01*
X120846156Y-99450500D01*
X120846158Y-99450500D01*
X121003844Y-99450500D01*
X121003845Y-99450499D01*
X121158497Y-99419737D01*
X121304179Y-99359394D01*
X121435289Y-99271789D01*
X121546789Y-99160289D01*
X121634394Y-99029179D01*
X121694737Y-98883497D01*
X121725500Y-98728842D01*
X121725500Y-98571158D01*
X121725500Y-98571155D01*
X121725499Y-98571153D01*
X121694738Y-98416510D01*
X121694737Y-98416503D01*
X121666096Y-98347357D01*
X121634397Y-98270827D01*
X121634390Y-98270814D01*
X121546789Y-98139711D01*
X121546786Y-98139707D01*
X121435292Y-98028213D01*
X121435288Y-98028210D01*
X121304185Y-97940609D01*
X121304172Y-97940602D01*
X121158501Y-97880264D01*
X121158489Y-97880261D01*
X121003845Y-97849500D01*
X121003842Y-97849500D01*
X120846158Y-97849500D01*
X120846155Y-97849500D01*
X120691510Y-97880261D01*
X120691498Y-97880264D01*
X120545827Y-97940602D01*
X120545814Y-97940609D01*
X120414711Y-98028210D01*
X120414707Y-98028213D01*
X120303213Y-98139707D01*
X120303210Y-98139711D01*
X120215609Y-98270814D01*
X120215604Y-98270824D01*
X120215573Y-98270900D01*
X120215546Y-98270933D01*
X120212736Y-98276191D01*
X120211738Y-98275657D01*
X120171726Y-98325299D01*
X120105430Y-98347357D01*
X120037732Y-98330072D01*
X119990127Y-98278930D01*
X119986455Y-98270888D01*
X119970897Y-98233327D01*
X119970890Y-98233314D01*
X119883289Y-98102211D01*
X119883286Y-98102207D01*
X119771792Y-97990713D01*
X119771788Y-97990710D01*
X119640685Y-97903109D01*
X119640672Y-97903102D01*
X119495001Y-97842764D01*
X119494989Y-97842761D01*
X119340345Y-97812000D01*
X119340342Y-97812000D01*
X119182658Y-97812000D01*
X119182655Y-97812000D01*
X119028010Y-97842761D01*
X119027998Y-97842764D01*
X118882327Y-97903102D01*
X118882314Y-97903109D01*
X118751211Y-97990710D01*
X118751207Y-97990713D01*
X118639713Y-98102207D01*
X118639710Y-98102211D01*
X118552109Y-98233314D01*
X118552102Y-98233327D01*
X118491764Y-98378998D01*
X118491761Y-98379010D01*
X118461000Y-98533653D01*
X111950500Y-98533653D01*
X111950500Y-87896153D01*
X124449500Y-87896153D01*
X124449500Y-88053846D01*
X124480261Y-88208489D01*
X124480264Y-88208501D01*
X124540602Y-88354172D01*
X124540609Y-88354185D01*
X124628210Y-88485288D01*
X124628213Y-88485292D01*
X124739707Y-88596786D01*
X124739711Y-88596789D01*
X124870814Y-88684390D01*
X124870827Y-88684397D01*
X124967646Y-88724500D01*
X125016503Y-88744737D01*
X125171153Y-88775499D01*
X125171156Y-88775500D01*
X125171158Y-88775500D01*
X125328844Y-88775500D01*
X125328845Y-88775499D01*
X125483497Y-88744737D01*
X125629179Y-88684394D01*
X125760289Y-88596789D01*
X125871789Y-88485289D01*
X125959394Y-88354179D01*
X126019737Y-88208497D01*
X126050500Y-88053842D01*
X126050500Y-87896158D01*
X126050500Y-87896155D01*
X126050499Y-87896153D01*
X126019738Y-87741510D01*
X126019737Y-87741503D01*
X126019735Y-87741498D01*
X125959397Y-87595827D01*
X125959390Y-87595814D01*
X125871789Y-87464711D01*
X125871786Y-87464707D01*
X125760292Y-87353213D01*
X125760288Y-87353210D01*
X125629185Y-87265609D01*
X125629172Y-87265602D01*
X125483501Y-87205264D01*
X125483489Y-87205261D01*
X125328845Y-87174500D01*
X125328842Y-87174500D01*
X125171158Y-87174500D01*
X125171155Y-87174500D01*
X125016510Y-87205261D01*
X125016498Y-87205264D01*
X124870827Y-87265602D01*
X124870814Y-87265609D01*
X124739711Y-87353210D01*
X124739707Y-87353213D01*
X124628213Y-87464707D01*
X124628210Y-87464711D01*
X124540609Y-87595814D01*
X124540602Y-87595827D01*
X124480264Y-87741498D01*
X124480261Y-87741510D01*
X124449500Y-87896153D01*
X111950500Y-87896153D01*
X111950500Y-84106924D01*
X121915300Y-84106924D01*
X121915300Y-84327375D01*
X121930326Y-84441503D01*
X121944073Y-84545918D01*
X121957534Y-84596155D01*
X122001127Y-84758846D01*
X122085481Y-84962494D01*
X122085486Y-84962505D01*
X122195696Y-85153393D01*
X122195707Y-85153409D01*
X122329892Y-85328283D01*
X122329898Y-85328290D01*
X122485759Y-85484151D01*
X122485765Y-85484156D01*
X122660649Y-85618349D01*
X122660656Y-85618353D01*
X122851544Y-85728563D01*
X122851549Y-85728565D01*
X122851552Y-85728567D01*
X123055208Y-85812924D01*
X123268132Y-85869977D01*
X123486682Y-85898750D01*
X123486689Y-85898750D01*
X123707111Y-85898750D01*
X123707118Y-85898750D01*
X123925668Y-85869977D01*
X124138592Y-85812924D01*
X124342248Y-85728567D01*
X124533151Y-85618349D01*
X124708035Y-85484156D01*
X124863906Y-85328285D01*
X124998099Y-85153401D01*
X125108317Y-84962498D01*
X125192674Y-84758842D01*
X125249727Y-84545918D01*
X125278500Y-84327368D01*
X125278500Y-84106932D01*
X125249727Y-83888382D01*
X125192674Y-83675458D01*
X125108317Y-83471802D01*
X125108315Y-83471799D01*
X125108313Y-83471794D01*
X124998103Y-83280906D01*
X124998099Y-83280899D01*
X124930450Y-83192737D01*
X124863907Y-83106016D01*
X124863901Y-83106009D01*
X124708040Y-82950148D01*
X124708033Y-82950142D01*
X124533159Y-82815957D01*
X124533157Y-82815955D01*
X124533151Y-82815951D01*
X124533146Y-82815948D01*
X124533143Y-82815946D01*
X124342255Y-82705736D01*
X124342244Y-82705731D01*
X124138596Y-82621377D01*
X123925664Y-82564322D01*
X123707125Y-82535550D01*
X123707118Y-82535550D01*
X123486682Y-82535550D01*
X123486674Y-82535550D01*
X123268135Y-82564322D01*
X123055203Y-82621377D01*
X122851555Y-82705731D01*
X122851544Y-82705736D01*
X122660656Y-82815946D01*
X122660640Y-82815957D01*
X122485766Y-82950142D01*
X122485759Y-82950148D01*
X122329898Y-83106009D01*
X122329892Y-83106016D01*
X122195707Y-83280890D01*
X122195696Y-83280906D01*
X122085486Y-83471794D01*
X122085481Y-83471805D01*
X122001127Y-83675453D01*
X121944072Y-83888385D01*
X121915300Y-84106924D01*
X111950500Y-84106924D01*
X111950500Y-78595171D01*
X121915800Y-78595171D01*
X121915800Y-78815528D01*
X121915801Y-78815544D01*
X121944563Y-79034018D01*
X122001600Y-79246883D01*
X122085929Y-79450470D01*
X122085933Y-79450479D01*
X122196117Y-79641323D01*
X122244421Y-79704273D01*
X122786883Y-79161811D01*
X122876774Y-79296342D01*
X123005908Y-79425476D01*
X123140437Y-79515365D01*
X122597975Y-80057827D01*
X122660926Y-80106131D01*
X122660933Y-80106136D01*
X122851770Y-80216316D01*
X122851779Y-80216320D01*
X123055366Y-80300649D01*
X123268231Y-80357686D01*
X123486705Y-80386448D01*
X123486722Y-80386450D01*
X123707078Y-80386450D01*
X123707094Y-80386448D01*
X123925568Y-80357686D01*
X124138433Y-80300649D01*
X124342020Y-80216320D01*
X124342029Y-80216316D01*
X124532869Y-80106134D01*
X124595823Y-80057827D01*
X124595823Y-80057826D01*
X124053362Y-79515366D01*
X124187892Y-79425476D01*
X124317026Y-79296342D01*
X124406916Y-79161812D01*
X124949376Y-79704273D01*
X124949377Y-79704273D01*
X124997684Y-79641319D01*
X125107866Y-79450479D01*
X125107870Y-79450470D01*
X125192199Y-79246883D01*
X125249236Y-79034018D01*
X125277998Y-78815544D01*
X125278000Y-78815528D01*
X125278000Y-78595171D01*
X125277998Y-78595155D01*
X125249236Y-78376681D01*
X125192199Y-78163816D01*
X125107870Y-77960229D01*
X125107866Y-77960220D01*
X124997686Y-77769383D01*
X124997681Y-77769376D01*
X124949377Y-77706425D01*
X124406915Y-78248886D01*
X124317026Y-78114358D01*
X124187892Y-77985224D01*
X124053362Y-77895333D01*
X124595823Y-77352871D01*
X124532873Y-77304567D01*
X124342029Y-77194383D01*
X124342020Y-77194379D01*
X124138433Y-77110050D01*
X123925568Y-77053013D01*
X123707094Y-77024251D01*
X123707078Y-77024250D01*
X123486722Y-77024250D01*
X123486705Y-77024251D01*
X123268231Y-77053013D01*
X123055366Y-77110050D01*
X122851779Y-77194379D01*
X122851769Y-77194383D01*
X122660936Y-77304560D01*
X122660929Y-77304566D01*
X122597975Y-77352870D01*
X122597975Y-77352871D01*
X123140437Y-77895333D01*
X123005908Y-77985224D01*
X122876774Y-78114358D01*
X122786883Y-78248887D01*
X122244421Y-77706425D01*
X122244420Y-77706425D01*
X122196116Y-77769379D01*
X122196110Y-77769386D01*
X122085933Y-77960219D01*
X122085929Y-77960229D01*
X122001600Y-78163816D01*
X121944563Y-78376681D01*
X121915801Y-78595155D01*
X121915800Y-78595171D01*
X111950500Y-78595171D01*
X111950500Y-72503245D01*
X111950670Y-72496756D01*
X111952590Y-72460118D01*
X111966865Y-72187709D01*
X111968219Y-72174837D01*
X112016123Y-71872387D01*
X112018816Y-71859711D01*
X112098074Y-71563917D01*
X112102082Y-71551585D01*
X112184776Y-71336160D01*
X112211818Y-71265713D01*
X112217083Y-71253885D01*
X112356118Y-70981014D01*
X112362584Y-70969816D01*
X112529374Y-70712982D01*
X112536976Y-70702519D01*
X112729701Y-70464522D01*
X112738368Y-70454897D01*
X112954897Y-70238368D01*
X112964522Y-70229701D01*
X113202519Y-70036976D01*
X113212982Y-70029374D01*
X113469816Y-69862584D01*
X113481014Y-69856118D01*
X113753885Y-69717083D01*
X113765713Y-69711818D01*
X114051589Y-69602080D01*
X114063917Y-69598074D01*
X114359711Y-69518816D01*
X114372387Y-69516123D01*
X114674837Y-69468219D01*
X114687709Y-69466865D01*
X114996756Y-69450669D01*
X115003245Y-69450500D01*
X115039882Y-69450500D01*
X123132556Y-69450500D01*
X123199595Y-69470185D01*
G37*
%TD.AperFunction*%
%TD*%
M02*
