%TF.GenerationSoftware,KiCad,Pcbnew,9.0.8-9.0.8~ubuntu22.04.1*%
%TF.CreationDate,2026-03-23T17:46:10-05:00*%
%TF.ProjectId,Jetson_PD_Board,4a657473-6f6e-45f5-9044-5f426f617264,rev?*%
%TF.SameCoordinates,Original*%
%TF.FileFunction,Soldermask,Top*%
%TF.FilePolarity,Negative*%
%FSLAX46Y46*%
G04 Gerber Fmt 4.6, Leading zero omitted, Abs format (unit mm)*
G04 Created by KiCad (PCBNEW 9.0.8-9.0.8~ubuntu22.04.1) date 2026-03-23 17:46:10*
%MOMM*%
%LPD*%
G01*
G04 APERTURE LIST*
G04 Aperture macros list*
%AMRoundRect*
0 Rectangle with rounded corners*
0 $1 Rounding radius*
0 $2 $3 $4 $5 $6 $7 $8 $9 X,Y pos of 4 corners*
0 Add a 4 corners polygon primitive as box body*
4,1,4,$2,$3,$4,$5,$6,$7,$8,$9,$2,$3,0*
0 Add four circle primitives for the rounded corners*
1,1,$1+$1,$2,$3*
1,1,$1+$1,$4,$5*
1,1,$1+$1,$6,$7*
1,1,$1+$1,$8,$9*
0 Add four rect primitives between the rounded corners*
20,1,$1+$1,$2,$3,$4,$5,0*
20,1,$1+$1,$4,$5,$6,$7,0*
20,1,$1+$1,$6,$7,$8,$9,0*
20,1,$1+$1,$8,$9,$2,$3,0*%
G04 Aperture macros list end*
%ADD10C,0.010000*%
%ADD11C,0.650000*%
%ADD12O,1.204000X2.304000*%
%ADD13O,1.204000X2.004000*%
%ADD14RoundRect,0.237500X0.237500X-0.300000X0.237500X0.300000X-0.237500X0.300000X-0.237500X-0.300000X0*%
%ADD15RoundRect,0.102000X0.330000X0.210000X-0.330000X0.210000X-0.330000X-0.210000X0.330000X-0.210000X0*%
%ADD16C,3.600000*%
%ADD17C,5.500000*%
%ADD18RoundRect,0.102000X0.210000X-0.330000X0.210000X0.330000X-0.210000X0.330000X-0.210000X-0.330000X0*%
%ADD19RoundRect,0.237500X-0.250000X-0.237500X0.250000X-0.237500X0.250000X0.237500X-0.250000X0.237500X0*%
%ADD20RoundRect,0.237500X-0.300000X-0.237500X0.300000X-0.237500X0.300000X0.237500X-0.300000X0.237500X0*%
%ADD21RoundRect,0.112500X0.187500X0.112500X-0.187500X0.112500X-0.187500X-0.112500X0.187500X-0.112500X0*%
%ADD22RoundRect,0.250000X0.650000X-0.412500X0.650000X0.412500X-0.650000X0.412500X-0.650000X-0.412500X0*%
%ADD23RoundRect,0.250000X0.412500X0.650000X-0.412500X0.650000X-0.412500X-0.650000X0.412500X-0.650000X0*%
%ADD24RoundRect,0.218750X0.218750X0.256250X-0.218750X0.256250X-0.218750X-0.256250X0.218750X-0.256250X0*%
%ADD25C,3.048000*%
%ADD26C,2.566200*%
%ADD27RoundRect,0.102000X-1.700000X1.200000X-1.700000X-1.200000X1.700000X-1.200000X1.700000X1.200000X0*%
%ADD28RoundRect,0.250000X-0.337500X-0.475000X0.337500X-0.475000X0.337500X0.475000X-0.337500X0.475000X0*%
%ADD29R,3.708400X1.600200*%
%ADD30RoundRect,0.249999X-1.425001X0.450001X-1.425001X-0.450001X1.425001X-0.450001X1.425001X0.450001X0*%
%ADD31RoundRect,0.102000X-0.210000X0.330000X-0.210000X-0.330000X0.210000X-0.330000X0.210000X0.330000X0*%
%ADD32RoundRect,0.150000X-0.512500X-0.150000X0.512500X-0.150000X0.512500X0.150000X-0.512500X0.150000X0*%
G04 APERTURE END LIST*
D10*
%TO.C,J3*%
X121198000Y-109532000D02*
X120498000Y-109532000D01*
X120498000Y-108282000D01*
X121198000Y-108282000D01*
X121198000Y-109532000D01*
G36*
X121198000Y-109532000D02*
G01*
X120498000Y-109532000D01*
X120498000Y-108282000D01*
X121198000Y-108282000D01*
X121198000Y-109532000D01*
G37*
X121998000Y-109532000D02*
X121298000Y-109532000D01*
X121298000Y-108282000D01*
X121998000Y-108282000D01*
X121998000Y-109532000D01*
G36*
X121998000Y-109532000D02*
G01*
X121298000Y-109532000D01*
X121298000Y-108282000D01*
X121998000Y-108282000D01*
X121998000Y-109532000D01*
G37*
X122498000Y-109532000D02*
X122098000Y-109532000D01*
X122098000Y-108282000D01*
X122498000Y-108282000D01*
X122498000Y-109532000D01*
G36*
X122498000Y-109532000D02*
G01*
X122098000Y-109532000D01*
X122098000Y-108282000D01*
X122498000Y-108282000D01*
X122498000Y-109532000D01*
G37*
X122998000Y-109532000D02*
X122598000Y-109532000D01*
X122598000Y-108282000D01*
X122998000Y-108282000D01*
X122998000Y-109532000D01*
G36*
X122998000Y-109532000D02*
G01*
X122598000Y-109532000D01*
X122598000Y-108282000D01*
X122998000Y-108282000D01*
X122998000Y-109532000D01*
G37*
X123498000Y-109532000D02*
X123098000Y-109532000D01*
X123098000Y-108282000D01*
X123498000Y-108282000D01*
X123498000Y-109532000D01*
G36*
X123498000Y-109532000D02*
G01*
X123098000Y-109532000D01*
X123098000Y-108282000D01*
X123498000Y-108282000D01*
X123498000Y-109532000D01*
G37*
X123998000Y-109532000D02*
X123598000Y-109532000D01*
X123598000Y-108282000D01*
X123998000Y-108282000D01*
X123998000Y-109532000D01*
G36*
X123998000Y-109532000D02*
G01*
X123598000Y-109532000D01*
X123598000Y-108282000D01*
X123998000Y-108282000D01*
X123998000Y-109532000D01*
G37*
X124498000Y-109532000D02*
X124098000Y-109532000D01*
X124098000Y-108282000D01*
X124498000Y-108282000D01*
X124498000Y-109532000D01*
G36*
X124498000Y-109532000D02*
G01*
X124098000Y-109532000D01*
X124098000Y-108282000D01*
X124498000Y-108282000D01*
X124498000Y-109532000D01*
G37*
X124998000Y-109532000D02*
X124598000Y-109532000D01*
X124598000Y-108282000D01*
X124998000Y-108282000D01*
X124998000Y-109532000D01*
G36*
X124998000Y-109532000D02*
G01*
X124598000Y-109532000D01*
X124598000Y-108282000D01*
X124998000Y-108282000D01*
X124998000Y-109532000D01*
G37*
X125498000Y-109532000D02*
X125098000Y-109532000D01*
X125098000Y-108282000D01*
X125498000Y-108282000D01*
X125498000Y-109532000D01*
G36*
X125498000Y-109532000D02*
G01*
X125098000Y-109532000D01*
X125098000Y-108282000D01*
X125498000Y-108282000D01*
X125498000Y-109532000D01*
G37*
X125998000Y-109532000D02*
X125598000Y-109532000D01*
X125598000Y-108282000D01*
X125998000Y-108282000D01*
X125998000Y-109532000D01*
G36*
X125998000Y-109532000D02*
G01*
X125598000Y-109532000D01*
X125598000Y-108282000D01*
X125998000Y-108282000D01*
X125998000Y-109532000D01*
G37*
X126798000Y-109532000D02*
X126098000Y-109532000D01*
X126098000Y-108282000D01*
X126798000Y-108282000D01*
X126798000Y-109532000D01*
G36*
X126798000Y-109532000D02*
G01*
X126098000Y-109532000D01*
X126098000Y-108282000D01*
X126798000Y-108282000D01*
X126798000Y-109532000D01*
G37*
X127598000Y-109532000D02*
X126898000Y-109532000D01*
X126898000Y-108282000D01*
X127598000Y-108282000D01*
X127598000Y-109532000D01*
G36*
X127598000Y-109532000D02*
G01*
X126898000Y-109532000D01*
X126898000Y-108282000D01*
X127598000Y-108282000D01*
X127598000Y-109532000D01*
G37*
%TO.C,Q1*%
X127670000Y-83715000D02*
X127850000Y-83715000D01*
X127850000Y-86285000D01*
X127670000Y-86285000D01*
X127670000Y-86830000D01*
X126900000Y-86830000D01*
X126900000Y-86285000D01*
X125350000Y-86285000D01*
X125350000Y-85665000D01*
X125820000Y-85665000D01*
X125820000Y-85635000D01*
X125350000Y-85635000D01*
X125350000Y-85015000D01*
X125820000Y-85015000D01*
X125820000Y-84985000D01*
X125350000Y-84985000D01*
X125350000Y-84365000D01*
X125820000Y-84365000D01*
X125820000Y-84335000D01*
X125350000Y-84335000D01*
X125350000Y-83715000D01*
X126900000Y-83715000D01*
X126900000Y-83170000D01*
X127670000Y-83170000D01*
X127670000Y-83715000D01*
G36*
X127670000Y-83715000D02*
G01*
X127850000Y-83715000D01*
X127850000Y-86285000D01*
X127670000Y-86285000D01*
X127670000Y-86830000D01*
X126900000Y-86830000D01*
X126900000Y-86285000D01*
X125350000Y-86285000D01*
X125350000Y-85665000D01*
X125820000Y-85665000D01*
X125820000Y-85635000D01*
X125350000Y-85635000D01*
X125350000Y-85015000D01*
X125820000Y-85015000D01*
X125820000Y-84985000D01*
X125350000Y-84985000D01*
X125350000Y-84365000D01*
X125820000Y-84365000D01*
X125820000Y-84335000D01*
X125350000Y-84335000D01*
X125350000Y-83715000D01*
X126900000Y-83715000D01*
X126900000Y-83170000D01*
X127670000Y-83170000D01*
X127670000Y-83715000D01*
G37*
%TO.C,Q3*%
X120860000Y-86600000D02*
X120890000Y-86600000D01*
X120890000Y-86130000D01*
X121510000Y-86130000D01*
X121510000Y-86600000D01*
X121540000Y-86600000D01*
X121540000Y-86130000D01*
X122160000Y-86130000D01*
X122160000Y-86600000D01*
X122190000Y-86600000D01*
X122190000Y-86130000D01*
X122810000Y-86130000D01*
X122810000Y-87680000D01*
X123355000Y-87680000D01*
X123355000Y-88450000D01*
X122810000Y-88450000D01*
X122810000Y-88630000D01*
X120240000Y-88630000D01*
X120240000Y-88450000D01*
X119695000Y-88450000D01*
X119695000Y-87680000D01*
X120240000Y-87680000D01*
X120240000Y-86130000D01*
X120860000Y-86130000D01*
X120860000Y-86600000D01*
G36*
X120860000Y-86600000D02*
G01*
X120890000Y-86600000D01*
X120890000Y-86130000D01*
X121510000Y-86130000D01*
X121510000Y-86600000D01*
X121540000Y-86600000D01*
X121540000Y-86130000D01*
X122160000Y-86130000D01*
X122160000Y-86600000D01*
X122190000Y-86600000D01*
X122190000Y-86130000D01*
X122810000Y-86130000D01*
X122810000Y-87680000D01*
X123355000Y-87680000D01*
X123355000Y-88450000D01*
X122810000Y-88450000D01*
X122810000Y-88630000D01*
X120240000Y-88630000D01*
X120240000Y-88450000D01*
X119695000Y-88450000D01*
X119695000Y-87680000D01*
X120240000Y-87680000D01*
X120240000Y-86130000D01*
X120860000Y-86130000D01*
X120860000Y-86600000D01*
G37*
%TO.C,Q2*%
X133110000Y-84550000D02*
X133655000Y-84550000D01*
X133655000Y-85320000D01*
X133110000Y-85320000D01*
X133110000Y-86870000D01*
X132490000Y-86870000D01*
X132490000Y-86400000D01*
X132460000Y-86400000D01*
X132460000Y-86870000D01*
X131840000Y-86870000D01*
X131840000Y-86400000D01*
X131810000Y-86400000D01*
X131810000Y-86870000D01*
X131190000Y-86870000D01*
X131190000Y-86400000D01*
X131160000Y-86400000D01*
X131160000Y-86870000D01*
X130540000Y-86870000D01*
X130540000Y-85320000D01*
X129995000Y-85320000D01*
X129995000Y-84550000D01*
X130540000Y-84550000D01*
X130540000Y-84370000D01*
X133110000Y-84370000D01*
X133110000Y-84550000D01*
G36*
X133110000Y-84550000D02*
G01*
X133655000Y-84550000D01*
X133655000Y-85320000D01*
X133110000Y-85320000D01*
X133110000Y-86870000D01*
X132490000Y-86870000D01*
X132490000Y-86400000D01*
X132460000Y-86400000D01*
X132460000Y-86870000D01*
X131840000Y-86870000D01*
X131840000Y-86400000D01*
X131810000Y-86400000D01*
X131810000Y-86870000D01*
X131190000Y-86870000D01*
X131190000Y-86400000D01*
X131160000Y-86400000D01*
X131160000Y-86870000D01*
X130540000Y-86870000D01*
X130540000Y-85320000D01*
X129995000Y-85320000D01*
X129995000Y-84550000D01*
X130540000Y-84550000D01*
X130540000Y-84370000D01*
X133110000Y-84370000D01*
X133110000Y-84550000D01*
G37*
%TD*%
D11*
%TO.C,J3*%
X121158000Y-109982000D03*
X126938000Y-109982000D03*
D12*
X119728000Y-109482000D03*
X128368000Y-109482000D03*
D13*
X119728000Y-113662000D03*
X128368000Y-113662000D03*
%TD*%
D14*
%TO.C,C9*%
X121500000Y-106112500D03*
X121500000Y-104387500D03*
%TD*%
D15*
%TO.C,Q1*%
X128720000Y-84025000D03*
X128720000Y-85975000D03*
X128720000Y-85325000D03*
X128720000Y-84675000D03*
%TD*%
D16*
%TO.C,H8*%
X132250000Y-111685000D03*
D17*
X132250000Y-111685000D03*
%TD*%
D18*
%TO.C,Q3*%
X122500000Y-89500000D03*
X120550000Y-89500000D03*
X121200000Y-89500000D03*
X121850000Y-89500000D03*
%TD*%
D19*
%TO.C,R12*%
X128587500Y-79500000D03*
X130412500Y-79500000D03*
%TD*%
D20*
%TO.C,C10*%
X128637500Y-107250000D03*
X130362500Y-107250000D03*
%TD*%
D21*
%TO.C,D1*%
X123275000Y-91075000D03*
X121175000Y-91075000D03*
%TD*%
D19*
%TO.C,R11*%
X128675000Y-105750000D03*
X130500000Y-105750000D03*
%TD*%
D22*
%TO.C,C13*%
X118750000Y-84112500D03*
X118750000Y-80987500D03*
%TD*%
D23*
%TO.C,C12*%
X118612500Y-86400000D03*
X115487500Y-86400000D03*
%TD*%
D16*
%TO.C,H7*%
X115000000Y-111685000D03*
D17*
X115000000Y-111685000D03*
%TD*%
D24*
%TO.C,D5*%
X133537500Y-80250000D03*
X131962500Y-80250000D03*
%TD*%
D16*
%TO.C,H5*%
X115000000Y-72500000D03*
D17*
X115000000Y-72500000D03*
%TD*%
D25*
%TO.C,J2*%
X123596900Y-71415550D03*
D26*
X123596900Y-78705350D03*
X123596900Y-84217150D03*
%TD*%
D16*
%TO.C,H6*%
X132250000Y-72500000D03*
D17*
X132250000Y-72500000D03*
%TD*%
D27*
%TO.C,L1*%
X129750000Y-88900000D03*
X129750000Y-97100000D03*
%TD*%
D28*
%TO.C,C1*%
X128212500Y-100250000D03*
X130287500Y-100250000D03*
%TD*%
D29*
%TO.C,C2*%
X121204400Y-96500000D03*
X114295600Y-96500000D03*
%TD*%
D24*
%TO.C,D4*%
X133537500Y-105750000D03*
X131962500Y-105750000D03*
%TD*%
D19*
%TO.C,R1*%
X128587500Y-81000000D03*
X130412500Y-81000000D03*
%TD*%
D30*
%TO.C,R5*%
X124750000Y-100200000D03*
X124750000Y-106300000D03*
%TD*%
D31*
%TO.C,Q2*%
X130850000Y-83500000D03*
X132800000Y-83500000D03*
X132150000Y-83500000D03*
X131500000Y-83500000D03*
%TD*%
D32*
%TO.C,U2*%
X116362500Y-104800000D03*
X116362500Y-105750000D03*
X116362500Y-106700000D03*
X118637500Y-106700000D03*
X118637500Y-105750000D03*
X118637500Y-104800000D03*
%TD*%
M02*
