M48
; DRILL file {KiCad 9.0.8-9.0.8~ubuntu22.04.1} date 2026-03-31T20:11:38-0500
; FORMAT={-:-/ absolute / inch / decimal}
; #@! TF.CreationDate,2026-03-31T20:11:38-05:00
; #@! TF.GenerationSoftware,Kicad,Pcbnew,9.0.8-9.0.8~ubuntu22.04.1
; #@! TF.FileFunction,Plated,1,4,PTH
FMAT,2
INCH
; #@! TA.AperFunction,Plated,PTH,ViaDrill
T1C0.0118
; #@! TA.AperFunction,Plated,PTH,ComponentDrill
T2C0.0236
; #@! TA.AperFunction,Plated,PTH,ComponentDrill
T3C0.0730
; #@! TA.AperFunction,Plated,PTH,ComponentDrill
T4C0.1260
%
G90
G05
T1
X4.4291Y-3.4449
X4.4291Y-3.5433
X4.4291Y-3.6417
X4.4291Y-3.7402
X4.4291Y-3.937
X4.4291Y-4.0354
X4.4291Y-4.1339
X4.4291Y-4.2323
X4.5207Y-3.5246
X4.5276Y-3.0512
X4.5276Y-3.3465
X4.5276Y-3.4449
X4.5276Y-3.6417
X4.5276Y-3.7402
X4.5276Y-3.937
X4.538Y-4.164
X4.5423Y-4.2549
X4.5807Y-4.0246
X4.626Y-3.0512
X4.626Y-3.1496
X4.6953Y-3.8824
X4.7244Y-2.8543
X4.7244Y-2.9528
X4.7244Y-3.0512
X4.7244Y-3.1496
X4.7608Y-3.8839
X4.7844Y-4.0256
X4.807Y-4.351
X4.8081Y-4.0551
X4.8228Y-2.9528
X4.8691Y-3.5354
X4.8819Y-3.6348
X4.8819Y-3.6742
X4.8819Y-3.7136
X4.8829Y-4.2379
X4.9213Y-2.9528
X4.9213Y-3.6348
X4.9213Y-3.6742
X4.9213Y-3.7136
X4.9213Y-4.35
X4.9213Y-4.4291
X4.9291Y-3.7815
X4.9311Y-3.4636
X4.9606Y-3.6348
X4.9606Y-3.6742
X4.9606Y-3.7136
X4.9783Y-4.2877
X4.9842Y-3.7845
X5.0Y-3.75
X5.0098Y-3.5925
X5.0197Y-2.8543
X5.0197Y-2.9528
X5.0197Y-3.0512
X5.0413Y-3.6486
X5.0645Y-4.223
X5.0689Y-3.278
X5.1033Y-3.3337
X5.1181Y-3.0512
X5.1181Y-4.0354
X5.1306Y-3.6486
X5.135Y-3.7
X5.14Y-3.245
X5.1772Y-3.255
X5.2028Y-3.255
X5.2165Y-3.0512
X5.2165Y-3.8386
X5.2165Y-4.0354
X5.2283Y-3.255
X5.258Y-4.119
T3
X4.866Y-3.0986
X4.866Y-3.3156
T4
X4.5276Y-2.8543
X4.5276Y-4.397
X5.2067Y-2.8543
X5.2067Y-4.397
T2
G00X4.7137Y-4.2887
M15
G01X4.7137Y-4.332
M16
G05
G00X4.7137Y-4.4591
M15
G01X4.7137Y-4.4906
M16
G05
G00X5.0539Y-4.2887
M15
G01X5.0539Y-4.332
M16
G05
G00X5.0539Y-4.4591
M15
G01X5.0539Y-4.4906
M16
G05
M30
