%TF.GenerationSoftware,KiCad,Pcbnew,9.0.8-9.0.8~ubuntu22.04.1*%
%TF.CreationDate,2026-03-23T17:46:08-05:00*%
%TF.ProjectId,Jetson_PD_Board,4a657473-6f6e-45f5-9044-5f426f617264,rev?*%
%TF.SameCoordinates,Original*%
%TF.FileFunction,Copper,L1,Top*%
%TF.FilePolarity,Positive*%
%FSLAX46Y46*%
G04 Gerber Fmt 4.6, Leading zero omitted, Abs format (unit mm)*
G04 Created by KiCad (PCBNEW 9.0.8-9.0.8~ubuntu22.04.1) date 2026-03-23 17:46:08*
%MOMM*%
%LPD*%
G01*
G04 APERTURE LIST*
G04 Aperture macros list*
%AMRoundRect*
0 Rectangle with rounded corners*
0 $1 Rounding radius*
0 $2 $3 $4 $5 $6 $7 $8 $9 X,Y pos of 4 corners*
0 Add a 4 corners polygon primitive as box body*
4,1,4,$2,$3,$4,$5,$6,$7,$8,$9,$2,$3,0*
0 Add four circle primitives for the rounded corners*
1,1,$1+$1,$2,$3*
1,1,$1+$1,$4,$5*
1,1,$1+$1,$6,$7*
1,1,$1+$1,$8,$9*
0 Add four rect primitives between the rounded corners*
20,1,$1+$1,$2,$3,$4,$5,0*
20,1,$1+$1,$4,$5,$6,$7,0*
20,1,$1+$1,$6,$7,$8,$9,0*
20,1,$1+$1,$8,$9,$2,$3,0*%
%AMFreePoly0*
4,1,53,-0.381464,1.733536,-0.380000,1.730000,-0.380000,1.190000,1.165000,1.190000,1.168536,1.188536,1.170000,1.185000,1.170000,0.765000,1.168536,0.761464,1.165000,0.760000,0.700000,0.760000,0.700000,0.540000,1.165000,0.540000,1.168536,0.538536,1.170000,0.535000,1.170000,0.115000,1.168536,0.111464,1.165000,0.110000,0.700000,0.110000,0.700000,-0.110000,1.165000,-0.110000,
1.168536,-0.111464,1.170000,-0.115000,1.170000,-0.535000,1.168536,-0.538536,1.165000,-0.540000,0.700000,-0.540000,0.700000,-0.760000,1.165000,-0.760000,1.168536,-0.761464,1.170000,-0.765000,1.170000,-1.185000,1.168536,-1.188536,1.165000,-1.190000,-0.380000,-1.190000,-0.380000,-1.730000,-0.381464,-1.733536,-0.385000,-1.735000,-0.955000,-1.735000,-0.958536,-1.733536,-0.960000,-1.730000,
-0.960000,-1.190000,-1.135000,-1.190000,-1.138536,-1.188536,-1.140000,-1.185000,-1.140000,1.185000,-1.138536,1.188536,-1.135000,1.190000,-0.960000,1.190000,-0.960000,1.730000,-0.958536,1.733536,-0.955000,1.735000,-0.385000,1.735000,-0.381464,1.733536,-0.381464,1.733536,$1*%
G04 Aperture macros list end*
%TA.AperFunction,SMDPad,CuDef*%
%ADD10R,0.600000X1.150000*%
%TD*%
%TA.AperFunction,SMDPad,CuDef*%
%ADD11R,0.300000X1.150000*%
%TD*%
%TA.AperFunction,ComponentPad*%
%ADD12O,1.000000X2.100000*%
%TD*%
%TA.AperFunction,ComponentPad*%
%ADD13O,1.000000X1.800000*%
%TD*%
%TA.AperFunction,SMDPad,CuDef*%
%ADD14RoundRect,0.237500X0.237500X-0.300000X0.237500X0.300000X-0.237500X0.300000X-0.237500X-0.300000X0*%
%TD*%
%TA.AperFunction,SMDPad,CuDef*%
%ADD15FreePoly0,180.000000*%
%TD*%
%TA.AperFunction,SMDPad,CuDef*%
%ADD16R,0.660000X0.420000*%
%TD*%
%TA.AperFunction,ComponentPad*%
%ADD17C,3.600000*%
%TD*%
%TA.AperFunction,ConnectorPad*%
%ADD18C,5.500000*%
%TD*%
%TA.AperFunction,SMDPad,CuDef*%
%ADD19FreePoly0,90.000000*%
%TD*%
%TA.AperFunction,SMDPad,CuDef*%
%ADD20R,0.420000X0.660000*%
%TD*%
%TA.AperFunction,SMDPad,CuDef*%
%ADD21RoundRect,0.237500X-0.250000X-0.237500X0.250000X-0.237500X0.250000X0.237500X-0.250000X0.237500X0*%
%TD*%
%TA.AperFunction,SMDPad,CuDef*%
%ADD22RoundRect,0.237500X-0.300000X-0.237500X0.300000X-0.237500X0.300000X0.237500X-0.300000X0.237500X0*%
%TD*%
%TA.AperFunction,SMDPad,CuDef*%
%ADD23RoundRect,0.112500X0.187500X0.112500X-0.187500X0.112500X-0.187500X-0.112500X0.187500X-0.112500X0*%
%TD*%
%TA.AperFunction,SMDPad,CuDef*%
%ADD24RoundRect,0.250000X0.650000X-0.412500X0.650000X0.412500X-0.650000X0.412500X-0.650000X-0.412500X0*%
%TD*%
%TA.AperFunction,SMDPad,CuDef*%
%ADD25RoundRect,0.250000X0.412500X0.650000X-0.412500X0.650000X-0.412500X-0.650000X0.412500X-0.650000X0*%
%TD*%
%TA.AperFunction,SMDPad,CuDef*%
%ADD26RoundRect,0.218750X0.218750X0.256250X-0.218750X0.256250X-0.218750X-0.256250X0.218750X-0.256250X0*%
%TD*%
%TA.AperFunction,ComponentPad*%
%ADD27C,2.362200*%
%TD*%
%TA.AperFunction,SMDPad,CuDef*%
%ADD28R,3.400000X2.400000*%
%TD*%
%TA.AperFunction,SMDPad,CuDef*%
%ADD29RoundRect,0.250000X-0.337500X-0.475000X0.337500X-0.475000X0.337500X0.475000X-0.337500X0.475000X0*%
%TD*%
%TA.AperFunction,SMDPad,CuDef*%
%ADD30R,3.708400X1.600200*%
%TD*%
%TA.AperFunction,SMDPad,CuDef*%
%ADD31RoundRect,0.249999X-1.425001X0.450001X-1.425001X-0.450001X1.425001X-0.450001X1.425001X0.450001X0*%
%TD*%
%TA.AperFunction,SMDPad,CuDef*%
%ADD32FreePoly0,270.000000*%
%TD*%
%TA.AperFunction,SMDPad,CuDef*%
%ADD33RoundRect,0.150000X-0.512500X-0.150000X0.512500X-0.150000X0.512500X0.150000X-0.512500X0.150000X0*%
%TD*%
%TA.AperFunction,ViaPad*%
%ADD34C,0.600000*%
%TD*%
%TA.AperFunction,Conductor*%
%ADD35C,0.508000*%
%TD*%
%TA.AperFunction,Conductor*%
%ADD36C,0.200000*%
%TD*%
G04 APERTURE END LIST*
D10*
%TO.P,J3,A1_B12,GND*%
%TO.N,GND*%
X120848000Y-108907000D03*
%TO.P,J3,A4_B9,VBUS*%
X121648000Y-108907000D03*
D11*
%TO.P,J3,A5,CC1*%
%TO.N,CC1*%
X122798000Y-108907000D03*
%TO.P,J3,A6,DP1*%
%TO.N,unconnected-(J3-DP1-PadA6)*%
X123798000Y-108907000D03*
%TO.P,J3,A7,DN1*%
%TO.N,unconnected-(J3-DN1-PadA7)*%
X124298000Y-108907000D03*
%TO.P,J3,A8,SBU1*%
%TO.N,unconnected-(J3-SBU1-PadA8)*%
X125298000Y-108907000D03*
D10*
%TO.P,J3,B1_A12,GND__1*%
%TO.N,GND*%
X127248000Y-108907000D03*
%TO.P,J3,B4_A9,VBUS__1*%
X126448000Y-108907000D03*
D11*
%TO.P,J3,B5,CC2*%
%TO.N,CC2*%
X125798000Y-108907000D03*
%TO.P,J3,B6,DP2*%
%TO.N,/USB_DP*%
X124798000Y-108907000D03*
%TO.P,J3,B7,DN2*%
%TO.N,/USB_DN*%
X123298000Y-108907000D03*
%TO.P,J3,B8,SBU2*%
%TO.N,unconnected-(J3-SBU2-PadB8)*%
X122298000Y-108907000D03*
D12*
%TO.P,J3,SH1,SHELL_GND*%
%TO.N,GND*%
X119728000Y-109482000D03*
%TO.P,J3,SH2,SHELL_GND__1*%
X128368000Y-109482000D03*
D13*
%TO.P,J3,SH3,SHELL_GND__2*%
X119728000Y-113662000D03*
%TO.P,J3,SH4,SHELL_GND__3*%
X128368000Y-113662000D03*
%TD*%
D14*
%TO.P,C9,1*%
%TO.N,GND*%
X121500000Y-106112500D03*
%TO.P,C9,2*%
X121500000Y-104387500D03*
%TD*%
D15*
%TO.P,Q1,1,D*%
%TO.N,V_{batt}*%
X126615000Y-85000000D03*
D16*
%TO.P,Q1,2,G*%
%TO.N,Net-(Q1-G)*%
X128720000Y-84025000D03*
%TO.P,Q1,3,S*%
%TO.N,/Switching_Node*%
X128720000Y-85975000D03*
X128720000Y-85325000D03*
X128720000Y-84675000D03*
%TD*%
D17*
%TO.P,H8,1,1*%
%TO.N,GND*%
X132250000Y-111685000D03*
D18*
X132250000Y-111685000D03*
%TD*%
D19*
%TO.P,Q3,1,D*%
%TO.N,V_{batt}*%
X121525000Y-87395000D03*
D20*
%TO.P,Q3,2,G*%
%TO.N,Net-(D1-K)*%
X122500000Y-89500000D03*
%TO.P,Q3,3,S*%
%TO.N,/Buck_{out}*%
X120550000Y-89500000D03*
X121200000Y-89500000D03*
X121850000Y-89500000D03*
%TD*%
D21*
%TO.P,R12,1*%
%TO.N,V_{batt}*%
X128587500Y-79500000D03*
%TO.P,R12,2*%
%TO.N,Net-(D5-A)*%
X130412500Y-79500000D03*
%TD*%
D22*
%TO.P,C10,1*%
%TO.N,GND*%
X128637500Y-107250000D03*
%TO.P,C10,2*%
X130362500Y-107250000D03*
%TD*%
D23*
%TO.P,D1,1,K*%
%TO.N,Net-(D1-K)*%
X123275000Y-91075000D03*
%TO.P,D1,2,A*%
%TO.N,/Buck_{out}*%
X121175000Y-91075000D03*
%TD*%
D21*
%TO.P,R11,1*%
%TO.N,GND*%
X128675000Y-105750000D03*
%TO.P,R11,2*%
%TO.N,Net-(D4-A)*%
X130500000Y-105750000D03*
%TD*%
D24*
%TO.P,C13,1*%
%TO.N,V_{batt}*%
X118750000Y-84112500D03*
%TO.P,C13,2*%
%TO.N,GND*%
X118750000Y-80987500D03*
%TD*%
D25*
%TO.P,C12,1*%
%TO.N,V_{batt}*%
X118612500Y-86400000D03*
%TO.P,C12,2*%
%TO.N,GND*%
X115487500Y-86400000D03*
%TD*%
D17*
%TO.P,H7,1,1*%
%TO.N,GND*%
X115000000Y-111685000D03*
D18*
X115000000Y-111685000D03*
%TD*%
D26*
%TO.P,D5,1,K*%
%TO.N,GND*%
X133537500Y-80250000D03*
%TO.P,D5,2,A*%
%TO.N,Net-(D5-A)*%
X131962500Y-80250000D03*
%TD*%
D17*
%TO.P,H5,1,1*%
%TO.N,GND*%
X115000000Y-72500000D03*
D18*
X115000000Y-72500000D03*
%TD*%
D27*
%TO.P,J2,1*%
%TO.N,GND*%
X123596900Y-78705350D03*
%TO.P,J2,2*%
%TO.N,V_{batt}*%
X123596900Y-84217150D03*
%TD*%
D17*
%TO.P,H6,1,1*%
%TO.N,GND*%
X132250000Y-72500000D03*
D18*
X132250000Y-72500000D03*
%TD*%
D28*
%TO.P,L1,1,1*%
%TO.N,/Switching_Node*%
X129750000Y-88900000D03*
%TO.P,L1,2,2*%
%TO.N,/Buck_{out}*%
X129750000Y-97100000D03*
%TD*%
D29*
%TO.P,C1,1*%
%TO.N,/Buck_{out}*%
X128212500Y-100250000D03*
%TO.P,C1,2*%
%TO.N,GND*%
X130287500Y-100250000D03*
%TD*%
D30*
%TO.P,C2,1*%
%TO.N,/Buck_{out}*%
X121204400Y-96500000D03*
%TO.P,C2,2*%
%TO.N,GND*%
X114295600Y-96500000D03*
%TD*%
D26*
%TO.P,D4,1,K*%
%TO.N,GND*%
X133537500Y-105750000D03*
%TO.P,D4,2,A*%
%TO.N,Net-(D4-A)*%
X131962500Y-105750000D03*
%TD*%
D21*
%TO.P,R1,1*%
%TO.N,V_{batt}*%
X128587500Y-81000000D03*
%TO.P,R1,2*%
%TO.N,Net-(D5-A)*%
X130412500Y-81000000D03*
%TD*%
D31*
%TO.P,R5,1*%
%TO.N,/Buck_{out}*%
X124750000Y-100200000D03*
%TO.P,R5,2*%
%TO.N,GND*%
X124750000Y-106300000D03*
%TD*%
D32*
%TO.P,Q2,1,D*%
%TO.N,/Switching_Node*%
X131825000Y-85605000D03*
D20*
%TO.P,Q2,2,G*%
%TO.N,Net-(Q2-G)*%
X130850000Y-83500000D03*
%TO.P,Q2,3,S*%
%TO.N,GND*%
X132800000Y-83500000D03*
X132150000Y-83500000D03*
X131500000Y-83500000D03*
%TD*%
D33*
%TO.P,U2,1,I/O1*%
%TO.N,/DP*%
X116362500Y-104800000D03*
%TO.P,U2,2,GND*%
%TO.N,GND*%
X116362500Y-105750000D03*
%TO.P,U2,3,I/O2*%
%TO.N,/DN*%
X116362500Y-106700000D03*
%TO.P,U2,4,I/O2*%
%TO.N,/USB_DN*%
X118637500Y-106700000D03*
%TO.P,U2,5,VBUS*%
%TO.N,GND*%
X118637500Y-105750000D03*
%TO.P,U2,6,I/O1*%
%TO.N,/USB_DP*%
X118637500Y-104800000D03*
%TD*%
D34*
%TO.N,GND*%
X133553200Y-104622600D03*
X128637500Y-107264200D03*
X128675000Y-105750000D03*
X123431050Y-98056450D03*
X124249999Y-96723200D03*
X115265200Y-105765600D03*
X120116600Y-105750000D03*
X115000000Y-85000000D03*
X125000000Y-93325000D03*
X112500000Y-100000000D03*
X127500000Y-75000000D03*
X117500000Y-77500000D03*
X120000000Y-80000000D03*
X112500000Y-95000000D03*
X112500000Y-107500000D03*
X115000000Y-77500000D03*
X125000000Y-75000000D03*
X122500000Y-75000000D03*
X120000000Y-75000000D03*
X112500000Y-105000000D03*
X125000000Y-94325000D03*
X125000000Y-92325000D03*
X126000000Y-93325000D03*
X126000000Y-92325000D03*
X125000000Y-112500000D03*
X112500000Y-102500000D03*
X132500000Y-97500000D03*
X132500000Y-102500000D03*
X112500000Y-87500000D03*
X126000000Y-94325000D03*
X124000000Y-93325000D03*
X115000000Y-87500000D03*
X112500000Y-90000000D03*
X130000000Y-77500000D03*
X127500000Y-72500000D03*
X115000000Y-95000000D03*
X117500000Y-80000000D03*
X112500000Y-92500000D03*
X115000000Y-92500000D03*
X130000000Y-102500000D03*
X132800000Y-82677000D03*
X132150000Y-82677000D03*
X120000000Y-72500000D03*
X124000000Y-92325000D03*
X127500000Y-77500000D03*
X120000000Y-77500000D03*
X131500000Y-82677000D03*
X132500000Y-77500000D03*
X115000000Y-100000000D03*
X124000000Y-94325000D03*
X122125000Y-103000000D03*
%TO.N,/Buck_{out}*%
X121525000Y-102250000D03*
%TO.N,Net-(U1-VFB)*%
X127250000Y-91250000D03*
X126599265Y-96125735D03*
%TO.N,/Switching_Node*%
X130318506Y-92674999D03*
X129625000Y-84675000D03*
%TO.N,V5V*%
X125250000Y-87975000D03*
X125199000Y-96050000D03*
%TO.N,CC2*%
X125000000Y-110490000D03*
%TO.N,CC1*%
X124025000Y-107641531D03*
%TO.N,V_{batt}*%
X120925000Y-98650000D03*
X119261500Y-98612500D03*
%TO.N,Net-(Q1-G)*%
X130429000Y-93980000D03*
X128750000Y-83261200D03*
%TO.N,Net-(Q2-G)*%
X130556000Y-82423000D03*
X128050000Y-92675000D03*
%TO.N,Net-(D1-K)*%
X123675000Y-89800000D03*
%TO.N,Net-(U1-GATE)*%
X114825000Y-89525000D03*
X127000000Y-95250000D03*
%TO.N,/DP*%
X116350000Y-102225000D03*
%TO.N,/DN*%
X115375000Y-108075000D03*
%TD*%
D35*
%TO.N,GND*%
X128637500Y-107264200D02*
X128637500Y-107403100D01*
X128637500Y-107403100D02*
X129717800Y-108483400D01*
X128637500Y-107250000D02*
X128637500Y-107264200D01*
D36*
X120116600Y-105750000D02*
X121137500Y-105750000D01*
D35*
X128027200Y-107250000D02*
X127584200Y-106807000D01*
X128637500Y-107250000D02*
X128027200Y-107250000D01*
X128637500Y-107250000D02*
X128637500Y-105787500D01*
X128637500Y-105787500D02*
X128675000Y-105750000D01*
X120848000Y-108907000D02*
X121648000Y-108907000D01*
X120848000Y-108907000D02*
X120303000Y-108907000D01*
X120303000Y-108907000D02*
X119728000Y-109482000D01*
X127248000Y-108907000D02*
X127793000Y-108907000D01*
X127793000Y-108907000D02*
X128368000Y-109482000D01*
X126448000Y-108907000D02*
X127248000Y-108907000D01*
D36*
%TO.N,/USB_DN*%
X118637500Y-106700000D02*
X118637500Y-107312500D01*
X118637500Y-107312500D02*
X118300000Y-107650000D01*
X118300000Y-107650000D02*
X118300000Y-109966874D01*
X118300000Y-109966874D02*
X119194744Y-110861618D01*
X119194744Y-110861618D02*
X120579816Y-110861618D01*
X120579816Y-110861618D02*
X121343198Y-111625000D01*
X121343198Y-111625000D02*
X122931802Y-111625000D01*
X122931802Y-111625000D02*
X123298000Y-111258802D01*
X123298000Y-111258802D02*
X123298000Y-108907000D01*
%TO.N,/USB_DP*%
X118637500Y-104800000D02*
X118125000Y-104800000D01*
X118125000Y-104800000D02*
X117500000Y-105425000D01*
X120365901Y-111313598D02*
X121127303Y-112075000D01*
X121127303Y-112075000D02*
X123118198Y-112075000D01*
X123118198Y-112075000D02*
X124000000Y-111193198D01*
X117500000Y-105425000D02*
X117500000Y-107275000D01*
X117500000Y-107275000D02*
X117900000Y-107675000D01*
X117900000Y-107675000D02*
X117900000Y-110206070D01*
X124000000Y-111193198D02*
X124000000Y-110530000D01*
X117900000Y-110206070D02*
X119007528Y-111313598D01*
X119007528Y-111313598D02*
X120365901Y-111313598D01*
X124000000Y-110530000D02*
X124798000Y-109732000D01*
X124798000Y-109732000D02*
X124798000Y-108907000D01*
%TO.N,CC2*%
X125000000Y-110490000D02*
X125798000Y-109692000D01*
X125798000Y-109692000D02*
X125798000Y-108907000D01*
%TO.N,CC1*%
X124025000Y-107641531D02*
X123314624Y-107641531D01*
X123314624Y-107641531D02*
X122798000Y-108158155D01*
X122798000Y-108158155D02*
X122798000Y-108768029D01*
%TO.N,GND*%
X121137500Y-105750000D02*
X121500000Y-106112500D01*
X124200000Y-103000000D02*
X124750000Y-103550000D01*
X122125000Y-103000000D02*
X124200000Y-103000000D01*
X124750000Y-103550000D02*
X124750000Y-106300000D01*
X118637500Y-105750000D02*
X120116600Y-105750000D01*
%TO.N,/Buck_{out}*%
X124175000Y-102225000D02*
X124750000Y-101650000D01*
X124750000Y-101650000D02*
X124750000Y-100200000D01*
X121525000Y-102250000D02*
X121550000Y-102225000D01*
X121550000Y-102225000D02*
X124175000Y-102225000D01*
%TO.N,V_{batt}*%
X118612500Y-97963500D02*
X118612500Y-86400000D01*
X120925000Y-98650000D02*
X120887500Y-98612500D01*
X119261500Y-98612500D02*
X118612500Y-97963500D01*
X120887500Y-98612500D02*
X119261500Y-98612500D01*
%TO.N,Net-(Q1-G)*%
X128750000Y-83261200D02*
X128750000Y-83995000D01*
X128750000Y-83995000D02*
X128720000Y-84025000D01*
%TO.N,Net-(Q2-G)*%
X130683000Y-82550000D02*
X130683000Y-83333000D01*
X130556000Y-82423000D02*
X130683000Y-82550000D01*
X130683000Y-83333000D02*
X130850000Y-83500000D01*
%TO.N,Net-(D1-K)*%
X123375000Y-89500000D02*
X123675000Y-89800000D01*
X123275000Y-90275000D02*
X122500000Y-89500000D01*
X122500000Y-89500000D02*
X123375000Y-89500000D01*
X123275000Y-91075000D02*
X123275000Y-90275000D01*
%TO.N,Net-(D4-A)*%
X131962500Y-105750000D02*
X130500000Y-105750000D01*
%TO.N,Net-(D5-A)*%
X131325000Y-80250000D02*
X131962500Y-80250000D01*
X130412500Y-79500000D02*
X130575000Y-79500000D01*
X130412500Y-81000000D02*
X130575000Y-81000000D01*
X130575000Y-81000000D02*
X131325000Y-80250000D01*
X130575000Y-79500000D02*
X131325000Y-80250000D01*
%TO.N,/DP*%
X116350000Y-104787500D02*
X116362500Y-104800000D01*
X116350000Y-102225000D02*
X116350000Y-104787500D01*
%TO.N,/DN*%
X116362500Y-107512500D02*
X116362500Y-106700000D01*
X115800000Y-108075000D02*
X116362500Y-107512500D01*
X115375000Y-108075000D02*
X115800000Y-108075000D01*
%TD*%
%TA.AperFunction,Conductor*%
%TO.N,/Buck_{out}*%
G36*
X120787383Y-89175710D02*
G01*
X120800857Y-89177158D01*
X120807687Y-89177893D01*
X120807714Y-89177894D01*
X120809339Y-89178069D01*
X120809350Y-89178071D01*
X120831297Y-89180430D01*
X120843139Y-89179794D01*
X120861747Y-89180792D01*
X120861748Y-89180792D01*
X120888255Y-89180792D01*
X120893165Y-89180528D01*
X120942286Y-89177896D01*
X120962620Y-89175710D01*
X120975873Y-89175000D01*
X121424133Y-89175000D01*
X121437383Y-89175710D01*
X121451036Y-89177177D01*
X121457687Y-89177893D01*
X121457692Y-89177893D01*
X121459324Y-89178069D01*
X121459350Y-89178071D01*
X121481297Y-89180430D01*
X121493139Y-89179794D01*
X121511747Y-89180792D01*
X121511748Y-89180792D01*
X121538255Y-89180792D01*
X121543165Y-89180528D01*
X121592286Y-89177896D01*
X121612620Y-89175710D01*
X121625873Y-89175000D01*
X122015500Y-89175000D01*
X122082539Y-89194685D01*
X122128294Y-89247489D01*
X122139500Y-89299000D01*
X122139500Y-89844820D01*
X122139500Y-89844822D01*
X122139499Y-89844822D01*
X122148231Y-89888717D01*
X122148232Y-89888721D01*
X122148233Y-89888722D01*
X122181496Y-89938504D01*
X122231278Y-89971767D01*
X122231281Y-89971767D01*
X122231282Y-89971768D01*
X122275177Y-89980500D01*
X122275180Y-89980500D01*
X122441803Y-89980500D01*
X122508842Y-90000185D01*
X122554597Y-90052989D01*
X122565800Y-90103575D01*
X122595100Y-94029619D01*
X124159327Y-95207977D01*
X124159328Y-95207977D01*
X124159329Y-95207978D01*
X126379397Y-95220204D01*
X126402852Y-95227232D01*
X126427178Y-95230066D01*
X126435728Y-95237082D01*
X126446324Y-95240257D01*
X126462259Y-95258853D01*
X126481190Y-95274388D01*
X126487657Y-95288493D01*
X126491787Y-95293312D01*
X126496708Y-95306088D01*
X126499500Y-95314731D01*
X126499500Y-95315892D01*
X126533608Y-95443186D01*
X126550369Y-95472217D01*
X126554410Y-95484727D01*
X126555009Y-95507047D01*
X126560272Y-95528743D01*
X126555928Y-95541292D01*
X126556285Y-95554571D01*
X126544720Y-95573673D01*
X126537419Y-95594770D01*
X126526979Y-95602978D01*
X126520101Y-95614342D01*
X126500045Y-95624159D01*
X126482497Y-95637959D01*
X126468512Y-95642614D01*
X126406079Y-95659343D01*
X126406077Y-95659343D01*
X126406077Y-95659344D01*
X126291951Y-95725235D01*
X126291948Y-95725237D01*
X126198767Y-95818418D01*
X126198765Y-95818421D01*
X126132873Y-95932547D01*
X126098765Y-96059843D01*
X126098765Y-96191626D01*
X126132873Y-96318922D01*
X126155039Y-96357314D01*
X126198765Y-96433049D01*
X126291951Y-96526235D01*
X126406079Y-96592127D01*
X126533373Y-96626235D01*
X126533375Y-96626235D01*
X126665155Y-96626235D01*
X126665157Y-96626235D01*
X126792451Y-96592127D01*
X126906579Y-96526235D01*
X126999765Y-96433049D01*
X127065657Y-96318921D01*
X127099765Y-96191627D01*
X127099765Y-96059843D01*
X127065657Y-95932549D01*
X127065655Y-95932545D01*
X127055464Y-95914893D01*
X127038991Y-95846993D01*
X127061844Y-95780966D01*
X127116765Y-95737775D01*
X127130741Y-95733123D01*
X127193186Y-95716392D01*
X127307314Y-95650500D01*
X127400500Y-95557314D01*
X127466392Y-95443186D01*
X127499683Y-95318939D01*
X127536047Y-95259281D01*
X127598893Y-95228752D01*
X127620125Y-95227038D01*
X130937230Y-95245306D01*
X130950649Y-95246111D01*
X131126727Y-95266311D01*
X131152965Y-95272260D01*
X131314101Y-95327754D01*
X131338443Y-95339225D01*
X131483817Y-95428177D01*
X131505109Y-95444628D01*
X131627863Y-95562840D01*
X131645107Y-95583499D01*
X131743231Y-95731068D01*
X131750070Y-95742675D01*
X131772252Y-95785484D01*
X131884465Y-96002036D01*
X131890482Y-96015571D01*
X131966339Y-96217987D01*
X131973340Y-96246716D01*
X131999115Y-96461331D01*
X132000000Y-96476117D01*
X132000000Y-97422185D01*
X131999500Y-97429815D01*
X131999500Y-97570186D01*
X132000000Y-97577816D01*
X132000000Y-97923815D01*
X131999451Y-97935469D01*
X131983434Y-98105135D01*
X131979072Y-98128031D01*
X131933222Y-98286068D01*
X131924653Y-98307743D01*
X131850040Y-98454409D01*
X131837568Y-98474094D01*
X131799826Y-98522841D01*
X131733236Y-98608844D01*
X131725668Y-98617721D01*
X131669592Y-98677557D01*
X131660466Y-98686349D01*
X131520816Y-98807746D01*
X131500122Y-98822313D01*
X131344304Y-98909705D01*
X131321081Y-98919768D01*
X131150761Y-98973703D01*
X131125981Y-98978842D01*
X130962390Y-98995624D01*
X130941904Y-98997726D01*
X130929251Y-98998373D01*
X129934558Y-98998373D01*
X129456434Y-99476497D01*
X129456434Y-100512714D01*
X129455373Y-100528900D01*
X129432070Y-100705895D01*
X129423692Y-100737162D01*
X129358510Y-100894525D01*
X129342325Y-100922558D01*
X129238525Y-101057834D01*
X129215928Y-101080499D01*
X129080238Y-101185260D01*
X129052931Y-101201242D01*
X128894984Y-101268322D01*
X128864522Y-101276874D01*
X128686809Y-101302962D01*
X128671010Y-101304257D01*
X123825127Y-101390682D01*
X123812681Y-101390279D01*
X123631423Y-101375266D01*
X123606963Y-101370736D01*
X123438374Y-101321603D01*
X123415313Y-101312283D01*
X123259916Y-101230486D01*
X123239179Y-101216750D01*
X123098390Y-101101618D01*
X123089157Y-101093261D01*
X122928004Y-100931930D01*
X122919843Y-100922916D01*
X122919549Y-100922558D01*
X122877602Y-100871394D01*
X122807238Y-100785572D01*
X122793751Y-100765369D01*
X122761987Y-100705895D01*
X122712961Y-100614097D01*
X122703677Y-100591666D01*
X122653926Y-100427537D01*
X122649193Y-100403725D01*
X122631796Y-100226962D01*
X122631200Y-100214817D01*
X122631200Y-98805999D01*
X122631199Y-98805998D01*
X122115810Y-98148373D01*
X122115809Y-98148373D01*
X121698047Y-98148373D01*
X120276741Y-98148373D01*
X120264587Y-98147776D01*
X120087712Y-98130355D01*
X120063871Y-98125613D01*
X119983035Y-98101092D01*
X119899648Y-98075797D01*
X119877190Y-98066494D01*
X119735124Y-97990558D01*
X122930550Y-97990558D01*
X122930550Y-98122342D01*
X122932697Y-98130355D01*
X122964658Y-98249637D01*
X122985692Y-98286068D01*
X123030550Y-98363764D01*
X123123736Y-98456950D01*
X123237864Y-98522842D01*
X123365158Y-98556950D01*
X123365160Y-98556950D01*
X123496940Y-98556950D01*
X123496942Y-98556950D01*
X123624236Y-98522842D01*
X123738364Y-98456950D01*
X123831550Y-98363764D01*
X123897442Y-98249636D01*
X123931550Y-98122342D01*
X123931550Y-97990558D01*
X123897442Y-97863264D01*
X123831550Y-97749136D01*
X123738364Y-97655950D01*
X123681300Y-97623004D01*
X123624237Y-97590058D01*
X123534046Y-97565892D01*
X123496942Y-97555950D01*
X123365158Y-97555950D01*
X123237862Y-97590058D01*
X123123736Y-97655950D01*
X123123733Y-97655952D01*
X123030552Y-97749133D01*
X123030550Y-97749136D01*
X122964658Y-97863262D01*
X122945311Y-97935469D01*
X122930550Y-97990558D01*
X119735124Y-97990558D01*
X119725848Y-97985600D01*
X119705636Y-97972095D01*
X119568247Y-97859342D01*
X119559231Y-97851170D01*
X119503636Y-97795575D01*
X119495464Y-97786559D01*
X119382711Y-97649170D01*
X119369206Y-97628958D01*
X119337792Y-97570186D01*
X119288311Y-97477613D01*
X119279009Y-97455158D01*
X119229191Y-97290929D01*
X119224452Y-97267101D01*
X119207031Y-97090220D01*
X119206434Y-97078066D01*
X119206434Y-96657308D01*
X123749499Y-96657308D01*
X123749499Y-96789091D01*
X123783607Y-96916387D01*
X123816553Y-96973450D01*
X123849499Y-97030514D01*
X123942685Y-97123700D01*
X124056813Y-97189592D01*
X124184107Y-97223700D01*
X124184109Y-97223700D01*
X124315889Y-97223700D01*
X124315891Y-97223700D01*
X124443185Y-97189592D01*
X124557313Y-97123700D01*
X124650499Y-97030514D01*
X124716391Y-96916386D01*
X124750499Y-96789092D01*
X124750499Y-96657308D01*
X124736584Y-96605376D01*
X124738247Y-96535532D01*
X124777409Y-96477669D01*
X124841637Y-96450164D01*
X124910539Y-96461750D01*
X124918359Y-96465900D01*
X125005810Y-96516390D01*
X125005811Y-96516390D01*
X125005814Y-96516392D01*
X125133108Y-96550500D01*
X125133110Y-96550500D01*
X125264890Y-96550500D01*
X125264892Y-96550500D01*
X125392186Y-96516392D01*
X125506314Y-96450500D01*
X125599500Y-96357314D01*
X125665392Y-96243186D01*
X125699500Y-96115892D01*
X125699500Y-95984108D01*
X125665392Y-95856814D01*
X125599500Y-95742686D01*
X125506314Y-95649500D01*
X125425736Y-95602978D01*
X125392187Y-95583608D01*
X125314678Y-95562840D01*
X125264892Y-95549500D01*
X125133108Y-95549500D01*
X125005812Y-95583608D01*
X124891686Y-95649500D01*
X124891683Y-95649502D01*
X124798502Y-95742683D01*
X124798500Y-95742686D01*
X124732608Y-95856812D01*
X124698500Y-95984108D01*
X124698500Y-96115891D01*
X124712414Y-96167819D01*
X124710751Y-96237669D01*
X124671588Y-96295531D01*
X124607360Y-96323035D01*
X124538458Y-96311448D01*
X124530639Y-96307299D01*
X124443188Y-96256809D01*
X124443185Y-96256808D01*
X124315891Y-96222700D01*
X124184107Y-96222700D01*
X124056811Y-96256808D01*
X123942685Y-96322700D01*
X123942682Y-96322702D01*
X123849501Y-96415883D01*
X123849499Y-96415886D01*
X123783607Y-96530012D01*
X123749499Y-96657308D01*
X119206434Y-96657308D01*
X119206434Y-95944682D01*
X119208817Y-95920491D01*
X119230860Y-95809674D01*
X119249371Y-95764981D01*
X119305235Y-95681374D01*
X119339435Y-95647174D01*
X119423042Y-95591310D01*
X119467733Y-95572799D01*
X119578553Y-95550756D01*
X119602744Y-95548373D01*
X119937683Y-95548373D01*
X119937684Y-95548373D01*
X120021429Y-95464001D01*
X120021430Y-95464001D01*
X120021430Y-95463998D01*
X120045450Y-95439799D01*
X120045450Y-95439798D01*
X120105175Y-95379628D01*
X120104195Y-95248373D01*
X120062441Y-89653420D01*
X120062952Y-89641233D01*
X120075500Y-89503986D01*
X120080108Y-89480008D01*
X120117564Y-89353782D01*
X120126776Y-89331184D01*
X120138710Y-89308580D01*
X120187416Y-89258490D01*
X120205037Y-89250292D01*
X120208782Y-89248896D01*
X120208787Y-89248894D01*
X120316333Y-89190168D01*
X120375761Y-89175000D01*
X120774133Y-89175000D01*
X120787383Y-89175710D01*
G37*
%TD.AperFunction*%
%TD*%
%TA.AperFunction,Conductor*%
%TO.N,GND*%
G36*
X133125000Y-82550000D02*
G01*
X133125000Y-83975000D01*
X131175000Y-83975000D01*
X131175526Y-83927993D01*
X131201767Y-83888722D01*
X131210500Y-83844820D01*
X131210500Y-83155180D01*
X131210500Y-83155177D01*
X131201768Y-83111282D01*
X131201767Y-83111281D01*
X131201767Y-83111278D01*
X131184980Y-83086154D01*
X131191000Y-82550000D01*
X131350000Y-82271000D01*
X132950000Y-82271000D01*
X133125000Y-82550000D01*
G37*
%TD.AperFunction*%
%TD*%
%TA.AperFunction,Conductor*%
%TO.N,V_{batt}*%
G36*
X127540226Y-79020969D02*
G01*
X127590935Y-79069035D01*
X127607607Y-79136887D01*
X127607089Y-79143953D01*
X127600000Y-79213340D01*
X127600000Y-79250000D01*
X128463500Y-79250000D01*
X128530539Y-79269685D01*
X128576294Y-79322489D01*
X128587500Y-79374000D01*
X128587500Y-79500000D01*
X128713500Y-79500000D01*
X128780539Y-79519685D01*
X128826294Y-79572489D01*
X128837500Y-79624000D01*
X128837500Y-80474999D01*
X128886640Y-80474999D01*
X128886654Y-80474998D01*
X128987652Y-80464680D01*
X129109996Y-80424140D01*
X129179824Y-80421738D01*
X129239866Y-80457470D01*
X129271059Y-80519990D01*
X129273000Y-80541846D01*
X129273000Y-81790615D01*
X129271473Y-81810014D01*
X129256513Y-81904464D01*
X129244525Y-81941359D01*
X129205593Y-82017768D01*
X129182789Y-82049155D01*
X129122155Y-82109789D01*
X129090768Y-82132593D01*
X129014359Y-82171525D01*
X128977464Y-82183513D01*
X128903796Y-82195181D01*
X128883012Y-82198473D01*
X128863615Y-82200000D01*
X128473740Y-82200000D01*
X128262499Y-82287500D01*
X128065624Y-82484375D01*
X128000000Y-82642805D01*
X128000000Y-82955389D01*
X127990562Y-83002836D01*
X127980263Y-83027703D01*
X127980262Y-83027707D01*
X127980261Y-83027710D01*
X127980260Y-83027711D01*
X127949500Y-83182353D01*
X127949500Y-83340046D01*
X127980261Y-83494689D01*
X127980263Y-83494697D01*
X127990561Y-83519558D01*
X128000000Y-83567011D01*
X128000000Y-83889172D01*
X127980315Y-83956211D01*
X127943040Y-83993487D01*
X127841462Y-84058767D01*
X127841451Y-84058776D01*
X127788659Y-84104520D01*
X127694433Y-84213261D01*
X127694430Y-84213265D01*
X127634664Y-84344131D01*
X127614976Y-84411179D01*
X127594500Y-84553598D01*
X127594500Y-86786339D01*
X127590550Y-86799788D01*
X127591426Y-86813778D01*
X127580901Y-86832649D01*
X127574815Y-86853378D01*
X127563539Y-86863782D01*
X127557395Y-86874800D01*
X127528953Y-86895697D01*
X127393456Y-86968121D01*
X127370998Y-86977424D01*
X127206775Y-87027240D01*
X127182934Y-87031982D01*
X127006061Y-87049403D01*
X126993907Y-87050000D01*
X124242176Y-87050000D01*
X123978124Y-87159375D01*
X123978123Y-87159376D01*
X123732032Y-87405466D01*
X123732031Y-87405469D01*
X123691017Y-87504484D01*
X123691015Y-87504489D01*
X123690728Y-87505183D01*
X123690701Y-87505248D01*
X123650000Y-87603506D01*
X123650000Y-88193628D01*
X123648939Y-88209813D01*
X123631746Y-88340405D01*
X123623368Y-88371674D01*
X123576096Y-88485796D01*
X123559912Y-88513827D01*
X123484717Y-88611825D01*
X123461825Y-88634717D01*
X123363827Y-88709912D01*
X123335796Y-88726096D01*
X123221674Y-88773368D01*
X123190406Y-88781745D01*
X123059812Y-88798939D01*
X123043629Y-88800000D01*
X122442182Y-88800000D01*
X122375143Y-88780315D01*
X122367871Y-88775267D01*
X122302331Y-88726204D01*
X122302328Y-88726202D01*
X122167486Y-88675910D01*
X122167485Y-88675909D01*
X122167483Y-88675909D01*
X122107873Y-88669500D01*
X122107863Y-88669500D01*
X121592129Y-88669500D01*
X121592123Y-88669501D01*
X121538253Y-88675292D01*
X121511747Y-88675292D01*
X121496723Y-88673676D01*
X121457873Y-88669500D01*
X121457866Y-88669500D01*
X120942129Y-88669500D01*
X120942123Y-88669501D01*
X120888253Y-88675292D01*
X120861747Y-88675292D01*
X120846723Y-88673676D01*
X120807873Y-88669500D01*
X120807866Y-88669500D01*
X120292129Y-88669500D01*
X120292123Y-88669501D01*
X120232516Y-88675908D01*
X120097671Y-88726202D01*
X120097668Y-88726204D01*
X120032129Y-88775267D01*
X119966664Y-88799684D01*
X119957818Y-88800000D01*
X119457103Y-88800000D01*
X119437706Y-88798473D01*
X119421804Y-88795954D01*
X119359410Y-88786072D01*
X119322514Y-88774084D01*
X119260679Y-88742578D01*
X119229292Y-88719774D01*
X119180225Y-88670707D01*
X119157421Y-88639320D01*
X119125915Y-88577485D01*
X119113927Y-88540588D01*
X119101527Y-88462294D01*
X119100000Y-88442897D01*
X119100000Y-88105308D01*
X119099999Y-88105305D01*
X119034376Y-87946876D01*
X118886719Y-87799219D01*
X118767896Y-87750000D01*
X118767894Y-87750000D01*
X118703586Y-87750000D01*
X118117073Y-87750000D01*
X118100888Y-87748939D01*
X118082160Y-87746473D01*
X117954584Y-87729677D01*
X117923317Y-87721299D01*
X117794555Y-87667964D01*
X117766522Y-87651779D01*
X117655954Y-87566938D01*
X117633064Y-87544048D01*
X117548219Y-87433476D01*
X117532034Y-87405442D01*
X117478700Y-87276681D01*
X117470322Y-87245414D01*
X117451061Y-87099112D01*
X117450000Y-87082927D01*
X117450000Y-83856092D01*
X117450597Y-83843938D01*
X117468018Y-83667056D01*
X117472757Y-83643232D01*
X117522577Y-83478994D01*
X117531875Y-83456549D01*
X117612775Y-83305195D01*
X117626272Y-83284995D01*
X117735149Y-83152328D01*
X117752328Y-83135149D01*
X117884995Y-83026272D01*
X117905195Y-83012775D01*
X118056549Y-82931875D01*
X118078994Y-82922577D01*
X118243232Y-82872757D01*
X118267056Y-82868018D01*
X118443939Y-82850597D01*
X118456093Y-82850000D01*
X120797250Y-82850000D01*
X120904000Y-82743250D01*
X120904000Y-82572358D01*
X120906313Y-82548522D01*
X120909719Y-82531134D01*
X120927705Y-82486984D01*
X120929415Y-82484376D01*
X120930490Y-82482735D01*
X120939748Y-82473314D01*
X120941923Y-82469128D01*
X120946366Y-82466580D01*
X120964406Y-82448224D01*
X120967818Y-82445901D01*
X121013086Y-82426852D01*
X121020835Y-82425289D01*
X121029148Y-82423614D01*
X121053704Y-82421168D01*
X125342684Y-82422997D01*
X125348999Y-82423000D01*
X125348999Y-82422999D01*
X125349000Y-82423000D01*
X126746000Y-81026000D01*
X126746000Y-79867302D01*
X126746597Y-79855149D01*
X126753343Y-79786654D01*
X127600001Y-79786654D01*
X127610319Y-79887652D01*
X127664546Y-80051300D01*
X127664551Y-80051311D01*
X127755052Y-80198034D01*
X127755055Y-80198038D01*
X127876961Y-80319944D01*
X127876965Y-80319947D01*
X128023688Y-80410448D01*
X128023699Y-80410453D01*
X128187347Y-80464680D01*
X128288351Y-80474999D01*
X128337499Y-80474998D01*
X128337500Y-80474998D01*
X128337500Y-79750000D01*
X127600001Y-79750000D01*
X127600001Y-79786654D01*
X126753343Y-79786654D01*
X126756953Y-79750000D01*
X126761466Y-79704174D01*
X126766207Y-79680342D01*
X126808469Y-79541020D01*
X126817765Y-79518579D01*
X126886396Y-79390179D01*
X126899898Y-79369974D01*
X126943485Y-79316863D01*
X126992256Y-79257435D01*
X127009435Y-79240256D01*
X127121975Y-79147896D01*
X127142179Y-79134396D01*
X127270579Y-79065765D01*
X127293020Y-79056469D01*
X127432348Y-79014205D01*
X127456178Y-79009466D01*
X127471580Y-79007949D01*
X127540226Y-79020969D01*
G37*
%TD.AperFunction*%
%TD*%
%TA.AperFunction,Conductor*%
%TO.N,/Switching_Node*%
G36*
X130724156Y-84219685D02*
G01*
X130761432Y-84256960D01*
X130792967Y-84306030D01*
X130792971Y-84306034D01*
X130885667Y-84386356D01*
X130901706Y-84400254D01*
X130942174Y-84418735D01*
X131032580Y-84460023D01*
X131032583Y-84460023D01*
X131032584Y-84460024D01*
X131175000Y-84480500D01*
X131175003Y-84480500D01*
X133125000Y-84480500D01*
X133196940Y-84475355D01*
X133334992Y-84434819D01*
X133456032Y-84357031D01*
X133550254Y-84248294D01*
X133550254Y-84248292D01*
X133555015Y-84242799D01*
X133555017Y-84242797D01*
X133613795Y-84205023D01*
X133648730Y-84200000D01*
X133726000Y-84200000D01*
X133793039Y-84219685D01*
X133838794Y-84272489D01*
X133850000Y-84324000D01*
X133850000Y-85426000D01*
X133830315Y-85493039D01*
X133777511Y-85538794D01*
X133726000Y-85550000D01*
X133437499Y-85550000D01*
X133300000Y-85687499D01*
X133300000Y-86976000D01*
X133280315Y-87043039D01*
X133227511Y-87088794D01*
X133176000Y-87100000D01*
X132206064Y-87100000D01*
X132024999Y-87175000D01*
X131800000Y-87399999D01*
X131700000Y-87641418D01*
X131700000Y-90276000D01*
X131680315Y-90343039D01*
X131627511Y-90388794D01*
X131576000Y-90400000D01*
X127874000Y-90400000D01*
X127806961Y-90380315D01*
X127761206Y-90327511D01*
X127750000Y-90276000D01*
X127750000Y-87524000D01*
X127769685Y-87456961D01*
X127822489Y-87411206D01*
X127874000Y-87400000D01*
X127989296Y-87400000D01*
X127989298Y-87400000D01*
X128028906Y-87383594D01*
X128078125Y-87334375D01*
X128100000Y-87281564D01*
X128100000Y-84553597D01*
X128119685Y-84486558D01*
X128172489Y-84440803D01*
X128241647Y-84430859D01*
X128305203Y-84459884D01*
X128311681Y-84465916D01*
X128351284Y-84505519D01*
X128488215Y-84584577D01*
X128640943Y-84625501D01*
X128640946Y-84625501D01*
X128799054Y-84625501D01*
X128799057Y-84625501D01*
X128951785Y-84584577D01*
X129088716Y-84505519D01*
X129108504Y-84485730D01*
X129108506Y-84485729D01*
X129118714Y-84475520D01*
X129118716Y-84475520D01*
X129157918Y-84436318D01*
X129187363Y-84420240D01*
X129219240Y-84402834D01*
X129245598Y-84400000D01*
X129300000Y-84400000D01*
X129350000Y-84350000D01*
X129350000Y-84324000D01*
X129369685Y-84256961D01*
X129422489Y-84211206D01*
X129474000Y-84200000D01*
X130657117Y-84200000D01*
X130724156Y-84219685D01*
G37*
%TD.AperFunction*%
%TD*%
%TA.AperFunction,Conductor*%
%TO.N,GND*%
G36*
X123199595Y-69470185D02*
G01*
X123245350Y-69522989D01*
X123255294Y-69592147D01*
X123226269Y-69655703D01*
X123167491Y-69693477D01*
X123164671Y-69694268D01*
X123127246Y-69704296D01*
X123025279Y-69731618D01*
X122810378Y-69820633D01*
X122810367Y-69820638D01*
X122608933Y-69936937D01*
X122608917Y-69936948D01*
X122424382Y-70078546D01*
X122424375Y-70078552D01*
X122259902Y-70243025D01*
X122259896Y-70243032D01*
X122118298Y-70427567D01*
X122118287Y-70427583D01*
X122001988Y-70629017D01*
X122001983Y-70629028D01*
X121912968Y-70843929D01*
X121852763Y-71068621D01*
X121822400Y-71299235D01*
X121822400Y-71531864D01*
X121826622Y-71563928D01*
X121852763Y-71762480D01*
X121878813Y-71859701D01*
X121912968Y-71987170D01*
X122001983Y-72202071D01*
X122001988Y-72202082D01*
X122118287Y-72403516D01*
X122118298Y-72403532D01*
X122259896Y-72588067D01*
X122259902Y-72588074D01*
X122424375Y-72752547D01*
X122424381Y-72752552D01*
X122608926Y-72894158D01*
X122608933Y-72894162D01*
X122810367Y-73010461D01*
X122810372Y-73010463D01*
X122810375Y-73010465D01*
X122917828Y-73054973D01*
X123025279Y-73099481D01*
X123025280Y-73099481D01*
X123025282Y-73099482D01*
X123249970Y-73159687D01*
X123480593Y-73190050D01*
X123480600Y-73190050D01*
X123713200Y-73190050D01*
X123713207Y-73190050D01*
X123943830Y-73159687D01*
X124168518Y-73099482D01*
X124383425Y-73010465D01*
X124584874Y-72894158D01*
X124769419Y-72752552D01*
X124933902Y-72588069D01*
X125075508Y-72403524D01*
X125191815Y-72202075D01*
X125280832Y-71987168D01*
X125341037Y-71762480D01*
X125371400Y-71531857D01*
X125371400Y-71299243D01*
X125341037Y-71068620D01*
X125280832Y-70843932D01*
X125191815Y-70629025D01*
X125191813Y-70629022D01*
X125191811Y-70629017D01*
X125075512Y-70427583D01*
X125075508Y-70427576D01*
X124933902Y-70243031D01*
X124933897Y-70243025D01*
X124769424Y-70078552D01*
X124769417Y-70078546D01*
X124584882Y-69936948D01*
X124584880Y-69936946D01*
X124584874Y-69936942D01*
X124584869Y-69936939D01*
X124584866Y-69936937D01*
X124383432Y-69820638D01*
X124383421Y-69820633D01*
X124168520Y-69731618D01*
X124078616Y-69707529D01*
X124029150Y-69694274D01*
X123969490Y-69657910D01*
X123938961Y-69595063D01*
X123947256Y-69525688D01*
X123991741Y-69471810D01*
X124058293Y-69450535D01*
X124061244Y-69450500D01*
X132210118Y-69450500D01*
X132246755Y-69450500D01*
X132253243Y-69450669D01*
X132562288Y-69466865D01*
X132575164Y-69468219D01*
X132877608Y-69516122D01*
X132890292Y-69518817D01*
X133186077Y-69598073D01*
X133198415Y-69602082D01*
X133484279Y-69711815D01*
X133496121Y-69717087D01*
X133768976Y-69856114D01*
X133780191Y-69862590D01*
X134037008Y-70029368D01*
X134047489Y-70036983D01*
X134224091Y-70179992D01*
X134285467Y-70229693D01*
X134295112Y-70238378D01*
X134511621Y-70454887D01*
X134520306Y-70464532D01*
X134713014Y-70702507D01*
X134720633Y-70712995D01*
X134887406Y-70969802D01*
X134893888Y-70981029D01*
X134938519Y-71068620D01*
X135032907Y-71253867D01*
X135038186Y-71265725D01*
X135147917Y-71551585D01*
X135151928Y-71563928D01*
X135231180Y-71859701D01*
X135233878Y-71872397D01*
X135281778Y-72174819D01*
X135283135Y-72187728D01*
X135299330Y-72496756D01*
X135299500Y-72503245D01*
X135299500Y-111681754D01*
X135299330Y-111688243D01*
X135283135Y-111997271D01*
X135281778Y-112010180D01*
X135233878Y-112312602D01*
X135231180Y-112325298D01*
X135151928Y-112621071D01*
X135147917Y-112633414D01*
X135038186Y-112919274D01*
X135032907Y-112931132D01*
X134893892Y-113203964D01*
X134887402Y-113215204D01*
X134720638Y-113471998D01*
X134713009Y-113482499D01*
X134520306Y-113720467D01*
X134511621Y-113730112D01*
X134295112Y-113946621D01*
X134285467Y-113955306D01*
X134047499Y-114148009D01*
X134036998Y-114155638D01*
X133780204Y-114322402D01*
X133768964Y-114328892D01*
X133496132Y-114467907D01*
X133484274Y-114473186D01*
X133198414Y-114582917D01*
X133186071Y-114586928D01*
X132890298Y-114666180D01*
X132877602Y-114668878D01*
X132575180Y-114716778D01*
X132562271Y-114718135D01*
X132253244Y-114734330D01*
X132246755Y-114734500D01*
X129353329Y-114734500D01*
X129286290Y-114714815D01*
X129240535Y-114662011D01*
X129230591Y-114592853D01*
X129250226Y-114541611D01*
X129254183Y-114535687D01*
X129254192Y-114535671D01*
X129329569Y-114353693D01*
X129329572Y-114353681D01*
X129367999Y-114160495D01*
X129368000Y-114160492D01*
X129368000Y-113912000D01*
X128668000Y-113912000D01*
X128668000Y-113412000D01*
X129368000Y-113412000D01*
X129368000Y-113163508D01*
X129367999Y-113163504D01*
X129329572Y-112970318D01*
X129329569Y-112970306D01*
X129254192Y-112788328D01*
X129254185Y-112788315D01*
X129144751Y-112624537D01*
X129144748Y-112624533D01*
X129005466Y-112485251D01*
X129005462Y-112485248D01*
X128841684Y-112375814D01*
X128841671Y-112375807D01*
X128659691Y-112300429D01*
X128659683Y-112300427D01*
X128618000Y-112292135D01*
X128618000Y-113095011D01*
X128608060Y-113077795D01*
X128552205Y-113021940D01*
X128483796Y-112982444D01*
X128407496Y-112962000D01*
X128328504Y-112962000D01*
X128252204Y-112982444D01*
X128183795Y-113021940D01*
X128127940Y-113077795D01*
X128118000Y-113095011D01*
X128118000Y-112292136D01*
X128117999Y-112292135D01*
X128076316Y-112300427D01*
X128076308Y-112300429D01*
X127894328Y-112375807D01*
X127894315Y-112375814D01*
X127730537Y-112485248D01*
X127730533Y-112485251D01*
X127591251Y-112624533D01*
X127591248Y-112624537D01*
X127481814Y-112788315D01*
X127481807Y-112788328D01*
X127406430Y-112970306D01*
X127406427Y-112970318D01*
X127368000Y-113163504D01*
X127368000Y-113412000D01*
X128068000Y-113412000D01*
X128068000Y-113912000D01*
X127368000Y-113912000D01*
X127368000Y-114160495D01*
X127406427Y-114353681D01*
X127406430Y-114353693D01*
X127481807Y-114535671D01*
X127481816Y-114535687D01*
X127485774Y-114541611D01*
X127506651Y-114608289D01*
X127488165Y-114675669D01*
X127436185Y-114722358D01*
X127382671Y-114734500D01*
X120713329Y-114734500D01*
X120646290Y-114714815D01*
X120600535Y-114662011D01*
X120590591Y-114592853D01*
X120610226Y-114541611D01*
X120614183Y-114535687D01*
X120614192Y-114535671D01*
X120689569Y-114353693D01*
X120689572Y-114353681D01*
X120727999Y-114160495D01*
X120728000Y-114160492D01*
X120728000Y-113912000D01*
X120028000Y-113912000D01*
X120028000Y-113412000D01*
X120728000Y-113412000D01*
X120728000Y-113163508D01*
X120727999Y-113163504D01*
X120689572Y-112970318D01*
X120689569Y-112970306D01*
X120614192Y-112788328D01*
X120614185Y-112788315D01*
X120554092Y-112698380D01*
X120533214Y-112631703D01*
X120551698Y-112564322D01*
X120603677Y-112517632D01*
X120672647Y-112506456D01*
X120725637Y-112526089D01*
X120736045Y-112532978D01*
X120758587Y-112555520D01*
X120845398Y-112605639D01*
X120895518Y-112634577D01*
X121048246Y-112675501D01*
X121048249Y-112675501D01*
X121213956Y-112675501D01*
X121213972Y-112675500D01*
X123031529Y-112675500D01*
X123031545Y-112675501D01*
X123039141Y-112675501D01*
X123197252Y-112675501D01*
X123197255Y-112675501D01*
X123349983Y-112634577D01*
X123400102Y-112605639D01*
X123486914Y-112555520D01*
X123598718Y-112443716D01*
X123598718Y-112443714D01*
X123608926Y-112433507D01*
X123608928Y-112433504D01*
X124358506Y-111683926D01*
X124358511Y-111683922D01*
X124368714Y-111673718D01*
X124368716Y-111673718D01*
X124480520Y-111561914D01*
X124559577Y-111424982D01*
X124583507Y-111335671D01*
X124619870Y-111276013D01*
X124682717Y-111245483D01*
X124750732Y-111253204D01*
X124766503Y-111259737D01*
X124921153Y-111290499D01*
X124921156Y-111290500D01*
X124921158Y-111290500D01*
X125078844Y-111290500D01*
X125078845Y-111290499D01*
X125233497Y-111259737D01*
X125379179Y-111199394D01*
X125510289Y-111111789D01*
X125621789Y-111000289D01*
X125709394Y-110869179D01*
X125769737Y-110723497D01*
X125794033Y-110601352D01*
X125800638Y-110568150D01*
X125833023Y-110506239D01*
X125834523Y-110504711D01*
X126166713Y-110172521D01*
X126166716Y-110172520D01*
X126193514Y-110145721D01*
X126232352Y-110124516D01*
X126254829Y-110112242D01*
X126254831Y-110112242D01*
X126254834Y-110112241D01*
X126302140Y-110115625D01*
X126324521Y-110117226D01*
X126324526Y-110117227D01*
X126355968Y-110140766D01*
X126380455Y-110159096D01*
X126380456Y-110159098D01*
X126380458Y-110159100D01*
X126380461Y-110159109D01*
X126400962Y-110201312D01*
X126401719Y-110204135D01*
X126401720Y-110204138D01*
X126434618Y-110261117D01*
X126477485Y-110335365D01*
X126584635Y-110442515D01*
X126715865Y-110518281D01*
X126862234Y-110557500D01*
X126862236Y-110557500D01*
X127013764Y-110557500D01*
X127013766Y-110557500D01*
X127160135Y-110518281D01*
X127291365Y-110442515D01*
X127291366Y-110442513D01*
X127298403Y-110438451D01*
X127299676Y-110440656D01*
X127352956Y-110420043D01*
X127421405Y-110434063D01*
X127471407Y-110482864D01*
X127477867Y-110496157D01*
X127481809Y-110505674D01*
X127481814Y-110505684D01*
X127591248Y-110669462D01*
X127591251Y-110669466D01*
X127730533Y-110808748D01*
X127730537Y-110808751D01*
X127894315Y-110918185D01*
X127894328Y-110918192D01*
X128076308Y-110993569D01*
X128118000Y-111001862D01*
X128118000Y-110198988D01*
X128127940Y-110216205D01*
X128183795Y-110272060D01*
X128252204Y-110311556D01*
X128328504Y-110332000D01*
X128407496Y-110332000D01*
X128483796Y-110311556D01*
X128552205Y-110272060D01*
X128608060Y-110216205D01*
X128618000Y-110198988D01*
X128618000Y-111001862D01*
X128659690Y-110993569D01*
X128659692Y-110993569D01*
X128841671Y-110918192D01*
X128841684Y-110918185D01*
X129005462Y-110808751D01*
X129005466Y-110808748D01*
X129144748Y-110669466D01*
X129144751Y-110669462D01*
X129254185Y-110505684D01*
X129254192Y-110505671D01*
X129329569Y-110323693D01*
X129329572Y-110323681D01*
X129367999Y-110130495D01*
X129368000Y-110130492D01*
X129368000Y-109732000D01*
X128668000Y-109732000D01*
X128668000Y-109232000D01*
X129368000Y-109232000D01*
X129368000Y-108833508D01*
X129367999Y-108833504D01*
X129329572Y-108640318D01*
X129329569Y-108640306D01*
X129254192Y-108458328D01*
X129254185Y-108458315D01*
X129181174Y-108349047D01*
X129160296Y-108282370D01*
X129178780Y-108214989D01*
X129230759Y-108168299D01*
X129245280Y-108162447D01*
X129251306Y-108160450D01*
X129251311Y-108160448D01*
X129398034Y-108069947D01*
X129398038Y-108069944D01*
X129412319Y-108055664D01*
X129473642Y-108022179D01*
X129543334Y-108027163D01*
X129587681Y-108055664D01*
X129601961Y-108069944D01*
X129601965Y-108069947D01*
X129748688Y-108160448D01*
X129748699Y-108160453D01*
X129912347Y-108214680D01*
X130013351Y-108224999D01*
X130612500Y-108224999D01*
X130711640Y-108224999D01*
X130711654Y-108224998D01*
X130812652Y-108214680D01*
X130976300Y-108160453D01*
X130976311Y-108160448D01*
X131123034Y-108069947D01*
X131123038Y-108069944D01*
X131244944Y-107948038D01*
X131244947Y-107948034D01*
X131335448Y-107801311D01*
X131335453Y-107801300D01*
X131389680Y-107637652D01*
X131399999Y-107536654D01*
X131400000Y-107536641D01*
X131400000Y-107500000D01*
X130612500Y-107500000D01*
X130612500Y-108224999D01*
X130013351Y-108224999D01*
X130112500Y-108224998D01*
X130112500Y-107500000D01*
X129159000Y-107500000D01*
X129159000Y-107000000D01*
X131399999Y-107000000D01*
X131399999Y-106963360D01*
X131399998Y-106963345D01*
X131389680Y-106862345D01*
X131387048Y-106854402D01*
X131384643Y-106784574D01*
X131420373Y-106724531D01*
X131482892Y-106693336D01*
X131543755Y-106697687D01*
X131597315Y-106715436D01*
X131695826Y-106725500D01*
X131695831Y-106725500D01*
X132229169Y-106725500D01*
X132229174Y-106725500D01*
X132327685Y-106715436D01*
X132487287Y-106662549D01*
X132630391Y-106574281D01*
X132662672Y-106542000D01*
X132723995Y-106508515D01*
X132793687Y-106513499D01*
X132838034Y-106542000D01*
X132869919Y-106573885D01*
X133012922Y-106662091D01*
X133012927Y-106662093D01*
X133172416Y-106714942D01*
X133270856Y-106724999D01*
X133787500Y-106724999D01*
X133804136Y-106724999D01*
X133804152Y-106724998D01*
X133902583Y-106714943D01*
X134062072Y-106662093D01*
X134062077Y-106662091D01*
X134205080Y-106573885D01*
X134323885Y-106455080D01*
X134412091Y-106312077D01*
X134412093Y-106312072D01*
X134464942Y-106152583D01*
X134474999Y-106054150D01*
X134475000Y-106054137D01*
X134475000Y-106000000D01*
X133787500Y-106000000D01*
X133787500Y-106724999D01*
X133270856Y-106724999D01*
X133287500Y-106724998D01*
X133287500Y-105500000D01*
X133787500Y-105500000D01*
X134474999Y-105500000D01*
X134474999Y-105445864D01*
X134474998Y-105445847D01*
X134464943Y-105347416D01*
X134412093Y-105187927D01*
X134412091Y-105187922D01*
X134323885Y-105044919D01*
X134205080Y-104926114D01*
X134062077Y-104837908D01*
X134062072Y-104837906D01*
X133902583Y-104785057D01*
X133804150Y-104775000D01*
X133787500Y-104775000D01*
X133787500Y-105500000D01*
X133287500Y-105500000D01*
X133287500Y-104774999D01*
X133270856Y-104775000D01*
X133172415Y-104785057D01*
X133012927Y-104837906D01*
X133012922Y-104837908D01*
X132869919Y-104926114D01*
X132838033Y-104958000D01*
X132776709Y-104991485D01*
X132707018Y-104986499D01*
X132662673Y-104958000D01*
X132630392Y-104925719D01*
X132630387Y-104925716D01*
X132487295Y-104837455D01*
X132487289Y-104837452D01*
X132487287Y-104837451D01*
X132327685Y-104784564D01*
X132327683Y-104784563D01*
X132229181Y-104774500D01*
X132229174Y-104774500D01*
X131695826Y-104774500D01*
X131695818Y-104774500D01*
X131597316Y-104784563D01*
X131597315Y-104784564D01*
X131518219Y-104810773D01*
X131437715Y-104837450D01*
X131437710Y-104837452D01*
X131314631Y-104913369D01*
X131247238Y-104931809D01*
X131184439Y-104913369D01*
X131094799Y-104858079D01*
X131064018Y-104839093D01*
X131064013Y-104839091D01*
X131059061Y-104837450D01*
X130900253Y-104784826D01*
X130900251Y-104784825D01*
X130799178Y-104774500D01*
X130200830Y-104774500D01*
X130200812Y-104774501D01*
X130099747Y-104784825D01*
X129935984Y-104839092D01*
X129935981Y-104839093D01*
X129789151Y-104929659D01*
X129674827Y-105043983D01*
X129613504Y-105077467D01*
X129543812Y-105072483D01*
X129499465Y-105043982D01*
X129385538Y-104930055D01*
X129385534Y-104930052D01*
X129238811Y-104839551D01*
X129238800Y-104839546D01*
X129075152Y-104785319D01*
X128974154Y-104775000D01*
X128925000Y-104775000D01*
X128925000Y-105358671D01*
X128425000Y-105357542D01*
X128425000Y-104775000D01*
X128424999Y-104774999D01*
X128375861Y-104775000D01*
X128375843Y-104775001D01*
X128274847Y-104785319D01*
X128111199Y-104839546D01*
X128111188Y-104839551D01*
X127964465Y-104930052D01*
X127964461Y-104930055D01*
X127842555Y-105051961D01*
X127842552Y-105051965D01*
X127752051Y-105198688D01*
X127752046Y-105198699D01*
X127699953Y-105355904D01*
X127565000Y-105355600D01*
X126740533Y-105354872D01*
X126643344Y-105257683D01*
X126643340Y-105257680D01*
X126494130Y-105165645D01*
X126494119Y-105165640D01*
X126327697Y-105110494D01*
X126224986Y-105100000D01*
X125000000Y-105100000D01*
X125000000Y-105353335D01*
X124500000Y-105352894D01*
X124500000Y-105100000D01*
X123275028Y-105100000D01*
X123275012Y-105100001D01*
X123172303Y-105110494D01*
X123172301Y-105110494D01*
X123005880Y-105165640D01*
X123005869Y-105165645D01*
X122856659Y-105257680D01*
X122856655Y-105257683D01*
X122762977Y-105351360D01*
X122318951Y-105350968D01*
X122305664Y-105337681D01*
X122272179Y-105276358D01*
X122277163Y-105206666D01*
X122305664Y-105162319D01*
X122319944Y-105148038D01*
X122319947Y-105148034D01*
X122410448Y-105001311D01*
X122410453Y-105001300D01*
X122464680Y-104837652D01*
X122474999Y-104736654D01*
X122475000Y-104736641D01*
X122475000Y-104637500D01*
X121750000Y-104637500D01*
X121750000Y-105350466D01*
X121250000Y-105350025D01*
X121250000Y-104637500D01*
X120525001Y-104637500D01*
X120525001Y-104736654D01*
X120535319Y-104837652D01*
X120589546Y-105001300D01*
X120589551Y-105001311D01*
X120680052Y-105148034D01*
X120680055Y-105148038D01*
X120694336Y-105162319D01*
X120727821Y-105223642D01*
X120722837Y-105293334D01*
X120694336Y-105337681D01*
X120680055Y-105351961D01*
X120680052Y-105351965D01*
X120589551Y-105498688D01*
X120589546Y-105498699D01*
X120535319Y-105662347D01*
X120525000Y-105763345D01*
X120525000Y-105862500D01*
X120800000Y-105862500D01*
X120800000Y-106362500D01*
X120525001Y-106362500D01*
X120525001Y-106461654D01*
X120535319Y-106562652D01*
X120589546Y-106726300D01*
X120589551Y-106726311D01*
X120680052Y-106873034D01*
X120680055Y-106873038D01*
X120800000Y-106992983D01*
X120800000Y-107036341D01*
X121013659Y-107250000D01*
X121654636Y-107250000D01*
X121796094Y-107308594D01*
X121971875Y-107484375D01*
X122025000Y-107672985D01*
X122025000Y-107835135D01*
X121995834Y-107832000D01*
X121898000Y-107832000D01*
X121897948Y-107832051D01*
X121878315Y-107898914D01*
X121848312Y-107931141D01*
X121790452Y-107974455D01*
X121704206Y-108089664D01*
X121704202Y-108089671D01*
X121653910Y-108224513D01*
X121653909Y-108224517D01*
X121647500Y-108284127D01*
X121647500Y-108783002D01*
X121644950Y-108791686D01*
X121646239Y-108800647D01*
X121635261Y-108824683D01*
X121627817Y-108850039D01*
X121620974Y-108855967D01*
X121617214Y-108864203D01*
X121594982Y-108878489D01*
X121575013Y-108895794D01*
X121564497Y-108898081D01*
X121558436Y-108901977D01*
X121523501Y-108907000D01*
X121522000Y-108907000D01*
X121454961Y-108887315D01*
X121409206Y-108834511D01*
X121398000Y-108783000D01*
X121398000Y-107832000D01*
X121300164Y-107832000D01*
X121261252Y-107836183D01*
X121234748Y-107836183D01*
X121195835Y-107832000D01*
X121098000Y-107832000D01*
X121098000Y-108783000D01*
X121078315Y-108850039D01*
X121025511Y-108895794D01*
X120974000Y-108907000D01*
X120722000Y-108907000D01*
X120654961Y-108887315D01*
X120609206Y-108834511D01*
X120598000Y-108783000D01*
X120598000Y-107832000D01*
X120500155Y-107832000D01*
X120440627Y-107838401D01*
X120440620Y-107838403D01*
X120305913Y-107888645D01*
X120305911Y-107888646D01*
X120190150Y-107975306D01*
X120124686Y-107999723D01*
X120068387Y-107990600D01*
X120019691Y-107970429D01*
X120019683Y-107970427D01*
X119978000Y-107962135D01*
X119978000Y-108765011D01*
X119968060Y-108747795D01*
X119912205Y-108691940D01*
X119843796Y-108652444D01*
X119767496Y-108632000D01*
X119688504Y-108632000D01*
X119612204Y-108652444D01*
X119543795Y-108691940D01*
X119487940Y-108747795D01*
X119478000Y-108765011D01*
X119478000Y-107962136D01*
X119477999Y-107962135D01*
X119436316Y-107970427D01*
X119436308Y-107970429D01*
X119254328Y-108045807D01*
X119254315Y-108045814D01*
X119093391Y-108153341D01*
X119083690Y-108156378D01*
X119076011Y-108163033D01*
X119050911Y-108166641D01*
X119026713Y-108174219D01*
X119016913Y-108171530D01*
X119006853Y-108172977D01*
X118983784Y-108162442D01*
X118959333Y-108155734D01*
X118952542Y-108148174D01*
X118943297Y-108143952D01*
X118929587Y-108122620D01*
X118912643Y-108103756D01*
X118910011Y-108092158D01*
X118905523Y-108085174D01*
X118900500Y-108050239D01*
X118900500Y-107950097D01*
X118920185Y-107883058D01*
X118936815Y-107862419D01*
X118996006Y-107803227D01*
X118996010Y-107803225D01*
X119006214Y-107793020D01*
X119006216Y-107793020D01*
X119118020Y-107681216D01*
X119181686Y-107570943D01*
X119193355Y-107550730D01*
X119243921Y-107502515D01*
X119266148Y-107493653D01*
X119292624Y-107485960D01*
X119410398Y-107451744D01*
X119551865Y-107368081D01*
X119668081Y-107251865D01*
X119751744Y-107110398D01*
X119797598Y-106952569D01*
X119800500Y-106915694D01*
X119800500Y-106484306D01*
X119797598Y-106447431D01*
X119751744Y-106289602D01*
X119744162Y-106276782D01*
X119740061Y-106264866D01*
X119739012Y-106242043D01*
X119733396Y-106219901D01*
X119737373Y-106206356D01*
X119736855Y-106195070D01*
X119744624Y-106181666D01*
X119748753Y-106167603D01*
X119748184Y-106167357D01*
X119750182Y-106162738D01*
X119750581Y-106161382D01*
X119751281Y-106160197D01*
X119797100Y-106002486D01*
X119797295Y-106000001D01*
X119797295Y-106000000D01*
X119531815Y-106000000D01*
X119468694Y-105982732D01*
X119410396Y-105948255D01*
X119410393Y-105948254D01*
X119252573Y-105902402D01*
X119252567Y-105902401D01*
X119215701Y-105899500D01*
X119215694Y-105899500D01*
X118761500Y-105899500D01*
X118752814Y-105896949D01*
X118743853Y-105898238D01*
X118719812Y-105887259D01*
X118694461Y-105879815D01*
X118688533Y-105872974D01*
X118680297Y-105869213D01*
X118666007Y-105846978D01*
X118648706Y-105827011D01*
X118646418Y-105816496D01*
X118642523Y-105810435D01*
X118637500Y-105775500D01*
X118637500Y-105724500D01*
X118657185Y-105657461D01*
X118709989Y-105611706D01*
X118761500Y-105600500D01*
X119215686Y-105600500D01*
X119215694Y-105600500D01*
X119252569Y-105597598D01*
X119252571Y-105597597D01*
X119252573Y-105597597D01*
X119303510Y-105582798D01*
X119410398Y-105551744D01*
X119468694Y-105517268D01*
X119531815Y-105500000D01*
X119797295Y-105500000D01*
X119797295Y-105499998D01*
X119797100Y-105497511D01*
X119797099Y-105497505D01*
X119751283Y-105339806D01*
X119751281Y-105339801D01*
X119750578Y-105338612D01*
X119750310Y-105337558D01*
X119748184Y-105332644D01*
X119748976Y-105332300D01*
X119733395Y-105270888D01*
X119749009Y-105217714D01*
X119748646Y-105217557D01*
X119749920Y-105214612D01*
X119750579Y-105212369D01*
X119751742Y-105210401D01*
X119751744Y-105210398D01*
X119797598Y-105052569D01*
X119800500Y-105015694D01*
X119800500Y-104584306D01*
X119797598Y-104547431D01*
X119751744Y-104389602D01*
X119668081Y-104248135D01*
X119668079Y-104248133D01*
X119668076Y-104248129D01*
X119551870Y-104131923D01*
X119551863Y-104131917D01*
X119410396Y-104048255D01*
X119410393Y-104048254D01*
X119376287Y-104038345D01*
X120525000Y-104038345D01*
X120525000Y-104137500D01*
X121250000Y-104137500D01*
X121750000Y-104137500D01*
X122474999Y-104137500D01*
X122474999Y-104038360D01*
X122474998Y-104038345D01*
X122464680Y-103937347D01*
X122410453Y-103773699D01*
X122410448Y-103773688D01*
X122319947Y-103626965D01*
X122319944Y-103626961D01*
X122198038Y-103505055D01*
X122198034Y-103505052D01*
X122051311Y-103414551D01*
X122051300Y-103414546D01*
X121887652Y-103360319D01*
X121786654Y-103350000D01*
X121750000Y-103350000D01*
X121750000Y-104137500D01*
X121250000Y-104137500D01*
X121250000Y-103350000D01*
X121213361Y-103350000D01*
X121213343Y-103350001D01*
X121112347Y-103360319D01*
X120948699Y-103414546D01*
X120948688Y-103414551D01*
X120801965Y-103505052D01*
X120801961Y-103505055D01*
X120680055Y-103626961D01*
X120680052Y-103626965D01*
X120589551Y-103773688D01*
X120589546Y-103773699D01*
X120535319Y-103937347D01*
X120525000Y-104038345D01*
X119376287Y-104038345D01*
X119252573Y-104002402D01*
X119252567Y-104002401D01*
X119215701Y-103999500D01*
X119215694Y-103999500D01*
X118059306Y-103999500D01*
X118059298Y-103999500D01*
X118022432Y-104002401D01*
X118022426Y-104002402D01*
X117864606Y-104048254D01*
X117864603Y-104048255D01*
X117723137Y-104131917D01*
X117723129Y-104131923D01*
X117606923Y-104248129D01*
X117606917Y-104248137D01*
X117523255Y-104389603D01*
X117523254Y-104389606D01*
X117477402Y-104547426D01*
X117477401Y-104547431D01*
X117476640Y-104557111D01*
X117467379Y-104581406D01*
X117461854Y-104606807D01*
X117453386Y-104618117D01*
X117451755Y-104622399D01*
X117440703Y-104635061D01*
X117387144Y-104688620D01*
X117325821Y-104722105D01*
X117256129Y-104717121D01*
X117200196Y-104675249D01*
X117175779Y-104609785D01*
X117175669Y-104608085D01*
X117175499Y-104605155D01*
X117175499Y-104605136D01*
X117174666Y-104597954D01*
X117172586Y-104580012D01*
X117172585Y-104580010D01*
X117172585Y-104580009D01*
X117127206Y-104477235D01*
X117047765Y-104397794D01*
X117047763Y-104397793D01*
X117047759Y-104397790D01*
X117024414Y-104387483D01*
X116971037Y-104342397D01*
X116950510Y-104275611D01*
X116950500Y-104274049D01*
X116950500Y-102804765D01*
X116970185Y-102737726D01*
X116971398Y-102735874D01*
X117042686Y-102629185D01*
X117059394Y-102604179D01*
X117119737Y-102458497D01*
X117150500Y-102303842D01*
X117150500Y-102146158D01*
X117150500Y-102146155D01*
X117150499Y-102146153D01*
X117119738Y-101991510D01*
X117119737Y-101991503D01*
X117069752Y-101870827D01*
X117059397Y-101845827D01*
X117059390Y-101845814D01*
X116971789Y-101714711D01*
X116971786Y-101714707D01*
X116860292Y-101603213D01*
X116860288Y-101603210D01*
X116729185Y-101515609D01*
X116729172Y-101515602D01*
X116583501Y-101455264D01*
X116583489Y-101455261D01*
X116428845Y-101424500D01*
X116428842Y-101424500D01*
X116271158Y-101424500D01*
X116271155Y-101424500D01*
X116116510Y-101455261D01*
X116116498Y-101455264D01*
X115970827Y-101515602D01*
X115970814Y-101515609D01*
X115839711Y-101603210D01*
X115839707Y-101603213D01*
X115728213Y-101714707D01*
X115728210Y-101714711D01*
X115640609Y-101845814D01*
X115640602Y-101845827D01*
X115580264Y-101991498D01*
X115580261Y-101991510D01*
X115549500Y-102146153D01*
X115549500Y-102303846D01*
X115580261Y-102458489D01*
X115580264Y-102458501D01*
X115640602Y-102604172D01*
X115640609Y-102604185D01*
X115728602Y-102735874D01*
X115749480Y-102802551D01*
X115749500Y-102804765D01*
X115749500Y-104285087D01*
X115729815Y-104352126D01*
X115685927Y-104390154D01*
X115686713Y-104391301D01*
X115677236Y-104397792D01*
X115597793Y-104477236D01*
X115552415Y-104580006D01*
X115552415Y-104580008D01*
X115549500Y-104605131D01*
X115549500Y-104994856D01*
X115549502Y-104994882D01*
X115552413Y-105019987D01*
X115552415Y-105019991D01*
X115597793Y-105122764D01*
X115597794Y-105122765D01*
X115677235Y-105202206D01*
X115780009Y-105247585D01*
X115805135Y-105250500D01*
X115912568Y-105250499D01*
X115979607Y-105270183D01*
X115988056Y-105276124D01*
X115993781Y-105280517D01*
X115993784Y-105280520D01*
X116130716Y-105359577D01*
X116283443Y-105400501D01*
X116283445Y-105400501D01*
X116441556Y-105400501D01*
X116441558Y-105400501D01*
X116594285Y-105359577D01*
X116713502Y-105290746D01*
X116719399Y-105289316D01*
X116723987Y-105285341D01*
X116752951Y-105281176D01*
X116781398Y-105274275D01*
X116787136Y-105276260D01*
X116793145Y-105275397D01*
X116819768Y-105287554D01*
X116847425Y-105297127D01*
X116851177Y-105301898D01*
X116856701Y-105304421D01*
X116872527Y-105329046D01*
X116890616Y-105352048D01*
X116892032Y-105359396D01*
X116894476Y-105363199D01*
X116899498Y-105398131D01*
X116899499Y-105398134D01*
X116899499Y-105504057D01*
X116899499Y-105504059D01*
X116899500Y-105514053D01*
X116899500Y-105775500D01*
X116879815Y-105842539D01*
X116827011Y-105888294D01*
X116775500Y-105899500D01*
X115784298Y-105899500D01*
X115747432Y-105902401D01*
X115747426Y-105902402D01*
X115589606Y-105948254D01*
X115589603Y-105948255D01*
X115448137Y-106031917D01*
X115448129Y-106031923D01*
X115331923Y-106148129D01*
X115331917Y-106148137D01*
X115248255Y-106289603D01*
X115248254Y-106289606D01*
X115202402Y-106447426D01*
X115202401Y-106447432D01*
X115199500Y-106484298D01*
X115199500Y-106915701D01*
X115202401Y-106952567D01*
X115202402Y-106952573D01*
X115248254Y-107110393D01*
X115248255Y-107110396D01*
X115251066Y-107115149D01*
X115268249Y-107182873D01*
X115246089Y-107249135D01*
X115191623Y-107292899D01*
X115168527Y-107299887D01*
X115141507Y-107305261D01*
X115141498Y-107305264D01*
X114995827Y-107365602D01*
X114995814Y-107365609D01*
X114864711Y-107453210D01*
X114864707Y-107453213D01*
X114753213Y-107564707D01*
X114753210Y-107564711D01*
X114665609Y-107695814D01*
X114665602Y-107695827D01*
X114605264Y-107841498D01*
X114605261Y-107841510D01*
X114574500Y-107996153D01*
X114574500Y-108153846D01*
X114605261Y-108308489D01*
X114605264Y-108308501D01*
X114665602Y-108454172D01*
X114665609Y-108454185D01*
X114753210Y-108585288D01*
X114753213Y-108585292D01*
X114864707Y-108696786D01*
X114864711Y-108696789D01*
X114995814Y-108784390D01*
X114995827Y-108784397D01*
X115116815Y-108834511D01*
X115141503Y-108844737D01*
X115239365Y-108864203D01*
X115296153Y-108875499D01*
X115296156Y-108875500D01*
X115296158Y-108875500D01*
X115453844Y-108875500D01*
X115453845Y-108875499D01*
X115608497Y-108844737D01*
X115721166Y-108798067D01*
X115754172Y-108784397D01*
X115754172Y-108784396D01*
X115754179Y-108784394D01*
X115885289Y-108696789D01*
X115893155Y-108688922D01*
X115901348Y-108683571D01*
X115905071Y-108678442D01*
X115922118Y-108670004D01*
X115935795Y-108661072D01*
X115942149Y-108658594D01*
X116031785Y-108634577D01*
X116081904Y-108605639D01*
X116168716Y-108555520D01*
X116280520Y-108443716D01*
X116280520Y-108443714D01*
X116290728Y-108433507D01*
X116290730Y-108433504D01*
X116721006Y-108003228D01*
X116721011Y-108003224D01*
X116731214Y-107993020D01*
X116731216Y-107993020D01*
X116843020Y-107881216D01*
X116896007Y-107789439D01*
X116913742Y-107758722D01*
X116934609Y-107738826D01*
X116964306Y-107710510D01*
X116964310Y-107710508D01*
X116990719Y-107705418D01*
X117032913Y-107697286D01*
X117032916Y-107697287D01*
X117032918Y-107697287D01*
X117058429Y-107707501D01*
X117097778Y-107723254D01*
X117097780Y-107723256D01*
X117097782Y-107723257D01*
X117097783Y-107723258D01*
X117108808Y-107733044D01*
X117138349Y-107762585D01*
X117138355Y-107762590D01*
X117263181Y-107887416D01*
X117296666Y-107948739D01*
X117299500Y-107975097D01*
X117299500Y-110119400D01*
X117299499Y-110119418D01*
X117299499Y-110285124D01*
X117299498Y-110285124D01*
X117340423Y-110437855D01*
X117369358Y-110487970D01*
X117369359Y-110487974D01*
X117369360Y-110487974D01*
X117378993Y-110504660D01*
X117419479Y-110574784D01*
X117419481Y-110574787D01*
X117538349Y-110693655D01*
X117538355Y-110693660D01*
X118522667Y-111677972D01*
X118522677Y-111677983D01*
X118527007Y-111682313D01*
X118527008Y-111682314D01*
X118638812Y-111794118D01*
X118638814Y-111794119D01*
X118638818Y-111794122D01*
X118723850Y-111843215D01*
X118723851Y-111843215D01*
X118775743Y-111873175D01*
X118928471Y-111914098D01*
X120065804Y-111914098D01*
X120132843Y-111933783D01*
X120153485Y-111950417D01*
X120448195Y-112245127D01*
X120481680Y-112306450D01*
X120476696Y-112376142D01*
X120434824Y-112432075D01*
X120369360Y-112456492D01*
X120301087Y-112441640D01*
X120291623Y-112435910D01*
X120201684Y-112375814D01*
X120201671Y-112375807D01*
X120019691Y-112300429D01*
X120019683Y-112300427D01*
X119978000Y-112292135D01*
X119978000Y-113095011D01*
X119968060Y-113077795D01*
X119912205Y-113021940D01*
X119843796Y-112982444D01*
X119767496Y-112962000D01*
X119688504Y-112962000D01*
X119612204Y-112982444D01*
X119543795Y-113021940D01*
X119487940Y-113077795D01*
X119478000Y-113095011D01*
X119478000Y-112292136D01*
X119477999Y-112292135D01*
X119436316Y-112300427D01*
X119436308Y-112300429D01*
X119254328Y-112375807D01*
X119254315Y-112375814D01*
X119090537Y-112485248D01*
X119090533Y-112485251D01*
X118951251Y-112624533D01*
X118951248Y-112624537D01*
X118841814Y-112788315D01*
X118841807Y-112788328D01*
X118766430Y-112970306D01*
X118766427Y-112970318D01*
X118728000Y-113163504D01*
X118728000Y-113412000D01*
X119428000Y-113412000D01*
X119428000Y-113912000D01*
X118728000Y-113912000D01*
X118728000Y-114160495D01*
X118766427Y-114353681D01*
X118766430Y-114353693D01*
X118841807Y-114535671D01*
X118841816Y-114535687D01*
X118845774Y-114541611D01*
X118866651Y-114608289D01*
X118848165Y-114675669D01*
X118796185Y-114722358D01*
X118742671Y-114734500D01*
X115003245Y-114734500D01*
X114996756Y-114734330D01*
X114687728Y-114718135D01*
X114674819Y-114716778D01*
X114372397Y-114668878D01*
X114359701Y-114666180D01*
X114063928Y-114586928D01*
X114051585Y-114582917D01*
X113765725Y-114473186D01*
X113753867Y-114467907D01*
X113737976Y-114459810D01*
X113481029Y-114328888D01*
X113469802Y-114322406D01*
X113212995Y-114155633D01*
X113202507Y-114148014D01*
X112964532Y-113955306D01*
X112954887Y-113946621D01*
X112738378Y-113730112D01*
X112729693Y-113720467D01*
X112536983Y-113482489D01*
X112529368Y-113472008D01*
X112362587Y-113215188D01*
X112356114Y-113203976D01*
X112217087Y-112931121D01*
X112211813Y-112919274D01*
X112102082Y-112633414D01*
X112098071Y-112621071D01*
X112082865Y-112564322D01*
X112018817Y-112325292D01*
X112016121Y-112312602D01*
X112014193Y-112300427D01*
X111968219Y-112010164D01*
X111966865Y-111997288D01*
X111950670Y-111688243D01*
X111950500Y-111681754D01*
X111950500Y-89446153D01*
X114024500Y-89446153D01*
X114024500Y-89603846D01*
X114055261Y-89758489D01*
X114055264Y-89758501D01*
X114115602Y-89904172D01*
X114115609Y-89904185D01*
X114203210Y-90035288D01*
X114203213Y-90035292D01*
X114314707Y-90146786D01*
X114314711Y-90146789D01*
X114445814Y-90234390D01*
X114445827Y-90234397D01*
X114591498Y-90294735D01*
X114591503Y-90294737D01*
X114712646Y-90318834D01*
X114746153Y-90325499D01*
X114746156Y-90325500D01*
X114746158Y-90325500D01*
X114903844Y-90325500D01*
X114903845Y-90325499D01*
X115058497Y-90294737D01*
X115204179Y-90234394D01*
X115335289Y-90146789D01*
X115446789Y-90035289D01*
X115534394Y-89904179D01*
X115594737Y-89758497D01*
X115625500Y-89603842D01*
X115625500Y-89446158D01*
X115625500Y-89446155D01*
X115625499Y-89446153D01*
X115613807Y-89387376D01*
X115594737Y-89291503D01*
X115585492Y-89269183D01*
X115534397Y-89145827D01*
X115534390Y-89145814D01*
X115446789Y-89014711D01*
X115446786Y-89014707D01*
X115335292Y-88903213D01*
X115335288Y-88903210D01*
X115204185Y-88815609D01*
X115204172Y-88815602D01*
X115058501Y-88755264D01*
X115058489Y-88755261D01*
X114903845Y-88724500D01*
X114903842Y-88724500D01*
X114746158Y-88724500D01*
X114746155Y-88724500D01*
X114591510Y-88755261D01*
X114591498Y-88755264D01*
X114445827Y-88815602D01*
X114445814Y-88815609D01*
X114314711Y-88903210D01*
X114314707Y-88903213D01*
X114203213Y-89014707D01*
X114203210Y-89014711D01*
X114115609Y-89145814D01*
X114115602Y-89145827D01*
X114055264Y-89291498D01*
X114055261Y-89291510D01*
X114024500Y-89446153D01*
X111950500Y-89446153D01*
X111950500Y-87099986D01*
X114325001Y-87099986D01*
X114335494Y-87202697D01*
X114390641Y-87369119D01*
X114390643Y-87369124D01*
X114482684Y-87518345D01*
X114606654Y-87642315D01*
X114755875Y-87734356D01*
X114755880Y-87734358D01*
X114922302Y-87789505D01*
X114922309Y-87789506D01*
X115025019Y-87799999D01*
X115237499Y-87799999D01*
X115737500Y-87799999D01*
X115949972Y-87799999D01*
X115949986Y-87799998D01*
X116052697Y-87789505D01*
X116219119Y-87734358D01*
X116219124Y-87734356D01*
X116368345Y-87642315D01*
X116492315Y-87518345D01*
X116584356Y-87369124D01*
X116584358Y-87369119D01*
X116639505Y-87202697D01*
X116639506Y-87202690D01*
X116649999Y-87099986D01*
X116650000Y-87099973D01*
X116650000Y-86650000D01*
X115737500Y-86650000D01*
X115737500Y-87799999D01*
X115237499Y-87799999D01*
X115237500Y-87799998D01*
X115237500Y-86650000D01*
X114325001Y-86650000D01*
X114325001Y-87099986D01*
X111950500Y-87099986D01*
X111950500Y-85700013D01*
X114325000Y-85700013D01*
X114325000Y-86150000D01*
X115237500Y-86150000D01*
X115737500Y-86150000D01*
X116649999Y-86150000D01*
X116649999Y-85700028D01*
X116649998Y-85700013D01*
X116639505Y-85597302D01*
X116584358Y-85430880D01*
X116584356Y-85430875D01*
X116492315Y-85281654D01*
X116368345Y-85157684D01*
X116219124Y-85065643D01*
X116219119Y-85065641D01*
X116052697Y-85010494D01*
X116052690Y-85010493D01*
X115949986Y-85000000D01*
X115737500Y-85000000D01*
X115737500Y-86150000D01*
X115237500Y-86150000D01*
X115237500Y-85000000D01*
X115025029Y-85000000D01*
X115025012Y-85000001D01*
X114922302Y-85010494D01*
X114755880Y-85065641D01*
X114755875Y-85065643D01*
X114606654Y-85157684D01*
X114482684Y-85281654D01*
X114390643Y-85430875D01*
X114390641Y-85430880D01*
X114335494Y-85597302D01*
X114335493Y-85597309D01*
X114325000Y-85700013D01*
X111950500Y-85700013D01*
X111950500Y-83856092D01*
X116944500Y-83856092D01*
X116944500Y-87082927D01*
X116945059Y-87099986D01*
X116945583Y-87115995D01*
X116946644Y-87132184D01*
X116949887Y-87165102D01*
X116969146Y-87311389D01*
X116982047Y-87376248D01*
X116982047Y-87376250D01*
X116990423Y-87407508D01*
X116990430Y-87407532D01*
X117011676Y-87470122D01*
X117011686Y-87470147D01*
X117065004Y-87598869D01*
X117065006Y-87598875D01*
X117065012Y-87598887D01*
X117094255Y-87658187D01*
X117094256Y-87658188D01*
X117110440Y-87686221D01*
X117110459Y-87686250D01*
X117147169Y-87741192D01*
X117147179Y-87741205D01*
X117232024Y-87851777D01*
X117264495Y-87888802D01*
X117275626Y-87901495D01*
X117298484Y-87924353D01*
X117298499Y-87924367D01*
X117298512Y-87924380D01*
X117339247Y-87960105D01*
X117348220Y-87967974D01*
X117348246Y-87967995D01*
X117393653Y-88002836D01*
X117458795Y-88052821D01*
X117458801Y-88052825D01*
X117513760Y-88089548D01*
X117541804Y-88105740D01*
X117598060Y-88133482D01*
X117601108Y-88134985D01*
X117729870Y-88188320D01*
X117792483Y-88209574D01*
X117823750Y-88217952D01*
X117888601Y-88230852D01*
X117904184Y-88232903D01*
X117968079Y-88261167D01*
X118006552Y-88319490D01*
X118012000Y-88355842D01*
X118012000Y-97876830D01*
X118011999Y-97876848D01*
X118011999Y-98042554D01*
X118011998Y-98042554D01*
X118011999Y-98042557D01*
X118041500Y-98152656D01*
X118052924Y-98195287D01*
X118068712Y-98222632D01*
X118068713Y-98222634D01*
X118131977Y-98332212D01*
X118131981Y-98332217D01*
X118250849Y-98451085D01*
X118250855Y-98451090D01*
X118426925Y-98627160D01*
X118460410Y-98688483D01*
X118460861Y-98690649D01*
X118491761Y-98845991D01*
X118491764Y-98846001D01*
X118552102Y-98991672D01*
X118552109Y-98991685D01*
X118639710Y-99122788D01*
X118639713Y-99122792D01*
X118751207Y-99234286D01*
X118751211Y-99234289D01*
X118882314Y-99321890D01*
X118882327Y-99321897D01*
X119027998Y-99382235D01*
X119028003Y-99382237D01*
X119182653Y-99412999D01*
X119182656Y-99413000D01*
X119182658Y-99413000D01*
X119340344Y-99413000D01*
X119340345Y-99412999D01*
X119494997Y-99382237D01*
X119640679Y-99321894D01*
X119640685Y-99321890D01*
X119772375Y-99233898D01*
X119839053Y-99213020D01*
X119841266Y-99213000D01*
X120304559Y-99213000D01*
X120371598Y-99232685D01*
X120392240Y-99249319D01*
X120414707Y-99271786D01*
X120414711Y-99271789D01*
X120545814Y-99359390D01*
X120545827Y-99359397D01*
X120691498Y-99419735D01*
X120691503Y-99419737D01*
X120846153Y-99450499D01*
X120846156Y-99450500D01*
X120846158Y-99450500D01*
X121003844Y-99450500D01*
X121003845Y-99450499D01*
X121158497Y-99419737D01*
X121304179Y-99359394D01*
X121435289Y-99271789D01*
X121546789Y-99160289D01*
X121634394Y-99029179D01*
X121694737Y-98883497D01*
X121713918Y-98787067D01*
X121746302Y-98725157D01*
X121807018Y-98690583D01*
X121876787Y-98694322D01*
X121933133Y-98734770D01*
X122099298Y-98946793D01*
X122125158Y-99011700D01*
X122125700Y-99023281D01*
X122125700Y-100214817D01*
X122126308Y-100239594D01*
X122126904Y-100251739D01*
X122127602Y-100261206D01*
X122128727Y-100276476D01*
X122146123Y-100453230D01*
X122146125Y-100453250D01*
X122153055Y-100500000D01*
X122153392Y-100502273D01*
X122155467Y-100512714D01*
X122158128Y-100526098D01*
X122170159Y-100574167D01*
X122219906Y-100738286D01*
X122219913Y-100738305D01*
X122231917Y-100771879D01*
X122236603Y-100784983D01*
X122236614Y-100785013D01*
X122245882Y-100807405D01*
X122245885Y-100807412D01*
X122267059Y-100852217D01*
X122267069Y-100852237D01*
X122287265Y-100890053D01*
X122347858Y-101003507D01*
X122373326Y-101046034D01*
X122386813Y-101066237D01*
X122416327Y-101106070D01*
X122528932Y-101243414D01*
X122528946Y-101243430D01*
X122545107Y-101262185D01*
X122553271Y-101271204D01*
X122570343Y-101289154D01*
X122570364Y-101289175D01*
X122690414Y-101409358D01*
X122693920Y-101412867D01*
X122727371Y-101474209D01*
X122722348Y-101543898D01*
X122680445Y-101599808D01*
X122614968Y-101624189D01*
X122606190Y-101624500D01*
X122067350Y-101624500D01*
X122000311Y-101604815D01*
X121998459Y-101603602D01*
X121904184Y-101540609D01*
X121904172Y-101540602D01*
X121758501Y-101480264D01*
X121758489Y-101480261D01*
X121603845Y-101449500D01*
X121603842Y-101449500D01*
X121446158Y-101449500D01*
X121446155Y-101449500D01*
X121291510Y-101480261D01*
X121291498Y-101480264D01*
X121145827Y-101540602D01*
X121145814Y-101540609D01*
X121014711Y-101628210D01*
X121014707Y-101628213D01*
X120903213Y-101739707D01*
X120903210Y-101739711D01*
X120815609Y-101870814D01*
X120815602Y-101870827D01*
X120755264Y-102016498D01*
X120755261Y-102016510D01*
X120724500Y-102171153D01*
X120724500Y-102328846D01*
X120755261Y-102483489D01*
X120755264Y-102483501D01*
X120815602Y-102629172D01*
X120815609Y-102629185D01*
X120903210Y-102760288D01*
X120903213Y-102760292D01*
X121014707Y-102871786D01*
X121014711Y-102871789D01*
X121145814Y-102959390D01*
X121145827Y-102959397D01*
X121291498Y-103019735D01*
X121291503Y-103019737D01*
X121446153Y-103050499D01*
X121446156Y-103050500D01*
X121446158Y-103050500D01*
X121603844Y-103050500D01*
X121603845Y-103050499D01*
X121758497Y-103019737D01*
X121904179Y-102959394D01*
X122035289Y-102871789D01*
X122035292Y-102871786D01*
X122045260Y-102861819D01*
X122106583Y-102828334D01*
X122132941Y-102825500D01*
X124088331Y-102825500D01*
X124088347Y-102825501D01*
X124095943Y-102825501D01*
X124254054Y-102825501D01*
X124254057Y-102825501D01*
X124406785Y-102784577D01*
X124457535Y-102755276D01*
X124543716Y-102705520D01*
X124655520Y-102593716D01*
X124655521Y-102593714D01*
X125230520Y-102018716D01*
X125281514Y-101930390D01*
X125332080Y-101882177D01*
X125386687Y-101868412D01*
X128680024Y-101809677D01*
X128712306Y-101808067D01*
X128726221Y-101806926D01*
X128728119Y-101806771D01*
X128760220Y-101803103D01*
X128760219Y-101803103D01*
X128760229Y-101803102D01*
X128937942Y-101777014D01*
X129001155Y-101763558D01*
X129031617Y-101755006D01*
X129092587Y-101733600D01*
X129250534Y-101666520D01*
X129308268Y-101637514D01*
X129308279Y-101637507D01*
X129308290Y-101637502D01*
X129324165Y-101628210D01*
X129335575Y-101621532D01*
X129389158Y-101585383D01*
X129524848Y-101480622D01*
X129559206Y-101450354D01*
X129622520Y-101420810D01*
X129680177Y-101425693D01*
X129797302Y-101464505D01*
X129797309Y-101464506D01*
X129900019Y-101474999D01*
X130037499Y-101474999D01*
X130537500Y-101474999D01*
X130674972Y-101474999D01*
X130674986Y-101474998D01*
X130777697Y-101464505D01*
X130944119Y-101409358D01*
X130944124Y-101409356D01*
X131093345Y-101317315D01*
X131217315Y-101193345D01*
X131309356Y-101044124D01*
X131309358Y-101044119D01*
X131364505Y-100877697D01*
X131364506Y-100877690D01*
X131374999Y-100774986D01*
X131375000Y-100774973D01*
X131375000Y-100500000D01*
X130537500Y-100500000D01*
X130537500Y-101474999D01*
X130037499Y-101474999D01*
X130037500Y-101474998D01*
X130037500Y-100374000D01*
X130057185Y-100306961D01*
X130109989Y-100261206D01*
X130161500Y-100250000D01*
X130287500Y-100250000D01*
X130287500Y-100124000D01*
X130307185Y-100056961D01*
X130359989Y-100011206D01*
X130411500Y-100000000D01*
X131374999Y-100000000D01*
X131374999Y-99725028D01*
X131374998Y-99725013D01*
X131364505Y-99622302D01*
X131348237Y-99573206D01*
X131345835Y-99503377D01*
X131381567Y-99443335D01*
X131428504Y-99415990D01*
X131473688Y-99401682D01*
X131522067Y-99383595D01*
X131545290Y-99373532D01*
X131591581Y-99350595D01*
X131747399Y-99263203D01*
X131791095Y-99235671D01*
X131811789Y-99221104D01*
X131852456Y-99189250D01*
X131992106Y-99067853D01*
X132011185Y-99050391D01*
X132020311Y-99041599D01*
X132038435Y-99023223D01*
X132094511Y-98963387D01*
X132110346Y-98945674D01*
X132117914Y-98936797D01*
X132132931Y-98918318D01*
X132199521Y-98832315D01*
X132199527Y-98832307D01*
X132237269Y-98783560D01*
X132264577Y-98744638D01*
X132277049Y-98724953D01*
X132300589Y-98683616D01*
X132375202Y-98536950D01*
X132394750Y-98493591D01*
X132403319Y-98471916D01*
X132418703Y-98426917D01*
X132464553Y-98268880D01*
X132475641Y-98222634D01*
X132480003Y-98199738D01*
X132486696Y-98152645D01*
X132502713Y-97982979D01*
X132504391Y-97959256D01*
X132504940Y-97947602D01*
X132505500Y-97923815D01*
X132505500Y-97577816D01*
X132505066Y-97564555D01*
X132505000Y-97560501D01*
X132505000Y-97439498D01*
X132505066Y-97435444D01*
X132505500Y-97422177D01*
X132505500Y-96476131D01*
X132505500Y-96476117D01*
X132504597Y-96445915D01*
X132503712Y-96431129D01*
X132501008Y-96401054D01*
X132475233Y-96186439D01*
X132464467Y-96127033D01*
X132457466Y-96098304D01*
X132439691Y-96040595D01*
X132363834Y-95838179D01*
X132352395Y-95810227D01*
X132346378Y-95796692D01*
X132333287Y-95769466D01*
X132198892Y-95510105D01*
X132185591Y-95486060D01*
X132178752Y-95474453D01*
X132164168Y-95451171D01*
X132066044Y-95303602D01*
X132033183Y-95259574D01*
X132015939Y-95238915D01*
X132015934Y-95238909D01*
X131978519Y-95198738D01*
X131978499Y-95198718D01*
X131855769Y-95080529D01*
X131855762Y-95080522D01*
X131855752Y-95080513D01*
X131852385Y-95077606D01*
X131814177Y-95044619D01*
X131792884Y-95028167D01*
X131747658Y-94996994D01*
X131682665Y-94957226D01*
X131602279Y-94908039D01*
X131594142Y-94903649D01*
X131553946Y-94881963D01*
X131553914Y-94881947D01*
X131529617Y-94870497D01*
X131529569Y-94870476D01*
X131478725Y-94849812D01*
X131478722Y-94849811D01*
X131478710Y-94849806D01*
X131478703Y-94849804D01*
X131317567Y-94794310D01*
X131317568Y-94794310D01*
X131317559Y-94794307D01*
X131264766Y-94779279D01*
X131264746Y-94779274D01*
X131264741Y-94779273D01*
X131238503Y-94773324D01*
X131238500Y-94773323D01*
X131238498Y-94773323D01*
X131238493Y-94773322D01*
X131184349Y-94764106D01*
X131184333Y-94764104D01*
X131074047Y-94751451D01*
X131009688Y-94724253D01*
X130970250Y-94666578D01*
X130968254Y-94596737D01*
X131000501Y-94540577D01*
X131050786Y-94490292D01*
X131050789Y-94490289D01*
X131138394Y-94359179D01*
X131198737Y-94213497D01*
X131229500Y-94058842D01*
X131229500Y-93901158D01*
X131229500Y-93901155D01*
X131229499Y-93901153D01*
X131204629Y-93776124D01*
X131198737Y-93746503D01*
X131185633Y-93714866D01*
X131138397Y-93600827D01*
X131138390Y-93600814D01*
X131050789Y-93469711D01*
X131050786Y-93469707D01*
X130941012Y-93359933D01*
X130907527Y-93298610D01*
X130912511Y-93228918D01*
X130937150Y-93190579D01*
X130936434Y-93189992D01*
X130940296Y-93185287D01*
X131027900Y-93054178D01*
X131088243Y-92908496D01*
X131119006Y-92753841D01*
X131119006Y-92596157D01*
X131119006Y-92596155D01*
X131119006Y-92596154D01*
X131119005Y-92596152D01*
X131088243Y-92441502D01*
X131027903Y-92295827D01*
X131027903Y-92295826D01*
X131027896Y-92295813D01*
X130940295Y-92164710D01*
X130940292Y-92164706D01*
X130828798Y-92053212D01*
X130828794Y-92053209D01*
X130697691Y-91965608D01*
X130697678Y-91965601D01*
X130552007Y-91905263D01*
X130551995Y-91905260D01*
X130397351Y-91874499D01*
X130397348Y-91874499D01*
X130239664Y-91874499D01*
X130239661Y-91874499D01*
X130085016Y-91905260D01*
X130085004Y-91905263D01*
X129939333Y-91965601D01*
X129939320Y-91965608D01*
X129808217Y-92053209D01*
X129808213Y-92053212D01*
X129696719Y-92164706D01*
X129696716Y-92164710D01*
X129609115Y-92295813D01*
X129609108Y-92295826D01*
X129548770Y-92441497D01*
X129548767Y-92441509D01*
X129518006Y-92596152D01*
X129518006Y-92753845D01*
X129548767Y-92908488D01*
X129548770Y-92908500D01*
X129609108Y-93054171D01*
X129609115Y-93054184D01*
X129696716Y-93185287D01*
X129696719Y-93185291D01*
X129806493Y-93295065D01*
X129839978Y-93356388D01*
X129834994Y-93426080D01*
X129810360Y-93464422D01*
X129811072Y-93465007D01*
X129807208Y-93469714D01*
X129719609Y-93600814D01*
X129719602Y-93600827D01*
X129659264Y-93746498D01*
X129659261Y-93746510D01*
X129628500Y-93901153D01*
X129628500Y-94058846D01*
X129659261Y-94213489D01*
X129659264Y-94213501D01*
X129719602Y-94359172D01*
X129719609Y-94359185D01*
X129807210Y-94490288D01*
X129807213Y-94490292D01*
X129838502Y-94521581D01*
X129871987Y-94582904D01*
X129867003Y-94652596D01*
X129825131Y-94708529D01*
X129759667Y-94732946D01*
X129750138Y-94733260D01*
X127654478Y-94721719D01*
X127587548Y-94701666D01*
X127567484Y-94685406D01*
X127510289Y-94628211D01*
X127510288Y-94628210D01*
X127510287Y-94628209D01*
X127379185Y-94540609D01*
X127379172Y-94540602D01*
X127233501Y-94480264D01*
X127233489Y-94480261D01*
X127078845Y-94449500D01*
X127078842Y-94449500D01*
X126921158Y-94449500D01*
X126921155Y-94449500D01*
X126766510Y-94480261D01*
X126766498Y-94480264D01*
X126620827Y-94540602D01*
X126620814Y-94540609D01*
X126489714Y-94628208D01*
X126439695Y-94678226D01*
X126378371Y-94711710D01*
X126351332Y-94714541D01*
X124370757Y-94703634D01*
X124303827Y-94683581D01*
X124296830Y-94678678D01*
X123147651Y-93812983D01*
X123105949Y-93756923D01*
X123098264Y-93714870D01*
X123084910Y-91925422D01*
X123104094Y-91858240D01*
X123156555Y-91812092D01*
X123208907Y-91800499D01*
X123524394Y-91800499D01*
X123524404Y-91800499D01*
X123559156Y-91797765D01*
X123707887Y-91754555D01*
X123841198Y-91675715D01*
X123950715Y-91566198D01*
X124029555Y-91432887D01*
X124072765Y-91284156D01*
X124075500Y-91249405D01*
X124075499Y-90900596D01*
X124072765Y-90865844D01*
X124029555Y-90717113D01*
X124008037Y-90680729D01*
X123990855Y-90613006D01*
X124013015Y-90546743D01*
X124049903Y-90513960D01*
X124049114Y-90512779D01*
X124137522Y-90453706D01*
X124185289Y-90421789D01*
X124296789Y-90310289D01*
X124384394Y-90179179D01*
X124444737Y-90033497D01*
X124475500Y-89878842D01*
X124475500Y-89721158D01*
X124475500Y-89721155D01*
X124475499Y-89721153D01*
X124462776Y-89657191D01*
X124444737Y-89566503D01*
X124444735Y-89566498D01*
X124384397Y-89420827D01*
X124384390Y-89420814D01*
X124296789Y-89289711D01*
X124296786Y-89289707D01*
X124185292Y-89178213D01*
X124185288Y-89178210D01*
X124054185Y-89090609D01*
X124054175Y-89090604D01*
X123976078Y-89058255D01*
X123921675Y-89014414D01*
X123899610Y-88948119D01*
X123916889Y-88880420D01*
X123925146Y-88868218D01*
X123960955Y-88821552D01*
X123997686Y-88766580D01*
X124013870Y-88738549D01*
X124043115Y-88679246D01*
X124090387Y-88565124D01*
X124111645Y-88502500D01*
X124120023Y-88471231D01*
X124132921Y-88406387D01*
X124150114Y-88275795D01*
X124153356Y-88242880D01*
X124154417Y-88226695D01*
X124155500Y-88193628D01*
X124155500Y-87748245D01*
X124164143Y-87718808D01*
X124170667Y-87688819D01*
X124174422Y-87683802D01*
X124175185Y-87681206D01*
X124191818Y-87660565D01*
X124217026Y-87635356D01*
X124247026Y-87605356D01*
X124287252Y-87578478D01*
X124319942Y-87564938D01*
X124367392Y-87555500D01*
X124371729Y-87555500D01*
X124438768Y-87575185D01*
X124484523Y-87627989D01*
X124494467Y-87697147D01*
X124486290Y-87726953D01*
X124480263Y-87741502D01*
X124480261Y-87741510D01*
X124449500Y-87896153D01*
X124449500Y-88053846D01*
X124480261Y-88208489D01*
X124480264Y-88208501D01*
X124540602Y-88354172D01*
X124540609Y-88354185D01*
X124628210Y-88485288D01*
X124628213Y-88485292D01*
X124739707Y-88596786D01*
X124739711Y-88596789D01*
X124870814Y-88684390D01*
X124870827Y-88684397D01*
X125001571Y-88738552D01*
X125016503Y-88744737D01*
X125171153Y-88775499D01*
X125171156Y-88775500D01*
X125171158Y-88775500D01*
X125328844Y-88775500D01*
X125328845Y-88775499D01*
X125483497Y-88744737D01*
X125629179Y-88684394D01*
X125760289Y-88596789D01*
X125871789Y-88485289D01*
X125959394Y-88354179D01*
X126019737Y-88208497D01*
X126050500Y-88053842D01*
X126050500Y-87896158D01*
X126050500Y-87896155D01*
X126050499Y-87896153D01*
X126041672Y-87851777D01*
X126019737Y-87741503D01*
X126013709Y-87726952D01*
X126006241Y-87657483D01*
X126037516Y-87595004D01*
X126097605Y-87559352D01*
X126128271Y-87555500D01*
X126993890Y-87555500D01*
X126993907Y-87555500D01*
X127018707Y-87554891D01*
X127030861Y-87554294D01*
X127055610Y-87552469D01*
X127108347Y-87547274D01*
X127176991Y-87560292D01*
X127227701Y-87608357D01*
X127244500Y-87670677D01*
X127244500Y-90276000D01*
X127249105Y-90318836D01*
X127236700Y-90387594D01*
X127189089Y-90438731D01*
X127150008Y-90453706D01*
X127016508Y-90480261D01*
X127016498Y-90480264D01*
X126870827Y-90540602D01*
X126870814Y-90540609D01*
X126739711Y-90628210D01*
X126739707Y-90628213D01*
X126628213Y-90739707D01*
X126628210Y-90739711D01*
X126540609Y-90870814D01*
X126540602Y-90870827D01*
X126480264Y-91016498D01*
X126480261Y-91016510D01*
X126449500Y-91171153D01*
X126449500Y-91328846D01*
X126480261Y-91483489D01*
X126480264Y-91483501D01*
X126540602Y-91629172D01*
X126540609Y-91629185D01*
X126628210Y-91760288D01*
X126628213Y-91760292D01*
X126739707Y-91871786D01*
X126739711Y-91871789D01*
X126870814Y-91959390D01*
X126870827Y-91959397D01*
X127016498Y-92019735D01*
X127016503Y-92019737D01*
X127171153Y-92050499D01*
X127171156Y-92050500D01*
X127272536Y-92050500D01*
X127339575Y-92070185D01*
X127385330Y-92122989D01*
X127395274Y-92192147D01*
X127375638Y-92243391D01*
X127340609Y-92295814D01*
X127340602Y-92295827D01*
X127280264Y-92441498D01*
X127280261Y-92441510D01*
X127249500Y-92596153D01*
X127249500Y-92753846D01*
X127280261Y-92908489D01*
X127280264Y-92908501D01*
X127340602Y-93054172D01*
X127340609Y-93054185D01*
X127428210Y-93185288D01*
X127428213Y-93185292D01*
X127539707Y-93296786D01*
X127539711Y-93296789D01*
X127670814Y-93384390D01*
X127670827Y-93384397D01*
X127816498Y-93444735D01*
X127816503Y-93444737D01*
X127942035Y-93469707D01*
X127971153Y-93475499D01*
X127971156Y-93475500D01*
X127971158Y-93475500D01*
X128128844Y-93475500D01*
X128128845Y-93475499D01*
X128283497Y-93444737D01*
X128429179Y-93384394D01*
X128560289Y-93296789D01*
X128671789Y-93185289D01*
X128759394Y-93054179D01*
X128819737Y-92908497D01*
X128850500Y-92753842D01*
X128850500Y-92596158D01*
X128850500Y-92596157D01*
X128850500Y-92596155D01*
X128850499Y-92596153D01*
X128819738Y-92441510D01*
X128819738Y-92441509D01*
X128819737Y-92441503D01*
X128819735Y-92441497D01*
X128759397Y-92295827D01*
X128759390Y-92295814D01*
X128671789Y-92164711D01*
X128671786Y-92164707D01*
X128560292Y-92053213D01*
X128560288Y-92053210D01*
X128429185Y-91965609D01*
X128429172Y-91965602D01*
X128283501Y-91905264D01*
X128283489Y-91905261D01*
X128128845Y-91874500D01*
X128128842Y-91874500D01*
X128027464Y-91874500D01*
X127960425Y-91854815D01*
X127914670Y-91802011D01*
X127904726Y-91732853D01*
X127924362Y-91681609D01*
X127959390Y-91629185D01*
X127959390Y-91629184D01*
X127959394Y-91629179D01*
X128019737Y-91483497D01*
X128050500Y-91328842D01*
X128050500Y-91171158D01*
X128050500Y-91171155D01*
X128050499Y-91171153D01*
X128027135Y-91053691D01*
X128033362Y-90984100D01*
X128076225Y-90928922D01*
X128142115Y-90905678D01*
X128148752Y-90905500D01*
X131575990Y-90905500D01*
X131576000Y-90905500D01*
X131683456Y-90893947D01*
X131734967Y-90882741D01*
X131770780Y-90870821D01*
X131837497Y-90848616D01*
X131837501Y-90848613D01*
X131837504Y-90848613D01*
X131958543Y-90770825D01*
X132011347Y-90725070D01*
X132105567Y-90616336D01*
X132165338Y-90485459D01*
X132185023Y-90418420D01*
X132185024Y-90418416D01*
X132205500Y-90276000D01*
X132205500Y-87766632D01*
X132207125Y-87758458D01*
X132206210Y-87753386D01*
X132214936Y-87719187D01*
X132216092Y-87716395D01*
X132219099Y-87709134D01*
X132245984Y-87668898D01*
X132273068Y-87641816D01*
X132334392Y-87608333D01*
X132360746Y-87605500D01*
X133175990Y-87605500D01*
X133176000Y-87605500D01*
X133283456Y-87593947D01*
X133334967Y-87582741D01*
X133388456Y-87564938D01*
X133437497Y-87548616D01*
X133437501Y-87548613D01*
X133437504Y-87548613D01*
X133558543Y-87470825D01*
X133611347Y-87425070D01*
X133705567Y-87316336D01*
X133765338Y-87185459D01*
X133785023Y-87118420D01*
X133785024Y-87118416D01*
X133805500Y-86976000D01*
X133805500Y-86148606D01*
X133825185Y-86081567D01*
X133877989Y-86035812D01*
X133890325Y-86030957D01*
X133987504Y-85998613D01*
X134108543Y-85920825D01*
X134161347Y-85875070D01*
X134255567Y-85766336D01*
X134315338Y-85635459D01*
X134335023Y-85568420D01*
X134335024Y-85568416D01*
X134355500Y-85426000D01*
X134355500Y-84324000D01*
X134343947Y-84216544D01*
X134332741Y-84165033D01*
X134332637Y-84164722D01*
X134298616Y-84062502D01*
X134298613Y-84062496D01*
X134233363Y-83960967D01*
X134220825Y-83941457D01*
X134215070Y-83934815D01*
X134175076Y-83888659D01*
X134175072Y-83888656D01*
X134175070Y-83888653D01*
X134066336Y-83794433D01*
X134066333Y-83794431D01*
X134066331Y-83794430D01*
X133935465Y-83734664D01*
X133935460Y-83734662D01*
X133935459Y-83734662D01*
X133868420Y-83714977D01*
X133868422Y-83714977D01*
X133868417Y-83714976D01*
X133796714Y-83704667D01*
X133726000Y-83694500D01*
X133648730Y-83694500D01*
X133648729Y-83694500D01*
X133576786Y-83699645D01*
X133541852Y-83704667D01*
X133471379Y-83719999D01*
X133340504Y-83779767D01*
X133340495Y-83779772D01*
X133281729Y-83817538D01*
X133281728Y-83817539D01*
X133194999Y-83892677D01*
X133194970Y-83892702D01*
X133173039Y-83911703D01*
X133170758Y-83914334D01*
X133170753Y-83914339D01*
X133167047Y-83918616D01*
X133166979Y-83918697D01*
X133166291Y-83919490D01*
X133125000Y-83945989D01*
X133125000Y-82550000D01*
X132950000Y-82271000D01*
X131350000Y-82271000D01*
X131344031Y-82281473D01*
X131329789Y-82209875D01*
X131325737Y-82189503D01*
X131309517Y-82150344D01*
X131265397Y-82043827D01*
X131265390Y-82043814D01*
X131175522Y-81909318D01*
X131154644Y-81842641D01*
X131173128Y-81775260D01*
X131190935Y-81752754D01*
X131245340Y-81698350D01*
X131335908Y-81551516D01*
X131390174Y-81387753D01*
X131398282Y-81308388D01*
X131424678Y-81243696D01*
X131481859Y-81203544D01*
X131551670Y-81200681D01*
X131560634Y-81203281D01*
X131597315Y-81215436D01*
X131695826Y-81225500D01*
X131695831Y-81225500D01*
X132229169Y-81225500D01*
X132229174Y-81225500D01*
X132327685Y-81215436D01*
X132487287Y-81162549D01*
X132630391Y-81074281D01*
X132662672Y-81042000D01*
X132723995Y-81008515D01*
X132793687Y-81013499D01*
X132838034Y-81042000D01*
X132869919Y-81073885D01*
X133012922Y-81162091D01*
X133012927Y-81162093D01*
X133172416Y-81214942D01*
X133270856Y-81224999D01*
X133787500Y-81224999D01*
X133804136Y-81224999D01*
X133804152Y-81224998D01*
X133902583Y-81214943D01*
X134062072Y-81162093D01*
X134062077Y-81162091D01*
X134205080Y-81073885D01*
X134323885Y-80955080D01*
X134412091Y-80812077D01*
X134412093Y-80812072D01*
X134464942Y-80652583D01*
X134474999Y-80554150D01*
X134475000Y-80554137D01*
X134475000Y-80500000D01*
X133787500Y-80500000D01*
X133787500Y-81224999D01*
X133270856Y-81224999D01*
X133287500Y-81224998D01*
X133287500Y-80000000D01*
X133787500Y-80000000D01*
X134474999Y-80000000D01*
X134474999Y-79945864D01*
X134474998Y-79945847D01*
X134464943Y-79847416D01*
X134412093Y-79687927D01*
X134412091Y-79687922D01*
X134323885Y-79544919D01*
X134205080Y-79426114D01*
X134062077Y-79337908D01*
X134062072Y-79337906D01*
X133902583Y-79285057D01*
X133804150Y-79275000D01*
X133787500Y-79275000D01*
X133787500Y-80000000D01*
X133287500Y-80000000D01*
X133287500Y-79274999D01*
X133270856Y-79275000D01*
X133172415Y-79285057D01*
X133012927Y-79337906D01*
X133012922Y-79337908D01*
X132869919Y-79426114D01*
X132838033Y-79458000D01*
X132776709Y-79491485D01*
X132707018Y-79486499D01*
X132662673Y-79458000D01*
X132630392Y-79425719D01*
X132630387Y-79425716D01*
X132487295Y-79337455D01*
X132487289Y-79337452D01*
X132487287Y-79337451D01*
X132327685Y-79284564D01*
X132327683Y-79284563D01*
X132229181Y-79274500D01*
X132229174Y-79274500D01*
X131695826Y-79274500D01*
X131695818Y-79274500D01*
X131597316Y-79284563D01*
X131597312Y-79284564D01*
X131560642Y-79296716D01*
X131490814Y-79299117D01*
X131430772Y-79263386D01*
X131399580Y-79200865D01*
X131398281Y-79191611D01*
X131393468Y-79144497D01*
X131390174Y-79112247D01*
X131335908Y-78948484D01*
X131245340Y-78801650D01*
X131123350Y-78679660D01*
X131026566Y-78619963D01*
X130976518Y-78589093D01*
X130976513Y-78589091D01*
X130927154Y-78572735D01*
X130812753Y-78534826D01*
X130812751Y-78534825D01*
X130711678Y-78524500D01*
X130113330Y-78524500D01*
X130113312Y-78524501D01*
X130012247Y-78534825D01*
X129848484Y-78589092D01*
X129848481Y-78589093D01*
X129701648Y-78679661D01*
X129587681Y-78793629D01*
X129526358Y-78827114D01*
X129456666Y-78822130D01*
X129412319Y-78793629D01*
X129298351Y-78679661D01*
X129298350Y-78679660D01*
X129201566Y-78619963D01*
X129151518Y-78589093D01*
X129151513Y-78589091D01*
X129102154Y-78572735D01*
X128987753Y-78534826D01*
X128987751Y-78534825D01*
X128886678Y-78524500D01*
X128288330Y-78524500D01*
X128288312Y-78524501D01*
X128187247Y-78534825D01*
X128023483Y-78589092D01*
X127971796Y-78620973D01*
X127904403Y-78639412D01*
X127837740Y-78618488D01*
X127835073Y-78616653D01*
X127770529Y-78570979D01*
X127770528Y-78570978D01*
X127634428Y-78524323D01*
X127634429Y-78524323D01*
X127566375Y-78511416D01*
X127565816Y-78511307D01*
X127565773Y-78511301D01*
X127463098Y-78506716D01*
X127422031Y-78504883D01*
X127422030Y-78504883D01*
X127422029Y-78504883D01*
X127422023Y-78504883D01*
X127406645Y-78506398D01*
X127406623Y-78506400D01*
X127357606Y-78513670D01*
X127357566Y-78513677D01*
X127333772Y-78518409D01*
X127333745Y-78518415D01*
X127285616Y-78530469D01*
X127285602Y-78530473D01*
X127146266Y-78572740D01*
X127099571Y-78589449D01*
X127077137Y-78598741D01*
X127032281Y-78619956D01*
X127032267Y-78619963D01*
X126903902Y-78688576D01*
X126861356Y-78714077D01*
X126861335Y-78714090D01*
X126841154Y-78727574D01*
X126841112Y-78727604D01*
X126801295Y-78757135D01*
X126801273Y-78757153D01*
X126688754Y-78849494D01*
X126688748Y-78849500D01*
X126652000Y-78882806D01*
X126634806Y-78900000D01*
X126601505Y-78936741D01*
X126509142Y-79049287D01*
X126509132Y-79049300D01*
X126479602Y-79089114D01*
X126479594Y-79089125D01*
X126466106Y-79109310D01*
X126440572Y-79151908D01*
X126371963Y-79280267D01*
X126371956Y-79280281D01*
X126350741Y-79325137D01*
X126341453Y-79347560D01*
X126324734Y-79394285D01*
X126282471Y-79533612D01*
X126270423Y-79581707D01*
X126270420Y-79581722D01*
X126265680Y-79605547D01*
X126265676Y-79605571D01*
X126258402Y-79654611D01*
X126258396Y-79654659D01*
X126250277Y-79737107D01*
X126243531Y-79805603D01*
X126241706Y-79830335D01*
X126241109Y-79842493D01*
X126240500Y-79867318D01*
X126240500Y-80765253D01*
X126220815Y-80832292D01*
X126204181Y-80852934D01*
X125176045Y-81881069D01*
X125114722Y-81914554D01*
X125088311Y-81917388D01*
X121053935Y-81915667D01*
X121003579Y-81918158D01*
X120979048Y-81920602D01*
X120979021Y-81920606D01*
X120929309Y-81928071D01*
X120929307Y-81928071D01*
X120922677Y-81929407D01*
X120920988Y-81929747D01*
X120913147Y-81931328D01*
X120913128Y-81931333D01*
X120817031Y-81960920D01*
X120771748Y-81979975D01*
X120683335Y-82028049D01*
X120683324Y-82028056D01*
X120679925Y-82030370D01*
X120603870Y-82093900D01*
X120591020Y-82106974D01*
X120591021Y-82106975D01*
X120585335Y-82112760D01*
X120577193Y-82119125D01*
X120572099Y-82126228D01*
X120565364Y-82133082D01*
X120564993Y-82133459D01*
X120557991Y-82143250D01*
X120509948Y-82202853D01*
X120507710Y-82205629D01*
X120504925Y-82209878D01*
X120469077Y-82278148D01*
X120420482Y-82328351D01*
X120359292Y-82344500D01*
X119702489Y-82344500D01*
X119635450Y-82324815D01*
X119589695Y-82272011D01*
X119579751Y-82202853D01*
X119608776Y-82139297D01*
X119663485Y-82102794D01*
X119719119Y-82084358D01*
X119719124Y-82084356D01*
X119868345Y-81992315D01*
X119992315Y-81868345D01*
X120084356Y-81719124D01*
X120084358Y-81719119D01*
X120139505Y-81552697D01*
X120139506Y-81552690D01*
X120149999Y-81449986D01*
X120150000Y-81449973D01*
X120150000Y-81237500D01*
X117350001Y-81237500D01*
X117350001Y-81449986D01*
X117360494Y-81552697D01*
X117415641Y-81719119D01*
X117415643Y-81719124D01*
X117507684Y-81868345D01*
X117631654Y-81992315D01*
X117780875Y-82084356D01*
X117780880Y-82084358D01*
X117947302Y-82139505D01*
X117947309Y-82139506D01*
X118050013Y-82149999D01*
X118053169Y-82150160D01*
X118053160Y-82150320D01*
X118053162Y-82150321D01*
X118053159Y-82150344D01*
X118053107Y-82151368D01*
X118115485Y-82169643D01*
X118161272Y-82222419D01*
X118171258Y-82291571D01*
X118142271Y-82355145D01*
X118084504Y-82392660D01*
X117932254Y-82438844D01*
X117885541Y-82455558D01*
X117885504Y-82455573D01*
X117863103Y-82464853D01*
X117863079Y-82464863D01*
X117818269Y-82486058D01*
X117818264Y-82486060D01*
X117818259Y-82486063D01*
X117666905Y-82566963D01*
X117666897Y-82566967D01*
X117666891Y-82566971D01*
X117624359Y-82592463D01*
X117604129Y-82605981D01*
X117564329Y-82635499D01*
X117564299Y-82635522D01*
X117431656Y-82744379D01*
X117431631Y-82744401D01*
X117394884Y-82777707D01*
X117394877Y-82777715D01*
X117377715Y-82794877D01*
X117377707Y-82794884D01*
X117344401Y-82831631D01*
X117344379Y-82831656D01*
X117235522Y-82964299D01*
X117235499Y-82964329D01*
X117205981Y-83004129D01*
X117192463Y-83024359D01*
X117169531Y-83062620D01*
X117166963Y-83066905D01*
X117086063Y-83218259D01*
X117086058Y-83218269D01*
X117064863Y-83263079D01*
X117064853Y-83263103D01*
X117055573Y-83285504D01*
X117055558Y-83285541D01*
X117038842Y-83332259D01*
X116989021Y-83496502D01*
X116976970Y-83544613D01*
X116972228Y-83568447D01*
X116964954Y-83617490D01*
X116964949Y-83617534D01*
X116947530Y-83794398D01*
X116945706Y-83819125D01*
X116945109Y-83831284D01*
X116945109Y-83831292D01*
X116944500Y-83856092D01*
X111950500Y-83856092D01*
X111950500Y-80525013D01*
X117350000Y-80525013D01*
X117350000Y-80737500D01*
X118500000Y-80737500D01*
X119000000Y-80737500D01*
X120149999Y-80737500D01*
X120149999Y-80525028D01*
X120149998Y-80525013D01*
X120139505Y-80422302D01*
X120084358Y-80255880D01*
X120084356Y-80255875D01*
X119992315Y-80106654D01*
X119868345Y-79982684D01*
X119719124Y-79890643D01*
X119719119Y-79890641D01*
X119552697Y-79835494D01*
X119552690Y-79835493D01*
X119449986Y-79825000D01*
X119000000Y-79825000D01*
X119000000Y-80737500D01*
X118500000Y-80737500D01*
X118500000Y-79825000D01*
X118050028Y-79825000D01*
X118050012Y-79825001D01*
X117947302Y-79835494D01*
X117780880Y-79890641D01*
X117780875Y-79890643D01*
X117631654Y-79982684D01*
X117507684Y-80106654D01*
X117415643Y-80255875D01*
X117415641Y-80255880D01*
X117360494Y-80422302D01*
X117360493Y-80422309D01*
X117350000Y-80525013D01*
X111950500Y-80525013D01*
X111950500Y-78595171D01*
X121915800Y-78595171D01*
X121915800Y-78815528D01*
X121915801Y-78815544D01*
X121944563Y-79034018D01*
X122001600Y-79246883D01*
X122085929Y-79450470D01*
X122085933Y-79450479D01*
X122196117Y-79641323D01*
X122244421Y-79704273D01*
X122786883Y-79161811D01*
X122876774Y-79296342D01*
X123005908Y-79425476D01*
X123140437Y-79515365D01*
X122597975Y-80057827D01*
X122660926Y-80106131D01*
X122660933Y-80106136D01*
X122851770Y-80216316D01*
X122851779Y-80216320D01*
X123055366Y-80300649D01*
X123268231Y-80357686D01*
X123486705Y-80386448D01*
X123486722Y-80386450D01*
X123707078Y-80386450D01*
X123707094Y-80386448D01*
X123925568Y-80357686D01*
X124138433Y-80300649D01*
X124342020Y-80216320D01*
X124342029Y-80216316D01*
X124532869Y-80106134D01*
X124595823Y-80057827D01*
X124595823Y-80057826D01*
X124053362Y-79515366D01*
X124187892Y-79425476D01*
X124317026Y-79296342D01*
X124406916Y-79161812D01*
X124949376Y-79704273D01*
X124949377Y-79704273D01*
X124997684Y-79641319D01*
X125107866Y-79450479D01*
X125107870Y-79450470D01*
X125192199Y-79246883D01*
X125249236Y-79034018D01*
X125277998Y-78815544D01*
X125278000Y-78815528D01*
X125278000Y-78595171D01*
X125277998Y-78595155D01*
X125249236Y-78376681D01*
X125192199Y-78163816D01*
X125107870Y-77960229D01*
X125107866Y-77960220D01*
X124997686Y-77769383D01*
X124997681Y-77769376D01*
X124949377Y-77706425D01*
X124406915Y-78248886D01*
X124317026Y-78114358D01*
X124187892Y-77985224D01*
X124053362Y-77895333D01*
X124595823Y-77352871D01*
X124532873Y-77304567D01*
X124342029Y-77194383D01*
X124342020Y-77194379D01*
X124138433Y-77110050D01*
X123925568Y-77053013D01*
X123707094Y-77024251D01*
X123707078Y-77024250D01*
X123486722Y-77024250D01*
X123486705Y-77024251D01*
X123268231Y-77053013D01*
X123055366Y-77110050D01*
X122851779Y-77194379D01*
X122851769Y-77194383D01*
X122660936Y-77304560D01*
X122660929Y-77304566D01*
X122597975Y-77352870D01*
X122597975Y-77352871D01*
X123140437Y-77895333D01*
X123005908Y-77985224D01*
X122876774Y-78114358D01*
X122786883Y-78248887D01*
X122244421Y-77706425D01*
X122244420Y-77706425D01*
X122196116Y-77769379D01*
X122196110Y-77769386D01*
X122085933Y-77960219D01*
X122085929Y-77960229D01*
X122001600Y-78163816D01*
X121944563Y-78376681D01*
X121915801Y-78595155D01*
X121915800Y-78595171D01*
X111950500Y-78595171D01*
X111950500Y-72503245D01*
X111950670Y-72496756D01*
X111952590Y-72460118D01*
X111966865Y-72187709D01*
X111968219Y-72174837D01*
X112016123Y-71872387D01*
X112018816Y-71859711D01*
X112098074Y-71563917D01*
X112102082Y-71551585D01*
X112184776Y-71336160D01*
X112211818Y-71265713D01*
X112217083Y-71253885D01*
X112356118Y-70981014D01*
X112362584Y-70969816D01*
X112529374Y-70712982D01*
X112536976Y-70702519D01*
X112729701Y-70464522D01*
X112738368Y-70454897D01*
X112954897Y-70238368D01*
X112964522Y-70229701D01*
X113202519Y-70036976D01*
X113212982Y-70029374D01*
X113469816Y-69862584D01*
X113481014Y-69856118D01*
X113753885Y-69717083D01*
X113765713Y-69711818D01*
X114051589Y-69602080D01*
X114063917Y-69598074D01*
X114359711Y-69518816D01*
X114372387Y-69516123D01*
X114674837Y-69468219D01*
X114687709Y-69466865D01*
X114996756Y-69450669D01*
X115003245Y-69450500D01*
X115039882Y-69450500D01*
X123132556Y-69450500D01*
X123199595Y-69470185D01*
G37*
%TD.AperFunction*%
%TA.AperFunction,Conductor*%
G36*
X127175000Y-107275000D02*
G01*
X127350000Y-107400000D01*
X127475400Y-107525400D01*
X127600001Y-107524867D01*
X127600001Y-107536654D01*
X127610319Y-107637654D01*
X127620705Y-107668997D01*
X127623106Y-107738826D01*
X127587374Y-107798867D01*
X127524853Y-107830059D01*
X127502999Y-107832000D01*
X127498000Y-107832000D01*
X127498000Y-108783000D01*
X127478315Y-108850039D01*
X127425511Y-108895794D01*
X127374000Y-108907000D01*
X127122000Y-108907000D01*
X127054961Y-108887315D01*
X127009206Y-108834511D01*
X126998000Y-108783000D01*
X126998000Y-107832000D01*
X126900164Y-107832000D01*
X126861252Y-107836183D01*
X126834748Y-107836183D01*
X126795835Y-107832000D01*
X126698000Y-107832000D01*
X126698000Y-108783000D01*
X126695449Y-108791685D01*
X126696738Y-108800647D01*
X126685759Y-108824687D01*
X126678315Y-108850039D01*
X126671474Y-108855966D01*
X126667713Y-108864203D01*
X126645478Y-108878492D01*
X126625511Y-108895794D01*
X126614996Y-108898081D01*
X126608935Y-108901977D01*
X126574000Y-108907000D01*
X126572499Y-108907000D01*
X126505460Y-108887315D01*
X126459705Y-108834511D01*
X126448499Y-108783000D01*
X126448499Y-108284129D01*
X126448498Y-108284123D01*
X126442091Y-108224516D01*
X126391797Y-108089671D01*
X126391793Y-108089664D01*
X126305547Y-107974455D01*
X126300166Y-107970427D01*
X126270259Y-107948038D01*
X126247688Y-107931141D01*
X126205818Y-107875207D01*
X126198027Y-107832027D01*
X126198000Y-107832000D01*
X126100165Y-107832000D01*
X126063598Y-107835931D01*
X126037092Y-107835931D01*
X125995873Y-107831500D01*
X125600130Y-107831500D01*
X125600119Y-107831501D01*
X125561253Y-107835679D01*
X125534748Y-107835679D01*
X125500000Y-107831943D01*
X125500000Y-107715244D01*
X125575000Y-107512500D01*
X125585715Y-107499999D01*
X126224972Y-107499999D01*
X126224986Y-107499998D01*
X126327696Y-107489505D01*
X126327698Y-107489505D01*
X126494119Y-107434359D01*
X126494130Y-107434354D01*
X126643340Y-107342319D01*
X126643344Y-107342316D01*
X126735660Y-107250000D01*
X126950000Y-107250000D01*
X127175000Y-107275000D01*
G37*
%TD.AperFunction*%
%TA.AperFunction,Conductor*%
G36*
X124956250Y-107531250D02*
G01*
X125050000Y-107757582D01*
X125050000Y-107836002D01*
X125041855Y-107836237D01*
X125038289Y-107836060D01*
X124995873Y-107831500D01*
X124946415Y-107831500D01*
X124943353Y-107831348D01*
X124913138Y-107820822D01*
X124882461Y-107811815D01*
X124880378Y-107809411D01*
X124877372Y-107808364D01*
X124857643Y-107783174D01*
X124836706Y-107759011D01*
X124835931Y-107755451D01*
X124834291Y-107753357D01*
X124833398Y-107743805D01*
X124825500Y-107707500D01*
X124825500Y-107623999D01*
X124845185Y-107556960D01*
X124897989Y-107511205D01*
X124929376Y-107504376D01*
X124956250Y-107531250D01*
G37*
%TD.AperFunction*%
%TA.AperFunction,Conductor*%
G36*
X122746174Y-107352273D02*
G01*
X122723488Y-107383429D01*
X122470182Y-107636735D01*
X122525000Y-107500000D01*
X122750533Y-107329326D01*
X122746174Y-107352273D01*
G37*
%TD.AperFunction*%
%TD*%
%TA.AperFunction,Conductor*%
%TO.N,GND*%
G36*
X127565000Y-105355600D02*
G01*
X127699953Y-105355904D01*
X127697819Y-105362345D01*
X127697819Y-105362346D01*
X127687500Y-105463345D01*
X127687500Y-105500000D01*
X128551000Y-105500000D01*
X128618039Y-105519685D01*
X128663794Y-105572489D01*
X128675000Y-105624000D01*
X128675000Y-105750000D01*
X128801000Y-105750000D01*
X128868039Y-105769685D01*
X128913794Y-105822489D01*
X128925000Y-105874000D01*
X128925000Y-106766138D01*
X128905315Y-106833177D01*
X128888681Y-106853819D01*
X128887500Y-106855000D01*
X128887500Y-107126000D01*
X128867815Y-107193039D01*
X128815011Y-107238794D01*
X128763500Y-107250000D01*
X128637500Y-107250000D01*
X128637500Y-107376000D01*
X128617815Y-107443039D01*
X128565011Y-107488794D01*
X128513500Y-107500000D01*
X127600001Y-107500000D01*
X127600001Y-107524867D01*
X127475400Y-107525400D01*
X127350000Y-107400000D01*
X127175000Y-107275000D01*
X126950000Y-107250000D01*
X125886433Y-107250000D01*
X125743750Y-107315625D01*
X125575000Y-107512500D01*
X125500000Y-107715244D01*
X125500000Y-108137915D01*
X125467748Y-108131500D01*
X125128252Y-108131500D01*
X125072190Y-108142651D01*
X125070574Y-108142721D01*
X125069820Y-108143098D01*
X125063412Y-108143035D01*
X125050000Y-108143623D01*
X125050000Y-107757582D01*
X124956250Y-107531250D01*
X124745313Y-107320313D01*
X124575563Y-107250000D01*
X124341283Y-107250000D01*
X124332316Y-107241033D01*
X124332314Y-107241031D01*
X124249190Y-107193039D01*
X124218187Y-107175139D01*
X124154539Y-107158085D01*
X124090892Y-107141031D01*
X123959108Y-107141031D01*
X123831812Y-107175139D01*
X123717686Y-107241031D01*
X123717683Y-107241033D01*
X123708716Y-107250000D01*
X123007582Y-107250000D01*
X122756250Y-107325000D01*
X122525000Y-107500000D01*
X122425000Y-107749437D01*
X122425000Y-108127091D01*
X122419462Y-108129782D01*
X122398894Y-108131500D01*
X122128247Y-108131500D01*
X122069770Y-108143131D01*
X122069769Y-108143132D01*
X122025000Y-108173045D01*
X122025000Y-107672985D01*
X121971875Y-107484375D01*
X121796094Y-107308594D01*
X121654636Y-107250000D01*
X121013659Y-107250000D01*
X120800000Y-107036341D01*
X120800000Y-106963345D01*
X127600000Y-106963345D01*
X127600000Y-107000000D01*
X128387500Y-107000000D01*
X128387500Y-106233862D01*
X128407185Y-106166823D01*
X128423819Y-106146181D01*
X128425000Y-106145000D01*
X128425000Y-106000000D01*
X127687501Y-106000000D01*
X127687501Y-106036654D01*
X127697819Y-106137652D01*
X127752046Y-106301300D01*
X127752049Y-106301307D01*
X127797348Y-106374746D01*
X127815789Y-106442139D01*
X127794867Y-106508802D01*
X127779493Y-106527524D01*
X127755052Y-106551965D01*
X127664551Y-106698688D01*
X127664546Y-106698699D01*
X127610319Y-106862347D01*
X127600000Y-106963345D01*
X120800000Y-106963345D01*
X120800000Y-105771585D01*
X121221585Y-105350000D01*
X127565000Y-105355600D01*
G37*
%TD.AperFunction*%
%TD*%
M02*
