%TF.GenerationSoftware,KiCad,Pcbnew,9.0.8-9.0.8~ubuntu22.04.1*%
%TF.CreationDate,2026-03-23T17:46:09-05:00*%
%TF.ProjectId,Jetson_PD_Board,4a657473-6f6e-45f5-9044-5f426f617264,rev?*%
%TF.SameCoordinates,Original*%
%TF.FileFunction,Paste,Top*%
%TF.FilePolarity,Positive*%
%FSLAX46Y46*%
G04 Gerber Fmt 4.6, Leading zero omitted, Abs format (unit mm)*
G04 Created by KiCad (PCBNEW 9.0.8-9.0.8~ubuntu22.04.1) date 2026-03-23 17:46:09*
%MOMM*%
%LPD*%
G01*
G04 APERTURE LIST*
G04 Aperture macros list*
%AMRoundRect*
0 Rectangle with rounded corners*
0 $1 Rounding radius*
0 $2 $3 $4 $5 $6 $7 $8 $9 X,Y pos of 4 corners*
0 Add a 4 corners polygon primitive as box body*
4,1,4,$2,$3,$4,$5,$6,$7,$8,$9,$2,$3,0*
0 Add four circle primitives for the rounded corners*
1,1,$1+$1,$2,$3*
1,1,$1+$1,$4,$5*
1,1,$1+$1,$6,$7*
1,1,$1+$1,$8,$9*
0 Add four rect primitives between the rounded corners*
20,1,$1+$1,$2,$3,$4,$5,0*
20,1,$1+$1,$4,$5,$6,$7,0*
20,1,$1+$1,$6,$7,$8,$9,0*
20,1,$1+$1,$8,$9,$2,$3,0*%
G04 Aperture macros list end*
%ADD10C,0.010000*%
%ADD11R,0.600000X1.150000*%
%ADD12R,0.300000X1.150000*%
%ADD13RoundRect,0.237500X0.237500X-0.300000X0.237500X0.300000X-0.237500X0.300000X-0.237500X-0.300000X0*%
%ADD14RoundRect,0.237500X-0.250000X-0.237500X0.250000X-0.237500X0.250000X0.237500X-0.250000X0.237500X0*%
%ADD15RoundRect,0.237500X-0.300000X-0.237500X0.300000X-0.237500X0.300000X0.237500X-0.300000X0.237500X0*%
%ADD16RoundRect,0.112500X0.187500X0.112500X-0.187500X0.112500X-0.187500X-0.112500X0.187500X-0.112500X0*%
%ADD17RoundRect,0.250000X0.650000X-0.412500X0.650000X0.412500X-0.650000X0.412500X-0.650000X-0.412500X0*%
%ADD18RoundRect,0.250000X0.412500X0.650000X-0.412500X0.650000X-0.412500X-0.650000X0.412500X-0.650000X0*%
%ADD19RoundRect,0.218750X0.218750X0.256250X-0.218750X0.256250X-0.218750X-0.256250X0.218750X-0.256250X0*%
%ADD20R,3.400000X2.400000*%
%ADD21RoundRect,0.250000X-0.337500X-0.475000X0.337500X-0.475000X0.337500X0.475000X-0.337500X0.475000X0*%
%ADD22R,3.708400X1.600200*%
%ADD23RoundRect,0.249999X-1.425001X0.450001X-1.425001X-0.450001X1.425001X-0.450001X1.425001X0.450001X0*%
%ADD24RoundRect,0.150000X-0.512500X-0.150000X0.512500X-0.150000X0.512500X0.150000X-0.512500X0.150000X0*%
G04 APERTURE END LIST*
D10*
%TO.C,Q1*%
X129000000Y-84185000D02*
X128440000Y-84185000D01*
X128440000Y-83865000D01*
X129000000Y-83865000D01*
X129000000Y-84185000D01*
G36*
X129000000Y-84185000D02*
G01*
X128440000Y-84185000D01*
X128440000Y-83865000D01*
X129000000Y-83865000D01*
X129000000Y-84185000D01*
G37*
X129000000Y-84835000D02*
X128440000Y-84835000D01*
X128440000Y-84515000D01*
X129000000Y-84515000D01*
X129000000Y-84835000D01*
G36*
X129000000Y-84835000D02*
G01*
X128440000Y-84835000D01*
X128440000Y-84515000D01*
X129000000Y-84515000D01*
X129000000Y-84835000D01*
G37*
X129000000Y-85485000D02*
X128440000Y-85485000D01*
X128440000Y-85165000D01*
X129000000Y-85165000D01*
X129000000Y-85485000D01*
G36*
X129000000Y-85485000D02*
G01*
X128440000Y-85485000D01*
X128440000Y-85165000D01*
X129000000Y-85165000D01*
X129000000Y-85485000D01*
G37*
X129000000Y-86135000D02*
X128440000Y-86135000D01*
X128440000Y-85815000D01*
X129000000Y-85815000D01*
X129000000Y-86135000D01*
G36*
X129000000Y-86135000D02*
G01*
X128440000Y-86135000D01*
X128440000Y-85815000D01*
X129000000Y-85815000D01*
X129000000Y-86135000D01*
G37*
X127490000Y-83900000D02*
X127670000Y-83900000D01*
X127670000Y-84900000D01*
X126670000Y-84900000D01*
X126670000Y-83900000D01*
X127070000Y-83900000D01*
X127070000Y-83350000D01*
X127490000Y-83350000D01*
X127490000Y-83900000D01*
G36*
X127490000Y-83900000D02*
G01*
X127670000Y-83900000D01*
X127670000Y-84900000D01*
X126670000Y-84900000D01*
X126670000Y-83900000D01*
X127070000Y-83900000D01*
X127070000Y-83350000D01*
X127490000Y-83350000D01*
X127490000Y-83900000D01*
G37*
X127670000Y-86100000D02*
X127490000Y-86100000D01*
X127490000Y-86650000D01*
X127070000Y-86650000D01*
X127070000Y-86100000D01*
X126670000Y-86100000D01*
X126670000Y-85100000D01*
X127670000Y-85100000D01*
X127670000Y-86100000D01*
G36*
X127670000Y-86100000D02*
G01*
X127490000Y-86100000D01*
X127490000Y-86650000D01*
X127070000Y-86650000D01*
X127070000Y-86100000D01*
X126670000Y-86100000D01*
X126670000Y-85100000D01*
X127670000Y-85100000D01*
X127670000Y-86100000D01*
G37*
X126470000Y-84900000D02*
X126000000Y-84900000D01*
X126000000Y-84800000D01*
X125500000Y-84800000D01*
X125500000Y-84540000D01*
X126000000Y-84540000D01*
X126000000Y-84160000D01*
X125500000Y-84160000D01*
X125500000Y-83900000D01*
X126470000Y-83900000D01*
X126470000Y-84900000D01*
G36*
X126470000Y-84900000D02*
G01*
X126000000Y-84900000D01*
X126000000Y-84800000D01*
X125500000Y-84800000D01*
X125500000Y-84540000D01*
X126000000Y-84540000D01*
X126000000Y-84160000D01*
X125500000Y-84160000D01*
X125500000Y-83900000D01*
X126470000Y-83900000D01*
X126470000Y-84900000D01*
G37*
X126470000Y-86100000D02*
X125500000Y-86100000D01*
X125500000Y-85840000D01*
X126000000Y-85840000D01*
X126000000Y-85460000D01*
X125500000Y-85460000D01*
X125500000Y-85200000D01*
X126000000Y-85200000D01*
X126000000Y-85100000D01*
X126470000Y-85100000D01*
X126470000Y-86100000D01*
G36*
X126470000Y-86100000D02*
G01*
X125500000Y-86100000D01*
X125500000Y-85840000D01*
X126000000Y-85840000D01*
X126000000Y-85460000D01*
X125500000Y-85460000D01*
X125500000Y-85200000D01*
X126000000Y-85200000D01*
X126000000Y-85100000D01*
X126470000Y-85100000D01*
X126470000Y-86100000D01*
G37*
%TO.C,Q3*%
X120710000Y-89780000D02*
X120390000Y-89780000D01*
X120390000Y-89220000D01*
X120710000Y-89220000D01*
X120710000Y-89780000D01*
G36*
X120710000Y-89780000D02*
G01*
X120390000Y-89780000D01*
X120390000Y-89220000D01*
X120710000Y-89220000D01*
X120710000Y-89780000D01*
G37*
X121360000Y-89780000D02*
X121040000Y-89780000D01*
X121040000Y-89220000D01*
X121360000Y-89220000D01*
X121360000Y-89780000D01*
G36*
X121360000Y-89780000D02*
G01*
X121040000Y-89780000D01*
X121040000Y-89220000D01*
X121360000Y-89220000D01*
X121360000Y-89780000D01*
G37*
X122010000Y-89780000D02*
X121690000Y-89780000D01*
X121690000Y-89220000D01*
X122010000Y-89220000D01*
X122010000Y-89780000D01*
G36*
X122010000Y-89780000D02*
G01*
X121690000Y-89780000D01*
X121690000Y-89220000D01*
X122010000Y-89220000D01*
X122010000Y-89780000D01*
G37*
X122660000Y-89780000D02*
X122340000Y-89780000D01*
X122340000Y-89220000D01*
X122660000Y-89220000D01*
X122660000Y-89780000D01*
G36*
X122660000Y-89780000D02*
G01*
X122340000Y-89780000D01*
X122340000Y-89220000D01*
X122660000Y-89220000D01*
X122660000Y-89780000D01*
G37*
X121425000Y-88450000D02*
X120425000Y-88450000D01*
X120425000Y-88270000D01*
X119875000Y-88270000D01*
X119875000Y-87850000D01*
X120425000Y-87850000D01*
X120425000Y-87450000D01*
X121425000Y-87450000D01*
X121425000Y-88450000D01*
G36*
X121425000Y-88450000D02*
G01*
X120425000Y-88450000D01*
X120425000Y-88270000D01*
X119875000Y-88270000D01*
X119875000Y-87850000D01*
X120425000Y-87850000D01*
X120425000Y-87450000D01*
X121425000Y-87450000D01*
X121425000Y-88450000D01*
G37*
X122625000Y-87850000D02*
X123175000Y-87850000D01*
X123175000Y-88270000D01*
X122625000Y-88270000D01*
X122625000Y-88450000D01*
X121625000Y-88450000D01*
X121625000Y-87450000D01*
X122625000Y-87450000D01*
X122625000Y-87850000D01*
G36*
X122625000Y-87850000D02*
G01*
X123175000Y-87850000D01*
X123175000Y-88270000D01*
X122625000Y-88270000D01*
X122625000Y-88450000D01*
X121625000Y-88450000D01*
X121625000Y-87450000D01*
X122625000Y-87450000D01*
X122625000Y-87850000D01*
G37*
X120685000Y-86780000D02*
X121065000Y-86780000D01*
X121065000Y-86280000D01*
X121325000Y-86280000D01*
X121325000Y-86780000D01*
X121425000Y-86780000D01*
X121425000Y-87250000D01*
X120425000Y-87250000D01*
X120425000Y-86280000D01*
X120685000Y-86280000D01*
X120685000Y-86780000D01*
G36*
X120685000Y-86780000D02*
G01*
X121065000Y-86780000D01*
X121065000Y-86280000D01*
X121325000Y-86280000D01*
X121325000Y-86780000D01*
X121425000Y-86780000D01*
X121425000Y-87250000D01*
X120425000Y-87250000D01*
X120425000Y-86280000D01*
X120685000Y-86280000D01*
X120685000Y-86780000D01*
G37*
X121985000Y-86780000D02*
X122365000Y-86780000D01*
X122365000Y-86280000D01*
X122625000Y-86280000D01*
X122625000Y-87250000D01*
X121625000Y-87250000D01*
X121625000Y-86780000D01*
X121725000Y-86780000D01*
X121725000Y-86280000D01*
X121985000Y-86280000D01*
X121985000Y-86780000D01*
G36*
X121985000Y-86780000D02*
G01*
X122365000Y-86780000D01*
X122365000Y-86280000D01*
X122625000Y-86280000D01*
X122625000Y-87250000D01*
X121625000Y-87250000D01*
X121625000Y-86780000D01*
X121725000Y-86780000D01*
X121725000Y-86280000D01*
X121985000Y-86280000D01*
X121985000Y-86780000D01*
G37*
%TO.C,Q2*%
X131010000Y-83780000D02*
X130690000Y-83780000D01*
X130690000Y-83220000D01*
X131010000Y-83220000D01*
X131010000Y-83780000D01*
G36*
X131010000Y-83780000D02*
G01*
X130690000Y-83780000D01*
X130690000Y-83220000D01*
X131010000Y-83220000D01*
X131010000Y-83780000D01*
G37*
X131660000Y-83780000D02*
X131340000Y-83780000D01*
X131340000Y-83220000D01*
X131660000Y-83220000D01*
X131660000Y-83780000D01*
G36*
X131660000Y-83780000D02*
G01*
X131340000Y-83780000D01*
X131340000Y-83220000D01*
X131660000Y-83220000D01*
X131660000Y-83780000D01*
G37*
X132310000Y-83780000D02*
X131990000Y-83780000D01*
X131990000Y-83220000D01*
X132310000Y-83220000D01*
X132310000Y-83780000D01*
G36*
X132310000Y-83780000D02*
G01*
X131990000Y-83780000D01*
X131990000Y-83220000D01*
X132310000Y-83220000D01*
X132310000Y-83780000D01*
G37*
X132960000Y-83780000D02*
X132640000Y-83780000D01*
X132640000Y-83220000D01*
X132960000Y-83220000D01*
X132960000Y-83780000D01*
G36*
X132960000Y-83780000D02*
G01*
X132640000Y-83780000D01*
X132640000Y-83220000D01*
X132960000Y-83220000D01*
X132960000Y-83780000D01*
G37*
X131725000Y-85550000D02*
X130725000Y-85550000D01*
X130725000Y-85150000D01*
X130175000Y-85150000D01*
X130175000Y-84730000D01*
X130725000Y-84730000D01*
X130725000Y-84550000D01*
X131725000Y-84550000D01*
X131725000Y-85550000D01*
G36*
X131725000Y-85550000D02*
G01*
X130725000Y-85550000D01*
X130725000Y-85150000D01*
X130175000Y-85150000D01*
X130175000Y-84730000D01*
X130725000Y-84730000D01*
X130725000Y-84550000D01*
X131725000Y-84550000D01*
X131725000Y-85550000D01*
G37*
X132925000Y-84730000D02*
X133475000Y-84730000D01*
X133475000Y-85150000D01*
X132925000Y-85150000D01*
X132925000Y-85550000D01*
X131925000Y-85550000D01*
X131925000Y-84550000D01*
X132925000Y-84550000D01*
X132925000Y-84730000D01*
G36*
X132925000Y-84730000D02*
G01*
X133475000Y-84730000D01*
X133475000Y-85150000D01*
X132925000Y-85150000D01*
X132925000Y-85550000D01*
X131925000Y-85550000D01*
X131925000Y-84550000D01*
X132925000Y-84550000D01*
X132925000Y-84730000D01*
G37*
X131725000Y-86220000D02*
X131625000Y-86220000D01*
X131625000Y-86720000D01*
X131365000Y-86720000D01*
X131365000Y-86220000D01*
X130985000Y-86220000D01*
X130985000Y-86720000D01*
X130725000Y-86720000D01*
X130725000Y-85750000D01*
X131725000Y-85750000D01*
X131725000Y-86220000D01*
G36*
X131725000Y-86220000D02*
G01*
X131625000Y-86220000D01*
X131625000Y-86720000D01*
X131365000Y-86720000D01*
X131365000Y-86220000D01*
X130985000Y-86220000D01*
X130985000Y-86720000D01*
X130725000Y-86720000D01*
X130725000Y-85750000D01*
X131725000Y-85750000D01*
X131725000Y-86220000D01*
G37*
X132925000Y-86720000D02*
X132665000Y-86720000D01*
X132665000Y-86220000D01*
X132285000Y-86220000D01*
X132285000Y-86720000D01*
X132025000Y-86720000D01*
X132025000Y-86220000D01*
X131925000Y-86220000D01*
X131925000Y-85750000D01*
X132925000Y-85750000D01*
X132925000Y-86720000D01*
G36*
X132925000Y-86720000D02*
G01*
X132665000Y-86720000D01*
X132665000Y-86220000D01*
X132285000Y-86220000D01*
X132285000Y-86720000D01*
X132025000Y-86720000D01*
X132025000Y-86220000D01*
X131925000Y-86220000D01*
X131925000Y-85750000D01*
X132925000Y-85750000D01*
X132925000Y-86720000D01*
G37*
%TD*%
D11*
%TO.C,J3*%
X120848000Y-108907000D03*
X121648000Y-108907000D03*
D12*
X122798000Y-108907000D03*
X123798000Y-108907000D03*
X124298000Y-108907000D03*
X125298000Y-108907000D03*
D11*
X127248000Y-108907000D03*
X126448000Y-108907000D03*
D12*
X125798000Y-108907000D03*
X124798000Y-108907000D03*
X123298000Y-108907000D03*
X122298000Y-108907000D03*
%TD*%
D13*
%TO.C,C9*%
X121500000Y-106112500D03*
X121500000Y-104387500D03*
%TD*%
D14*
%TO.C,R12*%
X128587500Y-79500000D03*
X130412500Y-79500000D03*
%TD*%
D15*
%TO.C,C10*%
X128637500Y-107250000D03*
X130362500Y-107250000D03*
%TD*%
D16*
%TO.C,D1*%
X123275000Y-91075000D03*
X121175000Y-91075000D03*
%TD*%
D14*
%TO.C,R11*%
X128675000Y-105750000D03*
X130500000Y-105750000D03*
%TD*%
D17*
%TO.C,C13*%
X118750000Y-84112500D03*
X118750000Y-80987500D03*
%TD*%
D18*
%TO.C,C12*%
X118612500Y-86400000D03*
X115487500Y-86400000D03*
%TD*%
D19*
%TO.C,D5*%
X133537500Y-80250000D03*
X131962500Y-80250000D03*
%TD*%
D20*
%TO.C,L1*%
X129750000Y-88900000D03*
X129750000Y-97100000D03*
%TD*%
D21*
%TO.C,C1*%
X128212500Y-100250000D03*
X130287500Y-100250000D03*
%TD*%
D22*
%TO.C,C2*%
X121204400Y-96500000D03*
X114295600Y-96500000D03*
%TD*%
D19*
%TO.C,D4*%
X133537500Y-105750000D03*
X131962500Y-105750000D03*
%TD*%
D14*
%TO.C,R1*%
X128587500Y-81000000D03*
X130412500Y-81000000D03*
%TD*%
D23*
%TO.C,R5*%
X124750000Y-100200000D03*
X124750000Y-106300000D03*
%TD*%
D24*
%TO.C,U2*%
X116362500Y-104800000D03*
X116362500Y-105750000D03*
X116362500Y-106700000D03*
X118637500Y-106700000D03*
X118637500Y-105750000D03*
X118637500Y-104800000D03*
%TD*%
M02*
