%TF.GenerationSoftware,KiCad,Pcbnew,9.0.8-9.0.8~ubuntu22.04.1*%
%TF.CreationDate,2026-03-31T20:11:35-05:00*%
%TF.ProjectId,Jetson_PD_Board,4a657473-6f6e-45f5-9044-5f426f617264,rev?*%
%TF.SameCoordinates,Original*%
%TF.FileFunction,Copper,L2,Inr*%
%TF.FilePolarity,Positive*%
%FSLAX46Y46*%
G04 Gerber Fmt 4.6, Leading zero omitted, Abs format (unit mm)*
G04 Created by KiCad (PCBNEW 9.0.8-9.0.8~ubuntu22.04.1) date 2026-03-31 20:11:35*
%MOMM*%
%LPD*%
G01*
G04 APERTURE LIST*
%TA.AperFunction,ComponentPad*%
%ADD10C,3.600000*%
%TD*%
%TA.AperFunction,ComponentPad*%
%ADD11O,1.000000X2.100000*%
%TD*%
%TA.AperFunction,ComponentPad*%
%ADD12O,1.000000X1.800000*%
%TD*%
%TA.AperFunction,ComponentPad*%
%ADD13C,2.362200*%
%TD*%
%TA.AperFunction,ViaPad*%
%ADD14C,0.600000*%
%TD*%
%TA.AperFunction,Conductor*%
%ADD15C,0.200000*%
%TD*%
G04 APERTURE END LIST*
D10*
%TO.N,GND*%
%TO.C,H8*%
X132250000Y-111685000D03*
%TD*%
D11*
%TO.N,GND*%
%TO.C,J3*%
X119728000Y-109482000D03*
X128368000Y-109482000D03*
D12*
X119728000Y-113662000D03*
X128368000Y-113662000D03*
%TD*%
D10*
%TO.N,GND*%
%TO.C,H7*%
X115000000Y-111685000D03*
%TD*%
%TO.N,GND*%
%TO.C,H5*%
X115000000Y-72500000D03*
%TD*%
D13*
%TO.N,GND*%
%TO.C,J2*%
X123596900Y-78705350D03*
%TO.N,V_{batt}*%
X123596900Y-84217150D03*
%TD*%
D10*
%TO.N,GND*%
%TO.C,H6*%
X132250000Y-72500000D03*
%TD*%
D14*
%TO.N,GND*%
X122097800Y-110515400D03*
%TO.N,V_{out}*%
X126448000Y-108907000D03*
%TO.N,GND*%
X115000000Y-85000000D03*
X125000000Y-93325000D03*
X112500000Y-100000000D03*
X127500000Y-75000000D03*
X117500000Y-77500000D03*
X120000000Y-80000000D03*
X112500000Y-95000000D03*
X112500000Y-107500000D03*
X115000000Y-77500000D03*
X125000000Y-75000000D03*
X122500000Y-75000000D03*
X120000000Y-75000000D03*
X112500000Y-105000000D03*
X125000000Y-94325000D03*
X125000000Y-92325000D03*
X126000000Y-93325000D03*
X126000000Y-92325000D03*
X125000000Y-112500000D03*
X112500000Y-102500000D03*
X132500000Y-97500000D03*
X132500000Y-102500000D03*
X112500000Y-87500000D03*
X126000000Y-94325000D03*
X124000000Y-93325000D03*
X115000000Y-87500000D03*
X112500000Y-90000000D03*
X130000000Y-77500000D03*
X127500000Y-72500000D03*
%TO.N,V_{out}*%
X122125000Y-103000000D03*
%TO.N,GND*%
X115000000Y-95000000D03*
X117500000Y-80000000D03*
X112500000Y-92500000D03*
X115000000Y-92500000D03*
X130000000Y-102500000D03*
X133553200Y-104622600D03*
X132800000Y-82677000D03*
X132150000Y-82677000D03*
X120000000Y-72500000D03*
X124000000Y-92325000D03*
X127500000Y-77500000D03*
%TO.N,V_{out}*%
X128637500Y-107264200D03*
%TO.N,GND*%
X120000000Y-77500000D03*
X115265200Y-105765600D03*
X131500000Y-82677000D03*
X132500000Y-77500000D03*
X115000000Y-100000000D03*
X124000000Y-94325000D03*
%TO.N,/Buck_{out}*%
X121525000Y-102250000D03*
%TO.N,Net-(U1-VFB)*%
X127250000Y-91250000D03*
X126599265Y-96125735D03*
%TO.N,/Switching_Node*%
X130318506Y-92674999D03*
X129625000Y-84675000D03*
%TO.N,V5V*%
X125250000Y-87975000D03*
X125199000Y-96050000D03*
%TO.N,CC2*%
X125000000Y-110490000D03*
%TO.N,CC1*%
X124025000Y-107641531D03*
%TO.N,V_{batt}*%
X120925000Y-98650000D03*
X119261500Y-98612500D03*
%TO.N,Net-(Q1-G)*%
X130429000Y-93980000D03*
X128750000Y-83261200D03*
%TO.N,Net-(Q2-G)*%
X130556000Y-82423000D03*
X128050000Y-92675000D03*
%TO.N,Net-(D1-K)*%
X123675000Y-89800000D03*
%TO.N,Net-(U1-GATE)*%
X114825000Y-89525000D03*
X127000000Y-95250000D03*
%TO.N,/DP*%
X116350000Y-102225000D03*
%TO.N,/DN*%
X115375000Y-108075000D03*
%TD*%
D15*
%TO.N,V5V*%
X123050000Y-92291200D02*
X125250000Y-90091200D01*
X125250000Y-90091200D02*
X125250000Y-87975000D01*
X125199000Y-96050000D02*
X123900000Y-96050000D01*
X123050000Y-95200000D02*
X123050000Y-92291200D01*
X123900000Y-96050000D02*
X123050000Y-95200000D01*
%TD*%
%TA.AperFunction,Conductor*%
%TO.N,GND*%
G36*
X123199595Y-69470185D02*
G01*
X123245350Y-69522989D01*
X123255294Y-69592147D01*
X123226269Y-69655703D01*
X123167491Y-69693477D01*
X123164671Y-69694268D01*
X123127246Y-69704296D01*
X123025279Y-69731618D01*
X122810378Y-69820633D01*
X122810367Y-69820638D01*
X122608933Y-69936937D01*
X122608917Y-69936948D01*
X122424382Y-70078546D01*
X122424375Y-70078552D01*
X122259902Y-70243025D01*
X122259896Y-70243032D01*
X122118298Y-70427567D01*
X122118287Y-70427583D01*
X122001988Y-70629017D01*
X122001983Y-70629028D01*
X121912968Y-70843929D01*
X121852763Y-71068621D01*
X121822400Y-71299235D01*
X121822400Y-71531864D01*
X121826622Y-71563928D01*
X121852763Y-71762480D01*
X121878813Y-71859701D01*
X121912968Y-71987170D01*
X122001983Y-72202071D01*
X122001988Y-72202082D01*
X122118287Y-72403516D01*
X122118298Y-72403532D01*
X122259896Y-72588067D01*
X122259902Y-72588074D01*
X122424375Y-72752547D01*
X122424381Y-72752552D01*
X122608926Y-72894158D01*
X122608933Y-72894162D01*
X122810367Y-73010461D01*
X122810372Y-73010463D01*
X122810375Y-73010465D01*
X122917828Y-73054973D01*
X123025279Y-73099481D01*
X123025280Y-73099481D01*
X123025282Y-73099482D01*
X123249970Y-73159687D01*
X123480593Y-73190050D01*
X123480600Y-73190050D01*
X123713200Y-73190050D01*
X123713207Y-73190050D01*
X123943830Y-73159687D01*
X124168518Y-73099482D01*
X124383425Y-73010465D01*
X124584874Y-72894158D01*
X124769419Y-72752552D01*
X124933902Y-72588069D01*
X125075508Y-72403524D01*
X125191815Y-72202075D01*
X125280832Y-71987168D01*
X125341037Y-71762480D01*
X125371400Y-71531857D01*
X125371400Y-71299243D01*
X125341037Y-71068620D01*
X125280832Y-70843932D01*
X125191815Y-70629025D01*
X125191813Y-70629022D01*
X125191811Y-70629017D01*
X125075512Y-70427583D01*
X125075508Y-70427576D01*
X124933902Y-70243031D01*
X124933897Y-70243025D01*
X124769424Y-70078552D01*
X124769417Y-70078546D01*
X124584882Y-69936948D01*
X124584880Y-69936946D01*
X124584874Y-69936942D01*
X124584869Y-69936939D01*
X124584866Y-69936937D01*
X124383432Y-69820638D01*
X124383421Y-69820633D01*
X124168520Y-69731618D01*
X124078616Y-69707529D01*
X124029150Y-69694274D01*
X123969490Y-69657910D01*
X123938961Y-69595063D01*
X123947256Y-69525688D01*
X123991741Y-69471810D01*
X124058293Y-69450535D01*
X124061244Y-69450500D01*
X132210118Y-69450500D01*
X132246755Y-69450500D01*
X132253243Y-69450669D01*
X132562288Y-69466865D01*
X132575164Y-69468219D01*
X132877608Y-69516122D01*
X132890292Y-69518817D01*
X133186077Y-69598073D01*
X133198415Y-69602082D01*
X133484279Y-69711815D01*
X133496121Y-69717087D01*
X133768976Y-69856114D01*
X133780191Y-69862590D01*
X134037008Y-70029368D01*
X134047489Y-70036983D01*
X134224091Y-70179992D01*
X134285467Y-70229693D01*
X134295112Y-70238378D01*
X134511621Y-70454887D01*
X134520306Y-70464532D01*
X134713014Y-70702507D01*
X134720633Y-70712995D01*
X134887406Y-70969802D01*
X134893888Y-70981029D01*
X134938519Y-71068620D01*
X135032907Y-71253867D01*
X135038186Y-71265725D01*
X135147917Y-71551585D01*
X135151928Y-71563928D01*
X135231180Y-71859701D01*
X135233878Y-71872397D01*
X135281778Y-72174819D01*
X135283135Y-72187728D01*
X135299330Y-72496756D01*
X135299500Y-72503245D01*
X135299500Y-111681754D01*
X135299330Y-111688243D01*
X135283135Y-111997271D01*
X135281778Y-112010180D01*
X135233878Y-112312602D01*
X135231180Y-112325298D01*
X135151928Y-112621071D01*
X135147917Y-112633414D01*
X135038186Y-112919274D01*
X135032907Y-112931132D01*
X134893892Y-113203964D01*
X134887402Y-113215204D01*
X134720638Y-113471998D01*
X134713009Y-113482499D01*
X134520306Y-113720467D01*
X134511621Y-113730112D01*
X134295112Y-113946621D01*
X134285467Y-113955306D01*
X134047499Y-114148009D01*
X134036998Y-114155638D01*
X133780204Y-114322402D01*
X133768964Y-114328892D01*
X133496132Y-114467907D01*
X133484274Y-114473186D01*
X133198414Y-114582917D01*
X133186071Y-114586928D01*
X132890298Y-114666180D01*
X132877602Y-114668878D01*
X132575180Y-114716778D01*
X132562271Y-114718135D01*
X132253244Y-114734330D01*
X132246755Y-114734500D01*
X129353329Y-114734500D01*
X129286290Y-114714815D01*
X129240535Y-114662011D01*
X129230591Y-114592853D01*
X129250226Y-114541611D01*
X129254183Y-114535687D01*
X129254192Y-114535671D01*
X129329569Y-114353693D01*
X129329572Y-114353681D01*
X129367999Y-114160495D01*
X129368000Y-114160492D01*
X129368000Y-113912000D01*
X128668000Y-113912000D01*
X128668000Y-113412000D01*
X129368000Y-113412000D01*
X129368000Y-113163508D01*
X129367999Y-113163504D01*
X129329572Y-112970318D01*
X129329569Y-112970306D01*
X129254192Y-112788328D01*
X129254185Y-112788315D01*
X129144751Y-112624537D01*
X129144748Y-112624533D01*
X129005466Y-112485251D01*
X129005462Y-112485248D01*
X128841684Y-112375814D01*
X128841671Y-112375807D01*
X128659691Y-112300429D01*
X128659683Y-112300427D01*
X128618000Y-112292135D01*
X128618000Y-113095011D01*
X128608060Y-113077795D01*
X128552205Y-113021940D01*
X128483796Y-112982444D01*
X128407496Y-112962000D01*
X128328504Y-112962000D01*
X128252204Y-112982444D01*
X128183795Y-113021940D01*
X128127940Y-113077795D01*
X128118000Y-113095011D01*
X128118000Y-112292136D01*
X128117999Y-112292135D01*
X128076316Y-112300427D01*
X128076308Y-112300429D01*
X127894328Y-112375807D01*
X127894315Y-112375814D01*
X127730537Y-112485248D01*
X127730533Y-112485251D01*
X127591251Y-112624533D01*
X127591248Y-112624537D01*
X127481814Y-112788315D01*
X127481807Y-112788328D01*
X127406430Y-112970306D01*
X127406427Y-112970318D01*
X127368000Y-113163504D01*
X127368000Y-113412000D01*
X128068000Y-113412000D01*
X128068000Y-113912000D01*
X127368000Y-113912000D01*
X127368000Y-114160495D01*
X127406427Y-114353681D01*
X127406430Y-114353693D01*
X127481807Y-114535671D01*
X127481816Y-114535687D01*
X127485774Y-114541611D01*
X127506651Y-114608289D01*
X127488165Y-114675669D01*
X127436185Y-114722358D01*
X127382671Y-114734500D01*
X120713329Y-114734500D01*
X120646290Y-114714815D01*
X120600535Y-114662011D01*
X120590591Y-114592853D01*
X120610226Y-114541611D01*
X120614183Y-114535687D01*
X120614192Y-114535671D01*
X120689569Y-114353693D01*
X120689572Y-114353681D01*
X120727999Y-114160495D01*
X120728000Y-114160492D01*
X120728000Y-113912000D01*
X120028000Y-113912000D01*
X120028000Y-113412000D01*
X120728000Y-113412000D01*
X120728000Y-113163508D01*
X120727999Y-113163504D01*
X120689572Y-112970318D01*
X120689569Y-112970306D01*
X120614192Y-112788328D01*
X120614185Y-112788315D01*
X120504751Y-112624537D01*
X120504748Y-112624533D01*
X120365466Y-112485251D01*
X120365462Y-112485248D01*
X120201684Y-112375814D01*
X120201671Y-112375807D01*
X120019691Y-112300429D01*
X120019683Y-112300427D01*
X119978000Y-112292135D01*
X119978000Y-113095011D01*
X119968060Y-113077795D01*
X119912205Y-113021940D01*
X119843796Y-112982444D01*
X119767496Y-112962000D01*
X119688504Y-112962000D01*
X119612204Y-112982444D01*
X119543795Y-113021940D01*
X119487940Y-113077795D01*
X119478000Y-113095011D01*
X119478000Y-112292136D01*
X119477999Y-112292135D01*
X119436316Y-112300427D01*
X119436308Y-112300429D01*
X119254328Y-112375807D01*
X119254315Y-112375814D01*
X119090537Y-112485248D01*
X119090533Y-112485251D01*
X118951251Y-112624533D01*
X118951248Y-112624537D01*
X118841814Y-112788315D01*
X118841807Y-112788328D01*
X118766430Y-112970306D01*
X118766427Y-112970318D01*
X118728000Y-113163504D01*
X118728000Y-113412000D01*
X119428000Y-113412000D01*
X119428000Y-113912000D01*
X118728000Y-113912000D01*
X118728000Y-114160495D01*
X118766427Y-114353681D01*
X118766430Y-114353693D01*
X118841807Y-114535671D01*
X118841816Y-114535687D01*
X118845774Y-114541611D01*
X118866651Y-114608289D01*
X118848165Y-114675669D01*
X118796185Y-114722358D01*
X118742671Y-114734500D01*
X115003245Y-114734500D01*
X114996756Y-114734330D01*
X114687728Y-114718135D01*
X114674819Y-114716778D01*
X114372397Y-114668878D01*
X114359701Y-114666180D01*
X114063928Y-114586928D01*
X114051585Y-114582917D01*
X113765725Y-114473186D01*
X113753867Y-114467907D01*
X113737976Y-114459810D01*
X113481029Y-114328888D01*
X113469802Y-114322406D01*
X113212995Y-114155633D01*
X113202507Y-114148014D01*
X112964532Y-113955306D01*
X112954887Y-113946621D01*
X112738378Y-113730112D01*
X112729693Y-113720467D01*
X112536983Y-113482489D01*
X112529368Y-113472008D01*
X112362587Y-113215188D01*
X112356114Y-113203976D01*
X112217087Y-112931121D01*
X112211813Y-112919274D01*
X112102082Y-112633414D01*
X112098071Y-112621071D01*
X112061678Y-112485251D01*
X112018817Y-112325292D01*
X112016121Y-112312602D01*
X112014193Y-112300427D01*
X111968219Y-112010164D01*
X111966865Y-111997288D01*
X111950670Y-111688243D01*
X111950500Y-111681754D01*
X111950500Y-108833504D01*
X118728000Y-108833504D01*
X118728000Y-109232000D01*
X119428000Y-109232000D01*
X119428000Y-109732000D01*
X118728000Y-109732000D01*
X118728000Y-110130495D01*
X118766427Y-110323681D01*
X118766430Y-110323693D01*
X118841807Y-110505671D01*
X118841814Y-110505684D01*
X118951248Y-110669462D01*
X118951251Y-110669466D01*
X119090533Y-110808748D01*
X119090537Y-110808751D01*
X119254315Y-110918185D01*
X119254328Y-110918192D01*
X119436308Y-110993569D01*
X119478000Y-111001862D01*
X119478000Y-110198988D01*
X119487940Y-110216205D01*
X119543795Y-110272060D01*
X119612204Y-110311556D01*
X119688504Y-110332000D01*
X119767496Y-110332000D01*
X119843796Y-110311556D01*
X119912205Y-110272060D01*
X119968060Y-110216205D01*
X119978000Y-110198988D01*
X119978000Y-111001862D01*
X120019690Y-110993569D01*
X120019692Y-110993569D01*
X120201671Y-110918192D01*
X120201684Y-110918185D01*
X120365462Y-110808751D01*
X120365466Y-110808748D01*
X120504748Y-110669466D01*
X120504751Y-110669462D01*
X120614185Y-110505684D01*
X120614186Y-110505682D01*
X120618129Y-110496163D01*
X120661968Y-110441757D01*
X120728261Y-110419689D01*
X120795961Y-110436965D01*
X120801400Y-110440647D01*
X120804634Y-110442514D01*
X120804635Y-110442515D01*
X120935865Y-110518281D01*
X121082234Y-110557500D01*
X121082236Y-110557500D01*
X121233764Y-110557500D01*
X121233766Y-110557500D01*
X121380135Y-110518281D01*
X121511365Y-110442515D01*
X121536881Y-110416999D01*
X124445500Y-110416999D01*
X124445500Y-110563000D01*
X124483288Y-110704028D01*
X124483289Y-110704031D01*
X124556286Y-110830467D01*
X124556288Y-110830470D01*
X124556289Y-110830471D01*
X124659529Y-110933711D01*
X124785971Y-111006712D01*
X124926999Y-111044500D01*
X124927001Y-111044500D01*
X125072999Y-111044500D01*
X125073001Y-111044500D01*
X125214029Y-111006712D01*
X125340471Y-110933711D01*
X125443711Y-110830471D01*
X125516712Y-110704029D01*
X125554500Y-110563001D01*
X125554500Y-110416999D01*
X125516712Y-110275971D01*
X125443711Y-110149529D01*
X125340471Y-110046289D01*
X125340470Y-110046288D01*
X125340467Y-110046286D01*
X125214031Y-109973289D01*
X125214030Y-109973288D01*
X125214029Y-109973288D01*
X125073001Y-109935500D01*
X124926999Y-109935500D01*
X124785971Y-109973288D01*
X124785968Y-109973289D01*
X124659532Y-110046286D01*
X124659527Y-110046290D01*
X124556290Y-110149527D01*
X124556286Y-110149532D01*
X124483289Y-110275968D01*
X124483288Y-110275971D01*
X124445500Y-110416999D01*
X121536881Y-110416999D01*
X121618515Y-110335365D01*
X121694281Y-110204135D01*
X121733500Y-110057766D01*
X121733500Y-109906234D01*
X121694281Y-109759865D01*
X121618515Y-109628635D01*
X121511365Y-109521485D01*
X121445750Y-109483602D01*
X121380136Y-109445719D01*
X121297995Y-109423710D01*
X121233766Y-109406500D01*
X121082234Y-109406500D01*
X120935863Y-109445719D01*
X120804635Y-109521485D01*
X120804632Y-109521487D01*
X120697487Y-109628632D01*
X120697483Y-109628638D01*
X120673603Y-109670000D01*
X120623036Y-109718216D01*
X120566216Y-109732000D01*
X120028000Y-109732000D01*
X120028000Y-109232000D01*
X120728000Y-109232000D01*
X120728000Y-108833999D01*
X125893500Y-108833999D01*
X125893500Y-108980000D01*
X125931288Y-109121028D01*
X125931289Y-109121031D01*
X126004286Y-109247467D01*
X126004288Y-109247470D01*
X126004289Y-109247471D01*
X126107529Y-109350711D01*
X126233971Y-109423712D01*
X126374999Y-109461500D01*
X126375005Y-109461500D01*
X126375923Y-109461621D01*
X126376646Y-109461941D01*
X126382849Y-109463603D01*
X126382589Y-109464569D01*
X126439822Y-109489882D01*
X126478297Y-109548204D01*
X126479134Y-109618069D01*
X126467134Y-109646561D01*
X126401720Y-109759861D01*
X126401720Y-109759862D01*
X126362500Y-109906234D01*
X126362500Y-110057765D01*
X126401719Y-110204136D01*
X126439602Y-110269750D01*
X126477485Y-110335365D01*
X126584635Y-110442515D01*
X126715865Y-110518281D01*
X126862234Y-110557500D01*
X126862236Y-110557500D01*
X127013764Y-110557500D01*
X127013766Y-110557500D01*
X127160135Y-110518281D01*
X127291365Y-110442515D01*
X127291366Y-110442513D01*
X127298403Y-110438451D01*
X127299676Y-110440656D01*
X127352956Y-110420043D01*
X127421405Y-110434063D01*
X127471407Y-110482864D01*
X127477867Y-110496157D01*
X127481809Y-110505674D01*
X127481814Y-110505684D01*
X127591248Y-110669462D01*
X127591251Y-110669466D01*
X127730533Y-110808748D01*
X127730537Y-110808751D01*
X127894315Y-110918185D01*
X127894328Y-110918192D01*
X128076308Y-110993569D01*
X128118000Y-111001862D01*
X128118000Y-110198988D01*
X128127940Y-110216205D01*
X128183795Y-110272060D01*
X128252204Y-110311556D01*
X128328504Y-110332000D01*
X128407496Y-110332000D01*
X128483796Y-110311556D01*
X128552205Y-110272060D01*
X128608060Y-110216205D01*
X128618000Y-110198988D01*
X128618000Y-111001862D01*
X128659690Y-110993569D01*
X128659692Y-110993569D01*
X128841671Y-110918192D01*
X128841684Y-110918185D01*
X129005462Y-110808751D01*
X129005466Y-110808748D01*
X129144748Y-110669466D01*
X129144751Y-110669462D01*
X129254185Y-110505684D01*
X129254192Y-110505671D01*
X129329569Y-110323693D01*
X129329572Y-110323681D01*
X129367999Y-110130495D01*
X129368000Y-110130492D01*
X129368000Y-109732000D01*
X128668000Y-109732000D01*
X128668000Y-109232000D01*
X129368000Y-109232000D01*
X129368000Y-108833508D01*
X129367999Y-108833504D01*
X129329572Y-108640318D01*
X129329569Y-108640306D01*
X129254192Y-108458328D01*
X129254185Y-108458315D01*
X129144751Y-108294537D01*
X129144748Y-108294533D01*
X129005466Y-108155251D01*
X129005462Y-108155248D01*
X128841684Y-108045814D01*
X128841675Y-108045809D01*
X128794710Y-108026356D01*
X128740307Y-107982515D01*
X128718242Y-107916221D01*
X128735521Y-107848521D01*
X128786659Y-107800911D01*
X128810066Y-107792021D01*
X128851529Y-107780912D01*
X128977971Y-107707911D01*
X129081211Y-107604671D01*
X129154212Y-107478229D01*
X129192000Y-107337201D01*
X129192000Y-107191199D01*
X129154212Y-107050171D01*
X129081211Y-106923729D01*
X128977971Y-106820489D01*
X128977970Y-106820488D01*
X128977967Y-106820486D01*
X128851531Y-106747489D01*
X128851530Y-106747488D01*
X128851529Y-106747488D01*
X128710501Y-106709700D01*
X128564499Y-106709700D01*
X128423471Y-106747488D01*
X128423468Y-106747489D01*
X128297032Y-106820486D01*
X128297027Y-106820490D01*
X128193790Y-106923727D01*
X128193786Y-106923732D01*
X128120789Y-107050168D01*
X128120788Y-107050171D01*
X128083000Y-107191199D01*
X128083000Y-107337200D01*
X128120788Y-107478228D01*
X128120789Y-107478231D01*
X128193786Y-107604667D01*
X128193788Y-107604670D01*
X128193789Y-107604671D01*
X128297029Y-107707911D01*
X128297031Y-107707912D01*
X128303480Y-107712861D01*
X128301967Y-107714832D01*
X128341549Y-107756346D01*
X128354770Y-107824953D01*
X128328801Y-107889817D01*
X128271887Y-107930345D01*
X128255523Y-107934781D01*
X128076318Y-107970427D01*
X128076306Y-107970430D01*
X127894328Y-108045807D01*
X127894315Y-108045814D01*
X127730537Y-108155248D01*
X127730533Y-108155251D01*
X127591251Y-108294533D01*
X127591248Y-108294537D01*
X127481814Y-108458315D01*
X127481807Y-108458328D01*
X127406430Y-108640306D01*
X127406427Y-108640318D01*
X127368000Y-108833504D01*
X127368000Y-109232000D01*
X128068000Y-109232000D01*
X128068000Y-109732000D01*
X127529784Y-109732000D01*
X127462745Y-109712315D01*
X127422397Y-109670000D01*
X127398515Y-109628635D01*
X127291365Y-109521485D01*
X127225750Y-109483602D01*
X127160136Y-109445719D01*
X127077995Y-109423710D01*
X127013766Y-109406500D01*
X127013765Y-109406500D01*
X127005706Y-109405439D01*
X127005905Y-109403926D01*
X126947631Y-109386815D01*
X126901876Y-109334011D01*
X126891932Y-109264853D01*
X126907283Y-109220500D01*
X126924258Y-109191096D01*
X126964712Y-109121029D01*
X127002500Y-108980001D01*
X127002500Y-108833999D01*
X126964712Y-108692971D01*
X126928067Y-108629499D01*
X126891713Y-108566532D01*
X126891709Y-108566527D01*
X126788472Y-108463290D01*
X126788467Y-108463286D01*
X126662031Y-108390289D01*
X126662030Y-108390288D01*
X126662029Y-108390288D01*
X126521001Y-108352500D01*
X126374999Y-108352500D01*
X126233971Y-108390288D01*
X126233968Y-108390289D01*
X126107532Y-108463286D01*
X126107527Y-108463290D01*
X126004290Y-108566527D01*
X126004286Y-108566532D01*
X125931289Y-108692968D01*
X125931288Y-108692971D01*
X125893500Y-108833999D01*
X120728000Y-108833999D01*
X120728000Y-108833509D01*
X120727999Y-108833503D01*
X120689572Y-108640318D01*
X120689569Y-108640306D01*
X120614192Y-108458328D01*
X120614185Y-108458315D01*
X120504751Y-108294537D01*
X120504748Y-108294533D01*
X120365466Y-108155251D01*
X120365462Y-108155248D01*
X120201684Y-108045814D01*
X120201671Y-108045807D01*
X120019691Y-107970429D01*
X120019683Y-107970427D01*
X119978000Y-107962135D01*
X119978000Y-108765011D01*
X119968060Y-108747795D01*
X119912205Y-108691940D01*
X119843796Y-108652444D01*
X119767496Y-108632000D01*
X119688504Y-108632000D01*
X119612204Y-108652444D01*
X119543795Y-108691940D01*
X119487940Y-108747795D01*
X119478000Y-108765011D01*
X119478000Y-107962136D01*
X119477999Y-107962135D01*
X119436316Y-107970427D01*
X119436308Y-107970429D01*
X119254328Y-108045807D01*
X119254315Y-108045814D01*
X119090537Y-108155248D01*
X119090533Y-108155251D01*
X118951251Y-108294533D01*
X118951248Y-108294537D01*
X118841814Y-108458315D01*
X118841807Y-108458328D01*
X118766430Y-108640306D01*
X118766427Y-108640318D01*
X118728000Y-108833504D01*
X111950500Y-108833504D01*
X111950500Y-108001999D01*
X114820500Y-108001999D01*
X114820500Y-108148001D01*
X114833370Y-108196031D01*
X114858288Y-108289028D01*
X114858289Y-108289031D01*
X114931286Y-108415467D01*
X114931288Y-108415470D01*
X114931289Y-108415471D01*
X115034529Y-108518711D01*
X115160971Y-108591712D01*
X115301999Y-108629500D01*
X115302001Y-108629500D01*
X115447999Y-108629500D01*
X115448001Y-108629500D01*
X115589029Y-108591712D01*
X115715471Y-108518711D01*
X115818711Y-108415471D01*
X115891712Y-108289029D01*
X115929500Y-108148001D01*
X115929500Y-108001999D01*
X115891712Y-107860971D01*
X115818711Y-107734529D01*
X115715471Y-107631289D01*
X115715470Y-107631288D01*
X115715467Y-107631286D01*
X115606769Y-107568530D01*
X123470500Y-107568530D01*
X123470500Y-107714532D01*
X123498412Y-107818700D01*
X123508288Y-107855559D01*
X123508289Y-107855562D01*
X123581286Y-107981998D01*
X123581288Y-107982001D01*
X123581289Y-107982002D01*
X123684529Y-108085242D01*
X123810971Y-108158243D01*
X123951999Y-108196031D01*
X123952001Y-108196031D01*
X124097999Y-108196031D01*
X124098001Y-108196031D01*
X124239029Y-108158243D01*
X124365471Y-108085242D01*
X124468711Y-107982002D01*
X124541712Y-107855560D01*
X124579500Y-107714532D01*
X124579500Y-107568530D01*
X124541712Y-107427502D01*
X124468711Y-107301060D01*
X124365471Y-107197820D01*
X124365470Y-107197819D01*
X124365467Y-107197817D01*
X124239031Y-107124820D01*
X124239030Y-107124819D01*
X124239029Y-107124819D01*
X124098001Y-107087031D01*
X123951999Y-107087031D01*
X123810971Y-107124819D01*
X123810968Y-107124820D01*
X123684532Y-107197817D01*
X123684527Y-107197821D01*
X123581290Y-107301058D01*
X123581286Y-107301063D01*
X123508289Y-107427499D01*
X123508288Y-107427502D01*
X123470500Y-107568530D01*
X115606769Y-107568530D01*
X115589031Y-107558289D01*
X115589030Y-107558288D01*
X115589029Y-107558288D01*
X115448001Y-107520500D01*
X115301999Y-107520500D01*
X115160971Y-107558288D01*
X115160968Y-107558289D01*
X115034532Y-107631286D01*
X115034527Y-107631290D01*
X114931290Y-107734527D01*
X114931286Y-107734532D01*
X114858289Y-107860968D01*
X114858288Y-107860971D01*
X114820500Y-108001999D01*
X111950500Y-108001999D01*
X111950500Y-102151999D01*
X115795500Y-102151999D01*
X115795500Y-102298001D01*
X115829748Y-102425815D01*
X115833288Y-102439028D01*
X115833289Y-102439031D01*
X115906286Y-102565467D01*
X115906288Y-102565470D01*
X115906289Y-102565471D01*
X116009529Y-102668711D01*
X116135971Y-102741712D01*
X116276999Y-102779500D01*
X116277001Y-102779500D01*
X116422999Y-102779500D01*
X116423001Y-102779500D01*
X116564029Y-102741712D01*
X116690471Y-102668711D01*
X116793711Y-102565471D01*
X116866712Y-102439029D01*
X116904500Y-102298001D01*
X116904500Y-102176999D01*
X120970500Y-102176999D01*
X120970500Y-102323001D01*
X121002286Y-102441627D01*
X121008288Y-102464028D01*
X121008289Y-102464031D01*
X121081286Y-102590467D01*
X121081288Y-102590470D01*
X121081289Y-102590471D01*
X121184529Y-102693711D01*
X121310971Y-102766712D01*
X121451999Y-102804500D01*
X121452007Y-102804500D01*
X121460059Y-102805561D01*
X121459688Y-102808372D01*
X121513539Y-102824185D01*
X121559294Y-102876989D01*
X121570500Y-102928500D01*
X121570500Y-103073000D01*
X121608288Y-103214028D01*
X121608289Y-103214031D01*
X121681286Y-103340467D01*
X121681288Y-103340470D01*
X121681289Y-103340471D01*
X121784529Y-103443711D01*
X121910971Y-103516712D01*
X122051999Y-103554500D01*
X122052001Y-103554500D01*
X122197999Y-103554500D01*
X122198001Y-103554500D01*
X122339029Y-103516712D01*
X122465471Y-103443711D01*
X122568711Y-103340471D01*
X122641712Y-103214029D01*
X122679500Y-103073001D01*
X122679500Y-102926999D01*
X122641712Y-102785971D01*
X122588445Y-102693709D01*
X122568713Y-102659532D01*
X122568709Y-102659527D01*
X122465472Y-102556290D01*
X122465467Y-102556286D01*
X122339031Y-102483289D01*
X122339030Y-102483288D01*
X122339029Y-102483288D01*
X122198001Y-102445500D01*
X122198000Y-102445500D01*
X122189941Y-102444439D01*
X122190311Y-102441627D01*
X122136461Y-102425815D01*
X122090706Y-102373011D01*
X122079500Y-102321500D01*
X122079500Y-102177001D01*
X122079500Y-102176999D01*
X122041712Y-102035971D01*
X121968711Y-101909529D01*
X121865471Y-101806289D01*
X121865470Y-101806288D01*
X121865467Y-101806286D01*
X121739031Y-101733289D01*
X121739030Y-101733288D01*
X121739029Y-101733288D01*
X121598001Y-101695500D01*
X121451999Y-101695500D01*
X121310971Y-101733288D01*
X121310968Y-101733289D01*
X121184532Y-101806286D01*
X121184527Y-101806290D01*
X121081290Y-101909527D01*
X121081286Y-101909532D01*
X121008289Y-102035968D01*
X121008288Y-102035971D01*
X120970500Y-102176999D01*
X116904500Y-102176999D01*
X116904500Y-102151999D01*
X116866712Y-102010971D01*
X116830211Y-101947750D01*
X116793713Y-101884532D01*
X116793709Y-101884527D01*
X116690472Y-101781290D01*
X116690467Y-101781286D01*
X116564031Y-101708289D01*
X116564030Y-101708288D01*
X116564029Y-101708288D01*
X116423001Y-101670500D01*
X116276999Y-101670500D01*
X116135971Y-101708288D01*
X116135968Y-101708289D01*
X116009532Y-101781286D01*
X116009527Y-101781290D01*
X115906290Y-101884527D01*
X115906286Y-101884532D01*
X115833289Y-102010968D01*
X115833288Y-102010971D01*
X115795500Y-102151999D01*
X111950500Y-102151999D01*
X111950500Y-98539499D01*
X118707000Y-98539499D01*
X118707000Y-98685501D01*
X118717048Y-98722999D01*
X118744788Y-98826528D01*
X118744789Y-98826531D01*
X118817786Y-98952967D01*
X118817788Y-98952970D01*
X118817789Y-98952971D01*
X118921029Y-99056211D01*
X119047471Y-99129212D01*
X119188499Y-99167000D01*
X119188501Y-99167000D01*
X119334499Y-99167000D01*
X119334501Y-99167000D01*
X119475529Y-99129212D01*
X119601971Y-99056211D01*
X119705211Y-98952971D01*
X119778212Y-98826529D01*
X119816000Y-98685501D01*
X119816000Y-98576999D01*
X120370500Y-98576999D01*
X120370500Y-98723000D01*
X120408288Y-98864028D01*
X120408289Y-98864031D01*
X120481286Y-98990467D01*
X120481288Y-98990470D01*
X120481289Y-98990471D01*
X120584529Y-99093711D01*
X120710971Y-99166712D01*
X120851999Y-99204500D01*
X120852001Y-99204500D01*
X120997999Y-99204500D01*
X120998001Y-99204500D01*
X121139029Y-99166712D01*
X121265471Y-99093711D01*
X121368711Y-98990471D01*
X121441712Y-98864029D01*
X121479500Y-98723001D01*
X121479500Y-98576999D01*
X121441712Y-98435971D01*
X121368711Y-98309529D01*
X121265471Y-98206289D01*
X121265470Y-98206288D01*
X121265467Y-98206286D01*
X121139031Y-98133289D01*
X121139030Y-98133288D01*
X121139029Y-98133288D01*
X120998001Y-98095500D01*
X120851999Y-98095500D01*
X120710971Y-98133288D01*
X120710968Y-98133289D01*
X120584532Y-98206286D01*
X120584527Y-98206290D01*
X120481290Y-98309527D01*
X120481286Y-98309532D01*
X120408289Y-98435968D01*
X120408288Y-98435971D01*
X120370500Y-98576999D01*
X119816000Y-98576999D01*
X119816000Y-98539499D01*
X119778212Y-98398471D01*
X119705211Y-98272029D01*
X119601971Y-98168789D01*
X119601970Y-98168788D01*
X119601967Y-98168786D01*
X119475531Y-98095789D01*
X119475530Y-98095788D01*
X119475529Y-98095788D01*
X119334501Y-98058000D01*
X119188499Y-98058000D01*
X119047471Y-98095788D01*
X119047468Y-98095789D01*
X118921032Y-98168786D01*
X118921027Y-98168790D01*
X118817790Y-98272027D01*
X118817786Y-98272032D01*
X118744789Y-98398468D01*
X118744788Y-98398471D01*
X118707000Y-98539499D01*
X111950500Y-98539499D01*
X111950500Y-92244529D01*
X122695500Y-92244529D01*
X122695500Y-95153329D01*
X122695500Y-95246671D01*
X122719659Y-95336832D01*
X122766329Y-95417668D01*
X123682332Y-96333671D01*
X123682334Y-96333672D01*
X123682338Y-96333675D01*
X123763162Y-96380338D01*
X123763169Y-96380342D01*
X123853329Y-96404501D01*
X123853331Y-96404501D01*
X123954268Y-96404501D01*
X123954284Y-96404500D01*
X124717956Y-96404500D01*
X124784995Y-96424185D01*
X124805637Y-96440819D01*
X124858529Y-96493711D01*
X124984971Y-96566712D01*
X125125999Y-96604500D01*
X125126001Y-96604500D01*
X125271999Y-96604500D01*
X125272001Y-96604500D01*
X125413029Y-96566712D01*
X125539471Y-96493711D01*
X125642711Y-96390471D01*
X125715712Y-96264029D01*
X125753500Y-96123001D01*
X125753500Y-96052734D01*
X126044765Y-96052734D01*
X126044765Y-96198736D01*
X126080922Y-96333675D01*
X126082553Y-96339763D01*
X126082554Y-96339766D01*
X126155551Y-96466202D01*
X126155553Y-96466205D01*
X126155554Y-96466206D01*
X126258794Y-96569446D01*
X126385236Y-96642447D01*
X126526264Y-96680235D01*
X126526266Y-96680235D01*
X126672264Y-96680235D01*
X126672266Y-96680235D01*
X126813294Y-96642447D01*
X126939736Y-96569446D01*
X127042976Y-96466206D01*
X127115977Y-96339764D01*
X127153765Y-96198736D01*
X127153765Y-96052734D01*
X127118389Y-95920708D01*
X127120052Y-95850862D01*
X127159214Y-95792999D01*
X127206072Y-95768844D01*
X127214029Y-95766712D01*
X127340471Y-95693711D01*
X127443711Y-95590471D01*
X127516712Y-95464029D01*
X127554500Y-95323001D01*
X127554500Y-95176999D01*
X127516712Y-95035971D01*
X127443711Y-94909529D01*
X127340471Y-94806289D01*
X127340470Y-94806288D01*
X127340467Y-94806286D01*
X127214031Y-94733289D01*
X127214030Y-94733288D01*
X127214029Y-94733288D01*
X127073001Y-94695500D01*
X126926999Y-94695500D01*
X126785971Y-94733288D01*
X126785968Y-94733289D01*
X126659532Y-94806286D01*
X126659527Y-94806290D01*
X126556290Y-94909527D01*
X126556286Y-94909532D01*
X126483289Y-95035968D01*
X126483288Y-95035971D01*
X126445500Y-95176999D01*
X126445500Y-95323000D01*
X126480875Y-95455023D01*
X126479212Y-95524873D01*
X126440049Y-95582735D01*
X126393195Y-95606890D01*
X126385240Y-95609021D01*
X126385233Y-95609024D01*
X126258797Y-95682021D01*
X126258792Y-95682025D01*
X126155555Y-95785262D01*
X126155551Y-95785267D01*
X126082554Y-95911703D01*
X126082553Y-95911706D01*
X126044765Y-96052734D01*
X125753500Y-96052734D01*
X125753500Y-95976999D01*
X125715712Y-95835971D01*
X125676955Y-95768841D01*
X125642713Y-95709532D01*
X125642709Y-95709527D01*
X125539472Y-95606290D01*
X125539467Y-95606286D01*
X125413031Y-95533289D01*
X125413030Y-95533288D01*
X125413029Y-95533288D01*
X125272001Y-95495500D01*
X125125999Y-95495500D01*
X124984971Y-95533288D01*
X124984968Y-95533289D01*
X124858532Y-95606286D01*
X124858527Y-95606290D01*
X124805637Y-95659181D01*
X124744314Y-95692666D01*
X124717956Y-95695500D01*
X124098201Y-95695500D01*
X124031162Y-95675815D01*
X124010520Y-95659181D01*
X123440819Y-95089480D01*
X123407334Y-95028157D01*
X123404500Y-95001799D01*
X123404500Y-92601999D01*
X127495500Y-92601999D01*
X127495500Y-92748001D01*
X127533288Y-92889027D01*
X127533288Y-92889028D01*
X127533289Y-92889031D01*
X127606286Y-93015467D01*
X127606288Y-93015470D01*
X127606289Y-93015471D01*
X127709529Y-93118711D01*
X127835971Y-93191712D01*
X127976999Y-93229500D01*
X127977001Y-93229500D01*
X128122999Y-93229500D01*
X128123001Y-93229500D01*
X128264029Y-93191712D01*
X128390471Y-93118711D01*
X128493711Y-93015471D01*
X128566712Y-92889029D01*
X128604500Y-92748001D01*
X128604500Y-92601999D01*
X128604500Y-92601998D01*
X129764006Y-92601998D01*
X129764006Y-92748000D01*
X129764007Y-92748001D01*
X129801794Y-92889027D01*
X129801795Y-92889030D01*
X129874792Y-93015466D01*
X129874793Y-93015467D01*
X129874795Y-93015470D01*
X129978035Y-93118710D01*
X130104477Y-93191711D01*
X130219492Y-93222528D01*
X130279149Y-93258891D01*
X130309679Y-93321738D01*
X130301385Y-93391114D01*
X130256900Y-93444992D01*
X130219496Y-93462075D01*
X130214975Y-93463286D01*
X130214968Y-93463289D01*
X130088532Y-93536286D01*
X130088527Y-93536290D01*
X129985290Y-93639527D01*
X129985286Y-93639532D01*
X129912289Y-93765968D01*
X129912288Y-93765971D01*
X129874500Y-93906999D01*
X129874500Y-94053000D01*
X129912288Y-94194028D01*
X129912289Y-94194031D01*
X129985286Y-94320467D01*
X129985288Y-94320470D01*
X129985289Y-94320471D01*
X130088529Y-94423711D01*
X130214971Y-94496712D01*
X130355999Y-94534500D01*
X130356001Y-94534500D01*
X130501999Y-94534500D01*
X130502001Y-94534500D01*
X130643029Y-94496712D01*
X130769471Y-94423711D01*
X130872711Y-94320471D01*
X130945712Y-94194029D01*
X130983500Y-94053001D01*
X130983500Y-93906999D01*
X130945712Y-93765971D01*
X130872711Y-93639529D01*
X130769471Y-93536289D01*
X130769470Y-93536288D01*
X130769467Y-93536286D01*
X130643031Y-93463289D01*
X130643030Y-93463288D01*
X130643029Y-93463288D01*
X130528014Y-93432470D01*
X130468355Y-93396106D01*
X130437826Y-93333259D01*
X130446121Y-93263884D01*
X130490606Y-93210006D01*
X130528015Y-93192921D01*
X130532535Y-93191711D01*
X130658977Y-93118710D01*
X130762217Y-93015470D01*
X130835218Y-92889028D01*
X130873006Y-92748000D01*
X130873006Y-92601998D01*
X130835218Y-92460970D01*
X130798717Y-92397749D01*
X130762219Y-92334531D01*
X130762218Y-92334529D01*
X130762217Y-92334528D01*
X130658977Y-92231288D01*
X130658974Y-92231286D01*
X130658973Y-92231285D01*
X130532537Y-92158288D01*
X130532536Y-92158287D01*
X130532535Y-92158287D01*
X130391507Y-92120499D01*
X130245505Y-92120499D01*
X130104477Y-92158287D01*
X130104474Y-92158288D01*
X129978038Y-92231285D01*
X129978033Y-92231289D01*
X129874796Y-92334526D01*
X129874792Y-92334531D01*
X129801795Y-92460967D01*
X129801795Y-92460968D01*
X129801794Y-92460970D01*
X129764006Y-92601998D01*
X128604500Y-92601998D01*
X128566712Y-92460971D01*
X128493711Y-92334529D01*
X128390471Y-92231289D01*
X128390470Y-92231288D01*
X128390467Y-92231286D01*
X128264031Y-92158289D01*
X128264030Y-92158288D01*
X128264029Y-92158288D01*
X128123001Y-92120500D01*
X127976999Y-92120500D01*
X127835971Y-92158288D01*
X127835968Y-92158289D01*
X127709532Y-92231286D01*
X127709527Y-92231290D01*
X127606290Y-92334527D01*
X127606286Y-92334532D01*
X127533289Y-92460968D01*
X127533288Y-92460971D01*
X127495500Y-92601999D01*
X123404500Y-92601999D01*
X123404500Y-92489401D01*
X123424185Y-92422362D01*
X123440819Y-92401720D01*
X124665540Y-91176999D01*
X126695500Y-91176999D01*
X126695500Y-91323000D01*
X126733288Y-91464028D01*
X126733289Y-91464031D01*
X126806286Y-91590467D01*
X126806288Y-91590470D01*
X126806289Y-91590471D01*
X126909529Y-91693711D01*
X127035971Y-91766712D01*
X127176999Y-91804500D01*
X127177001Y-91804500D01*
X127322999Y-91804500D01*
X127323001Y-91804500D01*
X127464029Y-91766712D01*
X127590471Y-91693711D01*
X127693711Y-91590471D01*
X127766712Y-91464029D01*
X127804500Y-91323001D01*
X127804500Y-91176999D01*
X127766712Y-91035971D01*
X127693711Y-90909529D01*
X127590471Y-90806289D01*
X127590470Y-90806288D01*
X127590467Y-90806286D01*
X127464031Y-90733289D01*
X127464030Y-90733288D01*
X127464029Y-90733288D01*
X127323001Y-90695500D01*
X127176999Y-90695500D01*
X127035971Y-90733288D01*
X127035968Y-90733289D01*
X126909532Y-90806286D01*
X126909527Y-90806290D01*
X126806290Y-90909527D01*
X126806286Y-90909532D01*
X126733289Y-91035968D01*
X126733288Y-91035971D01*
X126695500Y-91176999D01*
X124665540Y-91176999D01*
X124761348Y-91081191D01*
X125147039Y-90695500D01*
X125533671Y-90308868D01*
X125580341Y-90228032D01*
X125604500Y-90137871D01*
X125604500Y-88456044D01*
X125624185Y-88389005D01*
X125640819Y-88368363D01*
X125693711Y-88315471D01*
X125766712Y-88189029D01*
X125804500Y-88048001D01*
X125804500Y-87901999D01*
X125766712Y-87760971D01*
X125693711Y-87634529D01*
X125590471Y-87531289D01*
X125590470Y-87531288D01*
X125590467Y-87531286D01*
X125464031Y-87458289D01*
X125464030Y-87458288D01*
X125464029Y-87458288D01*
X125323001Y-87420500D01*
X125176999Y-87420500D01*
X125035971Y-87458288D01*
X125035968Y-87458289D01*
X124909532Y-87531286D01*
X124909527Y-87531290D01*
X124806290Y-87634527D01*
X124806286Y-87634532D01*
X124733289Y-87760968D01*
X124733288Y-87760971D01*
X124695500Y-87901999D01*
X124695500Y-88048000D01*
X124733288Y-88189028D01*
X124733289Y-88189031D01*
X124806286Y-88315467D01*
X124806290Y-88315472D01*
X124859181Y-88368363D01*
X124892666Y-88429686D01*
X124895500Y-88456044D01*
X124895500Y-89892999D01*
X124875815Y-89960038D01*
X124859181Y-89980680D01*
X122766330Y-92073530D01*
X122766328Y-92073533D01*
X122719659Y-92154367D01*
X122718608Y-92158289D01*
X122695500Y-92244529D01*
X111950500Y-92244529D01*
X111950500Y-89451999D01*
X114270500Y-89451999D01*
X114270500Y-89598001D01*
X114294288Y-89686777D01*
X114308288Y-89739028D01*
X114308289Y-89739031D01*
X114381286Y-89865467D01*
X114381288Y-89865470D01*
X114381289Y-89865471D01*
X114484529Y-89968711D01*
X114610971Y-90041712D01*
X114751999Y-90079500D01*
X114752001Y-90079500D01*
X114897999Y-90079500D01*
X114898001Y-90079500D01*
X115039029Y-90041712D01*
X115165471Y-89968711D01*
X115268711Y-89865471D01*
X115341712Y-89739029D01*
X115344935Y-89726999D01*
X123120500Y-89726999D01*
X123120500Y-89873001D01*
X123149353Y-89980680D01*
X123158288Y-90014028D01*
X123158289Y-90014031D01*
X123231286Y-90140467D01*
X123231288Y-90140470D01*
X123231289Y-90140471D01*
X123334529Y-90243711D01*
X123460971Y-90316712D01*
X123601999Y-90354500D01*
X123602001Y-90354500D01*
X123747999Y-90354500D01*
X123748001Y-90354500D01*
X123889029Y-90316712D01*
X124015471Y-90243711D01*
X124118711Y-90140471D01*
X124191712Y-90014029D01*
X124229500Y-89873001D01*
X124229500Y-89726999D01*
X124191712Y-89585971D01*
X124118711Y-89459529D01*
X124015471Y-89356289D01*
X124015470Y-89356288D01*
X124015467Y-89356286D01*
X123889031Y-89283289D01*
X123889030Y-89283288D01*
X123889029Y-89283288D01*
X123748001Y-89245500D01*
X123601999Y-89245500D01*
X123460971Y-89283288D01*
X123460968Y-89283289D01*
X123334532Y-89356286D01*
X123334527Y-89356290D01*
X123231290Y-89459527D01*
X123231286Y-89459532D01*
X123158289Y-89585968D01*
X123158288Y-89585971D01*
X123120500Y-89726999D01*
X115344935Y-89726999D01*
X115379500Y-89598001D01*
X115379500Y-89451999D01*
X115341712Y-89310971D01*
X115268711Y-89184529D01*
X115165471Y-89081289D01*
X115165470Y-89081288D01*
X115165467Y-89081286D01*
X115039031Y-89008289D01*
X115039030Y-89008288D01*
X115039029Y-89008288D01*
X114898001Y-88970500D01*
X114751999Y-88970500D01*
X114610971Y-89008288D01*
X114610968Y-89008289D01*
X114484532Y-89081286D01*
X114484527Y-89081290D01*
X114381290Y-89184527D01*
X114381286Y-89184532D01*
X114308289Y-89310968D01*
X114308288Y-89310971D01*
X114270500Y-89451999D01*
X111950500Y-89451999D01*
X111950500Y-84104160D01*
X122161300Y-84104160D01*
X122161300Y-84330139D01*
X122196648Y-84553320D01*
X122266478Y-84768231D01*
X122369067Y-84969571D01*
X122501880Y-85152374D01*
X122501884Y-85152379D01*
X122661670Y-85312165D01*
X122661675Y-85312169D01*
X122821126Y-85428016D01*
X122844482Y-85444985D01*
X123045821Y-85547573D01*
X123209010Y-85600596D01*
X123260729Y-85617401D01*
X123483911Y-85652750D01*
X123483916Y-85652750D01*
X123709889Y-85652750D01*
X123933070Y-85617401D01*
X124147979Y-85547573D01*
X124349318Y-85444985D01*
X124532131Y-85312164D01*
X124691914Y-85152381D01*
X124824735Y-84969568D01*
X124927323Y-84768229D01*
X124981334Y-84601999D01*
X129070500Y-84601999D01*
X129070500Y-84748000D01*
X129108288Y-84889028D01*
X129108289Y-84889031D01*
X129181286Y-85015467D01*
X129181288Y-85015470D01*
X129181289Y-85015471D01*
X129284529Y-85118711D01*
X129410971Y-85191712D01*
X129551999Y-85229500D01*
X129552001Y-85229500D01*
X129697999Y-85229500D01*
X129698001Y-85229500D01*
X129839029Y-85191712D01*
X129965471Y-85118711D01*
X130068711Y-85015471D01*
X130141712Y-84889029D01*
X130179500Y-84748001D01*
X130179500Y-84601999D01*
X130141712Y-84460971D01*
X130068711Y-84334529D01*
X129965471Y-84231289D01*
X129965470Y-84231288D01*
X129965467Y-84231286D01*
X129839031Y-84158289D01*
X129839030Y-84158288D01*
X129839029Y-84158288D01*
X129698001Y-84120500D01*
X129551999Y-84120500D01*
X129410971Y-84158288D01*
X129410968Y-84158289D01*
X129284532Y-84231286D01*
X129284527Y-84231290D01*
X129181290Y-84334527D01*
X129181286Y-84334532D01*
X129108289Y-84460968D01*
X129108288Y-84460971D01*
X129070500Y-84601999D01*
X124981334Y-84601999D01*
X124997151Y-84553320D01*
X125011778Y-84460968D01*
X125032500Y-84330139D01*
X125032500Y-84104160D01*
X124997151Y-83880979D01*
X124963662Y-83777911D01*
X124927323Y-83666071D01*
X124824735Y-83464732D01*
X124729899Y-83334201D01*
X124691919Y-83281925D01*
X124691915Y-83281920D01*
X124598194Y-83188199D01*
X128195500Y-83188199D01*
X128195500Y-83334201D01*
X128230476Y-83464732D01*
X128233288Y-83475228D01*
X128233289Y-83475231D01*
X128306286Y-83601667D01*
X128306288Y-83601670D01*
X128306289Y-83601671D01*
X128409529Y-83704911D01*
X128535971Y-83777912D01*
X128676999Y-83815700D01*
X128677001Y-83815700D01*
X128822999Y-83815700D01*
X128823001Y-83815700D01*
X128964029Y-83777912D01*
X129090471Y-83704911D01*
X129193711Y-83601671D01*
X129266712Y-83475229D01*
X129304500Y-83334201D01*
X129304500Y-83188199D01*
X129266712Y-83047171D01*
X129193711Y-82920729D01*
X129090471Y-82817489D01*
X129090470Y-82817488D01*
X129090467Y-82817486D01*
X128964031Y-82744489D01*
X128964030Y-82744488D01*
X128964029Y-82744488D01*
X128823001Y-82706700D01*
X128676999Y-82706700D01*
X128535971Y-82744488D01*
X128535968Y-82744489D01*
X128409532Y-82817486D01*
X128409527Y-82817490D01*
X128306290Y-82920727D01*
X128306286Y-82920732D01*
X128233289Y-83047168D01*
X128233288Y-83047171D01*
X128195500Y-83188199D01*
X124598194Y-83188199D01*
X124532129Y-83122134D01*
X124532124Y-83122130D01*
X124349321Y-82989317D01*
X124349320Y-82989316D01*
X124349318Y-82989315D01*
X124147979Y-82886727D01*
X124086370Y-82866709D01*
X123933070Y-82816898D01*
X123709889Y-82781550D01*
X123709884Y-82781550D01*
X123483916Y-82781550D01*
X123483911Y-82781550D01*
X123260729Y-82816898D01*
X123045818Y-82886728D01*
X122844478Y-82989317D01*
X122661675Y-83122130D01*
X122661670Y-83122134D01*
X122501884Y-83281920D01*
X122501880Y-83281925D01*
X122369067Y-83464728D01*
X122266478Y-83666068D01*
X122196648Y-83880979D01*
X122161300Y-84104160D01*
X111950500Y-84104160D01*
X111950500Y-82349999D01*
X130001500Y-82349999D01*
X130001500Y-82496000D01*
X130039288Y-82637028D01*
X130039289Y-82637031D01*
X130112286Y-82763467D01*
X130112288Y-82763470D01*
X130112289Y-82763471D01*
X130215529Y-82866711D01*
X130215530Y-82866712D01*
X130215532Y-82866713D01*
X130278750Y-82903211D01*
X130341971Y-82939712D01*
X130482999Y-82977500D01*
X130483001Y-82977500D01*
X130628999Y-82977500D01*
X130629001Y-82977500D01*
X130770029Y-82939712D01*
X130896471Y-82866711D01*
X130999711Y-82763471D01*
X131072712Y-82637029D01*
X131110500Y-82496001D01*
X131110500Y-82349999D01*
X131072712Y-82208971D01*
X130999711Y-82082529D01*
X130896471Y-81979289D01*
X130896470Y-81979288D01*
X130896467Y-81979286D01*
X130770031Y-81906289D01*
X130770030Y-81906288D01*
X130770029Y-81906288D01*
X130629001Y-81868500D01*
X130482999Y-81868500D01*
X130341971Y-81906288D01*
X130341968Y-81906289D01*
X130215532Y-81979286D01*
X130215527Y-81979290D01*
X130112290Y-82082527D01*
X130112286Y-82082532D01*
X130039289Y-82208968D01*
X130039288Y-82208971D01*
X130001500Y-82349999D01*
X111950500Y-82349999D01*
X111950500Y-78595171D01*
X121915800Y-78595171D01*
X121915800Y-78815528D01*
X121915801Y-78815544D01*
X121944563Y-79034018D01*
X122001600Y-79246883D01*
X122085929Y-79450470D01*
X122085933Y-79450479D01*
X122196117Y-79641323D01*
X122244421Y-79704273D01*
X122786883Y-79161811D01*
X122876774Y-79296342D01*
X123005908Y-79425476D01*
X123140437Y-79515365D01*
X122597975Y-80057827D01*
X122660926Y-80106131D01*
X122660933Y-80106136D01*
X122851770Y-80216316D01*
X122851779Y-80216320D01*
X123055366Y-80300649D01*
X123268231Y-80357686D01*
X123486705Y-80386448D01*
X123486722Y-80386450D01*
X123707078Y-80386450D01*
X123707094Y-80386448D01*
X123925568Y-80357686D01*
X124138433Y-80300649D01*
X124342020Y-80216320D01*
X124342029Y-80216316D01*
X124532869Y-80106134D01*
X124595823Y-80057827D01*
X124595823Y-80057826D01*
X124053362Y-79515366D01*
X124187892Y-79425476D01*
X124317026Y-79296342D01*
X124406916Y-79161812D01*
X124949376Y-79704273D01*
X124949377Y-79704273D01*
X124997684Y-79641319D01*
X125107866Y-79450479D01*
X125107870Y-79450470D01*
X125192199Y-79246883D01*
X125249236Y-79034018D01*
X125277998Y-78815544D01*
X125278000Y-78815528D01*
X125278000Y-78595171D01*
X125277998Y-78595155D01*
X125249236Y-78376681D01*
X125192199Y-78163816D01*
X125107870Y-77960229D01*
X125107866Y-77960220D01*
X124997686Y-77769383D01*
X124997681Y-77769376D01*
X124949377Y-77706425D01*
X124406915Y-78248886D01*
X124317026Y-78114358D01*
X124187892Y-77985224D01*
X124053362Y-77895333D01*
X124595823Y-77352871D01*
X124532873Y-77304567D01*
X124342029Y-77194383D01*
X124342020Y-77194379D01*
X124138433Y-77110050D01*
X123925568Y-77053013D01*
X123707094Y-77024251D01*
X123707078Y-77024250D01*
X123486722Y-77024250D01*
X123486705Y-77024251D01*
X123268231Y-77053013D01*
X123055366Y-77110050D01*
X122851779Y-77194379D01*
X122851769Y-77194383D01*
X122660936Y-77304560D01*
X122660929Y-77304566D01*
X122597975Y-77352870D01*
X122597975Y-77352871D01*
X123140437Y-77895333D01*
X123005908Y-77985224D01*
X122876774Y-78114358D01*
X122786883Y-78248887D01*
X122244421Y-77706425D01*
X122244420Y-77706425D01*
X122196116Y-77769379D01*
X122196110Y-77769386D01*
X122085933Y-77960219D01*
X122085929Y-77960229D01*
X122001600Y-78163816D01*
X121944563Y-78376681D01*
X121915801Y-78595155D01*
X121915800Y-78595171D01*
X111950500Y-78595171D01*
X111950500Y-72503245D01*
X111950670Y-72496756D01*
X111952590Y-72460118D01*
X111966865Y-72187709D01*
X111968219Y-72174837D01*
X112016123Y-71872387D01*
X112018816Y-71859711D01*
X112098074Y-71563917D01*
X112102082Y-71551585D01*
X112184776Y-71336160D01*
X112211818Y-71265713D01*
X112217083Y-71253885D01*
X112356118Y-70981014D01*
X112362584Y-70969816D01*
X112529374Y-70712982D01*
X112536976Y-70702519D01*
X112729701Y-70464522D01*
X112738368Y-70454897D01*
X112954897Y-70238368D01*
X112964522Y-70229701D01*
X113202519Y-70036976D01*
X113212982Y-70029374D01*
X113469816Y-69862584D01*
X113481014Y-69856118D01*
X113753885Y-69717083D01*
X113765713Y-69711818D01*
X114051589Y-69602080D01*
X114063917Y-69598074D01*
X114359711Y-69518816D01*
X114372387Y-69516123D01*
X114674837Y-69468219D01*
X114687709Y-69466865D01*
X114996756Y-69450669D01*
X115003245Y-69450500D01*
X115039882Y-69450500D01*
X123132556Y-69450500D01*
X123199595Y-69470185D01*
G37*
%TD.AperFunction*%
%TD*%
M02*
