%TF.GenerationSoftware,KiCad,Pcbnew,9.0.8-9.0.8~ubuntu22.04.1*%
%TF.CreationDate,2026-03-31T20:11:36-05:00*%
%TF.ProjectId,Jetson_PD_Board,4a657473-6f6e-45f5-9044-5f426f617264,rev?*%
%TF.SameCoordinates,Original*%
%TF.FileFunction,Legend,Top*%
%TF.FilePolarity,Positive*%
%FSLAX46Y46*%
G04 Gerber Fmt 4.6, Leading zero omitted, Abs format (unit mm)*
G04 Created by KiCad (PCBNEW 9.0.8-9.0.8~ubuntu22.04.1) date 2026-03-31 20:11:36*
%MOMM*%
%LPD*%
G01*
G04 APERTURE LIST*
%ADD10C,0.112500*%
%ADD11C,0.150000*%
%ADD12C,0.120000*%
%ADD13C,0.127000*%
%ADD14C,0.200000*%
%ADD15C,0.152400*%
%ADD16C,0.508000*%
G04 APERTURE END LIST*
D10*
X113290074Y-87156580D02*
X112640074Y-87156580D01*
X112640074Y-87156580D02*
X113104360Y-86939913D01*
X113104360Y-86939913D02*
X112640074Y-86723246D01*
X112640074Y-86723246D02*
X113290074Y-86723246D01*
X113290074Y-86135151D02*
X112949598Y-86135151D01*
X112949598Y-86135151D02*
X112887693Y-86166104D01*
X112887693Y-86166104D02*
X112856741Y-86228008D01*
X112856741Y-86228008D02*
X112856741Y-86351818D01*
X112856741Y-86351818D02*
X112887693Y-86413723D01*
X113259122Y-86135151D02*
X113290074Y-86197056D01*
X113290074Y-86197056D02*
X113290074Y-86351818D01*
X113290074Y-86351818D02*
X113259122Y-86413723D01*
X113259122Y-86413723D02*
X113197217Y-86444675D01*
X113197217Y-86444675D02*
X113135312Y-86444675D01*
X113135312Y-86444675D02*
X113073407Y-86413723D01*
X113073407Y-86413723D02*
X113042455Y-86351818D01*
X113042455Y-86351818D02*
X113042455Y-86197056D01*
X113042455Y-86197056D02*
X113011502Y-86135151D01*
X113290074Y-85825628D02*
X112856741Y-85825628D01*
X112980550Y-85825628D02*
X112918645Y-85794675D01*
X112918645Y-85794675D02*
X112887693Y-85763723D01*
X112887693Y-85763723D02*
X112856741Y-85701818D01*
X112856741Y-85701818D02*
X112856741Y-85639913D01*
X113259122Y-85454199D02*
X113290074Y-85392294D01*
X113290074Y-85392294D02*
X113290074Y-85268485D01*
X113290074Y-85268485D02*
X113259122Y-85206580D01*
X113259122Y-85206580D02*
X113197217Y-85175628D01*
X113197217Y-85175628D02*
X113166264Y-85175628D01*
X113166264Y-85175628D02*
X113104360Y-85206580D01*
X113104360Y-85206580D02*
X113073407Y-85268485D01*
X113073407Y-85268485D02*
X113073407Y-85361342D01*
X113073407Y-85361342D02*
X113042455Y-85423247D01*
X113042455Y-85423247D02*
X112980550Y-85454199D01*
X112980550Y-85454199D02*
X112949598Y-85454199D01*
X112949598Y-85454199D02*
X112887693Y-85423247D01*
X112887693Y-85423247D02*
X112856741Y-85361342D01*
X112856741Y-85361342D02*
X112856741Y-85268485D01*
X112856741Y-85268485D02*
X112887693Y-85206580D01*
X113290074Y-84030390D02*
X112980550Y-84247057D01*
X113290074Y-84401819D02*
X112640074Y-84401819D01*
X112640074Y-84401819D02*
X112640074Y-84154200D01*
X112640074Y-84154200D02*
X112671026Y-84092295D01*
X112671026Y-84092295D02*
X112701979Y-84061342D01*
X112701979Y-84061342D02*
X112763883Y-84030390D01*
X112763883Y-84030390D02*
X112856741Y-84030390D01*
X112856741Y-84030390D02*
X112918645Y-84061342D01*
X112918645Y-84061342D02*
X112949598Y-84092295D01*
X112949598Y-84092295D02*
X112980550Y-84154200D01*
X112980550Y-84154200D02*
X112980550Y-84401819D01*
X113290074Y-83658961D02*
X113259122Y-83720866D01*
X113259122Y-83720866D02*
X113228169Y-83751819D01*
X113228169Y-83751819D02*
X113166264Y-83782771D01*
X113166264Y-83782771D02*
X112980550Y-83782771D01*
X112980550Y-83782771D02*
X112918645Y-83751819D01*
X112918645Y-83751819D02*
X112887693Y-83720866D01*
X112887693Y-83720866D02*
X112856741Y-83658961D01*
X112856741Y-83658961D02*
X112856741Y-83566104D01*
X112856741Y-83566104D02*
X112887693Y-83504200D01*
X112887693Y-83504200D02*
X112918645Y-83473247D01*
X112918645Y-83473247D02*
X112980550Y-83442295D01*
X112980550Y-83442295D02*
X113166264Y-83442295D01*
X113166264Y-83442295D02*
X113228169Y-83473247D01*
X113228169Y-83473247D02*
X113259122Y-83504200D01*
X113259122Y-83504200D02*
X113290074Y-83566104D01*
X113290074Y-83566104D02*
X113290074Y-83658961D01*
X112856741Y-83225628D02*
X113290074Y-83070866D01*
X113290074Y-83070866D02*
X112856741Y-82916105D01*
X113259122Y-82420867D02*
X113290074Y-82482771D01*
X113290074Y-82482771D02*
X113290074Y-82606581D01*
X113290074Y-82606581D02*
X113259122Y-82668486D01*
X113259122Y-82668486D02*
X113197217Y-82699438D01*
X113197217Y-82699438D02*
X112949598Y-82699438D01*
X112949598Y-82699438D02*
X112887693Y-82668486D01*
X112887693Y-82668486D02*
X112856741Y-82606581D01*
X112856741Y-82606581D02*
X112856741Y-82482771D01*
X112856741Y-82482771D02*
X112887693Y-82420867D01*
X112887693Y-82420867D02*
X112949598Y-82389914D01*
X112949598Y-82389914D02*
X113011502Y-82389914D01*
X113011502Y-82389914D02*
X113073407Y-82699438D01*
X113290074Y-82111343D02*
X112856741Y-82111343D01*
X112980550Y-82111343D02*
X112918645Y-82080390D01*
X112918645Y-82080390D02*
X112887693Y-82049438D01*
X112887693Y-82049438D02*
X112856741Y-81987533D01*
X112856741Y-81987533D02*
X112856741Y-81925628D01*
X113290074Y-81213724D02*
X112640074Y-81213724D01*
X112640074Y-81213724D02*
X112640074Y-81058962D01*
X112640074Y-81058962D02*
X112671026Y-80966105D01*
X112671026Y-80966105D02*
X112732931Y-80904200D01*
X112732931Y-80904200D02*
X112794836Y-80873247D01*
X112794836Y-80873247D02*
X112918645Y-80842295D01*
X112918645Y-80842295D02*
X113011502Y-80842295D01*
X113011502Y-80842295D02*
X113135312Y-80873247D01*
X113135312Y-80873247D02*
X113197217Y-80904200D01*
X113197217Y-80904200D02*
X113259122Y-80966105D01*
X113259122Y-80966105D02*
X113290074Y-81058962D01*
X113290074Y-81058962D02*
X113290074Y-81213724D01*
X113259122Y-80316105D02*
X113290074Y-80378009D01*
X113290074Y-80378009D02*
X113290074Y-80501819D01*
X113290074Y-80501819D02*
X113259122Y-80563724D01*
X113259122Y-80563724D02*
X113197217Y-80594676D01*
X113197217Y-80594676D02*
X112949598Y-80594676D01*
X112949598Y-80594676D02*
X112887693Y-80563724D01*
X112887693Y-80563724D02*
X112856741Y-80501819D01*
X112856741Y-80501819D02*
X112856741Y-80378009D01*
X112856741Y-80378009D02*
X112887693Y-80316105D01*
X112887693Y-80316105D02*
X112949598Y-80285152D01*
X112949598Y-80285152D02*
X113011502Y-80285152D01*
X113011502Y-80285152D02*
X113073407Y-80594676D01*
X113259122Y-80037533D02*
X113290074Y-79975628D01*
X113290074Y-79975628D02*
X113290074Y-79851819D01*
X113290074Y-79851819D02*
X113259122Y-79789914D01*
X113259122Y-79789914D02*
X113197217Y-79758962D01*
X113197217Y-79758962D02*
X113166264Y-79758962D01*
X113166264Y-79758962D02*
X113104360Y-79789914D01*
X113104360Y-79789914D02*
X113073407Y-79851819D01*
X113073407Y-79851819D02*
X113073407Y-79944676D01*
X113073407Y-79944676D02*
X113042455Y-80006581D01*
X113042455Y-80006581D02*
X112980550Y-80037533D01*
X112980550Y-80037533D02*
X112949598Y-80037533D01*
X112949598Y-80037533D02*
X112887693Y-80006581D01*
X112887693Y-80006581D02*
X112856741Y-79944676D01*
X112856741Y-79944676D02*
X112856741Y-79851819D01*
X112856741Y-79851819D02*
X112887693Y-79789914D01*
X113290074Y-79480391D02*
X112856741Y-79480391D01*
X112640074Y-79480391D02*
X112671026Y-79511343D01*
X112671026Y-79511343D02*
X112701979Y-79480391D01*
X112701979Y-79480391D02*
X112671026Y-79449438D01*
X112671026Y-79449438D02*
X112640074Y-79480391D01*
X112640074Y-79480391D02*
X112701979Y-79480391D01*
X112856741Y-78892295D02*
X113382931Y-78892295D01*
X113382931Y-78892295D02*
X113444836Y-78923248D01*
X113444836Y-78923248D02*
X113475788Y-78954200D01*
X113475788Y-78954200D02*
X113506741Y-79016105D01*
X113506741Y-79016105D02*
X113506741Y-79108962D01*
X113506741Y-79108962D02*
X113475788Y-79170867D01*
X113259122Y-78892295D02*
X113290074Y-78954200D01*
X113290074Y-78954200D02*
X113290074Y-79078009D01*
X113290074Y-79078009D02*
X113259122Y-79139914D01*
X113259122Y-79139914D02*
X113228169Y-79170867D01*
X113228169Y-79170867D02*
X113166264Y-79201819D01*
X113166264Y-79201819D02*
X112980550Y-79201819D01*
X112980550Y-79201819D02*
X112918645Y-79170867D01*
X112918645Y-79170867D02*
X112887693Y-79139914D01*
X112887693Y-79139914D02*
X112856741Y-79078009D01*
X112856741Y-79078009D02*
X112856741Y-78954200D01*
X112856741Y-78954200D02*
X112887693Y-78892295D01*
X112856741Y-78582772D02*
X113290074Y-78582772D01*
X112918645Y-78582772D02*
X112887693Y-78551819D01*
X112887693Y-78551819D02*
X112856741Y-78489914D01*
X112856741Y-78489914D02*
X112856741Y-78397057D01*
X112856741Y-78397057D02*
X112887693Y-78335153D01*
X112887693Y-78335153D02*
X112949598Y-78304200D01*
X112949598Y-78304200D02*
X113290074Y-78304200D01*
X112640074Y-77592296D02*
X112640074Y-77220867D01*
X113290074Y-77406581D02*
X112640074Y-77406581D01*
X113259122Y-76756582D02*
X113290074Y-76818486D01*
X113290074Y-76818486D02*
X113290074Y-76942296D01*
X113290074Y-76942296D02*
X113259122Y-77004201D01*
X113259122Y-77004201D02*
X113197217Y-77035153D01*
X113197217Y-77035153D02*
X112949598Y-77035153D01*
X112949598Y-77035153D02*
X112887693Y-77004201D01*
X112887693Y-77004201D02*
X112856741Y-76942296D01*
X112856741Y-76942296D02*
X112856741Y-76818486D01*
X112856741Y-76818486D02*
X112887693Y-76756582D01*
X112887693Y-76756582D02*
X112949598Y-76725629D01*
X112949598Y-76725629D02*
X113011502Y-76725629D01*
X113011502Y-76725629D02*
X113073407Y-77035153D01*
X113290074Y-76168486D02*
X112949598Y-76168486D01*
X112949598Y-76168486D02*
X112887693Y-76199439D01*
X112887693Y-76199439D02*
X112856741Y-76261343D01*
X112856741Y-76261343D02*
X112856741Y-76385153D01*
X112856741Y-76385153D02*
X112887693Y-76447058D01*
X113259122Y-76168486D02*
X113290074Y-76230391D01*
X113290074Y-76230391D02*
X113290074Y-76385153D01*
X113290074Y-76385153D02*
X113259122Y-76447058D01*
X113259122Y-76447058D02*
X113197217Y-76478010D01*
X113197217Y-76478010D02*
X113135312Y-76478010D01*
X113135312Y-76478010D02*
X113073407Y-76447058D01*
X113073407Y-76447058D02*
X113042455Y-76385153D01*
X113042455Y-76385153D02*
X113042455Y-76230391D01*
X113042455Y-76230391D02*
X113011502Y-76168486D01*
X113290074Y-75858963D02*
X112856741Y-75858963D01*
X112918645Y-75858963D02*
X112887693Y-75828010D01*
X112887693Y-75828010D02*
X112856741Y-75766105D01*
X112856741Y-75766105D02*
X112856741Y-75673248D01*
X112856741Y-75673248D02*
X112887693Y-75611344D01*
X112887693Y-75611344D02*
X112949598Y-75580391D01*
X112949598Y-75580391D02*
X113290074Y-75580391D01*
X112949598Y-75580391D02*
X112887693Y-75549439D01*
X112887693Y-75549439D02*
X112856741Y-75487534D01*
X112856741Y-75487534D02*
X112856741Y-75394677D01*
X112856741Y-75394677D02*
X112887693Y-75332772D01*
X112887693Y-75332772D02*
X112949598Y-75301820D01*
X112949598Y-75301820D02*
X113290074Y-75301820D01*
X113686538Y-85330390D02*
X114212728Y-85330390D01*
X114212728Y-85330390D02*
X114274633Y-85299437D01*
X114274633Y-85299437D02*
X114305586Y-85268485D01*
X114305586Y-85268485D02*
X114336538Y-85206580D01*
X114336538Y-85206580D02*
X114336538Y-85082771D01*
X114336538Y-85082771D02*
X114305586Y-85020866D01*
X114305586Y-85020866D02*
X114274633Y-84989913D01*
X114274633Y-84989913D02*
X114212728Y-84958961D01*
X114212728Y-84958961D02*
X113686538Y-84958961D01*
X114305586Y-84680390D02*
X114336538Y-84587533D01*
X114336538Y-84587533D02*
X114336538Y-84432771D01*
X114336538Y-84432771D02*
X114305586Y-84370866D01*
X114305586Y-84370866D02*
X114274633Y-84339914D01*
X114274633Y-84339914D02*
X114212728Y-84308961D01*
X114212728Y-84308961D02*
X114150824Y-84308961D01*
X114150824Y-84308961D02*
X114088919Y-84339914D01*
X114088919Y-84339914D02*
X114057966Y-84370866D01*
X114057966Y-84370866D02*
X114027014Y-84432771D01*
X114027014Y-84432771D02*
X113996062Y-84556580D01*
X113996062Y-84556580D02*
X113965109Y-84618485D01*
X113965109Y-84618485D02*
X113934157Y-84649438D01*
X113934157Y-84649438D02*
X113872252Y-84680390D01*
X113872252Y-84680390D02*
X113810347Y-84680390D01*
X113810347Y-84680390D02*
X113748443Y-84649438D01*
X113748443Y-84649438D02*
X113717490Y-84618485D01*
X113717490Y-84618485D02*
X113686538Y-84556580D01*
X113686538Y-84556580D02*
X113686538Y-84401819D01*
X113686538Y-84401819D02*
X113717490Y-84308961D01*
X113996062Y-83813723D02*
X114027014Y-83720866D01*
X114027014Y-83720866D02*
X114057966Y-83689913D01*
X114057966Y-83689913D02*
X114119871Y-83658961D01*
X114119871Y-83658961D02*
X114212728Y-83658961D01*
X114212728Y-83658961D02*
X114274633Y-83689913D01*
X114274633Y-83689913D02*
X114305586Y-83720866D01*
X114305586Y-83720866D02*
X114336538Y-83782771D01*
X114336538Y-83782771D02*
X114336538Y-84030390D01*
X114336538Y-84030390D02*
X113686538Y-84030390D01*
X113686538Y-84030390D02*
X113686538Y-83813723D01*
X113686538Y-83813723D02*
X113717490Y-83751818D01*
X113717490Y-83751818D02*
X113748443Y-83720866D01*
X113748443Y-83720866D02*
X113810347Y-83689913D01*
X113810347Y-83689913D02*
X113872252Y-83689913D01*
X113872252Y-83689913D02*
X113934157Y-83720866D01*
X113934157Y-83720866D02*
X113965109Y-83751818D01*
X113965109Y-83751818D02*
X113996062Y-83813723D01*
X113996062Y-83813723D02*
X113996062Y-84030390D01*
X114088919Y-83380390D02*
X114088919Y-82885152D01*
X114274633Y-82204199D02*
X114305586Y-82235151D01*
X114305586Y-82235151D02*
X114336538Y-82328009D01*
X114336538Y-82328009D02*
X114336538Y-82389913D01*
X114336538Y-82389913D02*
X114305586Y-82482770D01*
X114305586Y-82482770D02*
X114243681Y-82544675D01*
X114243681Y-82544675D02*
X114181776Y-82575628D01*
X114181776Y-82575628D02*
X114057966Y-82606580D01*
X114057966Y-82606580D02*
X113965109Y-82606580D01*
X113965109Y-82606580D02*
X113841300Y-82575628D01*
X113841300Y-82575628D02*
X113779395Y-82544675D01*
X113779395Y-82544675D02*
X113717490Y-82482770D01*
X113717490Y-82482770D02*
X113686538Y-82389913D01*
X113686538Y-82389913D02*
X113686538Y-82328009D01*
X113686538Y-82328009D02*
X113717490Y-82235151D01*
X113717490Y-82235151D02*
X113748443Y-82204199D01*
X114336538Y-81430390D02*
X113686538Y-81430390D01*
X113686538Y-81430390D02*
X113686538Y-81182771D01*
X113686538Y-81182771D02*
X113717490Y-81120866D01*
X113717490Y-81120866D02*
X113748443Y-81089913D01*
X113748443Y-81089913D02*
X113810347Y-81058961D01*
X113810347Y-81058961D02*
X113903205Y-81058961D01*
X113903205Y-81058961D02*
X113965109Y-81089913D01*
X113965109Y-81089913D02*
X113996062Y-81120866D01*
X113996062Y-81120866D02*
X114027014Y-81182771D01*
X114027014Y-81182771D02*
X114027014Y-81430390D01*
X114336538Y-80780390D02*
X113686538Y-80780390D01*
X113686538Y-80780390D02*
X113686538Y-80625628D01*
X113686538Y-80625628D02*
X113717490Y-80532771D01*
X113717490Y-80532771D02*
X113779395Y-80470866D01*
X113779395Y-80470866D02*
X113841300Y-80439913D01*
X113841300Y-80439913D02*
X113965109Y-80408961D01*
X113965109Y-80408961D02*
X114057966Y-80408961D01*
X114057966Y-80408961D02*
X114181776Y-80439913D01*
X114181776Y-80439913D02*
X114243681Y-80470866D01*
X114243681Y-80470866D02*
X114305586Y-80532771D01*
X114305586Y-80532771D02*
X114336538Y-80625628D01*
X114336538Y-80625628D02*
X114336538Y-80780390D01*
X113996062Y-79418485D02*
X114027014Y-79325628D01*
X114027014Y-79325628D02*
X114057966Y-79294675D01*
X114057966Y-79294675D02*
X114119871Y-79263723D01*
X114119871Y-79263723D02*
X114212728Y-79263723D01*
X114212728Y-79263723D02*
X114274633Y-79294675D01*
X114274633Y-79294675D02*
X114305586Y-79325628D01*
X114305586Y-79325628D02*
X114336538Y-79387533D01*
X114336538Y-79387533D02*
X114336538Y-79635152D01*
X114336538Y-79635152D02*
X113686538Y-79635152D01*
X113686538Y-79635152D02*
X113686538Y-79418485D01*
X113686538Y-79418485D02*
X113717490Y-79356580D01*
X113717490Y-79356580D02*
X113748443Y-79325628D01*
X113748443Y-79325628D02*
X113810347Y-79294675D01*
X113810347Y-79294675D02*
X113872252Y-79294675D01*
X113872252Y-79294675D02*
X113934157Y-79325628D01*
X113934157Y-79325628D02*
X113965109Y-79356580D01*
X113965109Y-79356580D02*
X113996062Y-79418485D01*
X113996062Y-79418485D02*
X113996062Y-79635152D01*
X114336538Y-78892294D02*
X114305586Y-78954199D01*
X114305586Y-78954199D02*
X114274633Y-78985152D01*
X114274633Y-78985152D02*
X114212728Y-79016104D01*
X114212728Y-79016104D02*
X114027014Y-79016104D01*
X114027014Y-79016104D02*
X113965109Y-78985152D01*
X113965109Y-78985152D02*
X113934157Y-78954199D01*
X113934157Y-78954199D02*
X113903205Y-78892294D01*
X113903205Y-78892294D02*
X113903205Y-78799437D01*
X113903205Y-78799437D02*
X113934157Y-78737533D01*
X113934157Y-78737533D02*
X113965109Y-78706580D01*
X113965109Y-78706580D02*
X114027014Y-78675628D01*
X114027014Y-78675628D02*
X114212728Y-78675628D01*
X114212728Y-78675628D02*
X114274633Y-78706580D01*
X114274633Y-78706580D02*
X114305586Y-78737533D01*
X114305586Y-78737533D02*
X114336538Y-78799437D01*
X114336538Y-78799437D02*
X114336538Y-78892294D01*
X114336538Y-78118485D02*
X113996062Y-78118485D01*
X113996062Y-78118485D02*
X113934157Y-78149438D01*
X113934157Y-78149438D02*
X113903205Y-78211342D01*
X113903205Y-78211342D02*
X113903205Y-78335152D01*
X113903205Y-78335152D02*
X113934157Y-78397057D01*
X114305586Y-78118485D02*
X114336538Y-78180390D01*
X114336538Y-78180390D02*
X114336538Y-78335152D01*
X114336538Y-78335152D02*
X114305586Y-78397057D01*
X114305586Y-78397057D02*
X114243681Y-78428009D01*
X114243681Y-78428009D02*
X114181776Y-78428009D01*
X114181776Y-78428009D02*
X114119871Y-78397057D01*
X114119871Y-78397057D02*
X114088919Y-78335152D01*
X114088919Y-78335152D02*
X114088919Y-78180390D01*
X114088919Y-78180390D02*
X114057966Y-78118485D01*
X114336538Y-77808962D02*
X113903205Y-77808962D01*
X114027014Y-77808962D02*
X113965109Y-77778009D01*
X113965109Y-77778009D02*
X113934157Y-77747057D01*
X113934157Y-77747057D02*
X113903205Y-77685152D01*
X113903205Y-77685152D02*
X113903205Y-77623247D01*
X114336538Y-77128009D02*
X113686538Y-77128009D01*
X114305586Y-77128009D02*
X114336538Y-77189914D01*
X114336538Y-77189914D02*
X114336538Y-77313723D01*
X114336538Y-77313723D02*
X114305586Y-77375628D01*
X114305586Y-77375628D02*
X114274633Y-77406581D01*
X114274633Y-77406581D02*
X114212728Y-77437533D01*
X114212728Y-77437533D02*
X114027014Y-77437533D01*
X114027014Y-77437533D02*
X113965109Y-77406581D01*
X113965109Y-77406581D02*
X113934157Y-77375628D01*
X113934157Y-77375628D02*
X113903205Y-77313723D01*
X113903205Y-77313723D02*
X113903205Y-77189914D01*
X113903205Y-77189914D02*
X113934157Y-77128009D01*
X114794907Y-83751819D02*
X114763954Y-83720867D01*
X114763954Y-83720867D02*
X114733002Y-83658962D01*
X114733002Y-83658962D02*
X114733002Y-83504200D01*
X114733002Y-83504200D02*
X114763954Y-83442295D01*
X114763954Y-83442295D02*
X114794907Y-83411343D01*
X114794907Y-83411343D02*
X114856811Y-83380390D01*
X114856811Y-83380390D02*
X114918716Y-83380390D01*
X114918716Y-83380390D02*
X115011573Y-83411343D01*
X115011573Y-83411343D02*
X115383002Y-83782771D01*
X115383002Y-83782771D02*
X115383002Y-83380390D01*
X114733002Y-82978009D02*
X114733002Y-82916104D01*
X114733002Y-82916104D02*
X114763954Y-82854200D01*
X114763954Y-82854200D02*
X114794907Y-82823247D01*
X114794907Y-82823247D02*
X114856811Y-82792295D01*
X114856811Y-82792295D02*
X114980621Y-82761342D01*
X114980621Y-82761342D02*
X115135383Y-82761342D01*
X115135383Y-82761342D02*
X115259192Y-82792295D01*
X115259192Y-82792295D02*
X115321097Y-82823247D01*
X115321097Y-82823247D02*
X115352050Y-82854200D01*
X115352050Y-82854200D02*
X115383002Y-82916104D01*
X115383002Y-82916104D02*
X115383002Y-82978009D01*
X115383002Y-82978009D02*
X115352050Y-83039914D01*
X115352050Y-83039914D02*
X115321097Y-83070866D01*
X115321097Y-83070866D02*
X115259192Y-83101819D01*
X115259192Y-83101819D02*
X115135383Y-83132771D01*
X115135383Y-83132771D02*
X114980621Y-83132771D01*
X114980621Y-83132771D02*
X114856811Y-83101819D01*
X114856811Y-83101819D02*
X114794907Y-83070866D01*
X114794907Y-83070866D02*
X114763954Y-83039914D01*
X114763954Y-83039914D02*
X114733002Y-82978009D01*
X114794907Y-82513723D02*
X114763954Y-82482771D01*
X114763954Y-82482771D02*
X114733002Y-82420866D01*
X114733002Y-82420866D02*
X114733002Y-82266104D01*
X114733002Y-82266104D02*
X114763954Y-82204199D01*
X114763954Y-82204199D02*
X114794907Y-82173247D01*
X114794907Y-82173247D02*
X114856811Y-82142294D01*
X114856811Y-82142294D02*
X114918716Y-82142294D01*
X114918716Y-82142294D02*
X115011573Y-82173247D01*
X115011573Y-82173247D02*
X115383002Y-82544675D01*
X115383002Y-82544675D02*
X115383002Y-82142294D01*
X114733002Y-81585151D02*
X114733002Y-81708961D01*
X114733002Y-81708961D02*
X114763954Y-81770865D01*
X114763954Y-81770865D02*
X114794907Y-81801818D01*
X114794907Y-81801818D02*
X114887764Y-81863723D01*
X114887764Y-81863723D02*
X115011573Y-81894675D01*
X115011573Y-81894675D02*
X115259192Y-81894675D01*
X115259192Y-81894675D02*
X115321097Y-81863723D01*
X115321097Y-81863723D02*
X115352050Y-81832770D01*
X115352050Y-81832770D02*
X115383002Y-81770865D01*
X115383002Y-81770865D02*
X115383002Y-81647056D01*
X115383002Y-81647056D02*
X115352050Y-81585151D01*
X115352050Y-81585151D02*
X115321097Y-81554199D01*
X115321097Y-81554199D02*
X115259192Y-81523246D01*
X115259192Y-81523246D02*
X115104430Y-81523246D01*
X115104430Y-81523246D02*
X115042526Y-81554199D01*
X115042526Y-81554199D02*
X115011573Y-81585151D01*
X115011573Y-81585151D02*
X114980621Y-81647056D01*
X114980621Y-81647056D02*
X114980621Y-81770865D01*
X114980621Y-81770865D02*
X115011573Y-81832770D01*
X115011573Y-81832770D02*
X115042526Y-81863723D01*
X115042526Y-81863723D02*
X115104430Y-81894675D01*
X115383002Y-80378008D02*
X115073478Y-80594675D01*
X115383002Y-80749437D02*
X114733002Y-80749437D01*
X114733002Y-80749437D02*
X114733002Y-80501818D01*
X114733002Y-80501818D02*
X114763954Y-80439913D01*
X114763954Y-80439913D02*
X114794907Y-80408960D01*
X114794907Y-80408960D02*
X114856811Y-80378008D01*
X114856811Y-80378008D02*
X114949669Y-80378008D01*
X114949669Y-80378008D02*
X115011573Y-80408960D01*
X115011573Y-80408960D02*
X115042526Y-80439913D01*
X115042526Y-80439913D02*
X115073478Y-80501818D01*
X115073478Y-80501818D02*
X115073478Y-80749437D01*
X115352050Y-79851818D02*
X115383002Y-79913722D01*
X115383002Y-79913722D02*
X115383002Y-80037532D01*
X115383002Y-80037532D02*
X115352050Y-80099437D01*
X115352050Y-80099437D02*
X115290145Y-80130389D01*
X115290145Y-80130389D02*
X115042526Y-80130389D01*
X115042526Y-80130389D02*
X114980621Y-80099437D01*
X114980621Y-80099437D02*
X114949669Y-80037532D01*
X114949669Y-80037532D02*
X114949669Y-79913722D01*
X114949669Y-79913722D02*
X114980621Y-79851818D01*
X114980621Y-79851818D02*
X115042526Y-79820865D01*
X115042526Y-79820865D02*
X115104430Y-79820865D01*
X115104430Y-79820865D02*
X115166335Y-80130389D01*
X114949669Y-79604198D02*
X115383002Y-79449436D01*
X115383002Y-79449436D02*
X114949669Y-79294675D01*
X115383002Y-78706579D02*
X115383002Y-79078008D01*
X115383002Y-78892294D02*
X114733002Y-78892294D01*
X114733002Y-78892294D02*
X114825859Y-78954198D01*
X114825859Y-78954198D02*
X114887764Y-79016103D01*
X114887764Y-79016103D02*
X114918716Y-79078008D01*
D11*
X128784733Y-77742571D02*
X128784733Y-77133048D01*
X129089495Y-77437809D02*
X128479971Y-77437809D01*
X129089495Y-76333048D02*
X129089495Y-76790191D01*
X129089495Y-76561619D02*
X128289495Y-76561619D01*
X128289495Y-76561619D02*
X128403780Y-76637810D01*
X128403780Y-76637810D02*
X128479971Y-76714000D01*
X128479971Y-76714000D02*
X128518066Y-76790191D01*
X128365685Y-76028286D02*
X128327590Y-75990190D01*
X128327590Y-75990190D02*
X128289495Y-75914000D01*
X128289495Y-75914000D02*
X128289495Y-75723524D01*
X128289495Y-75723524D02*
X128327590Y-75647333D01*
X128327590Y-75647333D02*
X128365685Y-75609238D01*
X128365685Y-75609238D02*
X128441876Y-75571143D01*
X128441876Y-75571143D02*
X128518066Y-75571143D01*
X128518066Y-75571143D02*
X128632352Y-75609238D01*
X128632352Y-75609238D02*
X129089495Y-76066381D01*
X129089495Y-76066381D02*
X129089495Y-75571143D01*
X128289495Y-75342571D02*
X129089495Y-75075904D01*
X129089495Y-75075904D02*
X128289495Y-74809238D01*
X128670447Y-73666381D02*
X128708542Y-73552095D01*
X128708542Y-73552095D02*
X128746638Y-73514000D01*
X128746638Y-73514000D02*
X128822828Y-73475904D01*
X128822828Y-73475904D02*
X128937114Y-73475904D01*
X128937114Y-73475904D02*
X129013304Y-73514000D01*
X129013304Y-73514000D02*
X129051400Y-73552095D01*
X129051400Y-73552095D02*
X129089495Y-73628285D01*
X129089495Y-73628285D02*
X129089495Y-73933047D01*
X129089495Y-73933047D02*
X128289495Y-73933047D01*
X128289495Y-73933047D02*
X128289495Y-73666381D01*
X128289495Y-73666381D02*
X128327590Y-73590190D01*
X128327590Y-73590190D02*
X128365685Y-73552095D01*
X128365685Y-73552095D02*
X128441876Y-73514000D01*
X128441876Y-73514000D02*
X128518066Y-73514000D01*
X128518066Y-73514000D02*
X128594257Y-73552095D01*
X128594257Y-73552095D02*
X128632352Y-73590190D01*
X128632352Y-73590190D02*
X128670447Y-73666381D01*
X128670447Y-73666381D02*
X128670447Y-73933047D01*
X129089495Y-72790190D02*
X128670447Y-72790190D01*
X128670447Y-72790190D02*
X128594257Y-72828285D01*
X128594257Y-72828285D02*
X128556161Y-72904476D01*
X128556161Y-72904476D02*
X128556161Y-73056857D01*
X128556161Y-73056857D02*
X128594257Y-73133047D01*
X129051400Y-72790190D02*
X129089495Y-72866381D01*
X129089495Y-72866381D02*
X129089495Y-73056857D01*
X129089495Y-73056857D02*
X129051400Y-73133047D01*
X129051400Y-73133047D02*
X128975209Y-73171143D01*
X128975209Y-73171143D02*
X128899019Y-73171143D01*
X128899019Y-73171143D02*
X128822828Y-73133047D01*
X128822828Y-73133047D02*
X128784733Y-73056857D01*
X128784733Y-73056857D02*
X128784733Y-72866381D01*
X128784733Y-72866381D02*
X128746638Y-72790190D01*
X128556161Y-72523523D02*
X128556161Y-72218761D01*
X128289495Y-72409237D02*
X128975209Y-72409237D01*
X128975209Y-72409237D02*
X129051400Y-72371142D01*
X129051400Y-72371142D02*
X129089495Y-72294952D01*
X129089495Y-72294952D02*
X129089495Y-72218761D01*
X128556161Y-72066380D02*
X128556161Y-71761618D01*
X128289495Y-71952094D02*
X128975209Y-71952094D01*
X128975209Y-71952094D02*
X129051400Y-71913999D01*
X129051400Y-71913999D02*
X129089495Y-71837809D01*
X129089495Y-71837809D02*
X129089495Y-71761618D01*
X129051400Y-71190189D02*
X129089495Y-71266380D01*
X129089495Y-71266380D02*
X129089495Y-71418761D01*
X129089495Y-71418761D02*
X129051400Y-71494951D01*
X129051400Y-71494951D02*
X128975209Y-71533047D01*
X128975209Y-71533047D02*
X128670447Y-71533047D01*
X128670447Y-71533047D02*
X128594257Y-71494951D01*
X128594257Y-71494951D02*
X128556161Y-71418761D01*
X128556161Y-71418761D02*
X128556161Y-71266380D01*
X128556161Y-71266380D02*
X128594257Y-71190189D01*
X128594257Y-71190189D02*
X128670447Y-71152094D01*
X128670447Y-71152094D02*
X128746638Y-71152094D01*
X128746638Y-71152094D02*
X128822828Y-71533047D01*
X129089495Y-70809237D02*
X128556161Y-70809237D01*
X128708542Y-70809237D02*
X128632352Y-70771142D01*
X128632352Y-70771142D02*
X128594257Y-70733047D01*
X128594257Y-70733047D02*
X128556161Y-70656856D01*
X128556161Y-70656856D02*
X128556161Y-70580666D01*
X128556161Y-70390190D02*
X129089495Y-70199714D01*
X128556161Y-70009237D02*
X129089495Y-70199714D01*
X129089495Y-70199714D02*
X129279971Y-70275904D01*
X129279971Y-70275904D02*
X129318066Y-70313999D01*
X129318066Y-70313999D02*
X129356161Y-70390190D01*
X120684580Y-105291666D02*
X120732200Y-105339285D01*
X120732200Y-105339285D02*
X120779819Y-105482142D01*
X120779819Y-105482142D02*
X120779819Y-105577380D01*
X120779819Y-105577380D02*
X120732200Y-105720237D01*
X120732200Y-105720237D02*
X120636961Y-105815475D01*
X120636961Y-105815475D02*
X120541723Y-105863094D01*
X120541723Y-105863094D02*
X120351247Y-105910713D01*
X120351247Y-105910713D02*
X120208390Y-105910713D01*
X120208390Y-105910713D02*
X120017914Y-105863094D01*
X120017914Y-105863094D02*
X119922676Y-105815475D01*
X119922676Y-105815475D02*
X119827438Y-105720237D01*
X119827438Y-105720237D02*
X119779819Y-105577380D01*
X119779819Y-105577380D02*
X119779819Y-105482142D01*
X119779819Y-105482142D02*
X119827438Y-105339285D01*
X119827438Y-105339285D02*
X119875057Y-105291666D01*
X120779819Y-104815475D02*
X120779819Y-104624999D01*
X120779819Y-104624999D02*
X120732200Y-104529761D01*
X120732200Y-104529761D02*
X120684580Y-104482142D01*
X120684580Y-104482142D02*
X120541723Y-104386904D01*
X120541723Y-104386904D02*
X120351247Y-104339285D01*
X120351247Y-104339285D02*
X119970295Y-104339285D01*
X119970295Y-104339285D02*
X119875057Y-104386904D01*
X119875057Y-104386904D02*
X119827438Y-104434523D01*
X119827438Y-104434523D02*
X119779819Y-104529761D01*
X119779819Y-104529761D02*
X119779819Y-104720237D01*
X119779819Y-104720237D02*
X119827438Y-104815475D01*
X119827438Y-104815475D02*
X119875057Y-104863094D01*
X119875057Y-104863094D02*
X119970295Y-104910713D01*
X119970295Y-104910713D02*
X120208390Y-104910713D01*
X120208390Y-104910713D02*
X120303628Y-104863094D01*
X120303628Y-104863094D02*
X120351247Y-104815475D01*
X120351247Y-104815475D02*
X120398866Y-104720237D01*
X120398866Y-104720237D02*
X120398866Y-104529761D01*
X120398866Y-104529761D02*
X120351247Y-104434523D01*
X120351247Y-104434523D02*
X120303628Y-104386904D01*
X120303628Y-104386904D02*
X120208390Y-104339285D01*
X126965085Y-82841071D02*
X126879371Y-82798214D01*
X126879371Y-82798214D02*
X126793657Y-82712500D01*
X126793657Y-82712500D02*
X126665085Y-82583928D01*
X126665085Y-82583928D02*
X126579371Y-82541071D01*
X126579371Y-82541071D02*
X126493657Y-82541071D01*
X126536514Y-82755357D02*
X126450800Y-82712500D01*
X126450800Y-82712500D02*
X126365085Y-82626785D01*
X126365085Y-82626785D02*
X126322228Y-82455357D01*
X126322228Y-82455357D02*
X126322228Y-82155357D01*
X126322228Y-82155357D02*
X126365085Y-81983928D01*
X126365085Y-81983928D02*
X126450800Y-81898214D01*
X126450800Y-81898214D02*
X126536514Y-81855357D01*
X126536514Y-81855357D02*
X126707942Y-81855357D01*
X126707942Y-81855357D02*
X126793657Y-81898214D01*
X126793657Y-81898214D02*
X126879371Y-81983928D01*
X126879371Y-81983928D02*
X126922228Y-82155357D01*
X126922228Y-82155357D02*
X126922228Y-82455357D01*
X126922228Y-82455357D02*
X126879371Y-82626785D01*
X126879371Y-82626785D02*
X126793657Y-82712500D01*
X126793657Y-82712500D02*
X126707942Y-82755357D01*
X126707942Y-82755357D02*
X126536514Y-82755357D01*
X127779371Y-82755357D02*
X127265085Y-82755357D01*
X127522228Y-82755357D02*
X127522228Y-81855357D01*
X127522228Y-81855357D02*
X127436514Y-81983928D01*
X127436514Y-81983928D02*
X127350799Y-82069642D01*
X127350799Y-82069642D02*
X127265085Y-82112500D01*
X121414285Y-86019271D02*
X121328571Y-85976414D01*
X121328571Y-85976414D02*
X121242857Y-85890700D01*
X121242857Y-85890700D02*
X121114285Y-85762128D01*
X121114285Y-85762128D02*
X121028571Y-85719271D01*
X121028571Y-85719271D02*
X120942857Y-85719271D01*
X120985714Y-85933557D02*
X120900000Y-85890700D01*
X120900000Y-85890700D02*
X120814285Y-85804985D01*
X120814285Y-85804985D02*
X120771428Y-85633557D01*
X120771428Y-85633557D02*
X120771428Y-85333557D01*
X120771428Y-85333557D02*
X120814285Y-85162128D01*
X120814285Y-85162128D02*
X120900000Y-85076414D01*
X120900000Y-85076414D02*
X120985714Y-85033557D01*
X120985714Y-85033557D02*
X121157142Y-85033557D01*
X121157142Y-85033557D02*
X121242857Y-85076414D01*
X121242857Y-85076414D02*
X121328571Y-85162128D01*
X121328571Y-85162128D02*
X121371428Y-85333557D01*
X121371428Y-85333557D02*
X121371428Y-85633557D01*
X121371428Y-85633557D02*
X121328571Y-85804985D01*
X121328571Y-85804985D02*
X121242857Y-85890700D01*
X121242857Y-85890700D02*
X121157142Y-85933557D01*
X121157142Y-85933557D02*
X120985714Y-85933557D01*
X121671428Y-85033557D02*
X122228571Y-85033557D01*
X122228571Y-85033557D02*
X121928571Y-85376414D01*
X121928571Y-85376414D02*
X122057142Y-85376414D01*
X122057142Y-85376414D02*
X122142857Y-85419271D01*
X122142857Y-85419271D02*
X122185714Y-85462128D01*
X122185714Y-85462128D02*
X122228571Y-85547842D01*
X122228571Y-85547842D02*
X122228571Y-85762128D01*
X122228571Y-85762128D02*
X122185714Y-85847842D01*
X122185714Y-85847842D02*
X122142857Y-85890700D01*
X122142857Y-85890700D02*
X122057142Y-85933557D01*
X122057142Y-85933557D02*
X121799999Y-85933557D01*
X121799999Y-85933557D02*
X121714285Y-85890700D01*
X121714285Y-85890700D02*
X121671428Y-85847842D01*
X118106866Y-110986219D02*
X118106866Y-111700504D01*
X118106866Y-111700504D02*
X118059247Y-111843361D01*
X118059247Y-111843361D02*
X117964009Y-111938600D01*
X117964009Y-111938600D02*
X117821152Y-111986219D01*
X117821152Y-111986219D02*
X117725914Y-111986219D01*
X118487819Y-110986219D02*
X119106866Y-110986219D01*
X119106866Y-110986219D02*
X118773533Y-111367171D01*
X118773533Y-111367171D02*
X118916390Y-111367171D01*
X118916390Y-111367171D02*
X119011628Y-111414790D01*
X119011628Y-111414790D02*
X119059247Y-111462409D01*
X119059247Y-111462409D02*
X119106866Y-111557647D01*
X119106866Y-111557647D02*
X119106866Y-111795742D01*
X119106866Y-111795742D02*
X119059247Y-111890980D01*
X119059247Y-111890980D02*
X119011628Y-111938600D01*
X119011628Y-111938600D02*
X118916390Y-111986219D01*
X118916390Y-111986219D02*
X118630676Y-111986219D01*
X118630676Y-111986219D02*
X118535438Y-111938600D01*
X118535438Y-111938600D02*
X118487819Y-111890980D01*
X125806077Y-79979819D02*
X125472744Y-79503628D01*
X125234649Y-79979819D02*
X125234649Y-78979819D01*
X125234649Y-78979819D02*
X125615601Y-78979819D01*
X125615601Y-78979819D02*
X125710839Y-79027438D01*
X125710839Y-79027438D02*
X125758458Y-79075057D01*
X125758458Y-79075057D02*
X125806077Y-79170295D01*
X125806077Y-79170295D02*
X125806077Y-79313152D01*
X125806077Y-79313152D02*
X125758458Y-79408390D01*
X125758458Y-79408390D02*
X125710839Y-79456009D01*
X125710839Y-79456009D02*
X125615601Y-79503628D01*
X125615601Y-79503628D02*
X125234649Y-79503628D01*
X126758458Y-79979819D02*
X126187030Y-79979819D01*
X126472744Y-79979819D02*
X126472744Y-78979819D01*
X126472744Y-78979819D02*
X126377506Y-79122676D01*
X126377506Y-79122676D02*
X126282268Y-79217914D01*
X126282268Y-79217914D02*
X126187030Y-79265533D01*
X127139411Y-79075057D02*
X127187030Y-79027438D01*
X127187030Y-79027438D02*
X127282268Y-78979819D01*
X127282268Y-78979819D02*
X127520363Y-78979819D01*
X127520363Y-78979819D02*
X127615601Y-79027438D01*
X127615601Y-79027438D02*
X127663220Y-79075057D01*
X127663220Y-79075057D02*
X127710839Y-79170295D01*
X127710839Y-79170295D02*
X127710839Y-79265533D01*
X127710839Y-79265533D02*
X127663220Y-79408390D01*
X127663220Y-79408390D02*
X127091792Y-79979819D01*
X127091792Y-79979819D02*
X127710839Y-79979819D01*
X131957142Y-107734580D02*
X131909523Y-107782200D01*
X131909523Y-107782200D02*
X131766666Y-107829819D01*
X131766666Y-107829819D02*
X131671428Y-107829819D01*
X131671428Y-107829819D02*
X131528571Y-107782200D01*
X131528571Y-107782200D02*
X131433333Y-107686961D01*
X131433333Y-107686961D02*
X131385714Y-107591723D01*
X131385714Y-107591723D02*
X131338095Y-107401247D01*
X131338095Y-107401247D02*
X131338095Y-107258390D01*
X131338095Y-107258390D02*
X131385714Y-107067914D01*
X131385714Y-107067914D02*
X131433333Y-106972676D01*
X131433333Y-106972676D02*
X131528571Y-106877438D01*
X131528571Y-106877438D02*
X131671428Y-106829819D01*
X131671428Y-106829819D02*
X131766666Y-106829819D01*
X131766666Y-106829819D02*
X131909523Y-106877438D01*
X131909523Y-106877438D02*
X131957142Y-106925057D01*
X132909523Y-107829819D02*
X132338095Y-107829819D01*
X132623809Y-107829819D02*
X132623809Y-106829819D01*
X132623809Y-106829819D02*
X132528571Y-106972676D01*
X132528571Y-106972676D02*
X132433333Y-107067914D01*
X132433333Y-107067914D02*
X132338095Y-107115533D01*
X133528571Y-106829819D02*
X133623809Y-106829819D01*
X133623809Y-106829819D02*
X133719047Y-106877438D01*
X133719047Y-106877438D02*
X133766666Y-106925057D01*
X133766666Y-106925057D02*
X133814285Y-107020295D01*
X133814285Y-107020295D02*
X133861904Y-107210771D01*
X133861904Y-107210771D02*
X133861904Y-107448866D01*
X133861904Y-107448866D02*
X133814285Y-107639342D01*
X133814285Y-107639342D02*
X133766666Y-107734580D01*
X133766666Y-107734580D02*
X133719047Y-107782200D01*
X133719047Y-107782200D02*
X133623809Y-107829819D01*
X133623809Y-107829819D02*
X133528571Y-107829819D01*
X133528571Y-107829819D02*
X133433333Y-107782200D01*
X133433333Y-107782200D02*
X133385714Y-107734580D01*
X133385714Y-107734580D02*
X133338095Y-107639342D01*
X133338095Y-107639342D02*
X133290476Y-107448866D01*
X133290476Y-107448866D02*
X133290476Y-107210771D01*
X133290476Y-107210771D02*
X133338095Y-107020295D01*
X133338095Y-107020295D02*
X133385714Y-106925057D01*
X133385714Y-106925057D02*
X133433333Y-106877438D01*
X133433333Y-106877438D02*
X133528571Y-106829819D01*
X118886905Y-91504819D02*
X118886905Y-90504819D01*
X118886905Y-90504819D02*
X119125000Y-90504819D01*
X119125000Y-90504819D02*
X119267857Y-90552438D01*
X119267857Y-90552438D02*
X119363095Y-90647676D01*
X119363095Y-90647676D02*
X119410714Y-90742914D01*
X119410714Y-90742914D02*
X119458333Y-90933390D01*
X119458333Y-90933390D02*
X119458333Y-91076247D01*
X119458333Y-91076247D02*
X119410714Y-91266723D01*
X119410714Y-91266723D02*
X119363095Y-91361961D01*
X119363095Y-91361961D02*
X119267857Y-91457200D01*
X119267857Y-91457200D02*
X119125000Y-91504819D01*
X119125000Y-91504819D02*
X118886905Y-91504819D01*
X120410714Y-91504819D02*
X119839286Y-91504819D01*
X120125000Y-91504819D02*
X120125000Y-90504819D01*
X120125000Y-90504819D02*
X120029762Y-90647676D01*
X120029762Y-90647676D02*
X119934524Y-90742914D01*
X119934524Y-90742914D02*
X119839286Y-90790533D01*
X128982142Y-104854819D02*
X128648809Y-104378628D01*
X128410714Y-104854819D02*
X128410714Y-103854819D01*
X128410714Y-103854819D02*
X128791666Y-103854819D01*
X128791666Y-103854819D02*
X128886904Y-103902438D01*
X128886904Y-103902438D02*
X128934523Y-103950057D01*
X128934523Y-103950057D02*
X128982142Y-104045295D01*
X128982142Y-104045295D02*
X128982142Y-104188152D01*
X128982142Y-104188152D02*
X128934523Y-104283390D01*
X128934523Y-104283390D02*
X128886904Y-104331009D01*
X128886904Y-104331009D02*
X128791666Y-104378628D01*
X128791666Y-104378628D02*
X128410714Y-104378628D01*
X129934523Y-104854819D02*
X129363095Y-104854819D01*
X129648809Y-104854819D02*
X129648809Y-103854819D01*
X129648809Y-103854819D02*
X129553571Y-103997676D01*
X129553571Y-103997676D02*
X129458333Y-104092914D01*
X129458333Y-104092914D02*
X129363095Y-104140533D01*
X130886904Y-104854819D02*
X130315476Y-104854819D01*
X130601190Y-104854819D02*
X130601190Y-103854819D01*
X130601190Y-103854819D02*
X130505952Y-103997676D01*
X130505952Y-103997676D02*
X130410714Y-104092914D01*
X130410714Y-104092914D02*
X130315476Y-104140533D01*
X121111180Y-81313257D02*
X121158800Y-81360876D01*
X121158800Y-81360876D02*
X121206419Y-81503733D01*
X121206419Y-81503733D02*
X121206419Y-81598971D01*
X121206419Y-81598971D02*
X121158800Y-81741828D01*
X121158800Y-81741828D02*
X121063561Y-81837066D01*
X121063561Y-81837066D02*
X120968323Y-81884685D01*
X120968323Y-81884685D02*
X120777847Y-81932304D01*
X120777847Y-81932304D02*
X120634990Y-81932304D01*
X120634990Y-81932304D02*
X120444514Y-81884685D01*
X120444514Y-81884685D02*
X120349276Y-81837066D01*
X120349276Y-81837066D02*
X120254038Y-81741828D01*
X120254038Y-81741828D02*
X120206419Y-81598971D01*
X120206419Y-81598971D02*
X120206419Y-81503733D01*
X120206419Y-81503733D02*
X120254038Y-81360876D01*
X120254038Y-81360876D02*
X120301657Y-81313257D01*
X121206419Y-80360876D02*
X121206419Y-80932304D01*
X121206419Y-80646590D02*
X120206419Y-80646590D01*
X120206419Y-80646590D02*
X120349276Y-80741828D01*
X120349276Y-80741828D02*
X120444514Y-80837066D01*
X120444514Y-80837066D02*
X120492133Y-80932304D01*
X120206419Y-80027542D02*
X120206419Y-79408495D01*
X120206419Y-79408495D02*
X120587371Y-79741828D01*
X120587371Y-79741828D02*
X120587371Y-79598971D01*
X120587371Y-79598971D02*
X120634990Y-79503733D01*
X120634990Y-79503733D02*
X120682609Y-79456114D01*
X120682609Y-79456114D02*
X120777847Y-79408495D01*
X120777847Y-79408495D02*
X121015942Y-79408495D01*
X121015942Y-79408495D02*
X121111180Y-79456114D01*
X121111180Y-79456114D02*
X121158800Y-79503733D01*
X121158800Y-79503733D02*
X121206419Y-79598971D01*
X121206419Y-79598971D02*
X121206419Y-79884685D01*
X121206419Y-79884685D02*
X121158800Y-79979923D01*
X121158800Y-79979923D02*
X121111180Y-80027542D01*
X116207142Y-88684580D02*
X116159523Y-88732200D01*
X116159523Y-88732200D02*
X116016666Y-88779819D01*
X116016666Y-88779819D02*
X115921428Y-88779819D01*
X115921428Y-88779819D02*
X115778571Y-88732200D01*
X115778571Y-88732200D02*
X115683333Y-88636961D01*
X115683333Y-88636961D02*
X115635714Y-88541723D01*
X115635714Y-88541723D02*
X115588095Y-88351247D01*
X115588095Y-88351247D02*
X115588095Y-88208390D01*
X115588095Y-88208390D02*
X115635714Y-88017914D01*
X115635714Y-88017914D02*
X115683333Y-87922676D01*
X115683333Y-87922676D02*
X115778571Y-87827438D01*
X115778571Y-87827438D02*
X115921428Y-87779819D01*
X115921428Y-87779819D02*
X116016666Y-87779819D01*
X116016666Y-87779819D02*
X116159523Y-87827438D01*
X116159523Y-87827438D02*
X116207142Y-87875057D01*
X117159523Y-88779819D02*
X116588095Y-88779819D01*
X116873809Y-88779819D02*
X116873809Y-87779819D01*
X116873809Y-87779819D02*
X116778571Y-87922676D01*
X116778571Y-87922676D02*
X116683333Y-88017914D01*
X116683333Y-88017914D02*
X116588095Y-88065533D01*
X117540476Y-87875057D02*
X117588095Y-87827438D01*
X117588095Y-87827438D02*
X117683333Y-87779819D01*
X117683333Y-87779819D02*
X117921428Y-87779819D01*
X117921428Y-87779819D02*
X118016666Y-87827438D01*
X118016666Y-87827438D02*
X118064285Y-87875057D01*
X118064285Y-87875057D02*
X118111904Y-87970295D01*
X118111904Y-87970295D02*
X118111904Y-88065533D01*
X118111904Y-88065533D02*
X118064285Y-88208390D01*
X118064285Y-88208390D02*
X117492857Y-88779819D01*
X117492857Y-88779819D02*
X118111904Y-88779819D01*
X132086905Y-79279819D02*
X132086905Y-78279819D01*
X132086905Y-78279819D02*
X132325000Y-78279819D01*
X132325000Y-78279819D02*
X132467857Y-78327438D01*
X132467857Y-78327438D02*
X132563095Y-78422676D01*
X132563095Y-78422676D02*
X132610714Y-78517914D01*
X132610714Y-78517914D02*
X132658333Y-78708390D01*
X132658333Y-78708390D02*
X132658333Y-78851247D01*
X132658333Y-78851247D02*
X132610714Y-79041723D01*
X132610714Y-79041723D02*
X132563095Y-79136961D01*
X132563095Y-79136961D02*
X132467857Y-79232200D01*
X132467857Y-79232200D02*
X132325000Y-79279819D01*
X132325000Y-79279819D02*
X132086905Y-79279819D01*
X133563095Y-78279819D02*
X133086905Y-78279819D01*
X133086905Y-78279819D02*
X133039286Y-78756009D01*
X133039286Y-78756009D02*
X133086905Y-78708390D01*
X133086905Y-78708390D02*
X133182143Y-78660771D01*
X133182143Y-78660771D02*
X133420238Y-78660771D01*
X133420238Y-78660771D02*
X133515476Y-78708390D01*
X133515476Y-78708390D02*
X133563095Y-78756009D01*
X133563095Y-78756009D02*
X133610714Y-78851247D01*
X133610714Y-78851247D02*
X133610714Y-79089342D01*
X133610714Y-79089342D02*
X133563095Y-79184580D01*
X133563095Y-79184580D02*
X133515476Y-79232200D01*
X133515476Y-79232200D02*
X133420238Y-79279819D01*
X133420238Y-79279819D02*
X133182143Y-79279819D01*
X133182143Y-79279819D02*
X133086905Y-79232200D01*
X133086905Y-79232200D02*
X133039286Y-79184580D01*
X123216666Y-80379819D02*
X123216666Y-81094104D01*
X123216666Y-81094104D02*
X123169047Y-81236961D01*
X123169047Y-81236961D02*
X123073809Y-81332200D01*
X123073809Y-81332200D02*
X122930952Y-81379819D01*
X122930952Y-81379819D02*
X122835714Y-81379819D01*
X123645238Y-80475057D02*
X123692857Y-80427438D01*
X123692857Y-80427438D02*
X123788095Y-80379819D01*
X123788095Y-80379819D02*
X124026190Y-80379819D01*
X124026190Y-80379819D02*
X124121428Y-80427438D01*
X124121428Y-80427438D02*
X124169047Y-80475057D01*
X124169047Y-80475057D02*
X124216666Y-80570295D01*
X124216666Y-80570295D02*
X124216666Y-80665533D01*
X124216666Y-80665533D02*
X124169047Y-80808390D01*
X124169047Y-80808390D02*
X123597619Y-81379819D01*
X123597619Y-81379819D02*
X124216666Y-81379819D01*
X124914819Y-86780666D02*
X124914819Y-87256856D01*
X124914819Y-87256856D02*
X123914819Y-87256856D01*
X124914819Y-85923523D02*
X124914819Y-86494951D01*
X124914819Y-86209237D02*
X123914819Y-86209237D01*
X123914819Y-86209237D02*
X124057676Y-86304475D01*
X124057676Y-86304475D02*
X124152914Y-86399713D01*
X124152914Y-86399713D02*
X124200533Y-86494951D01*
X131933333Y-100584580D02*
X131885714Y-100632200D01*
X131885714Y-100632200D02*
X131742857Y-100679819D01*
X131742857Y-100679819D02*
X131647619Y-100679819D01*
X131647619Y-100679819D02*
X131504762Y-100632200D01*
X131504762Y-100632200D02*
X131409524Y-100536961D01*
X131409524Y-100536961D02*
X131361905Y-100441723D01*
X131361905Y-100441723D02*
X131314286Y-100251247D01*
X131314286Y-100251247D02*
X131314286Y-100108390D01*
X131314286Y-100108390D02*
X131361905Y-99917914D01*
X131361905Y-99917914D02*
X131409524Y-99822676D01*
X131409524Y-99822676D02*
X131504762Y-99727438D01*
X131504762Y-99727438D02*
X131647619Y-99679819D01*
X131647619Y-99679819D02*
X131742857Y-99679819D01*
X131742857Y-99679819D02*
X131885714Y-99727438D01*
X131885714Y-99727438D02*
X131933333Y-99775057D01*
X132885714Y-100679819D02*
X132314286Y-100679819D01*
X132600000Y-100679819D02*
X132600000Y-99679819D01*
X132600000Y-99679819D02*
X132504762Y-99822676D01*
X132504762Y-99822676D02*
X132409524Y-99917914D01*
X132409524Y-99917914D02*
X132314286Y-99965533D01*
X114033333Y-91409580D02*
X113985714Y-91457200D01*
X113985714Y-91457200D02*
X113842857Y-91504819D01*
X113842857Y-91504819D02*
X113747619Y-91504819D01*
X113747619Y-91504819D02*
X113604762Y-91457200D01*
X113604762Y-91457200D02*
X113509524Y-91361961D01*
X113509524Y-91361961D02*
X113461905Y-91266723D01*
X113461905Y-91266723D02*
X113414286Y-91076247D01*
X113414286Y-91076247D02*
X113414286Y-90933390D01*
X113414286Y-90933390D02*
X113461905Y-90742914D01*
X113461905Y-90742914D02*
X113509524Y-90647676D01*
X113509524Y-90647676D02*
X113604762Y-90552438D01*
X113604762Y-90552438D02*
X113747619Y-90504819D01*
X113747619Y-90504819D02*
X113842857Y-90504819D01*
X113842857Y-90504819D02*
X113985714Y-90552438D01*
X113985714Y-90552438D02*
X114033333Y-90600057D01*
X114414286Y-90600057D02*
X114461905Y-90552438D01*
X114461905Y-90552438D02*
X114557143Y-90504819D01*
X114557143Y-90504819D02*
X114795238Y-90504819D01*
X114795238Y-90504819D02*
X114890476Y-90552438D01*
X114890476Y-90552438D02*
X114938095Y-90600057D01*
X114938095Y-90600057D02*
X114985714Y-90695295D01*
X114985714Y-90695295D02*
X114985714Y-90790533D01*
X114985714Y-90790533D02*
X114938095Y-90933390D01*
X114938095Y-90933390D02*
X114366667Y-91504819D01*
X114366667Y-91504819D02*
X114985714Y-91504819D01*
X131961905Y-104804819D02*
X131961905Y-103804819D01*
X131961905Y-103804819D02*
X132200000Y-103804819D01*
X132200000Y-103804819D02*
X132342857Y-103852438D01*
X132342857Y-103852438D02*
X132438095Y-103947676D01*
X132438095Y-103947676D02*
X132485714Y-104042914D01*
X132485714Y-104042914D02*
X132533333Y-104233390D01*
X132533333Y-104233390D02*
X132533333Y-104376247D01*
X132533333Y-104376247D02*
X132485714Y-104566723D01*
X132485714Y-104566723D02*
X132438095Y-104661961D01*
X132438095Y-104661961D02*
X132342857Y-104757200D01*
X132342857Y-104757200D02*
X132200000Y-104804819D01*
X132200000Y-104804819D02*
X131961905Y-104804819D01*
X133390476Y-104138152D02*
X133390476Y-104804819D01*
X133152381Y-103757200D02*
X132914286Y-104471485D01*
X132914286Y-104471485D02*
X133533333Y-104471485D01*
X126795833Y-81454819D02*
X126462500Y-80978628D01*
X126224405Y-81454819D02*
X126224405Y-80454819D01*
X126224405Y-80454819D02*
X126605357Y-80454819D01*
X126605357Y-80454819D02*
X126700595Y-80502438D01*
X126700595Y-80502438D02*
X126748214Y-80550057D01*
X126748214Y-80550057D02*
X126795833Y-80645295D01*
X126795833Y-80645295D02*
X126795833Y-80788152D01*
X126795833Y-80788152D02*
X126748214Y-80883390D01*
X126748214Y-80883390D02*
X126700595Y-80931009D01*
X126700595Y-80931009D02*
X126605357Y-80978628D01*
X126605357Y-80978628D02*
X126224405Y-80978628D01*
X127748214Y-81454819D02*
X127176786Y-81454819D01*
X127462500Y-81454819D02*
X127462500Y-80454819D01*
X127462500Y-80454819D02*
X127367262Y-80597676D01*
X127367262Y-80597676D02*
X127272024Y-80692914D01*
X127272024Y-80692914D02*
X127176786Y-80740533D01*
X127754819Y-103466666D02*
X127278628Y-103799999D01*
X127754819Y-104038094D02*
X126754819Y-104038094D01*
X126754819Y-104038094D02*
X126754819Y-103657142D01*
X126754819Y-103657142D02*
X126802438Y-103561904D01*
X126802438Y-103561904D02*
X126850057Y-103514285D01*
X126850057Y-103514285D02*
X126945295Y-103466666D01*
X126945295Y-103466666D02*
X127088152Y-103466666D01*
X127088152Y-103466666D02*
X127183390Y-103514285D01*
X127183390Y-103514285D02*
X127231009Y-103561904D01*
X127231009Y-103561904D02*
X127278628Y-103657142D01*
X127278628Y-103657142D02*
X127278628Y-104038094D01*
X126754819Y-102561904D02*
X126754819Y-103038094D01*
X126754819Y-103038094D02*
X127231009Y-103085713D01*
X127231009Y-103085713D02*
X127183390Y-103038094D01*
X127183390Y-103038094D02*
X127135771Y-102942856D01*
X127135771Y-102942856D02*
X127135771Y-102704761D01*
X127135771Y-102704761D02*
X127183390Y-102609523D01*
X127183390Y-102609523D02*
X127231009Y-102561904D01*
X127231009Y-102561904D02*
X127326247Y-102514285D01*
X127326247Y-102514285D02*
X127564342Y-102514285D01*
X127564342Y-102514285D02*
X127659580Y-102561904D01*
X127659580Y-102561904D02*
X127707200Y-102609523D01*
X127707200Y-102609523D02*
X127754819Y-102704761D01*
X127754819Y-102704761D02*
X127754819Y-102942856D01*
X127754819Y-102942856D02*
X127707200Y-103038094D01*
X127707200Y-103038094D02*
X127659580Y-103085713D01*
X131994285Y-82180671D02*
X131908571Y-82137814D01*
X131908571Y-82137814D02*
X131822857Y-82052100D01*
X131822857Y-82052100D02*
X131694285Y-81923528D01*
X131694285Y-81923528D02*
X131608571Y-81880671D01*
X131608571Y-81880671D02*
X131522857Y-81880671D01*
X131565714Y-82094957D02*
X131480000Y-82052100D01*
X131480000Y-82052100D02*
X131394285Y-81966385D01*
X131394285Y-81966385D02*
X131351428Y-81794957D01*
X131351428Y-81794957D02*
X131351428Y-81494957D01*
X131351428Y-81494957D02*
X131394285Y-81323528D01*
X131394285Y-81323528D02*
X131480000Y-81237814D01*
X131480000Y-81237814D02*
X131565714Y-81194957D01*
X131565714Y-81194957D02*
X131737142Y-81194957D01*
X131737142Y-81194957D02*
X131822857Y-81237814D01*
X131822857Y-81237814D02*
X131908571Y-81323528D01*
X131908571Y-81323528D02*
X131951428Y-81494957D01*
X131951428Y-81494957D02*
X131951428Y-81794957D01*
X131951428Y-81794957D02*
X131908571Y-81966385D01*
X131908571Y-81966385D02*
X131822857Y-82052100D01*
X131822857Y-82052100D02*
X131737142Y-82094957D01*
X131737142Y-82094957D02*
X131565714Y-82094957D01*
X132294285Y-81280671D02*
X132337142Y-81237814D01*
X132337142Y-81237814D02*
X132422857Y-81194957D01*
X132422857Y-81194957D02*
X132637142Y-81194957D01*
X132637142Y-81194957D02*
X132722857Y-81237814D01*
X132722857Y-81237814D02*
X132765714Y-81280671D01*
X132765714Y-81280671D02*
X132808571Y-81366385D01*
X132808571Y-81366385D02*
X132808571Y-81452100D01*
X132808571Y-81452100D02*
X132765714Y-81580671D01*
X132765714Y-81580671D02*
X132251428Y-82094957D01*
X132251428Y-82094957D02*
X132808571Y-82094957D01*
X116763095Y-102904819D02*
X116763095Y-103714342D01*
X116763095Y-103714342D02*
X116810714Y-103809580D01*
X116810714Y-103809580D02*
X116858333Y-103857200D01*
X116858333Y-103857200D02*
X116953571Y-103904819D01*
X116953571Y-103904819D02*
X117144047Y-103904819D01*
X117144047Y-103904819D02*
X117239285Y-103857200D01*
X117239285Y-103857200D02*
X117286904Y-103809580D01*
X117286904Y-103809580D02*
X117334523Y-103714342D01*
X117334523Y-103714342D02*
X117334523Y-102904819D01*
X117763095Y-103000057D02*
X117810714Y-102952438D01*
X117810714Y-102952438D02*
X117905952Y-102904819D01*
X117905952Y-102904819D02*
X118144047Y-102904819D01*
X118144047Y-102904819D02*
X118239285Y-102952438D01*
X118239285Y-102952438D02*
X118286904Y-103000057D01*
X118286904Y-103000057D02*
X118334523Y-103095295D01*
X118334523Y-103095295D02*
X118334523Y-103190533D01*
X118334523Y-103190533D02*
X118286904Y-103333390D01*
X118286904Y-103333390D02*
X117715476Y-103904819D01*
X117715476Y-103904819D02*
X118334523Y-103904819D01*
D12*
%TO.C,C9*%
X120990000Y-105396267D02*
X120990000Y-105103733D01*
X122010000Y-105396267D02*
X122010000Y-105103733D01*
D13*
%TO.C,Q1*%
X125600000Y-83350000D02*
X125600000Y-83500000D01*
X125600000Y-83350000D02*
X126686500Y-83350000D01*
X125600000Y-86650000D02*
X125600000Y-86500000D01*
X126686500Y-86650000D02*
X125600000Y-86650000D01*
X127883500Y-83350000D02*
X128900000Y-83350000D01*
X128900000Y-83350000D02*
X128900000Y-83500000D01*
X128900000Y-86650000D02*
X127883500Y-86650000D01*
X128900000Y-86650000D02*
X128900000Y-86500000D01*
D14*
X129750000Y-85975000D02*
G75*
G02*
X129550000Y-85975000I-100000J0D01*
G01*
X129550000Y-85975000D02*
G75*
G02*
X129750000Y-85975000I100000J0D01*
G01*
D13*
%TO.C,Q3*%
X119875000Y-86380000D02*
X120025000Y-86380000D01*
X119875000Y-87466500D02*
X119875000Y-86380000D01*
X119875000Y-89680000D02*
X119875000Y-88663500D01*
X119875000Y-89680000D02*
X120025000Y-89680000D01*
X123175000Y-86380000D02*
X123025000Y-86380000D01*
X123175000Y-86380000D02*
X123175000Y-87466500D01*
X123175000Y-88663500D02*
X123175000Y-89680000D01*
X123175000Y-89680000D02*
X123025000Y-89680000D01*
D14*
X120650000Y-90430000D02*
G75*
G02*
X120450000Y-90430000I-100000J0D01*
G01*
X120450000Y-90430000D02*
G75*
G02*
X120650000Y-90430000I100000J0D01*
G01*
%TO.C,J3*%
X119578000Y-111012000D02*
X119578000Y-112262000D01*
X119578000Y-114982000D02*
X119578000Y-116262000D01*
X128518000Y-111012000D02*
X128518000Y-112262000D01*
X128518000Y-116262000D02*
X128518000Y-114982000D01*
X120898000Y-107662000D02*
G75*
G02*
X120698000Y-107662000I-100000J0D01*
G01*
X120698000Y-107662000D02*
G75*
G02*
X120898000Y-107662000I100000J0D01*
G01*
D12*
%TO.C,R12*%
X129245276Y-78977500D02*
X129754724Y-78977500D01*
X129245276Y-80022500D02*
X129754724Y-80022500D01*
%TO.C,C10*%
X129353733Y-106740000D02*
X129646267Y-106740000D01*
X129353733Y-107760000D02*
X129646267Y-107760000D01*
%TO.C,D1*%
X123835000Y-90225000D02*
X121175000Y-90225000D01*
X123835000Y-91925000D02*
X121175000Y-91925000D01*
X123835000Y-91925000D02*
X123835000Y-90225000D01*
%TO.C,R11*%
X129332776Y-105227500D02*
X129842224Y-105227500D01*
X129332776Y-106272500D02*
X129842224Y-106272500D01*
%TO.C,C13*%
X117840000Y-83261252D02*
X117840000Y-81838748D01*
X119660000Y-83261252D02*
X119660000Y-81838748D01*
%TO.C,C12*%
X117761252Y-85490000D02*
X116338748Y-85490000D01*
X117761252Y-87310000D02*
X116338748Y-87310000D01*
%TO.C,D5*%
X131950000Y-80985000D02*
X134235000Y-80985000D01*
X134235000Y-79515000D02*
X131950000Y-79515000D01*
X134235000Y-80985000D02*
X134235000Y-79515000D01*
D15*
%TO.C,J2*%
X119278900Y-62677950D02*
X119278900Y-77740150D01*
X119278900Y-77740150D02*
X122428500Y-77740150D01*
X124765300Y-77740150D02*
X127914900Y-77740150D01*
X127914900Y-62677950D02*
X119278900Y-62677950D01*
X127914900Y-77740150D02*
X127914900Y-62677950D01*
D16*
X118262900Y-78705350D02*
G75*
G02*
X119024900Y-78705350I381000J0D01*
G01*
X119024900Y-78705350D02*
G75*
G02*
X118262900Y-78705350I-381000J0D01*
G01*
D14*
%TO.C,L1*%
X124550000Y-87800000D02*
X124550000Y-98200000D01*
X124550000Y-98200000D02*
X127650000Y-98200000D01*
X127650000Y-87800000D02*
X124550000Y-87800000D01*
X131850000Y-87800000D02*
X134950000Y-87800000D01*
X134450000Y-98200000D02*
X131850000Y-98200000D01*
X134950000Y-87800000D02*
X134950000Y-97700000D01*
X134950000Y-97700000D02*
X134450000Y-98200000D01*
D12*
%TO.C,C1*%
X128988748Y-99515000D02*
X129511252Y-99515000D01*
X128988748Y-100985000D02*
X129511252Y-100985000D01*
D15*
%TO.C,C2*%
X113470100Y-92220100D02*
X113470100Y-95367160D01*
X113470100Y-97632840D02*
X113470100Y-100779900D01*
X113470100Y-100779900D02*
X122029900Y-100779900D01*
X122029900Y-92220100D02*
X113470100Y-92220100D01*
X122029900Y-95367160D02*
X122029900Y-92220100D01*
X122029900Y-100779900D02*
X122029900Y-97632840D01*
X123896800Y-96500000D02*
G75*
G02*
X123744400Y-96500000I-76200J0D01*
G01*
X123744400Y-96500000D02*
G75*
G02*
X123896800Y-96500000I76200J0D01*
G01*
D12*
%TO.C,D4*%
X131950000Y-106485000D02*
X134235000Y-106485000D01*
X134235000Y-105015000D02*
X131950000Y-105015000D01*
X134235000Y-106485000D02*
X134235000Y-105015000D01*
%TO.C,R1*%
X129245276Y-80477500D02*
X129754724Y-80477500D01*
X129245276Y-81522500D02*
X129754724Y-81522500D01*
%TO.C,R5*%
X123040000Y-101072936D02*
X123040000Y-105427064D01*
X126460000Y-101072936D02*
X126460000Y-105427064D01*
D13*
%TO.C,Q2*%
X130175000Y-83320000D02*
X130325000Y-83320000D01*
X130175000Y-84336500D02*
X130175000Y-83320000D01*
X130175000Y-86620000D02*
X130175000Y-85533500D01*
X130175000Y-86620000D02*
X130325000Y-86620000D01*
X133475000Y-83320000D02*
X133325000Y-83320000D01*
X133475000Y-83320000D02*
X133475000Y-84336500D01*
X133475000Y-85533500D02*
X133475000Y-86620000D01*
X133475000Y-86620000D02*
X133325000Y-86620000D01*
D14*
X132900000Y-82570000D02*
G75*
G02*
X132700000Y-82570000I-100000J0D01*
G01*
X132700000Y-82570000D02*
G75*
G02*
X132900000Y-82570000I100000J0D01*
G01*
D12*
%TO.C,U2*%
X116590000Y-104190000D02*
X118410000Y-104190000D01*
X116590000Y-104240000D02*
X116590000Y-104190000D01*
X116590000Y-107310000D02*
X116590000Y-107260000D01*
X118410000Y-104190000D02*
X118410000Y-104240000D01*
X118410000Y-107260000D02*
X118410000Y-107310000D01*
X118410000Y-107310000D02*
X116590000Y-107310000D01*
X116050000Y-104240000D02*
X115810000Y-103910000D01*
X116290000Y-103910000D01*
X116050000Y-104240000D01*
G36*
X116050000Y-104240000D02*
G01*
X115810000Y-103910000D01*
X116290000Y-103910000D01*
X116050000Y-104240000D01*
G37*
%TD*%
M02*
