%TF.GenerationSoftware,KiCad,Pcbnew,9.0.8-9.0.8~ubuntu22.04.1*%
%TF.CreationDate,2026-03-23T17:46:09-05:00*%
%TF.ProjectId,Jetson_PD_Board,4a657473-6f6e-45f5-9044-5f426f617264,rev?*%
%TF.SameCoordinates,Original*%
%TF.FileFunction,Copper,L4,Bot*%
%TF.FilePolarity,Positive*%
%FSLAX46Y46*%
G04 Gerber Fmt 4.6, Leading zero omitted, Abs format (unit mm)*
G04 Created by KiCad (PCBNEW 9.0.8-9.0.8~ubuntu22.04.1) date 2026-03-23 17:46:09*
%MOMM*%
%LPD*%
G01*
G04 APERTURE LIST*
G04 Aperture macros list*
%AMRoundRect*
0 Rectangle with rounded corners*
0 $1 Rounding radius*
0 $2 $3 $4 $5 $6 $7 $8 $9 X,Y pos of 4 corners*
0 Add a 4 corners polygon primitive as box body*
4,1,4,$2,$3,$4,$5,$6,$7,$8,$9,$2,$3,0*
0 Add four circle primitives for the rounded corners*
1,1,$1+$1,$2,$3*
1,1,$1+$1,$4,$5*
1,1,$1+$1,$6,$7*
1,1,$1+$1,$8,$9*
0 Add four rect primitives between the rounded corners*
20,1,$1+$1,$2,$3,$4,$5,0*
20,1,$1+$1,$4,$5,$6,$7,0*
20,1,$1+$1,$6,$7,$8,$9,0*
20,1,$1+$1,$8,$9,$2,$3,0*%
G04 Aperture macros list end*
%TA.AperFunction,ComponentPad*%
%ADD10O,1.000000X2.100000*%
%TD*%
%TA.AperFunction,ComponentPad*%
%ADD11O,1.000000X1.800000*%
%TD*%
%TA.AperFunction,ComponentPad*%
%ADD12C,3.600000*%
%TD*%
%TA.AperFunction,ConnectorPad*%
%ADD13C,5.500000*%
%TD*%
%TA.AperFunction,ComponentPad*%
%ADD14C,2.362200*%
%TD*%
%TA.AperFunction,SMDPad,CuDef*%
%ADD15RoundRect,0.237500X-0.237500X0.250000X-0.237500X-0.250000X0.237500X-0.250000X0.237500X0.250000X0*%
%TD*%
%TA.AperFunction,SMDPad,CuDef*%
%ADD16RoundRect,0.237500X-0.250000X-0.237500X0.250000X-0.237500X0.250000X0.237500X-0.250000X0.237500X0*%
%TD*%
%TA.AperFunction,SMDPad,CuDef*%
%ADD17RoundRect,0.237500X0.237500X-0.250000X0.237500X0.250000X-0.237500X0.250000X-0.237500X-0.250000X0*%
%TD*%
%TA.AperFunction,SMDPad,CuDef*%
%ADD18R,0.750000X0.300000*%
%TD*%
%TA.AperFunction,SMDPad,CuDef*%
%ADD19R,0.300000X0.750000*%
%TD*%
%TA.AperFunction,SMDPad,CuDef*%
%ADD20R,2.700000X2.700000*%
%TD*%
%TA.AperFunction,SMDPad,CuDef*%
%ADD21RoundRect,0.237500X-0.237500X0.300000X-0.237500X-0.300000X0.237500X-0.300000X0.237500X0.300000X0*%
%TD*%
%TA.AperFunction,SMDPad,CuDef*%
%ADD22RoundRect,0.237500X0.237500X-0.300000X0.237500X0.300000X-0.237500X0.300000X-0.237500X-0.300000X0*%
%TD*%
%TA.AperFunction,SMDPad,CuDef*%
%ADD23RoundRect,0.237500X0.300000X0.237500X-0.300000X0.237500X-0.300000X-0.237500X0.300000X-0.237500X0*%
%TD*%
%TA.AperFunction,SMDPad,CuDef*%
%ADD24RoundRect,0.237500X0.250000X0.237500X-0.250000X0.237500X-0.250000X-0.237500X0.250000X-0.237500X0*%
%TD*%
%TA.AperFunction,SMDPad,CuDef*%
%ADD25RoundRect,0.237500X-0.300000X-0.237500X0.300000X-0.237500X0.300000X0.237500X-0.300000X0.237500X0*%
%TD*%
%TA.AperFunction,ViaPad*%
%ADD26C,0.600000*%
%TD*%
%TA.AperFunction,Conductor*%
%ADD27C,0.254000*%
%TD*%
%TA.AperFunction,Conductor*%
%ADD28C,0.200000*%
%TD*%
G04 APERTURE END LIST*
D10*
%TO.P,J3,SH1,SHELL_GND*%
%TO.N,GND*%
X119728000Y-109482000D03*
%TO.P,J3,SH2,SHELL_GND__1*%
X128368000Y-109482000D03*
D11*
%TO.P,J3,SH3,SHELL_GND__2*%
X119728000Y-113662000D03*
%TO.P,J3,SH4,SHELL_GND__3*%
X128368000Y-113662000D03*
%TD*%
D12*
%TO.P,H8,1,1*%
%TO.N,GND*%
X132250000Y-111685000D03*
D13*
X132250000Y-111685000D03*
%TD*%
D12*
%TO.P,H7,1,1*%
%TO.N,GND*%
X115000000Y-111685000D03*
D13*
X115000000Y-111685000D03*
%TD*%
D12*
%TO.P,H5,1,1*%
%TO.N,GND*%
X115000000Y-72500000D03*
D13*
X115000000Y-72500000D03*
%TD*%
D14*
%TO.P,J2,1*%
%TO.N,GND*%
X123596900Y-78705350D03*
%TO.P,J2,2*%
%TO.N,V_{batt}*%
X123596900Y-84217150D03*
%TD*%
D12*
%TO.P,H6,1,1*%
%TO.N,GND*%
X132250000Y-72500000D03*
D13*
X132250000Y-72500000D03*
%TD*%
D15*
%TO.P,R16,1*%
%TO.N,Net-(U1-CC1)*%
X123300000Y-105837500D03*
%TO.P,R16,2*%
%TO.N,CC1*%
X123300000Y-107662500D03*
%TD*%
D16*
%TO.P,R13,1*%
%TO.N,Net-(U1-GATE)*%
X116737500Y-89500000D03*
%TO.P,R13,2*%
%TO.N,Net-(D1-K)*%
X118562500Y-89500000D03*
%TD*%
D17*
%TO.P,R8,1*%
%TO.N,Net-(U1-GPIO2)*%
X127850000Y-88950000D03*
%TO.P,R8,2*%
%TO.N,GND*%
X127850000Y-87125000D03*
%TD*%
%TO.P,R9,1*%
%TO.N,Net-(U1-GPIO3)*%
X131350000Y-88950000D03*
%TO.P,R9,2*%
%TO.N,GND*%
X131350000Y-87125000D03*
%TD*%
D18*
%TO.P,U1,1,VIN*%
%TO.N,V_{batt}*%
X123075000Y-94575000D03*
%TO.P,U1,2,CC1*%
%TO.N,Net-(U1-CC1)*%
X123075000Y-94075000D03*
%TO.P,U1,3,CC2*%
%TO.N,Net-(U1-CC2)*%
X123075000Y-93575000D03*
%TO.P,U1,4,DN*%
%TO.N,Net-(U1-DN)*%
X123075000Y-93075000D03*
%TO.P,U1,5,DP*%
%TO.N,Net-(U1-DP)*%
X123075000Y-92575000D03*
%TO.P,U1,6,TS*%
%TO.N,Net-(U1-TS)*%
X123075000Y-92075000D03*
D19*
%TO.P,U1,7,SDA*%
%TO.N,Net-(U1-SDA)*%
X123750000Y-91400000D03*
%TO.P,U1,8,SCL*%
%TO.N,Net-(U1-SCL)*%
X124250000Y-91400000D03*
%TO.P,U1,9,GPIO1*%
%TO.N,unconnected-(U1-GPIO1-Pad9)*%
X124750000Y-91400000D03*
%TO.P,U1,10,GPIO2*%
%TO.N,Net-(U1-GPIO2)*%
X125250000Y-91400000D03*
%TO.P,U1,11,GPIO3*%
%TO.N,Net-(U1-GPIO3)*%
X125750000Y-91400000D03*
%TO.P,U1,12,VFB*%
%TO.N,Net-(U1-VFB)*%
X126250000Y-91400000D03*
D18*
%TO.P,U1,13,COMP*%
%TO.N,Net-(U1-COMP)*%
X126925000Y-92075000D03*
%TO.P,U1,14,PGND*%
%TO.N,GND*%
X126925000Y-92575000D03*
%TO.P,U1,15,LG*%
%TO.N,Net-(Q2-G)*%
X126925000Y-93075000D03*
%TO.P,U1,16,SW*%
%TO.N,/Switching_Node*%
X126925000Y-93575000D03*
%TO.P,U1,17,HG*%
%TO.N,Net-(Q1-G)*%
X126925000Y-94075000D03*
%TO.P,U1,18,BST*%
%TO.N,Net-(U1-BST)*%
X126925000Y-94575000D03*
D19*
%TO.P,U1,19,GATE*%
%TO.N,Net-(U1-GATE)*%
X126250000Y-95250000D03*
%TO.P,U1,20,VDRV*%
%TO.N,Net-(U1-VDRV)*%
X125750000Y-95250000D03*
%TO.P,U1,21,V5V*%
%TO.N,V5V*%
X125250000Y-95250000D03*
%TO.P,U1,22,GND*%
%TO.N,GND*%
X124750000Y-95250000D03*
%TO.P,U1,23,CSN*%
X124250000Y-95250000D03*
%TO.P,U1,24,CSP*%
%TO.N,/Buck_{out}*%
X123750000Y-95250000D03*
D20*
%TO.P,U1,25,PAD*%
%TO.N,GND*%
X125000000Y-93325000D03*
%TD*%
D17*
%TO.P,R2,1*%
%TO.N,Net-(U1-GPIO2)*%
X129600000Y-88950000D03*
%TO.P,R2,2*%
%TO.N,GND*%
X129600000Y-87125000D03*
%TD*%
%TO.P,R3,1*%
%TO.N,Net-(C5-Pad1)*%
X123400000Y-99912500D03*
%TO.P,R3,2*%
%TO.N,GND*%
X123400000Y-98087500D03*
%TD*%
D21*
%TO.P,C6,1*%
%TO.N,/Switching_Node*%
X129500000Y-93250000D03*
%TO.P,C6,2*%
%TO.N,Net-(U1-BST)*%
X129500000Y-94975000D03*
%TD*%
D22*
%TO.P,C5,1*%
%TO.N,Net-(C5-Pad1)*%
X128550000Y-99862502D03*
%TO.P,C5,2*%
%TO.N,Net-(U1-VFB)*%
X128550000Y-98137500D03*
%TD*%
D15*
%TO.P,R7,1*%
%TO.N,V5V*%
X126100000Y-87125000D03*
%TO.P,R7,2*%
%TO.N,Net-(U1-SCL)*%
X126100000Y-88950000D03*
%TD*%
D21*
%TO.P,C4,1*%
%TO.N,Net-(U1-COMP)*%
X133000000Y-91412499D03*
%TO.P,C4,2*%
%TO.N,GND*%
X133000000Y-93137501D03*
%TD*%
D23*
%TO.P,C11,1*%
%TO.N,Net-(U1-TS)*%
X118525000Y-91235399D03*
%TO.P,C11,2*%
%TO.N,GND*%
X116800000Y-91235399D03*
%TD*%
D24*
%TO.P,R15,1*%
%TO.N,Net-(U1-DN)*%
X118525000Y-96485399D03*
%TO.P,R15,2*%
%TO.N,/DN*%
X116700000Y-96485399D03*
%TD*%
D17*
%TO.P,R10,1*%
%TO.N,Net-(U1-GPIO3)*%
X133100000Y-88950000D03*
%TO.P,R10,2*%
%TO.N,GND*%
X133100000Y-87125000D03*
%TD*%
D24*
%TO.P,R14,1*%
%TO.N,Net-(U1-DP)*%
X118525000Y-94735399D03*
%TO.P,R14,2*%
%TO.N,/DP*%
X116700000Y-94735399D03*
%TD*%
D15*
%TO.P,R4,1*%
%TO.N,Net-(U1-COMP)*%
X131250000Y-91362500D03*
%TO.P,R4,2*%
%TO.N,Net-(C3-Pad1)*%
X131250000Y-93187500D03*
%TD*%
%TO.P,R17,1*%
%TO.N,Net-(U1-CC2)*%
X125000000Y-105837500D03*
%TO.P,R17,2*%
%TO.N,CC2*%
X125000000Y-107662500D03*
%TD*%
%TO.P,R6,1*%
%TO.N,V5V*%
X124350000Y-87125000D03*
%TO.P,R6,2*%
%TO.N,Net-(U1-SDA)*%
X124350000Y-88950000D03*
%TD*%
D21*
%TO.P,C7,1*%
%TO.N,V5V*%
X125050000Y-98137500D03*
%TO.P,C7,2*%
%TO.N,GND*%
X125050000Y-99862500D03*
%TD*%
%TO.P,C8,1*%
%TO.N,Net-(U1-VDRV)*%
X126800000Y-98137500D03*
%TO.P,C8,2*%
%TO.N,GND*%
X126800000Y-99862500D03*
%TD*%
D25*
%TO.P,C3,1*%
%TO.N,Net-(C3-Pad1)*%
X131274998Y-95000000D03*
%TO.P,C3,2*%
%TO.N,GND*%
X133000000Y-95000000D03*
%TD*%
D21*
%TO.P,C14,1*%
%TO.N,V_{batt}*%
X118450000Y-99337499D03*
%TO.P,C14,2*%
%TO.N,GND*%
X118450000Y-101062501D03*
%TD*%
D24*
%TO.P,TH1,1*%
%TO.N,Net-(U1-TS)*%
X118562500Y-92985399D03*
%TO.P,TH1,2*%
%TO.N,GND*%
X116737500Y-92985399D03*
%TD*%
D26*
%TO.N,GND*%
X133553200Y-104622600D03*
X128637500Y-107264200D03*
X128675000Y-105750000D03*
X123431050Y-98056450D03*
X124249999Y-96723200D03*
X115265200Y-105765600D03*
X120116600Y-105750000D03*
X115000000Y-85000000D03*
X125000000Y-93325000D03*
X112500000Y-100000000D03*
X127500000Y-75000000D03*
X117500000Y-77500000D03*
X120000000Y-80000000D03*
X112500000Y-95000000D03*
X112500000Y-107500000D03*
X115000000Y-77500000D03*
X125000000Y-75000000D03*
X122500000Y-75000000D03*
X120000000Y-75000000D03*
X112500000Y-105000000D03*
X125000000Y-94325000D03*
X125000000Y-92325000D03*
X126000000Y-93325000D03*
X126000000Y-92325000D03*
X125000000Y-112500000D03*
X112500000Y-102500000D03*
X132500000Y-97500000D03*
X132500000Y-102500000D03*
X112500000Y-87500000D03*
X126000000Y-94325000D03*
X124000000Y-93325000D03*
X115000000Y-87500000D03*
X112500000Y-90000000D03*
X130000000Y-77500000D03*
X127500000Y-72500000D03*
X115000000Y-95000000D03*
X117500000Y-80000000D03*
X112500000Y-92500000D03*
X115000000Y-92500000D03*
X130000000Y-102500000D03*
X132800000Y-82677000D03*
X132150000Y-82677000D03*
X120000000Y-72500000D03*
X124000000Y-92325000D03*
X127500000Y-77500000D03*
X120000000Y-77500000D03*
X131500000Y-82677000D03*
X132500000Y-77500000D03*
X115000000Y-100000000D03*
X124000000Y-94325000D03*
X122125000Y-103000000D03*
%TO.N,/Buck_{out}*%
X121525000Y-102250000D03*
%TO.N,Net-(U1-VFB)*%
X127250000Y-91250000D03*
X126599265Y-96125735D03*
%TO.N,/Switching_Node*%
X130318506Y-92674999D03*
X129625000Y-84675000D03*
%TO.N,V5V*%
X125250000Y-87975000D03*
X125199000Y-96050000D03*
%TO.N,CC2*%
X125000000Y-110490000D03*
%TO.N,CC1*%
X124025000Y-107641531D03*
%TO.N,V_{batt}*%
X120925000Y-98650000D03*
X119261500Y-98612500D03*
%TO.N,Net-(Q1-G)*%
X130429000Y-93980000D03*
X128750000Y-83261200D03*
%TO.N,Net-(Q2-G)*%
X130556000Y-82423000D03*
X128050000Y-92675000D03*
%TO.N,Net-(D1-K)*%
X123675000Y-89800000D03*
%TO.N,Net-(U1-GATE)*%
X114825000Y-89525000D03*
X127000000Y-95250000D03*
%TO.N,/DP*%
X116350000Y-102225000D03*
%TO.N,/DN*%
X115375000Y-108075000D03*
%TD*%
D27*
%TO.N,GND*%
X124250000Y-95250000D02*
X124250000Y-94075000D01*
X124250000Y-94075000D02*
X125000000Y-93325000D01*
D28*
X123431050Y-98056450D02*
X123400000Y-98087500D01*
X124249999Y-96723200D02*
X124249999Y-96951800D01*
X124249999Y-96951800D02*
X124249999Y-97237501D01*
%TO.N,/DN*%
X115375000Y-108075000D02*
X115874800Y-107575200D01*
X115750000Y-102473529D02*
X115750000Y-100175000D01*
X115874800Y-107575200D02*
X115874800Y-102598329D01*
X115874800Y-102598329D02*
X115750000Y-102473529D01*
X115750000Y-100175000D02*
X116725000Y-99200000D01*
X116725000Y-99200000D02*
X116725000Y-96510399D01*
X116725000Y-96510399D02*
X116700000Y-96485399D01*
%TO.N,Net-(U1-CC2)*%
X122475000Y-106625000D02*
X122476000Y-106626000D01*
X122004015Y-106237500D02*
X122010900Y-106237500D01*
X122398400Y-106625000D02*
X122475000Y-106625000D01*
X122476000Y-106626000D02*
X124211500Y-106626000D01*
X119924000Y-104150600D02*
X119925000Y-104151600D01*
X119925000Y-104158486D02*
X122004015Y-106237500D01*
X119924000Y-95508900D02*
X119924000Y-104150600D01*
X119925000Y-104151600D02*
X119925000Y-104158486D01*
X122010900Y-106237500D02*
X122398400Y-106625000D01*
X119925000Y-95507900D02*
X119924000Y-95508900D01*
X119925000Y-95450000D02*
X119925000Y-95507900D01*
X121800000Y-93575000D02*
X119925000Y-95450000D01*
X123075000Y-93575000D02*
X121800000Y-93575000D01*
X124211500Y-106626000D02*
X125000000Y-105837500D01*
%TO.N,Net-(U1-CC1)*%
X123075000Y-94075001D02*
X121924999Y-94075001D01*
X121924999Y-94075001D02*
X120325000Y-95675000D01*
X120325000Y-95675000D02*
X120325000Y-103992800D01*
X120325000Y-103992800D02*
X122169700Y-105837500D01*
X122169700Y-105837500D02*
X123300000Y-105837500D01*
%TO.N,CC2*%
X125000000Y-110490000D02*
X125000000Y-107662500D01*
%TO.N,GND*%
X124750000Y-95250000D02*
X124750000Y-94575000D01*
X124750000Y-94575000D02*
X125000000Y-94325000D01*
X126249999Y-92574999D02*
X126000000Y-92325000D01*
X126925000Y-92574999D02*
X126249999Y-92574999D01*
X124250000Y-95250001D02*
X124249999Y-95250000D01*
X124249999Y-95250000D02*
X124249999Y-96723200D01*
X122125000Y-98100000D02*
X124250000Y-95975000D01*
X122125000Y-103000000D02*
X122125000Y-98100000D01*
X124250000Y-95975000D02*
X124250000Y-95250001D01*
X124249999Y-97237501D02*
X123431050Y-98056450D01*
%TO.N,/Buck_{out}*%
X123750000Y-95850000D02*
X123750000Y-95250000D01*
X121525000Y-102250000D02*
X121525000Y-98075000D01*
X121525000Y-98075000D02*
X123750000Y-95850000D01*
%TO.N,Net-(C3-Pad1)*%
X131250000Y-93187500D02*
X131250000Y-94975002D01*
X131250000Y-94975002D02*
X131274998Y-95000000D01*
%TO.N,Net-(U1-COMP)*%
X131299999Y-91412499D02*
X131250000Y-91362500D01*
X130537500Y-92075000D02*
X131250000Y-91362500D01*
X133000000Y-91412499D02*
X131299999Y-91412499D01*
X126925000Y-92075000D02*
X130537500Y-92075000D01*
%TO.N,Net-(C5-Pad1)*%
X124288500Y-99024000D02*
X127711498Y-99024000D01*
X127711498Y-99024000D02*
X128550000Y-99862502D01*
X123400000Y-99912500D02*
X124288500Y-99024000D01*
%TO.N,Net-(U1-VFB)*%
X126625735Y-96125735D02*
X128550000Y-98050000D01*
X127250000Y-91250000D02*
X126400000Y-91250000D01*
X126599265Y-96125735D02*
X126625735Y-96125735D01*
X126400000Y-91250000D02*
X126250000Y-91400000D01*
X128550000Y-98050000D02*
X128550000Y-98137500D01*
%TO.N,/Switching_Node*%
X129500000Y-93250000D02*
X128500000Y-93250000D01*
X128125999Y-93624001D02*
X126974001Y-93624001D01*
X126974001Y-93624001D02*
X126925000Y-93575000D01*
X130318506Y-92674999D02*
X129849663Y-93143842D01*
X129606158Y-93143842D02*
X129500000Y-93250000D01*
X129849663Y-93143842D02*
X129606158Y-93143842D01*
X128500000Y-93250000D02*
X128125999Y-93624001D01*
%TO.N,Net-(U1-BST)*%
X127500000Y-94575000D02*
X127875000Y-94950000D01*
X126925000Y-94575000D02*
X127500000Y-94575000D01*
X129475000Y-94950000D02*
X129500000Y-94975000D01*
X127875000Y-94950000D02*
X129475000Y-94950000D01*
%TO.N,V5V*%
X124400000Y-87125000D02*
X125250000Y-87975000D01*
X125199000Y-96050000D02*
X125250000Y-96101000D01*
X125250000Y-97937500D02*
X125050000Y-98137500D01*
X125250000Y-95250000D02*
X125250000Y-96350000D01*
X124350000Y-87125000D02*
X124400000Y-87125000D01*
X125250000Y-96350000D02*
X125250000Y-97937500D01*
X126100000Y-87125000D02*
X125250000Y-87975000D01*
X125250000Y-96101000D02*
X125250000Y-96350000D01*
%TO.N,Net-(U1-VDRV)*%
X126775000Y-98112500D02*
X126800000Y-98137500D01*
X126775000Y-97150000D02*
X126775000Y-98112500D01*
X125799000Y-96174000D02*
X126775000Y-97150000D01*
X125799000Y-95298999D02*
X125799000Y-96174000D01*
X125750001Y-95250000D02*
X125799000Y-95298999D01*
%TO.N,CC1*%
X124004031Y-107662500D02*
X124025000Y-107641531D01*
X123300000Y-107662500D02*
X124004031Y-107662500D01*
%TO.N,V_{batt}*%
X120925000Y-96575000D02*
X122925000Y-94575000D01*
X119199000Y-98675000D02*
X119112499Y-98675000D01*
X120925000Y-98650000D02*
X120925000Y-96575000D01*
X119112499Y-98675000D02*
X118450000Y-99337499D01*
X119261500Y-98612500D02*
X119199000Y-98675000D01*
X122925000Y-94575000D02*
X123075000Y-94575000D01*
%TO.N,Net-(Q1-G)*%
X130320500Y-94088500D02*
X126938499Y-94088500D01*
X130429000Y-93980000D02*
X130320500Y-94088500D01*
X126938499Y-94088500D02*
X126925000Y-94075001D01*
%TO.N,Net-(Q2-G)*%
X126925000Y-93075000D02*
X127650000Y-93075000D01*
X127650000Y-93075000D02*
X128050000Y-92675000D01*
%TO.N,Net-(D1-K)*%
X123675000Y-89800000D02*
X123375000Y-89500000D01*
X123375000Y-89500000D02*
X118562500Y-89500000D01*
%TO.N,Net-(U1-GPIO2)*%
X127850000Y-88950000D02*
X126650000Y-90150000D01*
X126650000Y-90150000D02*
X125873001Y-90150000D01*
X125250000Y-90773001D02*
X125250000Y-91400000D01*
X129600000Y-88950000D02*
X128400000Y-90150000D01*
X128400000Y-90150000D02*
X126650000Y-90150000D01*
X125873001Y-90150000D02*
X125250000Y-90773001D01*
%TO.N,Net-(U1-SDA)*%
X124350000Y-90150000D02*
X124350000Y-88950000D01*
X123750000Y-90750000D02*
X124350000Y-90150000D01*
X123750000Y-91400000D02*
X123750000Y-90750000D01*
%TO.N,Net-(U1-SCL)*%
X126100000Y-88950000D02*
X126100000Y-88967100D01*
X126100000Y-88967100D02*
X124249999Y-90817101D01*
X124249999Y-90817101D02*
X124249999Y-91400000D01*
%TO.N,Net-(U1-GPIO3)*%
X131500000Y-90550000D02*
X129750000Y-90550000D01*
X126039101Y-90551000D02*
X129749000Y-90551000D01*
X125750001Y-90840100D02*
X126039101Y-90551000D01*
X125750001Y-91400000D02*
X125750001Y-90840100D01*
X133100000Y-88950000D02*
X131500000Y-90550000D01*
X131350000Y-88950000D02*
X129750000Y-90550000D01*
X129750000Y-90550000D02*
X129749000Y-90551000D01*
%TO.N,Net-(U1-TS)*%
X120175000Y-92075000D02*
X119264601Y-92985399D01*
X120175000Y-92075000D02*
X119335399Y-91235399D01*
X119264601Y-92985399D02*
X118525000Y-92985399D01*
X123075000Y-92075000D02*
X120175000Y-92075000D01*
X119335399Y-91235399D02*
X118525000Y-91235399D01*
%TO.N,Net-(U1-DN)*%
X118525000Y-96175000D02*
X118525000Y-96485399D01*
X123075000Y-93075000D02*
X121625000Y-93075000D01*
X121625000Y-93075000D02*
X118525000Y-96175000D01*
%TO.N,Net-(U1-DP)*%
X121425001Y-92574999D02*
X123075000Y-92574999D01*
X119264601Y-94735399D02*
X121425001Y-92574999D01*
X118525000Y-94735399D02*
X119264601Y-94735399D01*
%TO.N,Net-(U1-GATE)*%
X127000000Y-95250000D02*
X126250000Y-95250000D01*
X114850000Y-89500000D02*
X114825000Y-89525000D01*
X116737500Y-89500000D02*
X114850000Y-89500000D01*
%TO.N,/DP*%
X116350000Y-100276174D02*
X117500000Y-99126174D01*
X116350000Y-102225000D02*
X116350000Y-100276174D01*
X117500000Y-99126174D02*
X117500000Y-95575000D01*
X116700000Y-94775000D02*
X116700000Y-94735399D01*
X117500000Y-95575000D02*
X116700000Y-94775000D01*
%TD*%
%TA.AperFunction,Conductor*%
%TO.N,GND*%
G36*
X124292934Y-96194821D02*
G01*
X124352656Y-96199092D01*
X124352657Y-96199092D01*
X124352658Y-96199093D01*
X124389805Y-96226901D01*
X124408590Y-96240963D01*
X124427984Y-96279279D01*
X124429265Y-96283503D01*
X124489602Y-96429172D01*
X124489609Y-96429185D01*
X124577210Y-96560288D01*
X124577213Y-96560292D01*
X124613180Y-96596258D01*
X124646666Y-96657580D01*
X124649500Y-96683940D01*
X124649500Y-97024508D01*
X124629815Y-97091547D01*
X124577011Y-97137302D01*
X124564506Y-97142213D01*
X124498486Y-97164090D01*
X124351648Y-97254661D01*
X124312326Y-97293983D01*
X124251003Y-97327468D01*
X124181311Y-97322482D01*
X124136965Y-97293982D01*
X124098038Y-97255055D01*
X124098034Y-97255052D01*
X123951311Y-97164551D01*
X123951300Y-97164546D01*
X123787652Y-97110319D01*
X123686654Y-97100000D01*
X123648595Y-97100000D01*
X123581556Y-97080315D01*
X123535801Y-97027511D01*
X123525857Y-96958353D01*
X123554882Y-96894797D01*
X123560896Y-96888337D01*
X124118713Y-96330521D01*
X124118716Y-96330520D01*
X124221645Y-96227590D01*
X124282964Y-96194108D01*
X124282966Y-96194108D01*
X124292934Y-96194821D01*
G37*
%TD.AperFunction*%
%TA.AperFunction,Conductor*%
G36*
X125992540Y-93094685D02*
G01*
X126038295Y-93147489D01*
X126049500Y-93198999D01*
X126049501Y-93272872D01*
X126053723Y-93312154D01*
X126053772Y-93312640D01*
X126053679Y-93313134D01*
X126053679Y-93338250D01*
X126049500Y-93377122D01*
X126049500Y-93451000D01*
X126029815Y-93518039D01*
X125977011Y-93563794D01*
X125925500Y-93575000D01*
X125250000Y-93575000D01*
X125250000Y-94250500D01*
X125230315Y-94317539D01*
X125177511Y-94363294D01*
X125126002Y-94374500D01*
X125052130Y-94374500D01*
X125052123Y-94374501D01*
X124992515Y-94380909D01*
X124917332Y-94408950D01*
X124847641Y-94413934D01*
X124786318Y-94380448D01*
X124752834Y-94319125D01*
X124750000Y-94292768D01*
X124750000Y-93449000D01*
X124769685Y-93381961D01*
X124822489Y-93336206D01*
X124874000Y-93325000D01*
X125000000Y-93325000D01*
X125000000Y-93199000D01*
X125019685Y-93131961D01*
X125072489Y-93086206D01*
X125124000Y-93075000D01*
X125925501Y-93075000D01*
X125992540Y-93094685D01*
G37*
%TD.AperFunction*%
%TA.AperFunction,Conductor*%
G36*
X123199595Y-69470185D02*
G01*
X123245350Y-69522989D01*
X123255294Y-69592147D01*
X123226269Y-69655703D01*
X123167491Y-69693477D01*
X123164671Y-69694268D01*
X123127246Y-69704296D01*
X123025279Y-69731618D01*
X122810378Y-69820633D01*
X122810367Y-69820638D01*
X122608933Y-69936937D01*
X122608917Y-69936948D01*
X122424382Y-70078546D01*
X122424375Y-70078552D01*
X122259902Y-70243025D01*
X122259896Y-70243032D01*
X122118298Y-70427567D01*
X122118287Y-70427583D01*
X122001988Y-70629017D01*
X122001983Y-70629028D01*
X121912968Y-70843929D01*
X121852763Y-71068621D01*
X121822400Y-71299235D01*
X121822400Y-71531864D01*
X121826622Y-71563928D01*
X121852763Y-71762480D01*
X121878813Y-71859701D01*
X121912968Y-71987170D01*
X122001983Y-72202071D01*
X122001988Y-72202082D01*
X122118287Y-72403516D01*
X122118298Y-72403532D01*
X122259896Y-72588067D01*
X122259902Y-72588074D01*
X122424375Y-72752547D01*
X122424381Y-72752552D01*
X122608926Y-72894158D01*
X122608933Y-72894162D01*
X122810367Y-73010461D01*
X122810372Y-73010463D01*
X122810375Y-73010465D01*
X122917828Y-73054973D01*
X123025279Y-73099481D01*
X123025280Y-73099481D01*
X123025282Y-73099482D01*
X123249970Y-73159687D01*
X123480593Y-73190050D01*
X123480600Y-73190050D01*
X123713200Y-73190050D01*
X123713207Y-73190050D01*
X123943830Y-73159687D01*
X124168518Y-73099482D01*
X124383425Y-73010465D01*
X124584874Y-72894158D01*
X124769419Y-72752552D01*
X124933902Y-72588069D01*
X125075508Y-72403524D01*
X125191815Y-72202075D01*
X125280832Y-71987168D01*
X125341037Y-71762480D01*
X125371400Y-71531857D01*
X125371400Y-71299243D01*
X125341037Y-71068620D01*
X125280832Y-70843932D01*
X125191815Y-70629025D01*
X125191813Y-70629022D01*
X125191811Y-70629017D01*
X125075512Y-70427583D01*
X125075508Y-70427576D01*
X124933902Y-70243031D01*
X124933897Y-70243025D01*
X124769424Y-70078552D01*
X124769417Y-70078546D01*
X124584882Y-69936948D01*
X124584880Y-69936946D01*
X124584874Y-69936942D01*
X124584869Y-69936939D01*
X124584866Y-69936937D01*
X124383432Y-69820638D01*
X124383421Y-69820633D01*
X124168520Y-69731618D01*
X124078616Y-69707529D01*
X124029150Y-69694274D01*
X123969490Y-69657910D01*
X123938961Y-69595063D01*
X123947256Y-69525688D01*
X123991741Y-69471810D01*
X124058293Y-69450535D01*
X124061244Y-69450500D01*
X132210118Y-69450500D01*
X132246755Y-69450500D01*
X132253243Y-69450669D01*
X132562288Y-69466865D01*
X132575164Y-69468219D01*
X132877608Y-69516122D01*
X132890292Y-69518817D01*
X133186077Y-69598073D01*
X133198415Y-69602082D01*
X133484279Y-69711815D01*
X133496121Y-69717087D01*
X133768976Y-69856114D01*
X133780191Y-69862590D01*
X134037008Y-70029368D01*
X134047489Y-70036983D01*
X134224091Y-70179992D01*
X134285467Y-70229693D01*
X134295112Y-70238378D01*
X134511621Y-70454887D01*
X134520306Y-70464532D01*
X134713014Y-70702507D01*
X134720633Y-70712995D01*
X134887406Y-70969802D01*
X134893888Y-70981029D01*
X134938519Y-71068620D01*
X135032907Y-71253867D01*
X135038186Y-71265725D01*
X135147917Y-71551585D01*
X135151928Y-71563928D01*
X135231180Y-71859701D01*
X135233878Y-71872397D01*
X135281778Y-72174819D01*
X135283135Y-72187728D01*
X135299330Y-72496756D01*
X135299500Y-72503245D01*
X135299500Y-111681754D01*
X135299330Y-111688243D01*
X135283135Y-111997271D01*
X135281778Y-112010180D01*
X135233878Y-112312602D01*
X135231180Y-112325298D01*
X135151928Y-112621071D01*
X135147917Y-112633414D01*
X135038186Y-112919274D01*
X135032907Y-112931132D01*
X134893892Y-113203964D01*
X134887402Y-113215204D01*
X134720638Y-113471998D01*
X134713009Y-113482499D01*
X134520306Y-113720467D01*
X134511621Y-113730112D01*
X134295112Y-113946621D01*
X134285467Y-113955306D01*
X134047499Y-114148009D01*
X134036998Y-114155638D01*
X133780204Y-114322402D01*
X133768964Y-114328892D01*
X133496132Y-114467907D01*
X133484274Y-114473186D01*
X133198414Y-114582917D01*
X133186071Y-114586928D01*
X132890298Y-114666180D01*
X132877602Y-114668878D01*
X132575180Y-114716778D01*
X132562271Y-114718135D01*
X132253244Y-114734330D01*
X132246755Y-114734500D01*
X129353329Y-114734500D01*
X129286290Y-114714815D01*
X129240535Y-114662011D01*
X129230591Y-114592853D01*
X129250226Y-114541611D01*
X129254183Y-114535687D01*
X129254192Y-114535671D01*
X129329569Y-114353693D01*
X129329572Y-114353681D01*
X129367999Y-114160495D01*
X129368000Y-114160492D01*
X129368000Y-113912000D01*
X128668000Y-113912000D01*
X128668000Y-113412000D01*
X129368000Y-113412000D01*
X129368000Y-113163508D01*
X129367999Y-113163504D01*
X129329572Y-112970318D01*
X129329569Y-112970306D01*
X129254192Y-112788328D01*
X129254185Y-112788315D01*
X129144751Y-112624537D01*
X129144748Y-112624533D01*
X129005466Y-112485251D01*
X129005462Y-112485248D01*
X128841684Y-112375814D01*
X128841671Y-112375807D01*
X128659691Y-112300429D01*
X128659683Y-112300427D01*
X128618000Y-112292135D01*
X128618000Y-113095011D01*
X128608060Y-113077795D01*
X128552205Y-113021940D01*
X128483796Y-112982444D01*
X128407496Y-112962000D01*
X128328504Y-112962000D01*
X128252204Y-112982444D01*
X128183795Y-113021940D01*
X128127940Y-113077795D01*
X128118000Y-113095011D01*
X128118000Y-112292136D01*
X128117999Y-112292135D01*
X128076316Y-112300427D01*
X128076308Y-112300429D01*
X127894328Y-112375807D01*
X127894315Y-112375814D01*
X127730537Y-112485248D01*
X127730533Y-112485251D01*
X127591251Y-112624533D01*
X127591248Y-112624537D01*
X127481814Y-112788315D01*
X127481807Y-112788328D01*
X127406430Y-112970306D01*
X127406427Y-112970318D01*
X127368000Y-113163504D01*
X127368000Y-113412000D01*
X128068000Y-113412000D01*
X128068000Y-113912000D01*
X127368000Y-113912000D01*
X127368000Y-114160495D01*
X127406427Y-114353681D01*
X127406430Y-114353693D01*
X127481807Y-114535671D01*
X127481816Y-114535687D01*
X127485774Y-114541611D01*
X127506651Y-114608289D01*
X127488165Y-114675669D01*
X127436185Y-114722358D01*
X127382671Y-114734500D01*
X120713329Y-114734500D01*
X120646290Y-114714815D01*
X120600535Y-114662011D01*
X120590591Y-114592853D01*
X120610226Y-114541611D01*
X120614183Y-114535687D01*
X120614192Y-114535671D01*
X120689569Y-114353693D01*
X120689572Y-114353681D01*
X120727999Y-114160495D01*
X120728000Y-114160492D01*
X120728000Y-113912000D01*
X120028000Y-113912000D01*
X120028000Y-113412000D01*
X120728000Y-113412000D01*
X120728000Y-113163508D01*
X120727999Y-113163504D01*
X120689572Y-112970318D01*
X120689569Y-112970306D01*
X120614192Y-112788328D01*
X120614185Y-112788315D01*
X120504751Y-112624537D01*
X120504748Y-112624533D01*
X120365466Y-112485251D01*
X120365462Y-112485248D01*
X120201684Y-112375814D01*
X120201671Y-112375807D01*
X120019691Y-112300429D01*
X120019683Y-112300427D01*
X119978000Y-112292135D01*
X119978000Y-113095011D01*
X119968060Y-113077795D01*
X119912205Y-113021940D01*
X119843796Y-112982444D01*
X119767496Y-112962000D01*
X119688504Y-112962000D01*
X119612204Y-112982444D01*
X119543795Y-113021940D01*
X119487940Y-113077795D01*
X119478000Y-113095011D01*
X119478000Y-112292136D01*
X119477999Y-112292135D01*
X119436316Y-112300427D01*
X119436308Y-112300429D01*
X119254328Y-112375807D01*
X119254315Y-112375814D01*
X119090537Y-112485248D01*
X119090533Y-112485251D01*
X118951251Y-112624533D01*
X118951248Y-112624537D01*
X118841814Y-112788315D01*
X118841807Y-112788328D01*
X118766430Y-112970306D01*
X118766427Y-112970318D01*
X118728000Y-113163504D01*
X118728000Y-113412000D01*
X119428000Y-113412000D01*
X119428000Y-113912000D01*
X118728000Y-113912000D01*
X118728000Y-114160495D01*
X118766427Y-114353681D01*
X118766430Y-114353693D01*
X118841807Y-114535671D01*
X118841816Y-114535687D01*
X118845774Y-114541611D01*
X118866651Y-114608289D01*
X118848165Y-114675669D01*
X118796185Y-114722358D01*
X118742671Y-114734500D01*
X115003245Y-114734500D01*
X114996756Y-114734330D01*
X114687728Y-114718135D01*
X114674819Y-114716778D01*
X114372397Y-114668878D01*
X114359701Y-114666180D01*
X114063928Y-114586928D01*
X114051585Y-114582917D01*
X113765725Y-114473186D01*
X113753867Y-114467907D01*
X113737976Y-114459810D01*
X113481029Y-114328888D01*
X113469802Y-114322406D01*
X113212995Y-114155633D01*
X113202507Y-114148014D01*
X112964532Y-113955306D01*
X112954887Y-113946621D01*
X112738378Y-113730112D01*
X112729693Y-113720467D01*
X112536983Y-113482489D01*
X112529368Y-113472008D01*
X112362587Y-113215188D01*
X112356114Y-113203976D01*
X112217087Y-112931121D01*
X112211813Y-112919274D01*
X112102082Y-112633414D01*
X112098071Y-112621071D01*
X112061678Y-112485251D01*
X112018817Y-112325292D01*
X112016121Y-112312602D01*
X112014193Y-112300427D01*
X111968219Y-112010164D01*
X111966865Y-111997288D01*
X111950670Y-111688243D01*
X111950500Y-111681754D01*
X111950500Y-92698744D01*
X115750000Y-92698744D01*
X115750000Y-92735399D01*
X116487500Y-92735399D01*
X116487500Y-91994261D01*
X116507185Y-91927222D01*
X116523819Y-91906580D01*
X116550000Y-91880399D01*
X116550000Y-91485399D01*
X115762501Y-91485399D01*
X115762501Y-91522053D01*
X115772819Y-91623051D01*
X115827046Y-91786699D01*
X115827051Y-91786710D01*
X115917552Y-91933433D01*
X115917555Y-91933437D01*
X116000585Y-92016467D01*
X116034070Y-92077790D01*
X116029086Y-92147482D01*
X116000586Y-92191828D01*
X115905055Y-92287360D01*
X115905052Y-92287364D01*
X115814551Y-92434087D01*
X115814546Y-92434098D01*
X115760319Y-92597746D01*
X115750000Y-92698744D01*
X111950500Y-92698744D01*
X111950500Y-89446153D01*
X114024500Y-89446153D01*
X114024500Y-89603846D01*
X114055261Y-89758489D01*
X114055264Y-89758501D01*
X114115602Y-89904172D01*
X114115609Y-89904185D01*
X114203210Y-90035288D01*
X114203213Y-90035292D01*
X114314707Y-90146786D01*
X114314711Y-90146789D01*
X114445814Y-90234390D01*
X114445827Y-90234397D01*
X114591498Y-90294735D01*
X114591503Y-90294737D01*
X114720217Y-90320340D01*
X114746153Y-90325499D01*
X114746156Y-90325500D01*
X114746158Y-90325500D01*
X114903844Y-90325500D01*
X114903845Y-90325499D01*
X115058497Y-90294737D01*
X115204179Y-90234394D01*
X115335289Y-90146789D01*
X115338904Y-90143174D01*
X115345260Y-90136819D01*
X115406583Y-90103334D01*
X115432941Y-90100500D01*
X115775099Y-90100500D01*
X115842138Y-90120185D01*
X115868705Y-90143174D01*
X115875332Y-90150801D01*
X115904660Y-90198350D01*
X115996008Y-90289698D01*
X115998856Y-90292976D01*
X116011673Y-90320944D01*
X116026416Y-90347944D01*
X116026096Y-90352417D01*
X116027964Y-90356493D01*
X116023626Y-90386943D01*
X116021432Y-90417636D01*
X116018635Y-90421987D01*
X116018112Y-90425664D01*
X116010935Y-90433967D01*
X115992932Y-90461982D01*
X115917555Y-90537360D01*
X115917552Y-90537364D01*
X115827051Y-90684087D01*
X115827046Y-90684098D01*
X115772819Y-90847746D01*
X115762500Y-90948744D01*
X115762500Y-90985399D01*
X116676000Y-90985399D01*
X116743039Y-91005084D01*
X116788794Y-91057888D01*
X116800000Y-91109399D01*
X116800000Y-91235399D01*
X116926000Y-91235399D01*
X116993039Y-91255084D01*
X117038794Y-91307888D01*
X117050000Y-91359399D01*
X117050000Y-92226537D01*
X117030315Y-92293576D01*
X117013681Y-92314218D01*
X116987500Y-92340399D01*
X116987500Y-92861399D01*
X116967815Y-92928438D01*
X116915011Y-92974193D01*
X116863500Y-92985399D01*
X116737500Y-92985399D01*
X116737500Y-93111399D01*
X116717815Y-93178438D01*
X116665011Y-93224193D01*
X116613500Y-93235399D01*
X115750001Y-93235399D01*
X115750001Y-93272053D01*
X115760319Y-93373051D01*
X115814546Y-93536699D01*
X115814551Y-93536710D01*
X115905052Y-93683433D01*
X115905055Y-93683437D01*
X115975232Y-93753614D01*
X116008717Y-93814937D01*
X116003733Y-93884629D01*
X115975233Y-93928976D01*
X115867159Y-94037050D01*
X115776593Y-94183880D01*
X115776592Y-94183883D01*
X115722326Y-94347646D01*
X115722326Y-94347647D01*
X115722325Y-94347647D01*
X115712000Y-94448714D01*
X115712000Y-95022068D01*
X115712001Y-95022086D01*
X115722325Y-95123151D01*
X115758609Y-95232648D01*
X115776592Y-95286915D01*
X115838789Y-95387753D01*
X115867161Y-95433750D01*
X115956129Y-95522718D01*
X115989614Y-95584041D01*
X115984630Y-95653733D01*
X115956129Y-95698080D01*
X115867161Y-95787047D01*
X115776593Y-95933880D01*
X115776591Y-95933885D01*
X115771779Y-95948407D01*
X115722326Y-96097646D01*
X115722326Y-96097647D01*
X115722325Y-96097647D01*
X115712000Y-96198714D01*
X115712000Y-96772068D01*
X115712001Y-96772086D01*
X115722325Y-96873151D01*
X115742737Y-96934748D01*
X115776592Y-97036915D01*
X115855315Y-97164546D01*
X115867161Y-97183750D01*
X115989149Y-97305738D01*
X115989154Y-97305742D01*
X116035616Y-97334399D01*
X116065595Y-97352890D01*
X116112321Y-97404837D01*
X116124500Y-97458429D01*
X116124500Y-98899902D01*
X116104815Y-98966941D01*
X116088181Y-98987583D01*
X115269481Y-99806282D01*
X115269479Y-99806285D01*
X115219361Y-99893094D01*
X115219359Y-99893096D01*
X115190425Y-99943209D01*
X115190424Y-99943210D01*
X115190423Y-99943215D01*
X115149499Y-100095943D01*
X115149499Y-100095945D01*
X115149499Y-100264046D01*
X115149500Y-100264059D01*
X115149500Y-102386859D01*
X115149499Y-102386877D01*
X115149499Y-102552583D01*
X115149498Y-102552583D01*
X115190423Y-102705314D01*
X115204835Y-102730276D01*
X115257687Y-102821819D01*
X115274300Y-102883819D01*
X115274300Y-107177083D01*
X115254615Y-107244122D01*
X115201811Y-107289877D01*
X115174494Y-107298700D01*
X115141505Y-107305262D01*
X115141498Y-107305264D01*
X114995827Y-107365602D01*
X114995814Y-107365609D01*
X114864711Y-107453210D01*
X114864707Y-107453213D01*
X114753213Y-107564707D01*
X114753210Y-107564711D01*
X114665609Y-107695814D01*
X114665602Y-107695827D01*
X114605264Y-107841498D01*
X114605261Y-107841510D01*
X114574500Y-107996153D01*
X114574500Y-108153846D01*
X114605261Y-108308489D01*
X114605264Y-108308501D01*
X114665602Y-108454172D01*
X114665609Y-108454185D01*
X114753210Y-108585288D01*
X114753213Y-108585292D01*
X114864707Y-108696786D01*
X114864711Y-108696789D01*
X114995814Y-108784390D01*
X114995827Y-108784397D01*
X115141498Y-108844735D01*
X115141503Y-108844737D01*
X115296153Y-108875499D01*
X115296156Y-108875500D01*
X115296158Y-108875500D01*
X115453844Y-108875500D01*
X115453845Y-108875499D01*
X115608497Y-108844737D01*
X115635616Y-108833504D01*
X118728000Y-108833504D01*
X118728000Y-109232000D01*
X119428000Y-109232000D01*
X119428000Y-109732000D01*
X118728000Y-109732000D01*
X118728000Y-110130495D01*
X118766427Y-110323681D01*
X118766430Y-110323693D01*
X118841807Y-110505671D01*
X118841814Y-110505684D01*
X118951248Y-110669462D01*
X118951251Y-110669466D01*
X119090533Y-110808748D01*
X119090537Y-110808751D01*
X119254315Y-110918185D01*
X119254328Y-110918192D01*
X119436308Y-110993569D01*
X119478000Y-111001862D01*
X119478000Y-110198988D01*
X119487940Y-110216205D01*
X119543795Y-110272060D01*
X119612204Y-110311556D01*
X119688504Y-110332000D01*
X119767496Y-110332000D01*
X119843796Y-110311556D01*
X119912205Y-110272060D01*
X119968060Y-110216205D01*
X119978000Y-110198988D01*
X119978000Y-111001862D01*
X120019690Y-110993569D01*
X120019692Y-110993569D01*
X120201671Y-110918192D01*
X120201684Y-110918185D01*
X120365462Y-110808751D01*
X120365466Y-110808748D01*
X120504748Y-110669466D01*
X120504751Y-110669462D01*
X120614185Y-110505684D01*
X120614186Y-110505682D01*
X120618129Y-110496163D01*
X120661968Y-110441757D01*
X120728261Y-110419689D01*
X120795961Y-110436965D01*
X120801400Y-110440647D01*
X120804634Y-110442514D01*
X120804635Y-110442515D01*
X120935865Y-110518281D01*
X121082234Y-110557500D01*
X121082236Y-110557500D01*
X121233764Y-110557500D01*
X121233766Y-110557500D01*
X121380135Y-110518281D01*
X121511365Y-110442515D01*
X121618515Y-110335365D01*
X121694281Y-110204135D01*
X121733500Y-110057766D01*
X121733500Y-109906234D01*
X121694281Y-109759865D01*
X121618515Y-109628635D01*
X121511365Y-109521485D01*
X121445750Y-109483602D01*
X121380136Y-109445719D01*
X121306950Y-109426109D01*
X121233766Y-109406500D01*
X121082234Y-109406500D01*
X120935863Y-109445719D01*
X120804635Y-109521485D01*
X120804632Y-109521487D01*
X120697487Y-109628632D01*
X120697483Y-109628638D01*
X120673603Y-109670000D01*
X120623036Y-109718216D01*
X120566216Y-109732000D01*
X120028000Y-109732000D01*
X120028000Y-109232000D01*
X120728000Y-109232000D01*
X120728000Y-108833508D01*
X120727999Y-108833504D01*
X120689572Y-108640318D01*
X120689569Y-108640306D01*
X120614192Y-108458328D01*
X120614185Y-108458315D01*
X120504751Y-108294537D01*
X120504748Y-108294533D01*
X120365466Y-108155251D01*
X120365462Y-108155248D01*
X120201684Y-108045814D01*
X120201671Y-108045807D01*
X120019691Y-107970429D01*
X120019683Y-107970427D01*
X119978000Y-107962135D01*
X119978000Y-108765011D01*
X119968060Y-108747795D01*
X119912205Y-108691940D01*
X119843796Y-108652444D01*
X119767496Y-108632000D01*
X119688504Y-108632000D01*
X119612204Y-108652444D01*
X119543795Y-108691940D01*
X119487940Y-108747795D01*
X119478000Y-108765011D01*
X119478000Y-107962136D01*
X119477999Y-107962135D01*
X119436316Y-107970427D01*
X119436308Y-107970429D01*
X119254328Y-108045807D01*
X119254315Y-108045814D01*
X119090537Y-108155248D01*
X119090533Y-108155251D01*
X118951251Y-108294533D01*
X118951248Y-108294537D01*
X118841814Y-108458315D01*
X118841807Y-108458328D01*
X118766430Y-108640306D01*
X118766427Y-108640318D01*
X118728000Y-108833504D01*
X115635616Y-108833504D01*
X115754179Y-108784394D01*
X115754185Y-108784390D01*
X115844094Y-108724315D01*
X115858253Y-108714853D01*
X115885289Y-108696789D01*
X115996789Y-108585289D01*
X116084394Y-108454179D01*
X116091422Y-108437213D01*
X116144735Y-108308501D01*
X116144737Y-108308497D01*
X116175220Y-108155251D01*
X116175638Y-108153151D01*
X116184402Y-108136395D01*
X116188422Y-108117917D01*
X116207168Y-108092874D01*
X116208023Y-108091240D01*
X116209572Y-108089663D01*
X116233302Y-108065932D01*
X116233307Y-108065929D01*
X116233307Y-108065928D01*
X116243514Y-108055720D01*
X116243516Y-108055720D01*
X116355320Y-107943916D01*
X116420353Y-107831275D01*
X116434377Y-107806985D01*
X116475301Y-107654257D01*
X116475301Y-107496143D01*
X116475301Y-107488548D01*
X116475300Y-107488530D01*
X116475300Y-103118022D01*
X116494985Y-103050983D01*
X116547789Y-103005228D01*
X116575105Y-102996406D01*
X116583497Y-102994737D01*
X116729179Y-102934394D01*
X116860289Y-102846789D01*
X116971789Y-102735289D01*
X117059394Y-102604179D01*
X117119737Y-102458497D01*
X117150500Y-102303842D01*
X117150500Y-102146158D01*
X117150500Y-102146155D01*
X117150499Y-102146153D01*
X117119737Y-101991503D01*
X117103936Y-101953356D01*
X117059397Y-101845827D01*
X117059390Y-101845814D01*
X116971398Y-101714125D01*
X116950520Y-101647447D01*
X116950500Y-101645234D01*
X116950500Y-101411655D01*
X117475001Y-101411655D01*
X117485319Y-101512653D01*
X117539546Y-101676301D01*
X117539551Y-101676312D01*
X117630052Y-101823035D01*
X117630055Y-101823039D01*
X117751961Y-101944945D01*
X117751965Y-101944948D01*
X117898688Y-102035449D01*
X117898699Y-102035454D01*
X118062347Y-102089681D01*
X118163352Y-102100000D01*
X118200000Y-102100000D01*
X118200000Y-101312501D01*
X117475001Y-101312501D01*
X117475001Y-101411655D01*
X116950500Y-101411655D01*
X116950500Y-100576271D01*
X116970185Y-100509232D01*
X116986819Y-100488590D01*
X117187377Y-100288032D01*
X117422404Y-100053004D01*
X117437170Y-100044941D01*
X117448871Y-100032849D01*
X117467200Y-100028544D01*
X117483725Y-100019521D01*
X117500508Y-100020721D01*
X117516890Y-100016874D01*
X117534636Y-100023161D01*
X117553416Y-100024505D01*
X117567337Y-100034748D01*
X117582748Y-100040209D01*
X117600015Y-100058793D01*
X117608112Y-100064751D01*
X117612159Y-100069975D01*
X117629660Y-100098349D01*
X117649529Y-100118218D01*
X117654331Y-100124417D01*
X117664331Y-100149937D01*
X117677468Y-100173995D01*
X117676895Y-100181999D01*
X117679823Y-100189470D01*
X117674439Y-100216343D01*
X117672484Y-100243687D01*
X117667366Y-100251649D01*
X117666099Y-100257978D01*
X117657764Y-100266592D01*
X117643986Y-100288032D01*
X117630052Y-100301966D01*
X117539551Y-100448689D01*
X117539546Y-100448700D01*
X117485319Y-100612348D01*
X117475000Y-100713346D01*
X117475000Y-100812501D01*
X118326000Y-100812501D01*
X118393039Y-100832186D01*
X118438794Y-100884990D01*
X118450000Y-100936501D01*
X118450000Y-101062501D01*
X118576000Y-101062501D01*
X118643039Y-101082186D01*
X118688794Y-101134990D01*
X118700000Y-101186501D01*
X118700000Y-102100000D01*
X118736640Y-102100000D01*
X118736654Y-102099999D01*
X118837652Y-102089681D01*
X119001300Y-102035454D01*
X119001307Y-102035451D01*
X119134402Y-101953356D01*
X119201794Y-101934915D01*
X119268458Y-101955837D01*
X119313228Y-102009478D01*
X119323500Y-102058894D01*
X119323500Y-104071539D01*
X119323499Y-104071543D01*
X119323499Y-104229657D01*
X119324432Y-104233140D01*
X119324455Y-104237214D01*
X119324498Y-104237541D01*
X119365423Y-104390271D01*
X119394358Y-104440386D01*
X119394359Y-104440390D01*
X119394360Y-104440390D01*
X119444479Y-104527200D01*
X119444481Y-104527203D01*
X119563349Y-104646071D01*
X119563355Y-104646076D01*
X121523493Y-106606213D01*
X121523495Y-106606216D01*
X121635299Y-106718020D01*
X121650255Y-106726654D01*
X121660962Y-106736849D01*
X121661433Y-106737664D01*
X121663134Y-106738969D01*
X122029684Y-107105520D01*
X122029686Y-107105521D01*
X122029690Y-107105524D01*
X122153636Y-107177083D01*
X122166616Y-107184577D01*
X122236073Y-107203188D01*
X122295731Y-107239552D01*
X122326260Y-107302399D01*
X122327335Y-107335562D01*
X122324501Y-107363308D01*
X122324500Y-107363328D01*
X122324500Y-107961669D01*
X122324501Y-107961687D01*
X122334825Y-108062752D01*
X122364781Y-108153151D01*
X122389092Y-108226516D01*
X122479660Y-108373350D01*
X122601650Y-108495340D01*
X122748484Y-108585908D01*
X122912247Y-108640174D01*
X123013323Y-108650500D01*
X123586676Y-108650499D01*
X123586684Y-108650498D01*
X123586687Y-108650498D01*
X123642030Y-108644844D01*
X123687753Y-108640174D01*
X123851516Y-108585908D01*
X123998350Y-108495340D01*
X124015340Y-108478350D01*
X124076663Y-108444865D01*
X124082628Y-108443719D01*
X124092752Y-108442031D01*
X124103842Y-108442031D01*
X124161279Y-108430605D01*
X124163159Y-108430292D01*
X124195996Y-108434264D01*
X124228950Y-108437213D01*
X124230893Y-108438486D01*
X124232523Y-108438684D01*
X124237564Y-108442858D01*
X124271233Y-108464923D01*
X124301650Y-108495340D01*
X124340597Y-108519362D01*
X124387320Y-108571307D01*
X124399500Y-108624900D01*
X124399500Y-109910234D01*
X124379815Y-109977273D01*
X124378602Y-109979125D01*
X124290609Y-110110814D01*
X124290602Y-110110827D01*
X124230264Y-110256498D01*
X124230261Y-110256510D01*
X124199500Y-110411153D01*
X124199500Y-110568846D01*
X124230261Y-110723489D01*
X124230264Y-110723501D01*
X124290602Y-110869172D01*
X124290609Y-110869185D01*
X124378210Y-111000288D01*
X124378213Y-111000292D01*
X124489707Y-111111786D01*
X124489711Y-111111789D01*
X124620814Y-111199390D01*
X124620827Y-111199397D01*
X124766498Y-111259735D01*
X124766503Y-111259737D01*
X124921153Y-111290499D01*
X124921156Y-111290500D01*
X124921158Y-111290500D01*
X125078844Y-111290500D01*
X125078845Y-111290499D01*
X125233497Y-111259737D01*
X125379179Y-111199394D01*
X125510289Y-111111789D01*
X125621789Y-111000289D01*
X125709394Y-110869179D01*
X125769737Y-110723497D01*
X125800500Y-110568842D01*
X125800500Y-110411158D01*
X125800500Y-110411155D01*
X125800499Y-110411153D01*
X125785424Y-110335365D01*
X125769737Y-110256503D01*
X125748046Y-110204135D01*
X125709397Y-110110827D01*
X125709390Y-110110814D01*
X125621398Y-109979125D01*
X125615747Y-109961078D01*
X125605523Y-109945169D01*
X125601071Y-109914207D01*
X125600520Y-109912447D01*
X125600500Y-109910234D01*
X125600500Y-109906234D01*
X126362500Y-109906234D01*
X126362500Y-110057766D01*
X126381987Y-110130492D01*
X126401719Y-110204136D01*
X126431951Y-110256498D01*
X126477485Y-110335365D01*
X126584635Y-110442515D01*
X126715865Y-110518281D01*
X126862234Y-110557500D01*
X126862236Y-110557500D01*
X127013764Y-110557500D01*
X127013766Y-110557500D01*
X127160135Y-110518281D01*
X127291365Y-110442515D01*
X127291366Y-110442513D01*
X127298403Y-110438451D01*
X127299676Y-110440656D01*
X127352956Y-110420043D01*
X127421405Y-110434063D01*
X127471407Y-110482864D01*
X127477867Y-110496157D01*
X127481809Y-110505674D01*
X127481814Y-110505684D01*
X127591248Y-110669462D01*
X127591251Y-110669466D01*
X127730533Y-110808748D01*
X127730537Y-110808751D01*
X127894315Y-110918185D01*
X127894328Y-110918192D01*
X128076308Y-110993569D01*
X128118000Y-111001862D01*
X128118000Y-110198988D01*
X128127940Y-110216205D01*
X128183795Y-110272060D01*
X128252204Y-110311556D01*
X128328504Y-110332000D01*
X128407496Y-110332000D01*
X128483796Y-110311556D01*
X128552205Y-110272060D01*
X128608060Y-110216205D01*
X128618000Y-110198988D01*
X128618000Y-111001862D01*
X128659690Y-110993569D01*
X128659692Y-110993569D01*
X128841671Y-110918192D01*
X128841684Y-110918185D01*
X129005462Y-110808751D01*
X129005466Y-110808748D01*
X129144748Y-110669466D01*
X129144751Y-110669462D01*
X129254185Y-110505684D01*
X129254192Y-110505671D01*
X129329569Y-110323693D01*
X129329572Y-110323681D01*
X129367999Y-110130495D01*
X129368000Y-110130492D01*
X129368000Y-109732000D01*
X128668000Y-109732000D01*
X128668000Y-109232000D01*
X129368000Y-109232000D01*
X129368000Y-108833508D01*
X129367999Y-108833504D01*
X129329572Y-108640318D01*
X129329569Y-108640306D01*
X129254192Y-108458328D01*
X129254185Y-108458315D01*
X129144751Y-108294537D01*
X129144748Y-108294533D01*
X129005466Y-108155251D01*
X129005462Y-108155248D01*
X128841684Y-108045814D01*
X128841671Y-108045807D01*
X128659691Y-107970429D01*
X128659683Y-107970427D01*
X128618000Y-107962135D01*
X128618000Y-108765011D01*
X128608060Y-108747795D01*
X128552205Y-108691940D01*
X128483796Y-108652444D01*
X128407496Y-108632000D01*
X128328504Y-108632000D01*
X128252204Y-108652444D01*
X128183795Y-108691940D01*
X128127940Y-108747795D01*
X128118000Y-108765011D01*
X128118000Y-107962136D01*
X128117999Y-107962135D01*
X128076316Y-107970427D01*
X128076308Y-107970429D01*
X127894328Y-108045807D01*
X127894315Y-108045814D01*
X127730537Y-108155248D01*
X127730533Y-108155251D01*
X127591251Y-108294533D01*
X127591248Y-108294537D01*
X127481814Y-108458315D01*
X127481807Y-108458328D01*
X127406430Y-108640306D01*
X127406427Y-108640318D01*
X127368000Y-108833504D01*
X127368000Y-109232000D01*
X128068000Y-109232000D01*
X128068000Y-109732000D01*
X127529784Y-109732000D01*
X127462745Y-109712315D01*
X127422397Y-109670000D01*
X127398515Y-109628635D01*
X127291365Y-109521485D01*
X127225750Y-109483602D01*
X127160136Y-109445719D01*
X127086950Y-109426109D01*
X127013766Y-109406500D01*
X126862234Y-109406500D01*
X126715863Y-109445719D01*
X126584635Y-109521485D01*
X126584632Y-109521487D01*
X126477487Y-109628632D01*
X126477485Y-109628635D01*
X126401719Y-109759863D01*
X126362500Y-109906234D01*
X125600500Y-109906234D01*
X125600500Y-108624900D01*
X125620185Y-108557861D01*
X125659401Y-108519363D01*
X125698350Y-108495340D01*
X125820340Y-108373350D01*
X125910908Y-108226516D01*
X125965174Y-108062753D01*
X125975500Y-107961677D01*
X125975499Y-107363324D01*
X125975497Y-107363308D01*
X125965174Y-107262247D01*
X125959168Y-107244122D01*
X125910908Y-107098484D01*
X125820340Y-106951650D01*
X125706371Y-106837681D01*
X125672886Y-106776358D01*
X125677870Y-106706666D01*
X125706371Y-106662319D01*
X125762477Y-106606213D01*
X125820340Y-106548350D01*
X125910908Y-106401516D01*
X125965174Y-106237753D01*
X125975500Y-106136677D01*
X125975499Y-105538324D01*
X125965174Y-105437247D01*
X125910908Y-105273484D01*
X125820340Y-105126650D01*
X125698350Y-105004660D01*
X125551516Y-104914092D01*
X125387753Y-104859826D01*
X125387751Y-104859825D01*
X125286678Y-104849500D01*
X124713330Y-104849500D01*
X124713312Y-104849501D01*
X124612247Y-104859825D01*
X124448484Y-104914092D01*
X124448481Y-104914093D01*
X124301648Y-105004661D01*
X124237681Y-105068629D01*
X124176358Y-105102114D01*
X124106666Y-105097130D01*
X124062319Y-105068629D01*
X123998351Y-105004661D01*
X123998350Y-105004660D01*
X123851516Y-104914092D01*
X123687753Y-104859826D01*
X123687751Y-104859825D01*
X123586678Y-104849500D01*
X123013330Y-104849500D01*
X123013312Y-104849501D01*
X122912247Y-104859825D01*
X122748484Y-104914092D01*
X122748481Y-104914093D01*
X122601648Y-105004661D01*
X122481554Y-105124756D01*
X122420231Y-105158241D01*
X122350539Y-105153257D01*
X122306192Y-105124756D01*
X120961819Y-103780383D01*
X120928334Y-103719060D01*
X120925500Y-103692702D01*
X120925500Y-103044168D01*
X120945185Y-102977129D01*
X120997989Y-102931374D01*
X121067147Y-102921430D01*
X121118392Y-102941067D01*
X121145812Y-102959389D01*
X121145827Y-102959397D01*
X121283104Y-103016258D01*
X121291503Y-103019737D01*
X121446153Y-103050499D01*
X121446156Y-103050500D01*
X121446158Y-103050500D01*
X121603844Y-103050500D01*
X121603845Y-103050499D01*
X121758497Y-103019737D01*
X121904179Y-102959394D01*
X122035289Y-102871789D01*
X122146789Y-102760289D01*
X122234394Y-102629179D01*
X122294737Y-102483497D01*
X122325500Y-102328842D01*
X122325500Y-102171158D01*
X122325500Y-102171155D01*
X122325499Y-102171153D01*
X122320527Y-102146158D01*
X122294737Y-102016503D01*
X122265097Y-101944945D01*
X122234397Y-101870827D01*
X122234390Y-101870814D01*
X122146398Y-101739125D01*
X122125520Y-101672447D01*
X122125500Y-101670234D01*
X122125500Y-98375096D01*
X122134143Y-98345659D01*
X122140667Y-98315670D01*
X122144422Y-98310653D01*
X122145185Y-98308057D01*
X122161813Y-98287421D01*
X122213322Y-98235912D01*
X122274641Y-98202429D01*
X122344332Y-98207413D01*
X122400266Y-98249284D01*
X122424684Y-98314748D01*
X122425000Y-98323593D01*
X122425000Y-98386638D01*
X122425001Y-98386655D01*
X122435319Y-98487652D01*
X122489546Y-98651300D01*
X122489551Y-98651311D01*
X122580052Y-98798034D01*
X122580055Y-98798038D01*
X122693982Y-98911965D01*
X122727467Y-98973288D01*
X122722483Y-99042980D01*
X122693983Y-99087327D01*
X122579659Y-99201651D01*
X122489093Y-99348481D01*
X122489092Y-99348484D01*
X122434826Y-99512247D01*
X122434826Y-99512248D01*
X122434825Y-99512248D01*
X122424500Y-99613315D01*
X122424500Y-100211669D01*
X122424501Y-100211687D01*
X122434825Y-100312752D01*
X122455618Y-100375499D01*
X122489092Y-100476516D01*
X122579660Y-100623350D01*
X122701650Y-100745340D01*
X122848484Y-100835908D01*
X123012247Y-100890174D01*
X123113323Y-100900500D01*
X123686676Y-100900499D01*
X123686684Y-100900498D01*
X123686687Y-100900498D01*
X123742030Y-100894844D01*
X123787753Y-100890174D01*
X123951516Y-100835908D01*
X124098350Y-100745340D01*
X124137673Y-100706016D01*
X124198994Y-100672532D01*
X124268685Y-100677516D01*
X124313034Y-100706017D01*
X124351961Y-100744944D01*
X124351965Y-100744947D01*
X124498688Y-100835448D01*
X124498699Y-100835453D01*
X124662347Y-100889680D01*
X124763352Y-100899999D01*
X124800000Y-100899999D01*
X125300000Y-100899999D01*
X125336640Y-100899999D01*
X125336654Y-100899998D01*
X125437652Y-100889680D01*
X125601300Y-100835453D01*
X125601311Y-100835448D01*
X125748034Y-100744947D01*
X125748038Y-100744944D01*
X125837319Y-100655664D01*
X125898642Y-100622179D01*
X125968334Y-100627163D01*
X126012681Y-100655664D01*
X126101961Y-100744944D01*
X126101965Y-100744947D01*
X126248688Y-100835448D01*
X126248699Y-100835453D01*
X126412347Y-100889680D01*
X126513352Y-100899999D01*
X126550000Y-100899999D01*
X126550000Y-100112500D01*
X125300000Y-100112500D01*
X125300000Y-100899999D01*
X124800000Y-100899999D01*
X124800000Y-99986500D01*
X124819685Y-99919461D01*
X124872489Y-99873706D01*
X124924000Y-99862500D01*
X125050000Y-99862500D01*
X125050000Y-99748500D01*
X125069685Y-99681461D01*
X125122489Y-99635706D01*
X125174000Y-99624500D01*
X126676000Y-99624500D01*
X126743039Y-99644185D01*
X126788794Y-99696989D01*
X126800000Y-99748500D01*
X126800000Y-99862500D01*
X126926000Y-99862500D01*
X126993039Y-99882185D01*
X127038794Y-99934989D01*
X127050000Y-99986500D01*
X127050000Y-100899999D01*
X127086640Y-100899999D01*
X127086654Y-100899998D01*
X127187652Y-100889680D01*
X127351300Y-100835453D01*
X127351311Y-100835448D01*
X127498033Y-100744948D01*
X127586963Y-100656018D01*
X127648286Y-100622533D01*
X127717978Y-100627517D01*
X127762326Y-100656018D01*
X127851650Y-100745342D01*
X127998484Y-100835910D01*
X128162247Y-100890176D01*
X128263323Y-100900502D01*
X128836676Y-100900501D01*
X128836684Y-100900500D01*
X128836687Y-100900500D01*
X128892030Y-100894846D01*
X128937753Y-100890176D01*
X129101516Y-100835910D01*
X129248350Y-100745342D01*
X129370340Y-100623352D01*
X129460908Y-100476518D01*
X129515174Y-100312755D01*
X129525500Y-100211679D01*
X129525499Y-99513326D01*
X129515174Y-99412249D01*
X129460908Y-99248486D01*
X129370340Y-99101652D01*
X129356370Y-99087682D01*
X129322885Y-99026359D01*
X129327869Y-98956667D01*
X129356370Y-98912320D01*
X129356725Y-98911965D01*
X129370340Y-98898350D01*
X129460908Y-98751516D01*
X129515174Y-98587753D01*
X129525500Y-98486677D01*
X129525499Y-97788324D01*
X129515174Y-97687247D01*
X129460908Y-97523484D01*
X129370340Y-97376650D01*
X129248350Y-97254660D01*
X129133385Y-97183749D01*
X129101518Y-97164093D01*
X129101513Y-97164091D01*
X129100069Y-97163612D01*
X128937753Y-97109826D01*
X128937751Y-97109825D01*
X128836684Y-97099500D01*
X128836677Y-97099500D01*
X128500098Y-97099500D01*
X128433059Y-97079815D01*
X128412417Y-97063181D01*
X127443727Y-96094491D01*
X127410242Y-96033168D01*
X127415226Y-95963476D01*
X127457098Y-95907543D01*
X127462477Y-95903735D01*
X127510289Y-95871789D01*
X127621789Y-95760289D01*
X127709394Y-95629179D01*
X127710278Y-95627046D01*
X127711038Y-95626102D01*
X127712262Y-95623813D01*
X127712696Y-95624045D01*
X127754119Y-95572643D01*
X127820414Y-95550579D01*
X127824838Y-95550500D01*
X128496128Y-95550500D01*
X128563167Y-95570185D01*
X128601666Y-95609402D01*
X128679660Y-95735850D01*
X128801650Y-95857840D01*
X128948484Y-95948408D01*
X129112247Y-96002674D01*
X129213323Y-96013000D01*
X129786676Y-96012999D01*
X129786684Y-96012998D01*
X129786687Y-96012998D01*
X129842030Y-96007344D01*
X129887753Y-96002674D01*
X130051516Y-95948408D01*
X130198350Y-95857840D01*
X130287318Y-95768872D01*
X130348641Y-95735387D01*
X130418333Y-95740371D01*
X130462680Y-95768872D01*
X130514148Y-95820340D01*
X130660982Y-95910908D01*
X130824745Y-95965174D01*
X130925821Y-95975500D01*
X131624174Y-95975499D01*
X131624182Y-95975498D01*
X131624185Y-95975498D01*
X131679528Y-95969844D01*
X131725251Y-95965174D01*
X131889014Y-95910908D01*
X132035848Y-95820340D01*
X132050170Y-95806017D01*
X132111488Y-95772532D01*
X132181180Y-95777513D01*
X132225533Y-95806016D01*
X132239461Y-95819944D01*
X132239465Y-95819947D01*
X132386188Y-95910448D01*
X132386199Y-95910453D01*
X132549847Y-95964680D01*
X132650851Y-95974999D01*
X133250000Y-95974999D01*
X133349140Y-95974999D01*
X133349154Y-95974998D01*
X133450152Y-95964680D01*
X133613800Y-95910453D01*
X133613811Y-95910448D01*
X133760534Y-95819947D01*
X133760538Y-95819944D01*
X133882444Y-95698038D01*
X133882447Y-95698034D01*
X133972948Y-95551311D01*
X133972953Y-95551300D01*
X134027180Y-95387652D01*
X134037499Y-95286654D01*
X134037500Y-95286641D01*
X134037500Y-95250000D01*
X133250000Y-95250000D01*
X133250000Y-95974999D01*
X132650851Y-95974999D01*
X132750000Y-95974998D01*
X132750000Y-94750000D01*
X133250000Y-94750000D01*
X134037499Y-94750000D01*
X134037499Y-94713360D01*
X134037498Y-94713345D01*
X134027180Y-94612347D01*
X133972953Y-94448699D01*
X133972948Y-94448688D01*
X133882447Y-94301965D01*
X133882444Y-94301961D01*
X133760539Y-94180056D01*
X133756330Y-94177460D01*
X133709605Y-94125513D01*
X133698381Y-94056550D01*
X133726223Y-93992468D01*
X133733744Y-93984238D01*
X133819948Y-93898034D01*
X133910448Y-93751312D01*
X133910453Y-93751301D01*
X133964680Y-93587653D01*
X133974999Y-93486655D01*
X133975000Y-93486642D01*
X133975000Y-93387501D01*
X133250000Y-93387501D01*
X133250000Y-94750000D01*
X132750000Y-94750000D01*
X132750000Y-93261501D01*
X132769685Y-93194462D01*
X132822489Y-93148707D01*
X132874000Y-93137501D01*
X133000000Y-93137501D01*
X133000000Y-93011501D01*
X133019685Y-92944462D01*
X133072489Y-92898707D01*
X133124000Y-92887501D01*
X133974999Y-92887501D01*
X133974999Y-92788361D01*
X133974998Y-92788346D01*
X133964680Y-92687348D01*
X133910453Y-92523700D01*
X133910448Y-92523689D01*
X133819947Y-92376966D01*
X133819944Y-92376962D01*
X133806016Y-92363034D01*
X133772531Y-92301711D01*
X133777515Y-92232019D01*
X133806016Y-92187672D01*
X133820340Y-92173349D01*
X133910908Y-92026515D01*
X133965174Y-91862752D01*
X133975500Y-91761676D01*
X133975499Y-91063323D01*
X133965174Y-90962246D01*
X133910908Y-90798483D01*
X133820340Y-90651649D01*
X133698350Y-90529659D01*
X133561811Y-90445441D01*
X133551518Y-90439092D01*
X133551513Y-90439090D01*
X133510996Y-90425664D01*
X133387753Y-90384825D01*
X133387751Y-90384824D01*
X133286684Y-90374499D01*
X132824096Y-90374499D01*
X132757057Y-90354814D01*
X132711302Y-90302010D01*
X132701358Y-90232852D01*
X132730383Y-90169296D01*
X132736395Y-90162839D01*
X132924916Y-89974317D01*
X132986239Y-89940833D01*
X133012597Y-89937999D01*
X133386670Y-89937999D01*
X133386676Y-89937999D01*
X133487753Y-89927674D01*
X133651516Y-89873408D01*
X133798350Y-89782840D01*
X133920340Y-89660850D01*
X134010908Y-89514016D01*
X134065174Y-89350253D01*
X134075500Y-89249177D01*
X134075499Y-88650824D01*
X134065174Y-88549747D01*
X134010908Y-88385984D01*
X133920340Y-88239150D01*
X133806017Y-88124827D01*
X133772532Y-88063504D01*
X133777516Y-87993812D01*
X133806017Y-87949464D01*
X133919948Y-87835533D01*
X134010448Y-87688811D01*
X134010453Y-87688800D01*
X134064680Y-87525152D01*
X134074999Y-87424154D01*
X134075000Y-87424141D01*
X134075000Y-87375000D01*
X127974000Y-87375000D01*
X127906961Y-87355315D01*
X127861206Y-87302511D01*
X127850000Y-87251000D01*
X127850000Y-87125000D01*
X127724000Y-87125000D01*
X127656961Y-87105315D01*
X127611206Y-87052511D01*
X127600000Y-87001000D01*
X127600000Y-86875000D01*
X128100000Y-86875000D01*
X129350000Y-86875000D01*
X129850000Y-86875000D01*
X131100000Y-86875000D01*
X131600000Y-86875000D01*
X132850000Y-86875000D01*
X133350000Y-86875000D01*
X134074999Y-86875000D01*
X134074999Y-86825860D01*
X134074998Y-86825845D01*
X134064680Y-86724847D01*
X134010453Y-86561199D01*
X134010448Y-86561188D01*
X133919947Y-86414465D01*
X133919944Y-86414461D01*
X133798038Y-86292555D01*
X133798034Y-86292552D01*
X133651311Y-86202051D01*
X133651300Y-86202046D01*
X133487652Y-86147819D01*
X133386654Y-86137500D01*
X133350000Y-86137500D01*
X133350000Y-86875000D01*
X132850000Y-86875000D01*
X132850000Y-86137500D01*
X132813361Y-86137500D01*
X132813343Y-86137501D01*
X132712347Y-86147819D01*
X132548699Y-86202046D01*
X132548688Y-86202051D01*
X132401965Y-86292552D01*
X132401961Y-86292555D01*
X132312681Y-86381836D01*
X132251358Y-86415321D01*
X132181666Y-86410337D01*
X132137319Y-86381836D01*
X132048038Y-86292555D01*
X132048034Y-86292552D01*
X131901311Y-86202051D01*
X131901300Y-86202046D01*
X131737652Y-86147819D01*
X131636654Y-86137500D01*
X131600000Y-86137500D01*
X131600000Y-86875000D01*
X131100000Y-86875000D01*
X131100000Y-86137500D01*
X131063361Y-86137500D01*
X131063343Y-86137501D01*
X130962347Y-86147819D01*
X130798699Y-86202046D01*
X130798688Y-86202051D01*
X130651965Y-86292552D01*
X130651961Y-86292555D01*
X130562681Y-86381836D01*
X130501358Y-86415321D01*
X130431666Y-86410337D01*
X130387319Y-86381836D01*
X130298038Y-86292555D01*
X130298034Y-86292552D01*
X130151311Y-86202051D01*
X130151300Y-86202046D01*
X129987652Y-86147819D01*
X129886654Y-86137500D01*
X129850000Y-86137500D01*
X129850000Y-86875000D01*
X129350000Y-86875000D01*
X129350000Y-86137500D01*
X129313361Y-86137500D01*
X129313343Y-86137501D01*
X129212347Y-86147819D01*
X129048699Y-86202046D01*
X129048688Y-86202051D01*
X128901965Y-86292552D01*
X128901961Y-86292555D01*
X128812681Y-86381836D01*
X128751358Y-86415321D01*
X128681666Y-86410337D01*
X128637319Y-86381836D01*
X128548038Y-86292555D01*
X128548034Y-86292552D01*
X128401311Y-86202051D01*
X128401300Y-86202046D01*
X128237652Y-86147819D01*
X128136654Y-86137500D01*
X128100000Y-86137500D01*
X128100000Y-86875000D01*
X127600000Y-86875000D01*
X127600000Y-86137500D01*
X127563361Y-86137500D01*
X127563343Y-86137501D01*
X127462347Y-86147819D01*
X127298699Y-86202046D01*
X127298688Y-86202051D01*
X127151965Y-86292552D01*
X127063034Y-86381483D01*
X127001710Y-86414967D01*
X126932019Y-86409983D01*
X126887672Y-86381482D01*
X126798351Y-86292161D01*
X126798350Y-86292160D01*
X126707129Y-86235895D01*
X126651518Y-86201593D01*
X126651513Y-86201591D01*
X126650069Y-86201112D01*
X126487753Y-86147326D01*
X126487751Y-86147325D01*
X126386678Y-86137000D01*
X125813330Y-86137000D01*
X125813312Y-86137001D01*
X125712247Y-86147325D01*
X125548484Y-86201592D01*
X125548481Y-86201593D01*
X125401648Y-86292161D01*
X125312681Y-86381129D01*
X125251358Y-86414614D01*
X125181666Y-86409630D01*
X125137319Y-86381129D01*
X125048351Y-86292161D01*
X125048350Y-86292160D01*
X124957129Y-86235895D01*
X124901518Y-86201593D01*
X124901513Y-86201591D01*
X124900069Y-86201112D01*
X124737753Y-86147326D01*
X124737751Y-86147325D01*
X124636678Y-86137000D01*
X124063330Y-86137000D01*
X124063312Y-86137001D01*
X123962247Y-86147325D01*
X123798484Y-86201592D01*
X123798481Y-86201593D01*
X123651648Y-86292161D01*
X123529661Y-86414148D01*
X123439093Y-86560981D01*
X123439091Y-86560986D01*
X123411719Y-86643588D01*
X123384826Y-86724747D01*
X123384826Y-86724748D01*
X123384825Y-86724748D01*
X123374500Y-86825815D01*
X123374500Y-87424169D01*
X123374501Y-87424187D01*
X123384825Y-87525252D01*
X123421109Y-87634749D01*
X123439092Y-87689016D01*
X123529464Y-87835533D01*
X123529661Y-87835851D01*
X123643629Y-87949819D01*
X123677114Y-88011142D01*
X123672130Y-88080834D01*
X123643629Y-88125181D01*
X123529661Y-88239148D01*
X123439093Y-88385981D01*
X123439092Y-88385984D01*
X123384826Y-88549747D01*
X123384826Y-88549748D01*
X123384825Y-88549748D01*
X123374500Y-88650815D01*
X123374500Y-88775500D01*
X123354815Y-88842539D01*
X123302011Y-88888294D01*
X123250500Y-88899500D01*
X119524901Y-88899500D01*
X119457862Y-88879815D01*
X119419362Y-88840596D01*
X119395340Y-88801650D01*
X119273351Y-88679661D01*
X119273350Y-88679660D01*
X119126516Y-88589092D01*
X118962753Y-88534826D01*
X118962751Y-88534825D01*
X118861678Y-88524500D01*
X118263330Y-88524500D01*
X118263312Y-88524501D01*
X118162247Y-88534825D01*
X117998484Y-88589092D01*
X117998481Y-88589093D01*
X117851648Y-88679661D01*
X117737681Y-88793629D01*
X117676358Y-88827114D01*
X117606666Y-88822130D01*
X117562319Y-88793629D01*
X117448351Y-88679661D01*
X117448350Y-88679660D01*
X117301516Y-88589092D01*
X117137753Y-88534826D01*
X117137751Y-88534825D01*
X117036678Y-88524500D01*
X116438330Y-88524500D01*
X116438312Y-88524501D01*
X116337247Y-88534825D01*
X116173484Y-88589092D01*
X116173481Y-88589093D01*
X116026648Y-88679661D01*
X115904659Y-88801650D01*
X115880638Y-88840596D01*
X115828690Y-88887321D01*
X115775099Y-88899500D01*
X115367350Y-88899500D01*
X115300311Y-88879815D01*
X115298459Y-88878602D01*
X115204184Y-88815609D01*
X115204172Y-88815602D01*
X115058501Y-88755264D01*
X115058489Y-88755261D01*
X114903845Y-88724500D01*
X114903842Y-88724500D01*
X114746158Y-88724500D01*
X114746155Y-88724500D01*
X114591510Y-88755261D01*
X114591498Y-88755264D01*
X114445827Y-88815602D01*
X114445814Y-88815609D01*
X114314711Y-88903210D01*
X114314707Y-88903213D01*
X114203213Y-89014707D01*
X114203210Y-89014711D01*
X114115609Y-89145814D01*
X114115602Y-89145827D01*
X114055264Y-89291498D01*
X114055261Y-89291510D01*
X114024500Y-89446153D01*
X111950500Y-89446153D01*
X111950500Y-84106924D01*
X121915300Y-84106924D01*
X121915300Y-84327375D01*
X121930326Y-84441503D01*
X121944073Y-84545918D01*
X121957534Y-84596155D01*
X122001127Y-84758846D01*
X122085481Y-84962494D01*
X122085486Y-84962505D01*
X122195696Y-85153393D01*
X122195707Y-85153409D01*
X122329892Y-85328283D01*
X122329898Y-85328290D01*
X122485759Y-85484151D01*
X122485765Y-85484156D01*
X122660649Y-85618349D01*
X122660656Y-85618353D01*
X122851544Y-85728563D01*
X122851549Y-85728565D01*
X122851552Y-85728567D01*
X123055208Y-85812924D01*
X123268132Y-85869977D01*
X123486682Y-85898750D01*
X123486689Y-85898750D01*
X123707111Y-85898750D01*
X123707118Y-85898750D01*
X123925668Y-85869977D01*
X124138592Y-85812924D01*
X124342248Y-85728567D01*
X124533151Y-85618349D01*
X124708035Y-85484156D01*
X124863906Y-85328285D01*
X124998099Y-85153401D01*
X125108317Y-84962498D01*
X125192674Y-84758842D01*
X125249727Y-84545918D01*
X125278500Y-84327368D01*
X125278500Y-84106932D01*
X125249727Y-83888382D01*
X125192674Y-83675458D01*
X125108317Y-83471802D01*
X125108315Y-83471799D01*
X125108313Y-83471794D01*
X124998103Y-83280906D01*
X124998099Y-83280899D01*
X124954055Y-83223500D01*
X124922482Y-83182353D01*
X127949500Y-83182353D01*
X127949500Y-83340046D01*
X127980261Y-83494689D01*
X127980264Y-83494701D01*
X128040602Y-83640372D01*
X128040609Y-83640385D01*
X128128210Y-83771488D01*
X128128213Y-83771492D01*
X128239707Y-83882986D01*
X128239711Y-83882989D01*
X128370814Y-83970590D01*
X128370827Y-83970597D01*
X128516498Y-84030935D01*
X128516503Y-84030937D01*
X128671153Y-84061699D01*
X128671156Y-84061700D01*
X128834934Y-84061700D01*
X128834934Y-84063025D01*
X128896895Y-84074771D01*
X128947609Y-84122832D01*
X128964289Y-84190681D01*
X128943515Y-84254049D01*
X128915611Y-84295811D01*
X128915602Y-84295827D01*
X128855264Y-84441498D01*
X128855261Y-84441510D01*
X128824500Y-84596153D01*
X128824500Y-84753846D01*
X128855261Y-84908489D01*
X128855264Y-84908501D01*
X128915602Y-85054172D01*
X128915609Y-85054185D01*
X129003210Y-85185288D01*
X129003213Y-85185292D01*
X129114707Y-85296786D01*
X129114711Y-85296789D01*
X129245814Y-85384390D01*
X129245827Y-85384397D01*
X129391498Y-85444735D01*
X129391503Y-85444737D01*
X129546153Y-85475499D01*
X129546156Y-85475500D01*
X129546158Y-85475500D01*
X129703844Y-85475500D01*
X129703845Y-85475499D01*
X129858497Y-85444737D01*
X130004179Y-85384394D01*
X130135289Y-85296789D01*
X130246789Y-85185289D01*
X130334394Y-85054179D01*
X130394737Y-84908497D01*
X130425500Y-84753842D01*
X130425500Y-84596158D01*
X130425500Y-84596155D01*
X130425499Y-84596153D01*
X130394737Y-84441503D01*
X130347464Y-84327375D01*
X130334397Y-84295827D01*
X130334390Y-84295814D01*
X130246789Y-84164711D01*
X130246786Y-84164707D01*
X130135292Y-84053213D01*
X130135288Y-84053210D01*
X130004185Y-83965609D01*
X130004172Y-83965602D01*
X129858501Y-83905264D01*
X129858489Y-83905261D01*
X129703845Y-83874500D01*
X129703842Y-83874500D01*
X129546158Y-83874500D01*
X129540066Y-83874500D01*
X129540066Y-83873179D01*
X129478082Y-83861417D01*
X129427378Y-83813346D01*
X129410711Y-83745493D01*
X129431485Y-83682147D01*
X129459394Y-83640379D01*
X129519737Y-83494697D01*
X129550500Y-83340042D01*
X129550500Y-83182358D01*
X129550500Y-83182355D01*
X129550499Y-83182353D01*
X129540561Y-83132390D01*
X129519737Y-83027703D01*
X129487613Y-82950148D01*
X129459397Y-82882027D01*
X129459390Y-82882014D01*
X129371789Y-82750911D01*
X129371786Y-82750907D01*
X129260292Y-82639413D01*
X129260288Y-82639410D01*
X129129185Y-82551809D01*
X129129172Y-82551802D01*
X128983501Y-82491464D01*
X128983491Y-82491461D01*
X128828845Y-82460700D01*
X128828842Y-82460700D01*
X128671158Y-82460700D01*
X128671155Y-82460700D01*
X128516510Y-82491461D01*
X128516498Y-82491464D01*
X128370827Y-82551802D01*
X128370814Y-82551809D01*
X128239711Y-82639410D01*
X128239707Y-82639413D01*
X128128213Y-82750907D01*
X128128210Y-82750911D01*
X128040609Y-82882014D01*
X128040602Y-82882027D01*
X127980264Y-83027698D01*
X127980261Y-83027710D01*
X127949500Y-83182353D01*
X124922482Y-83182353D01*
X124863907Y-83106016D01*
X124863901Y-83106009D01*
X124708040Y-82950148D01*
X124708033Y-82950142D01*
X124533159Y-82815957D01*
X124533157Y-82815955D01*
X124533151Y-82815951D01*
X124533146Y-82815948D01*
X124533143Y-82815946D01*
X124342255Y-82705736D01*
X124342244Y-82705731D01*
X124138596Y-82621377D01*
X123925664Y-82564322D01*
X123707125Y-82535550D01*
X123707118Y-82535550D01*
X123486682Y-82535550D01*
X123486674Y-82535550D01*
X123268135Y-82564322D01*
X123055203Y-82621377D01*
X122851555Y-82705731D01*
X122851544Y-82705736D01*
X122660656Y-82815946D01*
X122660640Y-82815957D01*
X122485766Y-82950142D01*
X122485759Y-82950148D01*
X122329898Y-83106009D01*
X122329892Y-83106016D01*
X122195707Y-83280890D01*
X122195696Y-83280906D01*
X122085486Y-83471794D01*
X122085481Y-83471805D01*
X122001127Y-83675453D01*
X121944072Y-83888385D01*
X121915300Y-84106924D01*
X111950500Y-84106924D01*
X111950500Y-82344153D01*
X129755500Y-82344153D01*
X129755500Y-82501846D01*
X129786261Y-82656489D01*
X129786264Y-82656501D01*
X129846602Y-82802172D01*
X129846609Y-82802185D01*
X129934210Y-82933288D01*
X129934213Y-82933292D01*
X130045707Y-83044786D01*
X130045711Y-83044789D01*
X130176814Y-83132390D01*
X130176827Y-83132397D01*
X130322498Y-83192735D01*
X130322503Y-83192737D01*
X130477153Y-83223499D01*
X130477156Y-83223500D01*
X130477158Y-83223500D01*
X130634844Y-83223500D01*
X130634845Y-83223499D01*
X130789497Y-83192737D01*
X130935179Y-83132394D01*
X131066289Y-83044789D01*
X131177789Y-82933289D01*
X131265394Y-82802179D01*
X131325737Y-82656497D01*
X131356500Y-82501842D01*
X131356500Y-82344158D01*
X131356500Y-82344155D01*
X131356499Y-82344153D01*
X131325738Y-82189510D01*
X131325737Y-82189503D01*
X131325735Y-82189498D01*
X131265397Y-82043827D01*
X131265390Y-82043814D01*
X131177789Y-81912711D01*
X131177786Y-81912707D01*
X131066292Y-81801213D01*
X131066288Y-81801210D01*
X130935185Y-81713609D01*
X130935172Y-81713602D01*
X130789501Y-81653264D01*
X130789489Y-81653261D01*
X130634845Y-81622500D01*
X130634842Y-81622500D01*
X130477158Y-81622500D01*
X130477155Y-81622500D01*
X130322510Y-81653261D01*
X130322498Y-81653264D01*
X130176827Y-81713602D01*
X130176814Y-81713609D01*
X130045711Y-81801210D01*
X130045707Y-81801213D01*
X129934213Y-81912707D01*
X129934210Y-81912711D01*
X129846609Y-82043814D01*
X129846602Y-82043827D01*
X129786264Y-82189498D01*
X129786261Y-82189510D01*
X129755500Y-82344153D01*
X111950500Y-82344153D01*
X111950500Y-78595171D01*
X121915800Y-78595171D01*
X121915800Y-78815528D01*
X121915801Y-78815544D01*
X121944563Y-79034018D01*
X122001600Y-79246883D01*
X122085929Y-79450470D01*
X122085933Y-79450479D01*
X122196117Y-79641323D01*
X122244421Y-79704273D01*
X122786883Y-79161811D01*
X122876774Y-79296342D01*
X123005908Y-79425476D01*
X123140437Y-79515365D01*
X122597975Y-80057827D01*
X122660926Y-80106131D01*
X122660933Y-80106136D01*
X122851770Y-80216316D01*
X122851779Y-80216320D01*
X123055366Y-80300649D01*
X123268231Y-80357686D01*
X123486705Y-80386448D01*
X123486722Y-80386450D01*
X123707078Y-80386450D01*
X123707094Y-80386448D01*
X123925568Y-80357686D01*
X124138433Y-80300649D01*
X124342020Y-80216320D01*
X124342029Y-80216316D01*
X124532869Y-80106134D01*
X124595823Y-80057827D01*
X124595823Y-80057826D01*
X124053362Y-79515366D01*
X124187892Y-79425476D01*
X124317026Y-79296342D01*
X124406916Y-79161812D01*
X124949376Y-79704273D01*
X124949377Y-79704273D01*
X124997684Y-79641319D01*
X125107866Y-79450479D01*
X125107870Y-79450470D01*
X125192199Y-79246883D01*
X125249236Y-79034018D01*
X125277998Y-78815544D01*
X125278000Y-78815528D01*
X125278000Y-78595171D01*
X125277998Y-78595155D01*
X125249236Y-78376681D01*
X125192199Y-78163816D01*
X125107870Y-77960229D01*
X125107866Y-77960220D01*
X124997686Y-77769383D01*
X124997681Y-77769376D01*
X124949377Y-77706425D01*
X124406915Y-78248886D01*
X124317026Y-78114358D01*
X124187892Y-77985224D01*
X124053362Y-77895333D01*
X124595823Y-77352871D01*
X124532873Y-77304567D01*
X124342029Y-77194383D01*
X124342020Y-77194379D01*
X124138433Y-77110050D01*
X123925568Y-77053013D01*
X123707094Y-77024251D01*
X123707078Y-77024250D01*
X123486722Y-77024250D01*
X123486705Y-77024251D01*
X123268231Y-77053013D01*
X123055366Y-77110050D01*
X122851779Y-77194379D01*
X122851769Y-77194383D01*
X122660936Y-77304560D01*
X122660929Y-77304566D01*
X122597975Y-77352870D01*
X122597975Y-77352871D01*
X123140437Y-77895333D01*
X123005908Y-77985224D01*
X122876774Y-78114358D01*
X122786883Y-78248887D01*
X122244421Y-77706425D01*
X122244420Y-77706425D01*
X122196116Y-77769379D01*
X122196110Y-77769386D01*
X122085933Y-77960219D01*
X122085929Y-77960229D01*
X122001600Y-78163816D01*
X121944563Y-78376681D01*
X121915801Y-78595155D01*
X121915800Y-78595171D01*
X111950500Y-78595171D01*
X111950500Y-72503245D01*
X111950670Y-72496756D01*
X111952590Y-72460118D01*
X111966865Y-72187709D01*
X111968219Y-72174837D01*
X112016123Y-71872387D01*
X112018816Y-71859711D01*
X112098074Y-71563917D01*
X112102082Y-71551585D01*
X112184776Y-71336160D01*
X112211818Y-71265713D01*
X112217083Y-71253885D01*
X112356118Y-70981014D01*
X112362584Y-70969816D01*
X112529374Y-70712982D01*
X112536976Y-70702519D01*
X112729701Y-70464522D01*
X112738368Y-70454897D01*
X112954897Y-70238368D01*
X112964522Y-70229701D01*
X113202519Y-70036976D01*
X113212982Y-70029374D01*
X113469816Y-69862584D01*
X113481014Y-69856118D01*
X113753885Y-69717083D01*
X113765713Y-69711818D01*
X114051589Y-69602080D01*
X114063917Y-69598074D01*
X114359711Y-69518816D01*
X114372387Y-69516123D01*
X114674837Y-69468219D01*
X114687709Y-69466865D01*
X114996756Y-69450669D01*
X115003245Y-69450500D01*
X115039882Y-69450500D01*
X123132556Y-69450500D01*
X123199595Y-69470185D01*
G37*
%TD.AperFunction*%
%TD*%
M02*
