%TF.GenerationSoftware,KiCad,Pcbnew,9.0.8-9.0.8~ubuntu22.04.1*%
%TF.CreationDate,2026-03-31T20:11:36-05:00*%
%TF.ProjectId,Jetson_PD_Board,4a657473-6f6e-45f5-9044-5f426f617264,rev?*%
%TF.SameCoordinates,Original*%
%TF.FileFunction,Soldermask,Bot*%
%TF.FilePolarity,Negative*%
%FSLAX46Y46*%
G04 Gerber Fmt 4.6, Leading zero omitted, Abs format (unit mm)*
G04 Created by KiCad (PCBNEW 9.0.8-9.0.8~ubuntu22.04.1) date 2026-03-31 20:11:36*
%MOMM*%
%LPD*%
G01*
G04 APERTURE LIST*
G04 Aperture macros list*
%AMRoundRect*
0 Rectangle with rounded corners*
0 $1 Rounding radius*
0 $2 $3 $4 $5 $6 $7 $8 $9 X,Y pos of 4 corners*
0 Add a 4 corners polygon primitive as box body*
4,1,4,$2,$3,$4,$5,$6,$7,$8,$9,$2,$3,0*
0 Add four circle primitives for the rounded corners*
1,1,$1+$1,$2,$3*
1,1,$1+$1,$4,$5*
1,1,$1+$1,$6,$7*
1,1,$1+$1,$8,$9*
0 Add four rect primitives between the rounded corners*
20,1,$1+$1,$2,$3,$4,$5,0*
20,1,$1+$1,$4,$5,$6,$7,0*
20,1,$1+$1,$6,$7,$8,$9,0*
20,1,$1+$1,$8,$9,$2,$3,0*%
G04 Aperture macros list end*
%ADD10C,3.600000*%
%ADD11C,5.500000*%
%ADD12C,0.650000*%
%ADD13O,1.204000X2.304000*%
%ADD14O,1.204000X2.004000*%
%ADD15C,3.048000*%
%ADD16C,2.566200*%
%ADD17RoundRect,0.237500X-0.237500X0.250000X-0.237500X-0.250000X0.237500X-0.250000X0.237500X0.250000X0*%
%ADD18RoundRect,0.237500X-0.250000X-0.237500X0.250000X-0.237500X0.250000X0.237500X-0.250000X0.237500X0*%
%ADD19RoundRect,0.237500X0.237500X-0.250000X0.237500X0.250000X-0.237500X0.250000X-0.237500X-0.250000X0*%
%ADD20RoundRect,0.102000X-0.375000X-0.150000X0.375000X-0.150000X0.375000X0.150000X-0.375000X0.150000X0*%
%ADD21RoundRect,0.102000X-0.150000X-0.375000X0.150000X-0.375000X0.150000X0.375000X-0.150000X0.375000X0*%
%ADD22RoundRect,0.102000X-1.350000X-1.350000X1.350000X-1.350000X1.350000X1.350000X-1.350000X1.350000X0*%
%ADD23RoundRect,0.237500X-0.237500X0.300000X-0.237500X-0.300000X0.237500X-0.300000X0.237500X0.300000X0*%
%ADD24RoundRect,0.237500X0.237500X-0.300000X0.237500X0.300000X-0.237500X0.300000X-0.237500X-0.300000X0*%
%ADD25RoundRect,0.237500X0.300000X0.237500X-0.300000X0.237500X-0.300000X-0.237500X0.300000X-0.237500X0*%
%ADD26RoundRect,0.237500X0.250000X0.237500X-0.250000X0.237500X-0.250000X-0.237500X0.250000X-0.237500X0*%
%ADD27RoundRect,0.237500X-0.300000X-0.237500X0.300000X-0.237500X0.300000X0.237500X-0.300000X0.237500X0*%
G04 APERTURE END LIST*
D10*
%TO.C,H8*%
X132250000Y-111685000D03*
D11*
X132250000Y-111685000D03*
%TD*%
D12*
%TO.C,J3*%
X121158000Y-109982000D03*
X126938000Y-109982000D03*
D13*
X119728000Y-109482000D03*
X128368000Y-109482000D03*
D14*
X119728000Y-113662000D03*
X128368000Y-113662000D03*
%TD*%
D10*
%TO.C,H7*%
X115000000Y-111685000D03*
D11*
X115000000Y-111685000D03*
%TD*%
D10*
%TO.C,H5*%
X115000000Y-72500000D03*
D11*
X115000000Y-72500000D03*
%TD*%
D15*
%TO.C,J2*%
X123596900Y-71415550D03*
D16*
X123596900Y-78705350D03*
X123596900Y-84217150D03*
%TD*%
D10*
%TO.C,H6*%
X132250000Y-72500000D03*
D11*
X132250000Y-72500000D03*
%TD*%
D17*
%TO.C,R16*%
X123300000Y-105837500D03*
X123300000Y-107662500D03*
%TD*%
D18*
%TO.C,R13*%
X116737500Y-89500000D03*
X118562500Y-89500000D03*
%TD*%
D19*
%TO.C,R8*%
X127850000Y-88950000D03*
X127850000Y-87125000D03*
%TD*%
%TO.C,R9*%
X131350000Y-88950000D03*
X131350000Y-87125000D03*
%TD*%
D20*
%TO.C,U1*%
X123075000Y-94575000D03*
X123075000Y-94075000D03*
X123075000Y-93575000D03*
X123075000Y-93075000D03*
X123075000Y-92575000D03*
X123075000Y-92075000D03*
D21*
X123750000Y-91400000D03*
X124250000Y-91400000D03*
X124750000Y-91400000D03*
X125250000Y-91400000D03*
X125750000Y-91400000D03*
X126250000Y-91400000D03*
D20*
X126925000Y-92075000D03*
X126925000Y-92575000D03*
X126925000Y-93075000D03*
X126925000Y-93575000D03*
X126925000Y-94075000D03*
X126925000Y-94575000D03*
D21*
X126250000Y-95250000D03*
X125750000Y-95250000D03*
X125250000Y-95250000D03*
X124750000Y-95250000D03*
X124250000Y-95250000D03*
X123750000Y-95250000D03*
D22*
X125000000Y-93325000D03*
%TD*%
D19*
%TO.C,R2*%
X129600000Y-88950000D03*
X129600000Y-87125000D03*
%TD*%
%TO.C,R3*%
X123400000Y-99912500D03*
X123400000Y-98087500D03*
%TD*%
D23*
%TO.C,C6*%
X129500000Y-93250000D03*
X129500000Y-94975000D03*
%TD*%
D24*
%TO.C,C5*%
X128550000Y-99862502D03*
X128550000Y-98137500D03*
%TD*%
D17*
%TO.C,R7*%
X126100000Y-87125000D03*
X126100000Y-88950000D03*
%TD*%
D23*
%TO.C,C4*%
X133000000Y-91412499D03*
X133000000Y-93137501D03*
%TD*%
D25*
%TO.C,C11*%
X118525000Y-91235399D03*
X116800000Y-91235399D03*
%TD*%
D26*
%TO.C,R15*%
X118525000Y-96485399D03*
X116700000Y-96485399D03*
%TD*%
D19*
%TO.C,R10*%
X133100000Y-88950000D03*
X133100000Y-87125000D03*
%TD*%
D26*
%TO.C,R14*%
X118525000Y-94735399D03*
X116700000Y-94735399D03*
%TD*%
D17*
%TO.C,R4*%
X131250000Y-91362500D03*
X131250000Y-93187500D03*
%TD*%
%TO.C,R17*%
X125000000Y-105837500D03*
X125000000Y-107662500D03*
%TD*%
%TO.C,R6*%
X124350000Y-87125000D03*
X124350000Y-88950000D03*
%TD*%
D23*
%TO.C,C7*%
X125050000Y-98137500D03*
X125050000Y-99862500D03*
%TD*%
%TO.C,C8*%
X126800000Y-98137500D03*
X126800000Y-99862500D03*
%TD*%
D27*
%TO.C,C3*%
X131274998Y-95000000D03*
X133000000Y-95000000D03*
%TD*%
D23*
%TO.C,C14*%
X118450000Y-99337499D03*
X118450000Y-101062501D03*
%TD*%
D26*
%TO.C,TH1*%
X118562500Y-92985399D03*
X116737500Y-92985399D03*
%TD*%
M02*
